<svg width="1600" height="533" viewBox="0 0 1600 533" fill="none" xmlns="http://www.w3.org/2000/svg">
<rect width="1600" height="533" fill="white"/>
<path d="M835 115C835 106.163 842.163 99 851 99H1136C1144.84 99 1152 106.163 1152 115V488C1152 496.837 1144.84 504 1136 504H851C842.163 504 835 496.837 835 488V115Z" fill="#F6F6F6"/>
<path d="M1233 115C1233 106.163 1240.16 99 1249 99H1534C1542.84 99 1550 106.163 1550 115V488C1550 496.837 1542.84 504 1534 504H1249C1240.16 504 1233 496.837 1233 488V115Z" fill="#F6F6F6"/>
<path d="M50 115C50 106.163 57.1634 99 66 99H735C743.837 99 751 106.163 751 115V488C751 496.837 743.837 504 735 504H66C57.1634 504 50 496.837 50 488V115Z" fill="#F6F6F6"/>
<rect x="450.842" y="135" width="286.961" height="118.263" rx="10" fill="#00C7BE"/>
<path d="M509.346 181.273L516.687 202.088H516.977L524.318 181.273H527.457L518.378 206H515.287L506.207 181.273H509.346ZM530.922 206V187.455H533.772V206H530.922ZM532.371 184.364C531.816 184.364 531.337 184.174 530.934 183.796C530.54 183.418 530.343 182.963 530.343 182.432C530.343 181.901 530.54 181.446 530.934 181.067C531.337 180.689 531.816 180.5 532.371 180.5C532.927 180.5 533.402 180.689 533.796 181.067C534.198 181.446 534.4 181.901 534.4 182.432C534.4 182.963 534.198 183.418 533.796 183.796C533.402 184.174 532.927 184.364 532.371 184.364ZM546.766 206.386C544.979 206.386 543.438 205.992 542.142 205.203C540.854 204.406 539.86 203.295 539.16 201.871C538.468 200.438 538.121 198.772 538.121 196.872C538.121 194.973 538.468 193.298 539.16 191.849C539.86 190.393 540.834 189.258 542.082 188.445C543.337 187.624 544.802 187.213 546.477 187.213C547.442 187.213 548.396 187.374 549.338 187.696C550.28 188.018 551.137 188.541 551.91 189.266C552.683 189.982 553.298 190.932 553.757 192.115C554.216 193.298 554.445 194.755 554.445 196.486V197.693H540.15V195.23H551.548C551.548 194.184 551.338 193.25 550.92 192.429C550.509 191.608 549.922 190.96 549.157 190.485C548.4 190.01 547.507 189.773 546.477 189.773C545.342 189.773 544.36 190.054 543.531 190.618C542.71 191.173 542.078 191.898 541.635 192.791C541.192 193.685 540.971 194.643 540.971 195.665V197.307C540.971 198.707 541.212 199.895 541.695 200.869C542.186 201.835 542.866 202.571 543.736 203.078C544.605 203.577 545.615 203.827 546.766 203.827C547.515 203.827 548.191 203.722 548.795 203.513C549.406 203.295 549.934 202.973 550.376 202.547C550.819 202.112 551.161 201.573 551.403 200.929L554.156 201.702C553.866 202.635 553.379 203.456 552.695 204.165C552.01 204.865 551.165 205.412 550.159 205.807C549.153 206.193 548.022 206.386 546.766 206.386ZM562.982 206L557.331 187.455H560.325L564.334 201.653H564.527L568.487 187.455H571.53L575.442 201.605H575.635L579.643 187.455H582.638L576.987 206H574.186L570.129 191.753H569.839L565.783 206H562.982ZM586.791 181.273H590.365L598.768 201.798H599.058L607.462 181.273H611.035V206H608.234V187.213H607.993L600.266 206H597.561L589.834 187.213H589.592V206H586.791V181.273ZM624.187 206.386C622.513 206.386 621.044 205.988 619.78 205.191C618.524 204.394 617.542 203.279 616.834 201.847C616.134 200.414 615.784 198.74 615.784 196.824C615.784 194.892 616.134 193.206 616.834 191.765C617.542 190.324 618.524 189.205 619.78 188.408C621.044 187.612 622.513 187.213 624.187 187.213C625.861 187.213 627.326 187.612 628.582 188.408C629.846 189.205 630.828 190.324 631.528 191.765C632.236 193.206 632.59 194.892 632.59 196.824C632.59 198.74 632.236 200.414 631.528 201.847C630.828 203.279 629.846 204.394 628.582 205.191C627.326 205.988 625.861 206.386 624.187 206.386ZM624.187 203.827C625.459 203.827 626.505 203.501 627.326 202.849C628.147 202.197 628.755 201.339 629.149 200.277C629.544 199.214 629.741 198.063 629.741 196.824C629.741 195.584 629.544 194.429 629.149 193.359C628.755 192.288 628.147 191.423 627.326 190.763C626.505 190.103 625.459 189.773 624.187 189.773C622.915 189.773 621.869 190.103 621.048 190.763C620.227 191.423 619.619 192.288 619.225 193.359C618.83 194.429 618.633 195.584 618.633 196.824C618.633 198.063 618.83 199.214 619.225 200.277C619.619 201.339 620.227 202.197 621.048 202.849C621.869 203.501 622.915 203.827 624.187 203.827ZM643.943 206.386C642.397 206.386 641.033 205.996 639.85 205.215C638.667 204.426 637.741 203.316 637.073 201.883C636.405 200.442 636.071 198.74 636.071 196.776C636.071 194.828 636.405 193.137 637.073 191.705C637.741 190.272 638.671 189.165 639.862 188.384C641.053 187.603 642.43 187.213 643.991 187.213C645.198 187.213 646.152 187.414 646.853 187.817C647.561 188.211 648.1 188.662 648.471 189.169C648.849 189.668 649.143 190.079 649.352 190.401H649.593V181.273H652.443V206H649.69V203.151H649.352C649.143 203.489 648.845 203.915 648.458 204.43C648.072 204.937 647.521 205.392 646.804 205.795C646.088 206.189 645.134 206.386 643.943 206.386ZM644.329 203.827C645.472 203.827 646.438 203.529 647.227 202.933C648.016 202.33 648.615 201.496 649.026 200.434C649.436 199.363 649.642 198.128 649.642 196.727C649.642 195.343 649.44 194.131 649.038 193.093C648.636 192.047 648.04 191.234 647.251 190.654C646.462 190.067 645.488 189.773 644.329 189.773C643.122 189.773 642.116 190.083 641.311 190.702C640.514 191.314 639.914 192.147 639.512 193.202C639.117 194.248 638.92 195.423 638.92 196.727C638.92 198.047 639.121 199.247 639.524 200.325C639.934 201.396 640.538 202.249 641.335 202.885C642.14 203.513 643.138 203.827 644.329 203.827ZM665.833 206.386C664.046 206.386 662.504 205.992 661.208 205.203C659.921 204.406 658.926 203.295 658.226 201.871C657.534 200.438 657.188 198.772 657.188 196.872C657.188 194.973 657.534 193.298 658.226 191.849C658.926 190.393 659.9 189.258 661.148 188.445C662.404 187.624 663.869 187.213 665.543 187.213C666.509 187.213 667.463 187.374 668.404 187.696C669.346 188.018 670.203 188.541 670.976 189.266C671.749 189.982 672.365 190.932 672.823 192.115C673.282 193.298 673.512 194.755 673.512 196.486V197.693H659.216V195.23H670.614C670.614 194.184 670.405 193.25 669.986 192.429C669.576 191.608 668.988 190.96 668.223 190.485C667.467 190.01 666.573 189.773 665.543 189.773C664.408 189.773 663.426 190.054 662.597 190.618C661.776 191.173 661.144 191.898 660.701 192.791C660.259 193.685 660.037 194.643 660.037 195.665V197.307C660.037 198.707 660.279 199.895 660.762 200.869C661.253 201.835 661.933 202.571 662.802 203.078C663.672 203.577 664.682 203.827 665.833 203.827C666.581 203.827 667.257 203.722 667.861 203.513C668.473 203.295 669 202.973 669.443 202.547C669.886 202.112 670.228 201.573 670.469 200.929L673.222 201.702C672.932 202.635 672.445 203.456 671.761 204.165C671.077 204.865 670.232 205.412 669.225 205.807C668.219 206.193 667.088 206.386 665.833 206.386ZM680.696 181.273V206H677.846V181.273H680.696Z" fill="white"/>
<rect x="850.935" y="135" width="286.961" height="118.263" rx="10" fill="#007AFF"/>
<path d="M944.408 181.273H947.403V197.645C947.403 199.335 947.004 200.844 946.207 202.173C945.419 203.493 944.304 204.535 942.863 205.3C941.422 206.056 939.732 206.435 937.792 206.435C935.852 206.435 934.162 206.056 932.721 205.3C931.28 204.535 930.161 203.493 929.364 202.173C928.575 200.844 928.181 199.335 928.181 197.645V181.273H931.175V197.403C931.175 198.611 931.441 199.685 931.972 200.627C932.504 201.561 933.26 202.297 934.242 202.837C935.232 203.368 936.415 203.634 937.792 203.634C939.168 203.634 940.352 203.368 941.342 202.837C942.332 202.297 943.088 201.561 943.611 200.627C944.143 199.685 944.408 198.611 944.408 197.403V181.273ZM966.132 191.608L963.573 192.332C963.412 191.906 963.174 191.491 962.86 191.089C962.554 190.678 962.136 190.34 961.605 190.075C961.073 189.809 960.393 189.676 959.564 189.676C958.429 189.676 957.483 189.938 956.727 190.461C955.978 190.976 955.604 191.632 955.604 192.429C955.604 193.137 955.861 193.697 956.377 194.107C956.892 194.518 957.697 194.86 958.791 195.134L961.544 195.81C963.202 196.212 964.438 196.828 965.251 197.657C966.064 198.478 966.47 199.536 966.47 200.832C966.47 201.895 966.164 202.845 965.553 203.682C964.949 204.519 964.104 205.179 963.017 205.662C961.931 206.145 960.667 206.386 959.226 206.386C957.334 206.386 955.769 205.976 954.529 205.155C953.29 204.334 952.505 203.134 952.175 201.557L954.879 200.881C955.137 201.879 955.624 202.627 956.34 203.126C957.065 203.625 958.011 203.875 959.178 203.875C960.506 203.875 961.56 203.593 962.341 203.03C963.13 202.458 963.524 201.774 963.524 200.977C963.524 200.333 963.299 199.794 962.848 199.359C962.397 198.917 961.705 198.587 960.771 198.369L957.681 197.645C955.982 197.242 954.735 196.619 953.938 195.773C953.149 194.92 952.754 193.854 952.754 192.574C952.754 191.527 953.048 190.602 953.636 189.797C954.231 188.992 955.04 188.36 956.063 187.901C957.093 187.442 958.26 187.213 959.564 187.213C961.399 187.213 962.84 187.616 963.887 188.42C964.941 189.225 965.69 190.288 966.132 191.608ZM978.535 206.386C976.748 206.386 975.207 205.992 973.911 205.203C972.623 204.406 971.629 203.295 970.929 201.871C970.236 200.438 969.89 198.772 969.89 196.872C969.89 194.973 970.236 193.298 970.929 191.849C971.629 190.393 972.603 189.258 973.85 188.445C975.106 187.624 976.571 187.213 978.245 187.213C979.211 187.213 980.165 187.374 981.107 187.696C982.049 188.018 982.906 188.541 983.679 189.266C984.451 189.982 985.067 190.932 985.526 192.115C985.985 193.298 986.214 194.755 986.214 196.486V197.693H971.919V195.23H983.316C983.316 194.184 983.107 193.25 982.689 192.429C982.278 191.608 981.69 190.96 980.926 190.485C980.169 190.01 979.276 189.773 978.245 189.773C977.11 189.773 976.128 190.054 975.299 190.618C974.478 191.173 973.846 191.898 973.404 192.791C972.961 193.685 972.74 194.643 972.74 195.665V197.307C972.74 198.707 972.981 199.895 973.464 200.869C973.955 201.835 974.635 202.571 975.505 203.078C976.374 203.577 977.384 203.827 978.535 203.827C979.284 203.827 979.96 203.722 980.564 203.513C981.175 203.295 981.702 202.973 982.145 202.547C982.588 202.112 982.93 201.573 983.171 200.929L985.924 201.702C985.635 202.635 985.148 203.456 984.463 204.165C983.779 204.865 982.934 205.412 981.928 205.807C980.922 206.193 979.791 206.386 978.535 206.386ZM998.083 206.386C996.344 206.386 994.847 205.976 993.591 205.155C992.336 204.334 991.37 203.203 990.693 201.762C990.017 200.321 989.679 198.675 989.679 196.824C989.679 194.94 990.025 193.278 990.718 191.837C991.418 190.388 992.392 189.258 993.64 188.445C994.895 187.624 996.36 187.213 998.034 187.213C999.338 187.213 1000.51 187.455 1001.56 187.938C1002.61 188.42 1003.46 189.097 1004.13 189.966C1004.8 190.835 1005.21 191.849 1005.38 193.009H1002.53C1002.31 192.163 1001.83 191.415 1001.08 190.763C1000.34 190.103 999.338 189.773 998.083 189.773C996.972 189.773 995.998 190.062 995.161 190.642C994.332 191.214 993.684 192.022 993.217 193.069C992.758 194.107 992.529 195.327 992.529 196.727C992.529 198.16 992.754 199.408 993.205 200.47C993.664 201.533 994.308 202.358 995.137 202.945C995.974 203.533 996.956 203.827 998.083 203.827C998.823 203.827 999.495 203.698 1000.1 203.44C1000.7 203.183 1001.21 202.812 1001.63 202.33C1002.05 201.847 1002.35 201.267 1002.53 200.591H1005.38C1005.21 201.686 1004.82 202.672 1004.18 203.549C1003.55 204.418 1002.72 205.111 1001.68 205.626C1000.65 206.133 999.451 206.386 998.083 206.386ZM1015 206.435C1013.82 206.435 1012.76 206.213 1011.8 205.771C1010.84 205.32 1010.08 204.672 1009.52 203.827C1008.95 202.973 1008.67 201.943 1008.67 200.736C1008.67 199.673 1008.88 198.812 1009.3 198.152C1009.72 197.484 1010.28 196.961 1010.98 196.582C1011.68 196.204 1012.45 195.922 1013.3 195.737C1014.15 195.544 1015.01 195.391 1015.87 195.278C1016.99 195.134 1017.91 195.025 1018.61 194.952C1019.32 194.872 1019.83 194.739 1020.15 194.554C1020.48 194.369 1020.65 194.047 1020.65 193.588V193.491C1020.65 192.3 1020.32 191.375 1019.67 190.714C1019.03 190.054 1018.05 189.724 1016.74 189.724C1015.38 189.724 1014.31 190.022 1013.54 190.618C1012.76 191.214 1012.22 191.849 1011.91 192.526L1009.2 191.56C1009.69 190.433 1010.33 189.555 1011.13 188.928C1011.95 188.292 1012.83 187.849 1013.79 187.599C1014.76 187.342 1015.71 187.213 1016.64 187.213C1017.24 187.213 1017.92 187.286 1018.69 187.43C1019.47 187.567 1020.23 187.853 1020.95 188.288C1021.68 188.722 1022.29 189.378 1022.77 190.256C1023.26 191.133 1023.5 192.308 1023.5 193.781V206H1020.65V203.489H1020.5C1020.31 203.891 1019.99 204.322 1019.54 204.781C1019.09 205.239 1018.49 205.63 1017.74 205.952C1016.99 206.274 1016.08 206.435 1015 206.435ZM1015.43 203.875C1016.56 203.875 1017.51 203.654 1018.28 203.211C1019.06 202.768 1019.65 202.197 1020.05 201.496C1020.45 200.796 1020.65 200.06 1020.65 199.287V196.679C1020.53 196.824 1020.26 196.957 1019.85 197.077C1019.45 197.19 1018.98 197.291 1018.45 197.379C1017.93 197.46 1017.42 197.532 1016.92 197.597C1016.43 197.653 1016.03 197.701 1015.72 197.741C1014.98 197.838 1014.29 197.995 1013.65 198.212C1013.01 198.422 1012.49 198.74 1012.1 199.166C1011.71 199.585 1011.52 200.156 1011.52 200.881C1011.52 201.871 1011.89 202.619 1012.62 203.126C1013.36 203.625 1014.3 203.875 1015.43 203.875ZM1041.84 191.608L1039.28 192.332C1039.11 191.906 1038.88 191.491 1038.56 191.089C1038.26 190.678 1037.84 190.34 1037.31 190.075C1036.78 189.809 1036.1 189.676 1035.27 189.676C1034.13 189.676 1033.19 189.938 1032.43 190.461C1031.68 190.976 1031.31 191.632 1031.31 192.429C1031.31 193.137 1031.56 193.697 1032.08 194.107C1032.59 194.518 1033.4 194.86 1034.49 195.134L1037.25 195.81C1038.91 196.212 1040.14 196.828 1040.95 197.657C1041.77 198.478 1042.17 199.536 1042.17 200.832C1042.17 201.895 1041.87 202.845 1041.26 203.682C1040.65 204.519 1039.81 205.179 1038.72 205.662C1037.63 206.145 1036.37 206.386 1034.93 206.386C1033.04 206.386 1031.47 205.976 1030.23 205.155C1028.99 204.334 1028.21 203.134 1027.88 201.557L1030.58 200.881C1030.84 201.879 1031.33 202.627 1032.04 203.126C1032.77 203.625 1033.71 203.875 1034.88 203.875C1036.21 203.875 1037.26 203.593 1038.04 203.03C1038.83 202.458 1039.23 201.774 1039.23 200.977C1039.23 200.333 1039 199.794 1038.55 199.359C1038.1 198.917 1037.41 198.587 1036.47 198.369L1033.38 197.645C1031.69 197.242 1030.44 196.619 1029.64 195.773C1028.85 194.92 1028.46 193.854 1028.46 192.574C1028.46 191.527 1028.75 190.602 1029.34 189.797C1029.93 188.992 1030.74 188.36 1031.77 187.901C1032.8 187.442 1033.96 187.213 1035.27 187.213C1037.1 187.213 1038.54 187.616 1039.59 188.42C1040.64 189.225 1041.39 190.288 1041.84 191.608ZM1054.24 206.386C1052.45 206.386 1050.91 205.992 1049.61 205.203C1048.33 204.406 1047.33 203.295 1046.63 201.871C1045.94 200.438 1045.59 198.772 1045.59 196.872C1045.59 194.973 1045.94 193.298 1046.63 191.849C1047.33 190.393 1048.31 189.258 1049.55 188.445C1050.81 187.624 1052.27 187.213 1053.95 187.213C1054.91 187.213 1055.87 187.374 1056.81 187.696C1057.75 188.018 1058.61 188.541 1059.38 189.266C1060.15 189.982 1060.77 190.932 1061.23 192.115C1061.69 193.298 1061.92 194.755 1061.92 196.486V197.693H1047.62V195.23H1059.02C1059.02 194.184 1058.81 193.25 1058.39 192.429C1057.98 191.608 1057.39 190.96 1056.63 190.485C1055.87 190.01 1054.98 189.773 1053.95 189.773C1052.81 189.773 1051.83 190.054 1051 190.618C1050.18 191.173 1049.55 191.898 1049.11 192.791C1048.66 193.685 1048.44 194.643 1048.44 195.665V197.307C1048.44 198.707 1048.68 199.895 1049.17 200.869C1049.66 201.835 1050.34 202.571 1051.21 203.078C1052.08 203.577 1053.09 203.827 1054.24 203.827C1054.99 203.827 1055.66 203.722 1056.27 203.513C1056.88 203.295 1057.41 202.973 1057.85 202.547C1058.29 202.112 1058.63 201.573 1058.87 200.929L1061.63 201.702C1061.34 202.635 1060.85 203.456 1060.17 204.165C1059.48 204.865 1058.64 205.412 1057.63 205.807C1056.62 206.193 1055.49 206.386 1054.24 206.386Z" fill="white"/>
<rect x="1247.03" y="135" width="286.961" height="118.263" rx="10" fill="#FFCC00"/>
<path d="M1307.12 206V181.273H1315.48C1317.41 181.273 1319 181.603 1320.24 182.263C1321.48 182.915 1322.39 183.812 1322.99 184.955C1323.59 186.098 1323.88 187.398 1323.88 188.855C1323.88 190.312 1323.59 191.604 1322.99 192.731C1322.39 193.858 1321.48 194.743 1320.25 195.387C1319.02 196.023 1317.44 196.341 1315.53 196.341H1308.77V193.636H1315.43C1316.75 193.636 1317.81 193.443 1318.62 193.057C1319.43 192.67 1320.02 192.123 1320.38 191.415C1320.75 190.698 1320.94 189.845 1320.94 188.855C1320.94 187.865 1320.75 187 1320.38 186.259C1320.01 185.519 1319.42 184.947 1318.61 184.545C1317.79 184.134 1316.72 183.929 1315.38 183.929H1310.12V206H1307.12ZM1318.76 194.892L1324.85 206H1321.37L1315.38 194.892H1318.76ZM1336.06 206.386C1334.28 206.386 1332.73 205.992 1331.44 205.203C1330.15 204.406 1329.16 203.295 1328.46 201.871C1327.76 200.438 1327.42 198.772 1327.42 196.872C1327.42 194.973 1327.76 193.298 1328.46 191.849C1329.16 190.393 1330.13 189.258 1331.38 188.445C1332.63 187.624 1334.1 187.213 1335.77 187.213C1336.74 187.213 1337.69 187.374 1338.63 187.696C1339.58 188.018 1340.43 188.541 1341.21 189.266C1341.98 189.982 1342.59 190.932 1343.05 192.115C1343.51 193.298 1343.74 194.755 1343.74 196.486V197.693H1329.45V195.23H1340.84C1340.84 194.184 1340.63 193.25 1340.22 192.429C1339.81 191.608 1339.22 190.96 1338.45 190.485C1337.7 190.01 1336.8 189.773 1335.77 189.773C1334.64 189.773 1333.66 190.054 1332.83 190.618C1332.01 191.173 1331.37 191.898 1330.93 192.791C1330.49 193.685 1330.27 194.643 1330.27 195.665V197.307C1330.27 198.707 1330.51 199.895 1330.99 200.869C1331.48 201.835 1332.16 202.571 1333.03 203.078C1333.9 203.577 1334.91 203.827 1336.06 203.827C1336.81 203.827 1337.49 203.722 1338.09 203.513C1338.7 203.295 1339.23 202.973 1339.67 202.547C1340.12 202.112 1340.46 201.573 1340.7 200.929L1343.45 201.702C1343.16 202.635 1342.68 203.456 1341.99 204.165C1341.31 204.865 1340.46 205.412 1339.46 205.807C1338.45 206.193 1337.32 206.386 1336.06 206.386ZM1348.08 212.955V187.455H1350.83V190.401H1351.17C1351.38 190.079 1351.67 189.668 1352.04 189.169C1352.41 188.662 1352.95 188.211 1353.65 187.817C1354.36 187.414 1355.32 187.213 1356.53 187.213C1358.09 187.213 1359.47 187.603 1360.66 188.384C1361.85 189.165 1362.78 190.272 1363.45 191.705C1364.11 193.137 1364.45 194.828 1364.45 196.776C1364.45 198.74 1364.11 200.442 1363.45 201.883C1362.78 203.316 1361.85 204.426 1360.67 205.215C1359.49 205.996 1358.12 206.386 1356.58 206.386C1355.38 206.386 1354.43 206.189 1353.71 205.795C1353 205.392 1352.45 204.937 1352.06 204.43C1351.67 203.915 1351.38 203.489 1351.17 203.151H1350.93V212.955H1348.08ZM1350.88 196.727C1350.88 198.128 1351.08 199.363 1351.49 200.434C1351.9 201.496 1352.5 202.33 1353.29 202.933C1354.08 203.529 1355.05 203.827 1356.19 203.827C1357.38 203.827 1358.38 203.513 1359.17 202.885C1359.98 202.249 1360.58 201.396 1360.98 200.325C1361.39 199.247 1361.6 198.047 1361.6 196.727C1361.6 195.423 1361.4 194.248 1361 193.202C1360.6 192.147 1360 191.314 1359.2 190.702C1358.4 190.083 1357.4 189.773 1356.19 189.773C1355.03 189.773 1354.06 190.067 1353.27 190.654C1352.48 191.234 1351.88 192.047 1351.48 193.093C1351.08 194.131 1350.88 195.343 1350.88 196.727ZM1376.33 206.386C1374.65 206.386 1373.19 205.988 1371.92 205.191C1370.67 204.394 1369.68 203.279 1368.98 201.847C1368.28 200.414 1367.93 198.74 1367.93 196.824C1367.93 194.892 1368.28 193.206 1368.98 191.765C1369.68 190.324 1370.67 189.205 1371.92 188.408C1373.19 187.612 1374.65 187.213 1376.33 187.213C1378 187.213 1379.47 187.612 1380.72 188.408C1381.99 189.205 1382.97 190.324 1383.67 191.765C1384.38 193.206 1384.73 194.892 1384.73 196.824C1384.73 198.74 1384.38 200.414 1383.67 201.847C1382.97 203.279 1381.99 204.394 1380.72 205.191C1379.47 205.988 1378 206.386 1376.33 206.386ZM1376.33 203.827C1377.6 203.827 1378.65 203.501 1379.47 202.849C1380.29 202.197 1380.9 201.339 1381.29 200.277C1381.69 199.214 1381.88 198.063 1381.88 196.824C1381.88 195.584 1381.69 194.429 1381.29 193.359C1380.9 192.288 1380.29 191.423 1379.47 190.763C1378.65 190.103 1377.6 189.773 1376.33 189.773C1375.06 189.773 1374.01 190.103 1373.19 190.763C1372.37 191.423 1371.76 192.288 1371.37 193.359C1370.97 194.429 1370.78 195.584 1370.78 196.824C1370.78 198.063 1370.97 199.214 1371.37 200.277C1371.76 201.339 1372.37 202.197 1373.19 202.849C1374.01 203.501 1375.06 203.827 1376.33 203.827ZM1402.22 191.608L1399.66 192.332C1399.5 191.906 1399.26 191.491 1398.95 191.089C1398.64 190.678 1398.22 190.34 1397.69 190.075C1397.16 189.809 1396.48 189.676 1395.65 189.676C1394.52 189.676 1393.57 189.938 1392.81 190.461C1392.06 190.976 1391.69 191.632 1391.69 192.429C1391.69 193.137 1391.95 193.697 1392.46 194.107C1392.98 194.518 1393.78 194.86 1394.88 195.134L1397.63 195.81C1399.29 196.212 1400.52 196.828 1401.34 197.657C1402.15 198.478 1402.56 199.536 1402.56 200.832C1402.56 201.895 1402.25 202.845 1401.64 203.682C1401.04 204.519 1400.19 205.179 1399.1 205.662C1398.02 206.145 1396.75 206.386 1395.31 206.386C1393.42 206.386 1391.86 205.976 1390.62 205.155C1389.38 204.334 1388.59 203.134 1388.26 201.557L1390.97 200.881C1391.22 201.879 1391.71 202.627 1392.43 203.126C1393.15 203.625 1394.1 203.875 1395.26 203.875C1396.59 203.875 1397.65 203.593 1398.43 203.03C1399.22 202.458 1399.61 201.774 1399.61 200.977C1399.61 200.333 1399.39 199.794 1398.93 199.359C1398.48 198.917 1397.79 198.587 1396.86 198.369L1393.77 197.645C1392.07 197.242 1390.82 196.619 1390.02 195.773C1389.24 194.92 1388.84 193.854 1388.84 192.574C1388.84 191.527 1389.13 190.602 1389.72 189.797C1390.32 188.992 1391.13 188.36 1392.15 187.901C1393.18 187.442 1394.35 187.213 1395.65 187.213C1397.49 187.213 1398.93 187.616 1399.97 188.42C1401.03 189.225 1401.78 190.288 1402.22 191.608ZM1406.85 206V187.455H1409.7V206H1406.85ZM1408.29 184.364C1407.74 184.364 1407.26 184.174 1406.86 183.796C1406.46 183.418 1406.27 182.963 1406.27 182.432C1406.27 181.901 1406.46 181.446 1406.86 181.067C1407.26 180.689 1407.74 180.5 1408.29 180.5C1408.85 180.5 1409.32 180.689 1409.72 181.067C1410.12 181.446 1410.32 181.901 1410.32 182.432C1410.32 182.963 1410.12 183.418 1409.72 183.796C1409.32 184.174 1408.85 184.364 1408.29 184.364ZM1422.98 187.455V189.869H1413.37V187.455H1422.98ZM1416.17 183.011H1419.02V200.688C1419.02 201.492 1419.14 202.096 1419.37 202.499C1419.61 202.893 1419.92 203.159 1420.29 203.295C1420.67 203.424 1421.06 203.489 1421.48 203.489C1421.8 203.489 1422.05 203.473 1422.26 203.44C1422.46 203.4 1422.62 203.368 1422.74 203.344L1423.32 205.903C1423.12 205.976 1422.85 206.048 1422.51 206.121C1422.16 206.201 1421.72 206.241 1421.19 206.241C1420.39 206.241 1419.6 206.068 1418.83 205.722C1418.06 205.376 1417.43 204.849 1416.92 204.141C1416.42 203.432 1416.17 202.539 1416.17 201.46V183.011ZM1434.6 206.386C1432.93 206.386 1431.46 205.988 1430.19 205.191C1428.94 204.394 1427.96 203.279 1427.25 201.847C1426.55 200.414 1426.2 198.74 1426.2 196.824C1426.2 194.892 1426.55 193.206 1427.25 191.765C1427.96 190.324 1428.94 189.205 1430.19 188.408C1431.46 187.612 1432.93 187.213 1434.6 187.213C1436.27 187.213 1437.74 187.612 1439 188.408C1440.26 189.205 1441.24 190.324 1441.94 191.765C1442.65 193.206 1443 194.892 1443 196.824C1443 198.74 1442.65 200.414 1441.94 201.847C1441.24 203.279 1440.26 204.394 1439 205.191C1437.74 205.988 1436.27 206.386 1434.6 206.386ZM1434.6 203.827C1435.87 203.827 1436.92 203.501 1437.74 202.849C1438.56 202.197 1439.17 201.339 1439.56 200.277C1439.96 199.214 1440.15 198.063 1440.15 196.824C1440.15 195.584 1439.96 194.429 1439.56 193.359C1439.17 192.288 1438.56 191.423 1437.74 190.763C1436.92 190.103 1435.87 189.773 1434.6 189.773C1433.33 189.773 1432.28 190.103 1431.46 190.763C1430.64 191.423 1430.03 192.288 1429.64 193.359C1429.24 194.429 1429.05 195.584 1429.05 196.824C1429.05 198.063 1429.24 199.214 1429.64 200.277C1430.03 201.339 1430.64 202.197 1431.46 202.849C1432.28 203.501 1433.33 203.827 1434.6 203.827ZM1447.35 206V187.455H1450.11V190.256H1450.3C1450.64 189.338 1451.25 188.594 1452.13 188.022C1453.02 187.451 1454.02 187.165 1455.13 187.165C1455.34 187.165 1455.6 187.169 1455.91 187.177C1456.23 187.185 1456.47 187.197 1456.63 187.213V190.111C1456.53 190.087 1456.31 190.05 1455.96 190.002C1455.62 189.946 1455.27 189.918 1454.89 189.918C1453.99 189.918 1453.18 190.107 1452.47 190.485C1451.77 190.855 1451.22 191.371 1450.81 192.031C1450.4 192.683 1450.2 193.427 1450.2 194.264V206H1447.35ZM1462.4 212.955C1461.92 212.955 1461.49 212.914 1461.11 212.834C1460.73 212.761 1460.47 212.689 1460.33 212.616L1461.05 210.105C1461.74 210.282 1462.36 210.347 1462.89 210.298C1463.42 210.25 1463.89 210.013 1464.3 209.586C1464.72 209.167 1465.1 208.487 1465.45 207.545L1465.98 206.097L1459.12 187.455H1462.21L1467.33 202.233H1467.52L1472.64 187.455H1475.73L1467.86 208.705C1467.51 209.662 1467.07 210.455 1466.55 211.083C1466.02 211.719 1465.41 212.19 1464.72 212.496C1464.04 212.802 1463.26 212.955 1462.4 212.955Z" fill="white"/>
<rect x="850.935" y="342.451" width="286.961" height="118.263" rx="10" fill="#AF52DE"/>
<path d="M923.65 413.451H920.511L929.591 388.724H932.682L941.761 413.451H938.622L931.233 392.635H931.04L923.65 413.451ZM924.809 403.792H937.463V406.448H924.809V403.792ZM945.226 420.405V394.905H947.979V397.851H948.317C948.527 397.529 948.816 397.119 949.187 396.62C949.565 396.113 950.104 395.662 950.804 395.268C951.513 394.865 952.471 394.664 953.678 394.664C955.24 394.664 956.616 395.054 957.807 395.835C958.999 396.616 959.928 397.723 960.596 399.155C961.264 400.588 961.599 402.278 961.599 404.226C961.599 406.19 961.264 407.893 960.596 409.334C959.928 410.766 959.003 411.877 957.819 412.666C956.636 413.447 955.272 413.837 953.726 413.837C952.535 413.837 951.581 413.64 950.865 413.246C950.148 412.843 949.597 412.388 949.211 411.881C948.824 411.366 948.527 410.939 948.317 410.601H948.076V420.405H945.226ZM948.027 404.178C948.027 405.579 948.233 406.814 948.643 407.885C949.054 408.947 949.653 409.78 950.442 410.384C951.231 410.98 952.197 411.277 953.34 411.277C954.531 411.277 955.525 410.964 956.322 410.336C957.127 409.7 957.731 408.847 958.133 407.776C958.544 406.697 958.749 405.498 958.749 404.178C958.749 402.874 958.548 401.699 958.145 400.652C957.751 399.598 957.151 398.765 956.346 398.153C955.55 397.533 954.547 397.224 953.34 397.224C952.181 397.224 951.207 397.517 950.418 398.105C949.629 398.684 949.034 399.497 948.631 400.544C948.229 401.582 948.027 402.794 948.027 404.178ZM965.945 420.405V394.905H968.698V397.851H969.036C969.245 397.529 969.535 397.119 969.905 396.62C970.284 396.113 970.823 395.662 971.523 395.268C972.232 394.865 973.189 394.664 974.397 394.664C975.958 394.664 977.335 395.054 978.526 395.835C979.717 396.616 980.647 397.723 981.315 399.155C981.983 400.588 982.317 402.278 982.317 404.226C982.317 406.19 981.983 407.893 981.315 409.334C980.647 410.766 979.721 411.877 978.538 412.666C977.355 413.447 975.991 413.837 974.445 413.837C973.254 413.837 972.3 413.64 971.584 413.246C970.867 412.843 970.316 412.388 969.929 411.881C969.543 411.366 969.245 410.939 969.036 410.601H968.795V420.405H965.945ZM968.746 404.178C968.746 405.579 968.951 406.814 969.362 407.885C969.773 408.947 970.372 409.78 971.161 410.384C971.95 410.98 972.916 411.277 974.059 411.277C975.25 411.277 976.244 410.964 977.041 410.336C977.846 409.7 978.45 408.847 978.852 407.776C979.263 406.697 979.468 405.498 979.468 404.178C979.468 402.874 979.267 401.699 978.864 400.652C978.47 399.598 977.87 398.765 977.065 398.153C976.268 397.533 975.266 397.224 974.059 397.224C972.9 397.224 971.926 397.517 971.137 398.105C970.348 398.684 969.752 399.497 969.35 400.544C968.947 401.582 968.746 402.794 968.746 404.178ZM1000.57 394.905C1000.43 393.682 999.84 392.732 998.81 392.056C997.78 391.38 996.516 391.042 995.019 391.042C993.924 391.042 992.966 391.219 992.145 391.573C991.332 391.927 990.697 392.414 990.238 393.034C989.787 393.654 989.562 394.358 989.562 395.147C989.562 395.807 989.719 396.374 990.032 396.849C990.354 397.316 990.765 397.706 991.264 398.02C991.763 398.326 992.286 398.58 992.834 398.781C993.381 398.974 993.884 399.131 994.343 399.252L996.854 399.928C997.498 400.097 998.215 400.331 999.003 400.628C999.8 400.926 1000.56 401.333 1001.29 401.848C1002.02 402.355 1002.62 403.007 1003.1 403.804C1003.57 404.601 1003.81 405.579 1003.81 406.738C1003.81 408.074 1003.46 409.281 1002.76 410.36C1002.07 411.438 1001.05 412.296 999.716 412.932C998.388 413.567 996.774 413.885 994.874 413.885C993.103 413.885 991.57 413.6 990.274 413.028C988.986 412.457 987.972 411.66 987.231 410.638C986.499 409.615 986.084 408.428 985.988 407.076H989.079C989.159 408.009 989.473 408.782 990.02 409.394C990.576 409.998 991.276 410.448 992.121 410.746C992.974 411.036 993.892 411.181 994.874 411.181C996.017 411.181 997.043 410.996 997.953 410.625C998.862 410.247 999.583 409.724 1000.11 409.056C1000.65 408.38 1000.91 407.591 1000.91 406.689C1000.91 405.868 1000.68 405.2 1000.22 404.685C999.764 404.17 999.16 403.751 998.412 403.429C997.663 403.107 996.854 402.826 995.985 402.584L992.942 401.715C991.01 401.16 989.481 400.367 988.354 399.336C987.227 398.306 986.664 396.958 986.664 395.292C986.664 393.907 987.038 392.7 987.787 391.67C988.543 390.631 989.558 389.826 990.829 389.255C992.109 388.675 993.538 388.385 995.116 388.385C996.709 388.385 998.126 388.671 999.366 389.243C1000.61 389.806 1001.59 390.579 1002.31 391.561C1003.04 392.543 1003.43 393.658 1003.47 394.905H1000.57ZM1016.41 394.905V397.32H1006.8V394.905H1016.41ZM1009.6 390.462H1012.45V408.138C1012.45 408.943 1012.57 409.547 1012.8 409.949C1013.04 410.344 1013.35 410.609 1013.72 410.746C1014.1 410.875 1014.5 410.939 1014.91 410.939C1015.23 410.939 1015.49 410.923 1015.69 410.891C1015.89 410.851 1016.05 410.819 1016.17 410.795L1016.75 413.354C1016.56 413.427 1016.29 413.499 1015.94 413.572C1015.59 413.652 1015.16 413.692 1014.62 413.692C1013.82 413.692 1013.03 413.519 1012.26 413.173C1011.49 412.827 1010.86 412.3 1010.35 411.591C1009.85 410.883 1009.6 409.99 1009.6 408.911V390.462ZM1026.15 413.885C1024.98 413.885 1023.91 413.664 1022.95 413.221C1022 412.771 1021.24 412.123 1020.67 411.277C1020.11 410.424 1019.83 409.394 1019.83 408.187C1019.83 407.124 1020.04 406.263 1020.46 405.603C1020.87 404.935 1021.43 404.411 1022.13 404.033C1022.83 403.655 1023.61 403.373 1024.45 403.188C1025.31 402.995 1026.16 402.842 1027.02 402.729C1028.15 402.584 1029.06 402.476 1029.76 402.403C1030.47 402.323 1030.99 402.19 1031.31 402.005C1031.64 401.82 1031.81 401.498 1031.81 401.039V400.942C1031.81 399.751 1031.48 398.825 1030.83 398.165C1030.18 397.505 1029.21 397.175 1027.89 397.175C1026.53 397.175 1025.47 397.473 1024.69 398.069C1023.92 398.664 1023.38 399.3 1023.06 399.976L1020.36 399.01C1020.84 397.884 1021.49 397.006 1022.29 396.378C1023.1 395.742 1023.99 395.3 1024.95 395.05C1025.91 394.793 1026.86 394.664 1027.8 394.664C1028.39 394.664 1029.08 394.736 1029.85 394.881C1030.63 395.018 1031.38 395.304 1032.11 395.738C1032.84 396.173 1033.45 396.829 1033.93 397.706C1034.41 398.584 1034.65 399.759 1034.65 401.232V413.451H1031.81V410.939H1031.66C1031.47 411.342 1031.14 411.773 1030.69 412.231C1030.24 412.69 1029.64 413.081 1028.9 413.402C1028.15 413.724 1027.23 413.885 1026.15 413.885ZM1026.59 411.326C1027.72 411.326 1028.67 411.104 1029.44 410.662C1030.22 410.219 1030.81 409.648 1031.2 408.947C1031.6 408.247 1031.81 407.51 1031.81 406.738V404.13C1031.68 404.275 1031.42 404.407 1031.01 404.528C1030.61 404.641 1030.14 404.741 1029.61 404.83C1029.08 404.911 1028.57 404.983 1028.07 405.047C1027.58 405.104 1027.18 405.152 1026.88 405.192C1026.14 405.289 1025.45 405.446 1024.8 405.663C1024.17 405.872 1023.65 406.19 1023.26 406.617C1022.87 407.036 1022.68 407.607 1022.68 408.331C1022.68 409.322 1023.04 410.07 1023.78 410.577C1024.52 411.076 1025.45 411.326 1026.59 411.326ZM1047.92 394.905V397.32H1038.31V394.905H1047.92ZM1041.11 390.462H1043.96V408.138C1043.96 408.943 1044.08 409.547 1044.31 409.949C1044.55 410.344 1044.86 410.609 1045.23 410.746C1045.61 410.875 1046 410.939 1046.42 410.939C1046.74 410.939 1046.99 410.923 1047.2 410.891C1047.4 410.851 1047.56 410.819 1047.68 410.795L1048.26 413.354C1048.07 413.427 1047.8 413.499 1047.45 413.572C1047.1 413.652 1046.66 413.692 1046.13 413.692C1045.33 413.692 1044.54 413.519 1043.77 413.173C1043 412.827 1042.37 412.3 1041.86 411.591C1041.36 410.883 1041.11 409.99 1041.11 408.911V390.462ZM1059.78 413.837C1058 413.837 1056.45 413.443 1055.16 412.654C1053.87 411.857 1052.88 410.746 1052.18 409.322C1051.48 407.889 1051.14 406.223 1051.14 404.323C1051.14 402.423 1051.48 400.749 1052.18 399.3C1052.88 397.843 1053.85 396.708 1055.1 395.895C1056.35 395.074 1057.82 394.664 1059.49 394.664C1060.46 394.664 1061.41 394.825 1062.35 395.147C1063.3 395.469 1064.15 395.992 1064.93 396.716C1065.7 397.433 1066.32 398.383 1066.77 399.566C1067.23 400.749 1067.46 402.206 1067.46 403.937V405.144H1053.17V402.681H1064.56C1064.56 401.634 1064.36 400.701 1063.94 399.88C1063.53 399.059 1062.94 398.411 1062.17 397.936C1061.42 397.461 1060.52 397.224 1059.49 397.224C1058.36 397.224 1057.38 397.505 1056.55 398.069C1055.73 398.624 1055.09 399.349 1054.65 400.242C1054.21 401.135 1053.99 402.093 1053.99 403.116V404.758C1053.99 406.158 1054.23 407.345 1054.71 408.319C1055.2 409.285 1055.88 410.022 1056.75 410.529C1057.62 411.028 1058.63 411.277 1059.78 411.277C1060.53 411.277 1061.21 411.173 1061.81 410.964C1062.42 410.746 1062.95 410.424 1063.39 409.998C1063.84 409.563 1064.18 409.024 1064.42 408.38L1067.17 409.152C1066.88 410.086 1066.4 410.907 1065.71 411.616C1065.03 412.316 1064.18 412.863 1063.18 413.258C1062.17 413.644 1061.04 413.837 1059.78 413.837Z" fill="white"/>
<rect x="64.7488" y="135" width="286.961" height="118.263" rx="10" fill="#FF2D55"/>
<path d="M173.008 181.273L180.349 202.088H180.639L187.98 181.273H191.119L182.04 206H178.949L169.869 181.273H173.008ZM194.584 206V187.455H197.434V206H194.584ZM196.033 184.364C195.478 184.364 194.999 184.174 194.596 183.796C194.202 183.418 194.005 182.963 194.005 182.432C194.005 181.901 194.202 181.446 194.596 181.067C194.999 180.689 195.478 180.5 196.033 180.5C196.589 180.5 197.063 180.689 197.458 181.067C197.86 181.446 198.062 181.901 198.062 182.432C198.062 182.963 197.86 183.418 197.458 183.796C197.063 184.174 196.589 184.364 196.033 184.364ZM210.428 206.386C208.641 206.386 207.1 205.992 205.804 205.203C204.516 204.406 203.522 203.295 202.822 201.871C202.129 200.438 201.783 198.772 201.783 196.872C201.783 194.973 202.129 193.298 202.822 191.849C203.522 190.393 204.496 189.258 205.744 188.445C206.999 187.624 208.464 187.213 210.138 187.213C211.104 187.213 212.058 187.374 213 187.696C213.942 188.018 214.799 188.541 215.572 189.266C216.344 189.982 216.96 190.932 217.419 192.115C217.878 193.298 218.107 194.755 218.107 196.486V197.693H203.812V195.23H215.209C215.209 194.184 215 193.25 214.582 192.429C214.171 191.608 213.584 190.96 212.819 190.485C212.062 190.01 211.169 189.773 210.138 189.773C209.004 189.773 208.022 190.054 207.192 190.618C206.371 191.173 205.74 191.898 205.297 192.791C204.854 193.685 204.633 194.643 204.633 195.665V197.307C204.633 198.707 204.874 199.895 205.357 200.869C205.848 201.835 206.528 202.571 207.398 203.078C208.267 203.577 209.277 203.827 210.428 203.827C211.177 203.827 211.853 203.722 212.457 203.513C213.068 203.295 213.596 202.973 214.038 202.547C214.481 202.112 214.823 201.573 215.065 200.929L217.817 201.702C217.528 202.635 217.041 203.456 216.357 204.165C215.672 204.865 214.827 205.412 213.821 205.807C212.815 206.193 211.684 206.386 210.428 206.386ZM226.643 206L220.993 187.455H223.987L227.996 201.653H228.189L232.149 187.455H235.192L239.104 201.605H239.297L243.305 187.455H246.3L240.649 206H237.848L233.791 191.753H233.501L229.445 206H226.643Z" fill="white"/>
<rect x="113.445" y="342.451" width="573.922" height="118.263" rx="10" fill="#FF2D55"/>
<path d="M365.185 388.724L372.526 409.539H372.816L380.157 388.724H383.296L374.217 413.451H371.126L362.046 388.724H365.185ZM386.761 413.451V394.905H389.611V413.451H386.761ZM388.21 391.814C387.655 391.814 387.176 391.625 386.773 391.247C386.379 390.869 386.182 390.414 386.182 389.883C386.182 389.351 386.379 388.897 386.773 388.518C387.176 388.14 387.655 387.951 388.21 387.951C388.766 387.951 389.24 388.14 389.635 388.518C390.037 388.897 390.239 389.351 390.239 389.883C390.239 390.414 390.037 390.869 389.635 391.247C389.24 391.625 388.766 391.814 388.21 391.814ZM402.605 413.837C400.818 413.837 399.277 413.443 397.981 412.654C396.693 411.857 395.699 410.746 394.999 409.322C394.306 407.889 393.96 406.223 393.96 404.323C393.96 402.423 394.306 400.749 394.999 399.3C395.699 397.843 396.673 396.708 397.921 395.895C399.176 395.074 400.641 394.664 402.315 394.664C403.281 394.664 404.235 394.825 405.177 395.147C406.119 395.469 406.976 395.992 407.749 396.716C408.521 397.433 409.137 398.383 409.596 399.566C410.055 400.749 410.284 402.206 410.284 403.937V405.144H395.989V402.681H407.386C407.386 401.634 407.177 400.701 406.759 399.88C406.348 399.059 405.76 398.411 404.996 397.936C404.239 397.461 403.346 397.224 402.315 397.224C401.18 397.224 400.198 397.505 399.369 398.069C398.548 398.624 397.916 399.349 397.474 400.242C397.031 401.135 396.81 402.093 396.81 403.116V404.758C396.81 406.158 397.051 407.345 397.534 408.319C398.025 409.285 398.705 410.022 399.575 410.529C400.444 411.028 401.454 411.277 402.605 411.277C403.354 411.277 404.03 411.173 404.634 410.964C405.245 410.746 405.773 410.424 406.215 409.998C406.658 409.563 407 409.024 407.242 408.38L409.994 409.152C409.705 410.086 409.218 410.907 408.533 411.616C407.849 412.316 407.004 412.863 405.998 413.258C404.992 413.644 403.861 413.837 402.605 413.837ZM418.82 413.451L413.17 394.905H416.164L420.173 409.104H420.366L424.326 394.905H427.369L431.281 409.056H431.474L435.482 394.905H438.477L432.826 413.451H430.025L425.968 399.204H425.678L421.622 413.451H418.82Z" fill="white"/>
<path d="M437.768 167.768C438.744 166.791 438.744 165.209 437.768 164.232L421.858 148.322C420.882 147.346 419.299 147.346 418.322 148.322C417.346 149.299 417.346 150.882 418.322 151.858L432.464 166L418.322 180.142C417.346 181.118 417.346 182.701 418.322 183.678C419.299 184.654 420.882 184.654 421.858 183.678L437.768 167.768ZM365 168.5H436V163.5H365V168.5Z" fill="#14AE5C"/>
<path d="M363.232 222.232C362.256 223.209 362.256 224.791 363.232 225.768L379.142 241.678C380.118 242.654 381.701 242.654 382.678 241.678C383.654 240.701 383.654 239.118 382.678 238.142L368.536 224L382.678 209.858C383.654 208.882 383.654 207.299 382.678 206.322C381.701 205.346 380.118 205.346 379.142 206.322L363.232 222.232ZM436 221.5H365V226.5H436V221.5Z" fill="#007AFF"/>
<path d="M831.768 167.768C832.744 166.791 832.744 165.209 831.768 164.232L815.858 148.322C814.882 147.346 813.299 147.346 812.322 148.322C811.346 149.299 811.346 150.882 812.322 151.858L826.464 166L812.322 180.142C811.346 181.118 811.346 182.701 812.322 183.678C813.299 184.654 814.882 184.654 815.858 183.678L831.768 167.768ZM760 168.5H830V163.5H760V168.5Z" fill="#14AE5C"/>
<path d="M758.232 222.232C757.256 223.209 757.256 224.791 758.232 225.768L774.142 241.678C775.118 242.654 776.701 242.654 777.678 241.678C778.654 240.701 778.654 239.118 777.678 238.142L763.536 224L777.678 209.858C778.654 208.882 778.654 207.299 777.678 206.322C776.701 205.346 775.118 205.346 774.142 206.322L758.232 222.232ZM830 221.5H760V226.5H830V221.5Z" fill="#007AFF"/>
<path d="M1228.77 167.768C1229.74 166.791 1229.74 165.209 1228.77 164.232L1212.86 148.322C1211.88 147.346 1210.3 147.346 1209.32 148.322C1208.35 149.299 1208.35 150.882 1209.32 151.858L1223.46 166L1209.32 180.142C1208.35 181.118 1208.35 182.701 1209.32 183.678C1210.3 184.654 1211.88 184.654 1212.86 183.678L1228.77 167.768ZM1156 168.5H1227V163.5H1156V168.5Z" fill="#14AE5C"/>
<path d="M1154.23 222.232C1153.26 223.209 1153.26 224.791 1154.23 225.768L1170.14 241.678C1171.12 242.654 1172.7 242.654 1173.68 241.678C1174.65 240.701 1174.65 239.118 1173.68 238.142L1159.54 224L1173.68 209.858C1174.65 208.882 1174.65 207.299 1173.68 206.322C1172.7 205.346 1171.12 205.346 1170.14 206.322L1154.23 222.232ZM1227 221.5H1156V226.5H1227V221.5Z" fill="#007AFF"/>
<path d="M758.232 399.232C757.256 400.209 757.256 401.791 758.232 402.768L774.142 418.678C775.118 419.654 776.701 419.654 777.678 418.678C778.654 417.701 778.654 416.118 777.678 415.142L763.536 401L777.678 386.858C778.654 385.882 778.654 384.299 777.678 383.322C776.701 382.346 775.118 382.346 774.142 383.322L758.232 399.232ZM830 398.5H760V403.5H830V398.5Z" fill="#007AFF"/>
<path d="M993.232 334.768C994.209 335.744 995.791 335.744 996.768 334.768L1012.68 318.858C1013.65 317.882 1013.65 316.299 1012.68 315.322C1011.7 314.346 1010.12 314.346 1009.14 315.322L995 329.464L980.858 315.322C979.882 314.346 978.299 314.346 977.322 315.322C976.346 316.299 976.346 317.882 977.322 318.858L993.232 334.768ZM992.5 264L992.5 333L997.5 333L997.5 264L992.5 264Z" fill="#007AFF"/>
<path d="M341.387 33.2031C341.262 31.9427 340.725 30.9635 339.777 30.2656C338.829 29.5677 337.543 29.2187 335.918 29.2187C334.814 29.2187 333.882 29.375 333.121 29.6875C332.361 29.9896 331.777 30.4115 331.371 30.9531C330.975 31.4948 330.777 32.1094 330.777 32.7969C330.757 33.3698 330.876 33.8698 331.137 34.2969C331.408 34.724 331.777 35.0937 332.246 35.4062C332.715 35.7083 333.257 35.974 333.871 36.2031C334.486 36.4219 335.142 36.6094 335.84 36.7656L338.715 37.4531C340.111 37.7656 341.392 38.1823 342.559 38.7031C343.725 39.224 344.736 39.8646 345.59 40.625C346.444 41.3854 347.105 42.2812 347.574 43.3125C348.053 44.3437 348.298 45.526 348.309 46.8594C348.298 48.8177 347.798 50.5156 346.809 51.9531C345.829 53.3802 344.413 54.4896 342.559 55.2812C340.715 56.0625 338.491 56.4531 335.887 56.4531C333.303 56.4531 331.053 56.0573 329.137 55.2656C327.23 54.474 325.741 53.3021 324.668 51.75C323.605 50.1875 323.048 48.2552 322.996 45.9531H329.543C329.616 47.026 329.923 47.9219 330.465 48.6406C331.017 49.349 331.751 49.8854 332.668 50.25C333.595 50.6042 334.642 50.7812 335.809 50.7812C336.954 50.7812 337.949 50.6146 338.793 50.2812C339.647 49.9479 340.309 49.4844 340.777 48.8906C341.246 48.2969 341.48 47.6146 341.48 46.8437C341.48 46.125 341.267 45.5208 340.84 45.0312C340.423 44.5417 339.809 44.125 338.996 43.7812C338.194 43.4375 337.21 43.125 336.043 42.8437L332.559 41.9687C329.861 41.3125 327.73 40.2865 326.168 38.8906C324.605 37.4948 323.829 35.6146 323.84 33.25C323.829 31.3125 324.345 29.6198 325.387 28.1719C326.439 26.724 327.882 25.5937 329.715 24.7812C331.548 23.9687 333.632 23.5625 335.965 23.5625C338.34 23.5625 340.413 23.9687 342.184 24.7812C343.965 25.5937 345.35 26.724 346.34 28.1719C347.329 29.6198 347.84 31.2969 347.871 33.2031H341.387ZM363.578 56.4688C361.12 56.4688 359.005 55.9479 357.234 54.9062C355.474 53.8542 354.12 52.3958 353.172 50.5312C352.234 48.6667 351.766 46.5208 351.766 44.0937C351.766 41.6354 352.24 39.4792 353.188 37.625C354.146 35.7604 355.505 34.3073 357.266 33.2656C359.026 32.2135 361.12 31.6875 363.547 31.6875C365.641 31.6875 367.474 32.0677 369.047 32.8281C370.62 33.5885 371.865 34.6562 372.781 36.0312C373.698 37.4062 374.203 39.0208 374.297 40.875H368.016C367.839 39.6771 367.37 38.7135 366.609 37.9844C365.859 37.2448 364.875 36.875 363.656 36.875C362.625 36.875 361.724 37.1562 360.953 37.7187C360.193 38.2708 359.599 39.0781 359.172 40.1406C358.745 41.2031 358.531 42.4896 358.531 44C358.531 45.5312 358.74 46.8333 359.156 47.9062C359.583 48.9792 360.182 49.7969 360.953 50.3594C361.724 50.9219 362.625 51.2031 363.656 51.2031C364.417 51.2031 365.099 51.0469 365.703 50.7344C366.318 50.4219 366.823 49.9687 367.219 49.375C367.625 48.7708 367.891 48.0469 368.016 47.2031H374.297C374.193 49.0365 373.693 50.651 372.797 52.0469C371.911 53.4323 370.688 54.5156 369.125 55.2969C367.563 56.0781 365.714 56.4688 363.578 56.4688ZM378.559 56V32H385.012V36.1875H385.262C385.699 34.6979 386.434 33.5729 387.465 32.8125C388.496 32.0417 389.684 31.6562 391.027 31.6562C391.361 31.6562 391.72 31.6771 392.105 31.7187C392.491 31.7604 392.829 31.8177 393.121 31.8906V37.7969C392.809 37.7031 392.376 37.6198 391.824 37.5469C391.272 37.474 390.767 37.4375 390.309 37.4375C389.329 37.4375 388.454 37.651 387.684 38.0781C386.923 38.4948 386.319 39.0781 385.871 39.8281C385.434 40.5781 385.215 41.4427 385.215 42.4219V56H378.559ZM406.383 56.4688C403.914 56.4688 401.789 55.9688 400.008 54.9688C398.237 53.9583 396.872 52.5312 395.914 50.6875C394.956 48.8333 394.477 46.6406 394.477 44.1094C394.477 41.6406 394.956 39.474 395.914 37.6094C396.872 35.7448 398.221 34.2917 399.961 33.25C401.711 32.2083 403.763 31.6875 406.117 31.6875C407.701 31.6875 409.174 31.9427 410.539 32.4531C411.914 32.9531 413.112 33.7083 414.133 34.7187C415.164 35.7292 415.966 37 416.539 38.5312C417.112 40.0521 417.398 41.8333 417.398 43.875V45.7031H397.133V41.5781H411.133C411.133 40.6198 410.924 39.7708 410.508 39.0313C410.091 38.2917 409.513 37.7135 408.773 37.2969C408.044 36.8698 407.195 36.6562 406.227 36.6562C405.216 36.6562 404.32 36.8906 403.539 37.3594C402.768 37.8177 402.164 38.4375 401.727 39.2187C401.289 39.9896 401.065 40.849 401.055 41.7969V45.7187C401.055 46.9062 401.273 47.9323 401.711 48.7969C402.159 49.6615 402.789 50.3281 403.602 50.7969C404.414 51.2656 405.378 51.5 406.492 51.5C407.232 51.5 407.909 51.3958 408.523 51.1875C409.138 50.9792 409.664 50.6667 410.102 50.25C410.539 49.8333 410.872 49.3229 411.102 48.7188L417.258 49.125C416.945 50.6042 416.305 51.8958 415.336 53C414.378 54.0937 413.138 54.9479 411.617 55.5625C410.107 56.1667 408.362 56.4688 406.383 56.4688ZM432.68 56.4688C430.211 56.4688 428.086 55.9688 426.305 54.9688C424.534 53.9583 423.169 52.5312 422.211 50.6875C421.253 48.8333 420.773 46.6406 420.773 44.1094C420.773 41.6406 421.253 39.474 422.211 37.6094C423.169 35.7448 424.518 34.2917 426.258 33.25C428.008 32.2083 430.06 31.6875 432.414 31.6875C433.997 31.6875 435.471 31.9427 436.836 32.4531C438.211 32.9531 439.409 33.7083 440.43 34.7187C441.461 35.7292 442.263 37 442.836 38.5312C443.409 40.0521 443.695 41.8333 443.695 43.875V45.7031H423.43V41.5781H437.43C437.43 40.6198 437.221 39.7708 436.805 39.0313C436.388 38.2917 435.81 37.7135 435.07 37.2969C434.341 36.8698 433.492 36.6562 432.523 36.6562C431.513 36.6562 430.617 36.8906 429.836 37.3594C429.065 37.8177 428.461 38.4375 428.023 39.2187C427.586 39.9896 427.362 40.849 427.352 41.7969V45.7187C427.352 46.9062 427.57 47.9323 428.008 48.7969C428.456 49.6615 429.086 50.3281 429.898 50.7969C430.711 51.2656 431.674 51.5 432.789 51.5C433.529 51.5 434.206 51.3958 434.82 51.1875C435.435 50.9792 435.961 50.6667 436.398 50.25C436.836 49.8333 437.169 49.3229 437.398 48.7188L443.555 49.125C443.242 50.6042 442.602 51.8958 441.633 53C440.674 54.0937 439.435 54.9479 437.914 55.5625C436.404 56.1667 434.659 56.4688 432.68 56.4688ZM454.695 42.125V56H448.039V32H454.383V36.2344H454.664C455.195 34.8385 456.086 33.7344 457.336 32.9219C458.586 32.099 460.102 31.6875 461.883 31.6875C463.549 31.6875 465.003 32.0521 466.242 32.7812C467.482 33.5104 468.445 34.5521 469.133 35.9062C469.82 37.25 470.164 38.8542 470.164 40.7187V56H463.508V41.9062C463.518 40.4375 463.143 39.2917 462.383 38.4688C461.622 37.6354 460.576 37.2187 459.242 37.2187C458.346 37.2187 457.555 37.4115 456.867 37.7969C456.19 38.1823 455.659 38.7448 455.273 39.4844C454.898 40.2135 454.706 41.0938 454.695 42.125Z" fill="black"/>
<path d="M932.264 33.2031C932.139 31.9427 931.602 30.9635 930.654 30.2656C929.706 29.5677 928.42 29.2187 926.795 29.2187C925.691 29.2187 924.758 29.375 923.998 29.6875C923.238 29.9896 922.654 30.4115 922.248 30.9531C921.852 31.4948 921.654 32.1094 921.654 32.7969C921.633 33.3698 921.753 33.8698 922.014 34.2969C922.285 34.724 922.654 35.0937 923.123 35.4062C923.592 35.7083 924.133 35.974 924.748 36.2031C925.363 36.4219 926.019 36.6094 926.717 36.7656L929.592 37.4531C930.988 37.7656 932.269 38.1823 933.436 38.7031C934.602 39.224 935.613 39.8646 936.467 40.625C937.321 41.3854 937.982 42.2812 938.451 43.3125C938.93 44.3437 939.175 45.526 939.186 46.8594C939.175 48.8177 938.675 50.5156 937.686 51.9531C936.706 53.3802 935.29 54.4896 933.436 55.2812C931.592 56.0625 929.368 56.4531 926.764 56.4531C924.18 56.4531 921.93 56.0573 920.014 55.2656C918.107 54.474 916.618 53.3021 915.545 51.75C914.482 50.1875 913.925 48.2552 913.873 45.9531H920.42C920.493 47.026 920.8 47.9219 921.342 48.6406C921.894 49.349 922.628 49.8854 923.545 50.25C924.472 50.6042 925.519 50.7812 926.686 50.7812C927.831 50.7812 928.826 50.6146 929.67 50.2812C930.524 49.9479 931.186 49.4844 931.654 48.8906C932.123 48.2969 932.357 47.6146 932.357 46.8437C932.357 46.125 932.144 45.5208 931.717 45.0312C931.3 44.5417 930.686 44.125 929.873 43.7812C929.071 43.4375 928.087 43.125 926.92 42.8437L923.436 41.9687C920.738 41.3125 918.607 40.2865 917.045 38.8906C915.482 37.4948 914.706 35.6146 914.717 33.25C914.706 31.3125 915.222 29.6198 916.264 28.1719C917.316 26.724 918.758 25.5937 920.592 24.7812C922.425 23.9687 924.508 23.5625 926.842 23.5625C929.217 23.5625 931.29 23.9687 933.061 24.7812C934.842 25.5937 936.227 26.724 937.217 28.1719C938.206 29.6198 938.717 31.2969 938.748 33.2031H932.264ZM954.549 56.4688C952.08 56.4688 949.955 55.9688 948.174 54.9688C946.403 53.9583 945.038 52.5312 944.08 50.6875C943.122 48.8333 942.643 46.6406 942.643 44.1094C942.643 41.6406 943.122 39.474 944.08 37.6094C945.038 35.7448 946.387 34.2917 948.127 33.25C949.877 32.2083 951.929 31.6875 954.283 31.6875C955.867 31.6875 957.34 31.9427 958.705 32.4531C960.08 32.9531 961.278 33.7083 962.299 34.7187C963.33 35.7292 964.132 37 964.705 38.5312C965.278 40.0521 965.564 41.8333 965.564 43.875V45.7031H945.299V41.5781H959.299C959.299 40.6198 959.09 39.7708 958.674 39.0313C958.257 38.2917 957.679 37.7135 956.939 37.2969C956.21 36.8698 955.361 36.6562 954.393 36.6562C953.382 36.6562 952.486 36.8906 951.705 37.3594C950.934 37.8177 950.33 38.4375 949.893 39.2187C949.455 39.9896 949.231 40.849 949.221 41.7969V45.7187C949.221 46.9062 949.439 47.9323 949.877 48.7969C950.325 49.6615 950.955 50.3281 951.768 50.7969C952.58 51.2656 953.544 51.5 954.658 51.5C955.398 51.5 956.075 51.3958 956.689 51.1875C957.304 50.9792 957.83 50.6667 958.268 50.25C958.705 49.8333 959.038 49.3229 959.268 48.7188L965.424 49.125C965.111 50.6042 964.471 51.8958 963.502 53C962.544 54.0937 961.304 54.9479 959.783 55.5625C958.273 56.1667 956.528 56.4688 954.549 56.4688ZM969.908 56V32H976.361V36.1875H976.611C977.049 34.6979 977.783 33.5729 978.814 32.8125C979.846 32.0417 981.033 31.6562 982.377 31.6562C982.71 31.6562 983.07 31.6771 983.455 31.7187C983.84 31.7604 984.179 31.8177 984.471 31.8906V37.7969C984.158 37.7031 983.726 37.6198 983.174 37.5469C982.622 37.474 982.117 37.4375 981.658 37.4375C980.679 37.4375 979.804 37.651 979.033 38.0781C978.273 38.4948 977.669 39.0781 977.221 39.8281C976.783 40.5781 976.564 41.4427 976.564 42.4219V56H969.908ZM1011.02 32L1002.63 56H995.127L986.736 32H993.768L998.752 49.1719H999.002L1003.97 32H1011.02ZM1014.42 56V32H1021.08V56H1014.42ZM1017.77 28.9062C1016.78 28.9062 1015.93 28.5781 1015.22 27.9219C1014.52 27.2552 1014.17 26.4583 1014.17 25.5312C1014.17 24.6146 1014.52 23.8281 1015.22 23.1719C1015.93 22.5052 1016.78 22.1719 1017.77 22.1719C1018.76 22.1719 1019.6 22.5052 1020.3 23.1719C1021.01 23.8281 1021.36 24.6146 1021.36 25.5312C1021.36 26.4583 1021.01 27.2552 1020.3 27.9219C1019.6 28.5781 1018.76 28.9062 1017.77 28.9062ZM1037.26 56.4688C1034.8 56.4688 1032.68 55.9479 1030.91 54.9062C1029.15 53.8542 1027.8 52.3958 1026.85 50.5312C1025.91 48.6667 1025.44 46.5208 1025.44 44.0937C1025.44 41.6354 1025.92 39.4792 1026.87 37.625C1027.82 35.7604 1029.18 34.3073 1030.94 33.2656C1032.7 32.2135 1034.8 31.6875 1037.22 31.6875C1039.32 31.6875 1041.15 32.0677 1042.72 32.8281C1044.3 33.5885 1045.54 34.6562 1046.46 36.0312C1047.38 37.4062 1047.88 39.0208 1047.97 40.875H1041.69C1041.52 39.6771 1041.05 38.7135 1040.29 37.9844C1039.54 37.2448 1038.55 36.875 1037.33 36.875C1036.3 36.875 1035.4 37.1562 1034.63 37.7187C1033.87 38.2708 1033.28 39.0781 1032.85 40.1406C1032.42 41.2031 1032.21 42.4896 1032.21 44C1032.21 45.5312 1032.42 46.8333 1032.83 47.9062C1033.26 48.9792 1033.86 49.7969 1034.63 50.3594C1035.4 50.9219 1036.3 51.2031 1037.33 51.2031C1038.09 51.2031 1038.78 51.0469 1039.38 50.7344C1040 50.4219 1040.5 49.9687 1040.9 49.375C1041.3 48.7708 1041.57 48.0469 1041.69 47.2031H1047.97C1047.87 49.0365 1047.37 50.651 1046.47 52.0469C1045.59 53.4323 1044.37 54.5156 1042.8 55.2969C1041.24 56.0781 1039.39 56.4688 1037.26 56.4688ZM1063.17 56.4688C1060.71 56.4688 1058.58 55.9688 1056.8 54.9688C1055.03 53.9583 1053.66 52.5312 1052.71 50.6875C1051.75 48.8333 1051.27 46.6406 1051.27 44.1094C1051.27 41.6406 1051.75 39.474 1052.71 37.6094C1053.66 35.7448 1055.01 34.2917 1056.75 33.25C1058.5 32.2083 1060.55 31.6875 1062.91 31.6875C1064.49 31.6875 1065.97 31.9427 1067.33 32.4531C1068.71 32.9531 1069.9 33.7083 1070.92 34.7187C1071.96 35.7292 1072.76 37 1073.33 38.5312C1073.9 40.0521 1074.19 41.8333 1074.19 43.875V45.7031H1053.92V41.5781H1067.92C1067.92 40.6198 1067.72 39.7708 1067.3 39.0313C1066.88 38.2917 1066.3 37.7135 1065.56 37.2969C1064.84 36.8698 1063.99 36.6562 1063.02 36.6562C1062.01 36.6562 1061.11 36.8906 1060.33 37.3594C1059.56 37.8177 1058.96 38.4375 1058.52 39.2187C1058.08 39.9896 1057.86 40.849 1057.85 41.7969V45.7187C1057.85 46.9062 1058.06 47.9323 1058.5 48.7969C1058.95 49.6615 1059.58 50.3281 1060.39 50.7969C1061.21 51.2656 1062.17 51.5 1063.28 51.5C1064.02 51.5 1064.7 51.3958 1065.31 51.1875C1065.93 50.9792 1066.46 50.6667 1066.89 50.25C1067.33 49.8333 1067.66 49.3229 1067.89 48.7188L1074.05 49.125C1073.74 50.6042 1073.1 51.8958 1072.13 53C1071.17 54.0937 1069.93 54.9479 1068.41 55.5625C1066.9 56.1667 1065.15 56.4688 1063.17 56.4688Z" fill="black"/>
<path d="M1321.52 56L1312.37 24H1319.76L1325.05 46.2344H1325.32L1331.16 24H1337.49L1343.32 46.2812H1343.6L1348.9 24H1356.29L1347.13 56H1340.54L1334.45 35.0781H1334.2L1328.12 56H1321.52ZM1368.05 56.4688C1365.62 56.4688 1363.52 55.9531 1361.75 54.9219C1359.99 53.8802 1358.63 52.4323 1357.68 50.5781C1356.72 48.7135 1356.24 46.5521 1356.24 44.0937C1356.24 41.6146 1356.72 39.4479 1357.68 37.5937C1358.63 35.7292 1359.99 34.2812 1361.75 33.25C1363.52 32.2083 1365.62 31.6875 1368.05 31.6875C1370.48 31.6875 1372.57 32.2083 1374.33 33.25C1376.1 34.2812 1377.47 35.7292 1378.43 37.5937C1379.38 39.4479 1379.86 41.6146 1379.86 44.0937C1379.86 46.5521 1379.38 48.7135 1378.43 50.5781C1377.47 52.4323 1376.1 53.8802 1374.33 54.9219C1372.57 55.9531 1370.48 56.4688 1368.05 56.4688ZM1368.08 51.3125C1369.19 51.3125 1370.11 51 1370.85 50.375C1371.59 49.7396 1372.14 48.875 1372.52 47.7812C1372.9 46.6875 1373.1 45.4427 1373.1 44.0469C1373.1 42.651 1372.9 41.4063 1372.52 40.3125C1372.14 39.2187 1371.59 38.3542 1370.85 37.7187C1370.11 37.0833 1369.19 36.7656 1368.08 36.7656C1366.97 36.7656 1366.03 37.0833 1365.27 37.7187C1364.52 38.3542 1363.95 39.2187 1363.57 40.3125C1363.19 41.4063 1363 42.651 1363 44.0469C1363 45.4427 1363.19 46.6875 1363.57 47.7812C1363.95 48.875 1364.52 49.7396 1365.27 50.375C1366.03 51 1366.97 51.3125 1368.08 51.3125ZM1384.19 56V32H1390.64V36.1875H1390.89C1391.33 34.6979 1392.07 33.5729 1393.1 32.8125C1394.13 32.0417 1395.32 31.6562 1396.66 31.6562C1396.99 31.6562 1397.35 31.6771 1397.74 31.7187C1398.12 31.7604 1398.46 31.8177 1398.75 31.8906V37.7969C1398.44 37.7031 1398.01 37.6198 1397.46 37.5469C1396.9 37.474 1396.4 37.4375 1395.94 37.4375C1394.96 37.4375 1394.09 37.651 1393.32 38.0781C1392.56 38.4948 1391.95 39.0781 1391.5 39.8281C1391.07 40.5781 1390.85 41.4427 1390.85 42.4219V56H1384.19ZM1408.23 49.0937L1408.24 41.1094H1409.21L1416.9 32H1424.54L1414.21 44.0625H1412.63L1408.23 49.0937ZM1402.2 56V24H1408.85V56H1402.2ZM1417.2 56L1410.13 45.5469L1414.57 40.8437L1424.99 56H1417.2ZM1437.75 56.4688C1435.29 56.4688 1433.16 55.9688 1431.38 54.9688C1429.61 53.9583 1428.24 52.5312 1427.29 50.6875C1426.33 48.8333 1425.85 46.6406 1425.85 44.1094C1425.85 41.6406 1426.33 39.474 1427.29 37.6094C1428.24 35.7448 1429.59 34.2917 1431.33 33.25C1433.08 32.2083 1435.13 31.6875 1437.49 31.6875C1439.07 31.6875 1440.55 31.9427 1441.91 32.4531C1443.29 32.9531 1444.48 33.7083 1445.5 34.7187C1446.54 35.7292 1447.34 37 1447.91 38.5312C1448.48 40.0521 1448.77 41.8333 1448.77 43.875V45.7031H1428.5V41.5781H1442.5C1442.5 40.6198 1442.3 39.7708 1441.88 39.0313C1441.46 38.2917 1440.88 37.7135 1440.14 37.2969C1439.42 36.8698 1438.57 36.6562 1437.6 36.6562C1436.59 36.6562 1435.69 36.8906 1434.91 37.3594C1434.14 37.8177 1433.54 38.4375 1433.1 39.2187C1432.66 39.9896 1432.44 40.849 1432.43 41.7969V45.7187C1432.43 46.9062 1432.64 47.9323 1433.08 48.7969C1433.53 49.6615 1434.16 50.3281 1434.97 50.7969C1435.79 51.2656 1436.75 51.5 1437.86 51.5C1438.6 51.5 1439.28 51.3958 1439.89 51.1875C1440.51 50.9792 1441.04 50.6667 1441.47 50.25C1441.91 49.8333 1442.24 49.3229 1442.47 48.7188L1448.63 49.125C1448.32 50.6042 1447.68 51.8958 1446.71 53C1445.75 54.0937 1444.51 54.9479 1442.99 55.5625C1441.48 56.1667 1439.73 56.4688 1437.75 56.4688ZM1453.11 56V32H1459.57V36.1875H1459.82C1460.25 34.6979 1460.99 33.5729 1462.02 32.8125C1463.05 32.0417 1464.24 31.6562 1465.58 31.6562C1465.92 31.6562 1466.27 31.6771 1466.66 31.7187C1467.05 31.7604 1467.38 31.8177 1467.68 31.8906V37.7969C1467.36 37.7031 1466.93 37.6198 1466.38 37.5469C1465.83 37.474 1465.32 37.4375 1464.86 37.4375C1463.88 37.4375 1463.01 37.651 1462.24 38.0781C1461.48 38.4948 1460.87 39.0781 1460.43 39.8281C1459.99 40.5781 1459.77 41.4427 1459.77 42.4219V56H1453.11Z" fill="black"/>
</svg>
