<svg width="1600" height="589" viewBox="0 0 1600 589" fill="none" xmlns="http://www.w3.org/2000/svg">
<rect width="1600" height="589" fill="white"/>
<path d="M303 52C303 43.1634 310.163 36 319 36H1282C1290.84 36 1298 43.1634 1298 52V150C1298 158.837 1290.84 166 1282 166H319C310.163 166 303 158.837 303 150V52Z" fill="#5856D6"/>
<path d="M744.057 94.8661C743.958 93.8635 743.531 93.0846 742.777 92.5295C742.023 91.9743 741 91.6967 739.707 91.6967C738.829 91.6967 738.087 91.821 737.482 92.0696C736.877 92.3099 736.413 92.6455 736.09 93.0763C735.775 93.5072 735.618 93.9961 735.618 94.543C735.601 94.9987 735.697 95.3964 735.904 95.7361C736.119 96.0759 736.413 96.37 736.786 96.6186C737.159 96.8589 737.59 97.0702 738.079 97.2525C738.568 97.4265 739.09 97.5756 739.645 97.6999L741.932 98.2468C743.042 98.4954 744.061 98.8268 744.989 99.2411C745.917 99.6554 746.721 100.165 747.401 100.77C748.08 101.375 748.606 102.087 748.979 102.908C749.36 103.728 749.555 104.668 749.563 105.729C749.555 107.287 749.157 108.637 748.37 109.781C747.591 110.916 746.464 111.799 744.989 112.428C743.523 113.05 741.754 113.36 739.682 113.36C737.627 113.36 735.837 113.046 734.313 112.416C732.796 111.786 731.612 110.854 730.758 109.619C729.913 108.376 729.47 106.839 729.428 105.008H734.636C734.694 105.862 734.938 106.574 735.369 107.146C735.808 107.709 736.393 108.136 737.122 108.426C737.859 108.708 738.692 108.849 739.62 108.849C740.531 108.849 741.323 108.716 741.994 108.451C742.673 108.186 743.2 107.817 743.572 107.345C743.945 106.873 744.132 106.33 744.132 105.717C744.132 105.145 743.962 104.664 743.622 104.275C743.291 103.885 742.802 103.554 742.155 103.281C741.517 103.007 740.734 102.759 739.806 102.535L737.035 101.839C734.889 101.317 733.194 100.501 731.951 99.3903C730.708 98.2799 730.091 96.7843 730.099 94.9034C730.091 93.3622 730.501 92.0157 731.33 90.864C732.167 89.7122 733.314 88.8132 734.773 88.1669C736.231 87.5206 737.888 87.1974 739.744 87.1974C741.633 87.1974 743.282 87.5206 744.691 88.1669C746.108 88.8132 747.21 89.7122 747.997 90.864C748.784 92.0157 749.19 93.3498 749.215 94.8661H744.057ZM751.692 87.5455H757.72L763.524 98.5078H763.773L769.577 87.5455H775.605L766.321 104.001V113H760.976V104.001L751.692 87.5455ZM792.353 94.8661C792.254 93.8635 791.827 93.0846 791.073 92.5295C790.319 91.9743 789.295 91.6967 788.003 91.6967C787.125 91.6967 786.383 91.821 785.778 92.0696C785.173 92.3099 784.709 92.6455 784.386 93.0763C784.071 93.5072 783.914 93.9961 783.914 94.543C783.897 94.9987 783.992 95.3964 784.2 95.7361C784.415 96.0759 784.709 96.37 785.082 96.6186C785.455 96.8589 785.886 97.0702 786.375 97.2525C786.864 97.4265 787.386 97.5756 787.941 97.6999L790.228 98.2468C791.338 98.4954 792.357 98.8268 793.285 99.2411C794.213 99.6554 795.017 100.165 795.696 100.77C796.376 101.375 796.902 102.087 797.275 102.908C797.656 103.728 797.851 104.668 797.859 105.729C797.851 107.287 797.453 108.637 796.666 109.781C795.887 110.916 794.76 111.799 793.285 112.428C791.819 113.05 790.05 113.36 787.978 113.36C785.923 113.36 784.133 113.046 782.609 112.416C781.092 111.786 779.907 110.854 779.054 109.619C778.209 108.376 777.766 106.839 777.724 105.008H782.932C782.99 105.862 783.234 106.574 783.665 107.146C784.104 107.709 784.688 108.136 785.418 108.426C786.155 108.708 786.988 108.849 787.916 108.849C788.827 108.849 789.619 108.716 790.29 108.451C790.969 108.186 791.495 107.817 791.868 107.345C792.241 106.873 792.428 106.33 792.428 105.717C792.428 105.145 792.258 104.664 791.918 104.275C791.587 103.885 791.098 103.554 790.451 103.281C789.813 103.007 789.03 102.759 788.102 102.535L785.331 101.839C783.185 101.317 781.49 100.501 780.247 99.3903C779.004 98.2799 778.387 96.7843 778.395 94.9034C778.387 93.3622 778.797 92.0157 779.626 90.864C780.463 89.7122 781.61 88.8132 783.069 88.1669C784.527 87.5206 786.184 87.1974 788.04 87.1974C789.929 87.1974 791.578 87.5206 792.987 88.1669C794.404 88.8132 795.506 89.7122 796.293 90.864C797.08 92.0157 797.486 93.3498 797.511 94.8661H792.353ZM800.51 91.9826V87.5455H821.415V91.9826H813.622V113H808.303V91.9826H800.51ZM824.858 113V87.5455H842.01V91.9826H830.24V98.0479H841.127V102.485H830.24V108.563H842.06V113H824.858ZM846.289 87.5455H852.926L859.936 104.648H860.234L867.244 87.5455H873.881V113H868.661V96.4322H868.449L861.862 112.876H858.307L851.72 96.37H851.509V113H846.289V87.5455Z" fill="white"/>
<path d="M642 205C642 196.163 649.163 189 658 189H943C951.837 189 959 196.163 959 205V303C959 311.837 951.837 319 943 319H658C649.163 319 642 311.837 642 303V205Z" fill="#00C7BE"/>
<path d="M741.826 247.866C741.726 246.864 741.299 246.085 740.545 245.529C739.791 244.974 738.768 244.697 737.475 244.697C736.597 244.697 735.856 244.821 735.251 245.07C734.646 245.31 734.182 245.645 733.859 246.076C733.544 246.507 733.386 246.996 733.386 247.543C733.37 247.999 733.465 248.396 733.672 248.736C733.888 249.076 734.182 249.37 734.555 249.619C734.928 249.859 735.358 250.07 735.847 250.252C736.336 250.426 736.858 250.576 737.413 250.7L739.7 251.247C740.811 251.495 741.83 251.827 742.758 252.241C743.686 252.655 744.49 253.165 745.169 253.77C745.848 254.375 746.375 255.087 746.748 255.908C747.129 256.728 747.323 257.668 747.332 258.729C747.323 260.287 746.926 261.637 746.138 262.781C745.36 263.916 744.233 264.799 742.758 265.428C741.291 266.05 739.522 266.36 737.451 266.36C735.396 266.36 733.606 266.046 732.081 265.416C730.565 264.786 729.38 263.854 728.527 262.619C727.681 261.376 727.238 259.839 727.197 258.008H732.404C732.462 258.862 732.707 259.574 733.138 260.146C733.577 260.709 734.161 261.136 734.89 261.426C735.628 261.708 736.46 261.849 737.388 261.849C738.3 261.849 739.091 261.716 739.762 261.451C740.442 261.186 740.968 260.817 741.341 260.345C741.714 259.873 741.9 259.33 741.9 258.717C741.9 258.145 741.73 257.664 741.391 257.275C741.059 256.885 740.57 256.554 739.924 256.281C739.286 256.007 738.503 255.759 737.575 255.535L734.803 254.839C732.657 254.317 730.963 253.501 729.72 252.39C728.477 251.28 727.86 249.784 727.868 247.903C727.86 246.362 728.27 245.016 729.098 243.864C729.935 242.712 731.083 241.813 732.541 241.167C734 240.521 735.657 240.197 737.513 240.197C739.402 240.197 741.051 240.521 742.46 241.167C743.876 241.813 744.978 242.712 745.766 243.864C746.553 245.016 746.959 246.35 746.984 247.866H741.826ZM750.952 266V240.545H768.104V244.983H756.333V251.048H767.221V255.485H756.333V261.563H768.153V266H750.952ZM772.382 266V240.545H782.425C784.347 240.545 785.988 240.889 787.347 241.577C788.714 242.257 789.754 243.222 790.466 244.473C791.187 245.716 791.548 247.178 791.548 248.86C791.548 250.551 791.183 252.005 790.454 253.223C789.725 254.433 788.668 255.361 787.285 256.007C785.909 256.653 784.244 256.977 782.288 256.977H775.564V252.651H781.418C782.446 252.651 783.299 252.51 783.979 252.229C784.658 251.947 785.163 251.524 785.495 250.961C785.835 250.397 786.004 249.697 786.004 248.86C786.004 248.015 785.835 247.303 785.495 246.723C785.163 246.143 784.654 245.703 783.966 245.405C783.287 245.099 782.429 244.945 781.393 244.945H777.764V266H772.382ZM786.129 254.416L792.455 266H786.514L780.324 254.416H786.129ZM799.266 240.545L805.418 259.885H805.655L811.819 240.545H817.785L809.01 266H802.075L793.288 240.545H799.266ZM826.231 240.545V266H820.849V240.545H826.231ZM853.118 249.457H847.674C847.574 248.753 847.371 248.127 847.065 247.58C846.758 247.025 846.365 246.553 845.884 246.163C845.404 245.774 844.848 245.476 844.219 245.268C843.597 245.061 842.922 244.958 842.193 244.958C840.875 244.958 839.728 245.285 838.75 245.94C837.772 246.586 837.014 247.531 836.475 248.773C835.937 250.008 835.668 251.508 835.668 253.273C835.668 255.087 835.937 256.612 836.475 257.847C837.022 259.081 837.785 260.013 838.762 260.643C839.74 261.273 840.871 261.588 842.155 261.588C842.876 261.588 843.543 261.492 844.157 261.302C844.778 261.111 845.329 260.834 845.81 260.469C846.29 260.096 846.688 259.645 847.003 259.114C847.326 258.584 847.55 257.979 847.674 257.3L853.118 257.325C852.977 258.493 852.625 259.62 852.061 260.705C851.506 261.782 850.756 262.748 849.812 263.601C848.875 264.446 847.757 265.118 846.456 265.615C845.163 266.104 843.701 266.348 842.068 266.348C839.798 266.348 837.768 265.834 835.978 264.807C834.197 263.779 832.788 262.292 831.752 260.345C830.725 258.398 830.211 256.04 830.211 253.273C830.211 250.497 830.733 248.135 831.777 246.188C832.821 244.241 834.238 242.758 836.028 241.739C837.818 240.711 839.831 240.197 842.068 240.197C843.543 240.197 844.911 240.405 846.17 240.819C847.438 241.233 848.561 241.838 849.538 242.634C850.516 243.421 851.311 244.386 851.925 245.529C852.546 246.673 852.944 247.982 853.118 249.457ZM856.977 266V240.545H874.129V244.983H862.359V251.048H873.247V255.485H862.359V261.563H874.179V266H856.977Z" fill="white"/>
<path d="M642 358C642 349.163 649.163 342 658 342H943C951.837 342 959 349.163 959 358V456C959 464.837 951.837 472 943 472H658C649.163 472 642 464.837 642 456V358Z" fill="#00C7BE"/>
<path d="M738.937 419H729.914V393.545H739.012C741.572 393.545 743.776 394.055 745.624 395.074C747.472 396.085 748.893 397.539 749.887 399.437C750.89 401.334 751.391 403.605 751.391 406.248C751.391 408.899 750.89 411.178 749.887 413.084C748.893 414.99 747.464 416.452 745.599 417.471C743.743 418.49 741.523 419 738.937 419ZM735.296 414.389H738.714C740.305 414.389 741.643 414.107 742.728 413.544C743.822 412.972 744.642 412.089 745.189 410.896C745.744 409.695 746.022 408.145 746.022 406.248C746.022 404.367 745.744 402.83 745.189 401.637C744.642 400.444 743.826 399.565 742.741 399.002C741.655 398.438 740.317 398.157 738.726 398.157H735.296V414.389ZM778.769 406.273C778.769 409.049 778.243 411.41 777.191 413.357C776.147 415.304 774.722 416.792 772.915 417.819C771.117 418.838 769.095 419.348 766.85 419.348C764.588 419.348 762.558 418.834 760.76 417.807C758.962 416.779 757.541 415.292 756.496 413.345C755.452 411.398 754.93 409.04 754.93 406.273C754.93 403.497 755.452 401.135 756.496 399.188C757.541 397.241 758.962 395.758 760.76 394.739C762.558 393.711 764.588 393.197 766.85 393.197C769.095 393.197 771.117 393.711 772.915 394.739C774.722 395.758 776.147 397.241 777.191 399.188C778.243 401.135 778.769 403.497 778.769 406.273ZM773.313 406.273C773.313 404.475 773.044 402.958 772.505 401.724C771.975 400.489 771.225 399.553 770.255 398.915C769.286 398.277 768.151 397.958 766.85 397.958C765.549 397.958 764.414 398.277 763.444 398.915C762.475 399.553 761.721 400.489 761.182 401.724C760.652 402.958 760.387 404.475 760.387 406.273C760.387 408.071 760.652 409.587 761.182 410.822C761.721 412.056 762.475 412.993 763.444 413.631C764.414 414.269 765.549 414.588 766.85 414.588C768.151 414.588 769.286 414.269 770.255 413.631C771.225 412.993 771.975 412.056 772.505 410.822C773.044 409.587 773.313 408.071 773.313 406.273ZM782.756 393.545H789.393L796.403 410.648H796.701L803.711 393.545H810.348V419H805.128V402.432H804.917L798.329 418.876H794.775L788.187 402.37H787.976V419H782.756V393.545ZM819.17 419H813.403L822.19 393.545H829.125L837.9 419H832.133L825.757 399.362H825.558L819.17 419ZM818.809 408.995H832.431V413.196H818.809V408.995ZM846.346 393.545V419H840.964V393.545H846.346ZM872.064 393.545V419H867.416L856.342 402.979H856.155V419H850.773V393.545H855.496L866.484 409.554H866.707V393.545H872.064Z" fill="white"/>
<path d="M303 206.168C303 197.331 310.163 190.168 319 190.168H604C612.837 190.168 620 197.331 620 206.168V456C620 464.837 612.837 472 604 472H319C310.163 472 303 464.837 303 456V206.168Z" fill="#FF2D55"/>
<path d="M409.823 322.909C409.674 321.65 409.069 320.672 408.009 319.976C406.948 319.28 405.647 318.932 404.106 318.932C402.979 318.932 401.993 319.114 401.148 319.479C400.311 319.843 399.656 320.345 399.184 320.983C398.72 321.621 398.488 322.346 398.488 323.158C398.488 323.837 398.65 324.421 398.973 324.91C399.304 325.391 399.727 325.793 400.24 326.116C400.754 326.431 401.293 326.692 401.856 326.899C402.42 327.098 402.937 327.259 403.41 327.384L405.995 328.08C406.658 328.254 407.395 328.494 408.207 328.8C409.028 329.107 409.811 329.525 410.556 330.056C411.31 330.578 411.932 331.249 412.421 332.069C412.91 332.89 413.154 333.896 413.154 335.089C413.154 336.465 412.794 337.708 412.073 338.818C411.36 339.928 410.316 340.811 408.941 341.466C407.574 342.12 405.912 342.447 403.957 342.447C402.134 342.447 400.555 342.153 399.221 341.565C397.895 340.977 396.851 340.156 396.089 339.104C395.335 338.052 394.908 336.83 394.809 335.437H397.991C398.074 336.399 398.397 337.194 398.96 337.824C399.532 338.445 400.253 338.909 401.123 339.216C402.001 339.514 402.946 339.663 403.957 339.663C405.133 339.663 406.19 339.473 407.126 339.092C408.062 338.702 408.804 338.164 409.351 337.476C409.898 336.78 410.171 335.968 410.171 335.04C410.171 334.195 409.935 333.507 409.463 332.977C408.99 332.446 408.369 332.015 407.598 331.684C406.828 331.353 405.995 331.062 405.1 330.814L401.968 329.919C399.979 329.347 398.405 328.531 397.245 327.471C396.085 326.41 395.505 325.022 395.505 323.307C395.505 321.882 395.89 320.639 396.661 319.578C397.44 318.509 398.484 317.681 399.793 317.092C401.11 316.496 402.581 316.197 404.205 316.197C405.846 316.197 407.304 316.492 408.58 317.08C409.856 317.66 410.867 318.455 411.613 319.466C412.367 320.477 412.765 321.625 412.806 322.909H409.823ZM438.705 324.5H435.623C435.44 323.613 435.121 322.835 434.666 322.163C434.218 321.492 433.671 320.929 433.025 320.473C432.387 320.009 431.678 319.661 430.9 319.429C430.121 319.197 429.309 319.081 428.464 319.081C426.922 319.081 425.526 319.47 424.275 320.249C423.032 321.028 422.042 322.176 421.304 323.692C420.575 325.208 420.211 327.069 420.211 329.273C420.211 331.477 420.575 333.337 421.304 334.853C422.042 336.37 423.032 337.517 424.275 338.296C425.526 339.075 426.922 339.464 428.464 339.464C429.309 339.464 430.121 339.348 430.9 339.116C431.678 338.884 432.387 338.541 433.025 338.085C433.671 337.621 434.218 337.053 434.666 336.382C435.121 335.703 435.44 334.924 435.623 334.045H438.705C438.473 335.346 438.05 336.511 437.437 337.538C436.824 338.565 436.062 339.44 435.15 340.161C434.239 340.873 433.216 341.416 432.08 341.789C430.953 342.162 429.748 342.348 428.464 342.348C426.293 342.348 424.362 341.818 422.672 340.757C420.981 339.696 419.651 338.188 418.682 336.233C417.712 334.277 417.228 331.957 417.228 329.273C417.228 326.588 417.712 324.268 418.682 322.312C419.651 320.357 420.981 318.849 422.672 317.788C424.362 316.728 426.293 316.197 428.464 316.197C429.748 316.197 430.953 316.384 432.08 316.757C433.216 317.13 434.239 317.676 435.15 318.397C436.062 319.11 436.824 319.98 437.437 321.007C438.05 322.027 438.473 323.191 438.705 324.5ZM443.686 342V316.545H452.287C454.275 316.545 455.908 316.885 457.184 317.565C458.46 318.236 459.404 319.16 460.018 320.336C460.631 321.513 460.937 322.851 460.937 324.351C460.937 325.851 460.631 327.181 460.018 328.341C459.404 329.501 458.464 330.412 457.196 331.075C455.928 331.73 454.309 332.057 452.336 332.057H445.376V329.273H452.237C453.596 329.273 454.69 329.074 455.518 328.676C456.355 328.278 456.96 327.715 457.333 326.986C457.714 326.248 457.905 325.37 457.905 324.351C457.905 323.332 457.714 322.441 457.333 321.679C456.952 320.916 456.343 320.328 455.506 319.914C454.669 319.491 453.563 319.28 452.187 319.28H446.768V342H443.686ZM455.667 330.565L461.932 342H458.352L452.187 330.565H455.667ZM466.074 342V316.545H481.436V319.28H469.156V327.881H480.64V330.615H469.156V339.266H481.635V342H466.074ZM486.992 342V316.545H502.354V319.28H490.074V327.881H501.558V330.615H490.074V339.266H502.553V342H486.992ZM528.094 316.545V342H525.111L511.24 322.014H510.992V342H507.91V316.545H510.892L524.813 336.581H525.062V316.545H528.094Z" fill="white"/>
<path d="M303 510.458C303 501.621 310.163 494.458 319 494.458H604C612.837 494.458 620 501.621 620 510.458V538C620 546.837 612.837 554 604 554H319C310.163 554 303 546.837 303 538V510.458Z" fill="#32ADE6"/>
<path d="M424.948 516.909C424.799 515.65 424.194 514.672 423.133 513.976C422.072 513.28 420.772 512.932 419.23 512.932C418.103 512.932 417.117 513.114 416.272 513.479C415.435 513.843 414.781 514.345 414.308 514.983C413.844 515.621 413.612 516.346 413.612 517.158C413.612 517.837 413.774 518.421 414.097 518.91C414.429 519.391 414.851 519.793 415.365 520.116C415.879 520.431 416.417 520.692 416.981 520.899C417.544 521.098 418.062 521.259 418.534 521.384L421.12 522.08C421.782 522.254 422.52 522.494 423.332 522.8C424.152 523.107 424.935 523.525 425.681 524.056C426.435 524.578 427.056 525.249 427.545 526.069C428.034 526.89 428.279 527.896 428.279 529.089C428.279 530.465 427.918 531.708 427.197 532.818C426.485 533.929 425.441 534.811 424.065 535.466C422.698 536.12 421.037 536.447 419.081 536.447C417.258 536.447 415.68 536.153 414.346 535.565C413.02 534.977 411.976 534.156 411.214 533.104C410.46 532.052 410.033 530.83 409.933 529.437H413.115C413.198 530.399 413.521 531.194 414.085 531.824C414.656 532.445 415.377 532.909 416.247 533.216C417.126 533.514 418.07 533.663 419.081 533.663C420.258 533.663 421.314 533.473 422.251 533.092C423.187 532.702 423.928 532.164 424.475 531.476C425.022 530.78 425.296 529.968 425.296 529.04C425.296 528.195 425.06 527.507 424.587 526.977C424.115 526.446 423.493 526.015 422.723 525.684C421.952 525.353 421.12 525.062 420.225 524.814L417.093 523.919C415.104 523.347 413.53 522.531 412.37 521.471C411.209 520.41 410.629 519.022 410.629 517.307C410.629 515.882 411.015 514.639 411.785 513.578C412.564 512.509 413.608 511.681 414.917 511.092C416.235 510.496 417.706 510.197 419.33 510.197C420.97 510.197 422.429 510.492 423.705 511.08C424.981 511.66 425.992 512.455 426.737 513.466C427.491 514.477 427.889 515.625 427.931 516.909H424.948ZM433.347 536V510.545H436.429V521.881H450.001V510.545H453.084V536H450.001V524.615H436.429V536H433.347ZM480.732 523.273C480.732 525.957 480.247 528.277 479.278 530.233C478.308 532.188 476.978 533.696 475.288 534.757C473.598 535.818 471.667 536.348 469.496 536.348C467.325 536.348 465.395 535.818 463.704 534.757C462.014 533.696 460.684 532.188 459.715 530.233C458.745 528.277 458.26 525.957 458.26 523.273C458.26 520.588 458.745 518.268 459.715 516.312C460.684 514.357 462.014 512.849 463.704 511.788C465.395 510.728 467.325 510.197 469.496 510.197C471.667 510.197 473.598 510.728 475.288 511.788C476.978 512.849 478.308 514.357 479.278 516.312C480.247 518.268 480.732 520.588 480.732 523.273ZM477.749 523.273C477.749 521.069 477.38 519.208 476.643 517.692C475.914 516.176 474.924 515.028 473.672 514.249C472.429 513.47 471.037 513.081 469.496 513.081C467.955 513.081 466.559 513.47 465.308 514.249C464.065 515.028 463.075 516.176 462.337 517.692C461.608 519.208 461.243 521.069 461.243 523.273C461.243 525.477 461.608 527.337 462.337 528.853C463.075 530.37 464.065 531.517 465.308 532.296C466.559 533.075 467.955 533.464 469.496 533.464C471.037 533.464 472.429 533.075 473.672 532.296C474.924 531.517 475.914 530.37 476.643 528.853C477.38 527.337 477.749 525.477 477.749 523.273ZM490.538 536L483.578 510.545H486.71L492.03 531.277H492.279L497.698 510.545H501.178L506.597 531.277H506.845L512.165 510.545H515.297L508.337 536H505.155L499.537 515.716H499.338L493.72 536H490.538Z" fill="white"/>
<path d="M642 510.458C642 501.621 649.163 494.458 658 494.458H943C951.837 494.458 959 501.621 959 510.458V538C959 546.837 951.837 554 943 554H658C649.163 554 642 546.837 642 538V510.458Z" fill="#007AFF"/>
<path d="M782.113 510.545H785.195V527.399C785.195 529.139 784.785 530.693 783.965 532.06C783.153 533.419 782.005 534.492 780.522 535.279C779.039 536.058 777.298 536.447 775.302 536.447C773.305 536.447 771.565 536.058 770.081 535.279C768.598 534.492 767.446 533.419 766.626 532.06C765.814 530.693 765.408 529.139 765.408 527.399V510.545H768.49V527.151C768.49 528.393 768.764 529.5 769.311 530.469C769.858 531.43 770.637 532.188 771.647 532.744C772.667 533.29 773.885 533.564 775.302 533.564C776.718 533.564 777.936 533.29 778.956 532.744C779.975 532.188 780.754 531.43 781.292 530.469C781.839 529.5 782.113 528.393 782.113 527.151V510.545ZM789.958 513.28V510.545H809.049V513.28H801.045V536H797.963V513.28H789.958ZM816.889 510.545V536H813.807V510.545H816.889ZM823.069 536V510.545H826.152V533.266H837.984V536H823.069Z" fill="white"/>
<path d="M981 510.458C981 501.621 988.163 494.458 997 494.458H1282C1290.84 494.458 1298 501.621 1298 510.458V538C1298 546.837 1290.84 554 1282 554H997C988.163 554 981 546.837 981 538V510.458Z" fill="#32ADE6"/>
<path d="M1114 518.5C1113.73 517.663 1113.36 516.913 1112.92 516.25C1112.48 515.579 1111.95 515.007 1111.34 514.535C1110.73 514.063 1110.05 513.702 1109.28 513.454C1108.5 513.205 1107.66 513.081 1106.74 513.081C1105.23 513.081 1103.86 513.47 1102.63 514.249C1101.39 515.028 1100.41 516.176 1099.68 517.692C1098.95 519.208 1098.59 521.069 1098.59 523.273C1098.59 525.477 1098.96 527.337 1099.69 528.853C1100.43 530.37 1101.43 531.517 1102.69 532.296C1103.95 533.075 1105.36 533.464 1106.94 533.464C1108.4 533.464 1109.68 533.154 1110.79 532.532C1111.91 531.903 1112.78 531.016 1113.4 529.873C1114.03 528.721 1114.35 527.366 1114.35 525.808L1115.29 526.007H1107.63V523.273H1117.33V526.007C1117.33 528.103 1116.88 529.926 1115.99 531.476C1115.1 533.025 1113.87 534.227 1112.31 535.08C1110.75 535.925 1108.96 536.348 1106.94 536.348C1104.69 536.348 1102.7 535.818 1101 534.757C1099.3 533.696 1097.97 532.188 1097.02 530.233C1096.08 528.277 1095.6 525.957 1095.6 523.273C1095.6 521.259 1095.87 519.449 1096.41 517.841C1096.96 516.225 1097.73 514.85 1098.72 513.715C1099.72 512.58 1100.89 511.71 1102.25 511.105C1103.61 510.5 1105.11 510.197 1106.74 510.197C1108.08 510.197 1109.33 510.4 1110.49 510.806C1111.66 511.204 1112.7 511.772 1113.61 512.509C1114.53 513.238 1115.3 514.113 1115.91 515.132C1116.53 516.143 1116.95 517.265 1117.18 518.5H1114ZM1122.61 536V510.545H1137.97V513.28H1125.69V521.881H1137.18V524.615H1125.69V533.266H1138.17V536H1122.61ZM1144.57 536H1141.34L1150.69 510.545H1153.87L1163.21 536H1159.98L1152.38 514.572H1152.18L1144.57 536ZM1145.76 526.057H1158.79V528.791H1145.76V526.057ZM1167.18 536V510.545H1175.78C1177.77 510.545 1179.4 510.885 1180.68 511.565C1181.95 512.236 1182.9 513.16 1183.51 514.336C1184.12 515.513 1184.43 516.851 1184.43 518.351C1184.43 519.851 1184.12 521.181 1183.51 522.341C1182.9 523.501 1181.96 524.412 1180.69 525.075C1179.42 525.73 1177.8 526.057 1175.83 526.057H1168.87V523.273H1175.73C1177.09 523.273 1178.18 523.074 1179.01 522.676C1179.85 522.278 1180.45 521.715 1180.83 520.986C1181.21 520.248 1181.4 519.37 1181.4 518.351C1181.4 517.332 1181.21 516.441 1180.83 515.679C1180.44 514.916 1179.84 514.328 1179 513.914C1178.16 513.491 1177.06 513.28 1175.68 513.28H1170.26V536H1167.18ZM1179.16 524.565L1185.42 536H1181.85L1175.68 524.565H1179.16Z" fill="white"/>
<path d="M981 206.168C981 197.331 988.163 190.168 997 190.168H1282C1290.84 190.168 1298 197.331 1298 206.168V456C1298 464.837 1290.84 472 1282 472H997C988.163 472 981 464.837 981 456V206.168Z" fill="#FF2D55"/>
<path d="M1074.1 342L1067.14 316.545H1070.27L1075.59 337.277H1075.84L1081.26 316.545H1084.74L1090.16 337.277H1090.41L1095.73 316.545H1098.86L1091.9 342H1088.72L1083.1 321.716H1082.9L1077.28 342H1074.1ZM1122.98 329.273C1122.98 331.957 1122.5 334.277 1121.53 336.233C1120.56 338.188 1119.23 339.696 1117.54 340.757C1115.85 341.818 1113.92 342.348 1111.74 342.348C1109.57 342.348 1107.64 341.818 1105.95 340.757C1104.26 339.696 1102.93 338.188 1101.96 336.233C1100.99 334.277 1100.51 331.957 1100.51 329.273C1100.51 326.588 1100.99 324.268 1101.96 322.312C1102.93 320.357 1104.26 318.849 1105.95 317.788C1107.64 316.728 1109.57 316.197 1111.74 316.197C1113.92 316.197 1115.85 316.728 1117.54 317.788C1119.23 318.849 1120.56 320.357 1121.53 322.312C1122.5 324.268 1122.98 326.588 1122.98 329.273ZM1120 329.273C1120 327.069 1119.63 325.208 1118.89 323.692C1118.16 322.176 1117.17 321.028 1115.92 320.249C1114.68 319.47 1113.29 319.081 1111.74 319.081C1110.2 319.081 1108.81 319.47 1107.56 320.249C1106.31 321.028 1105.32 322.176 1104.59 323.692C1103.86 325.208 1103.49 327.069 1103.49 329.273C1103.49 331.477 1103.86 333.337 1104.59 334.853C1105.32 336.37 1106.31 337.517 1107.56 338.296C1108.81 339.075 1110.2 339.464 1111.74 339.464C1113.29 339.464 1114.68 339.075 1115.92 338.296C1117.17 337.517 1118.16 336.37 1118.89 334.853C1119.63 333.337 1120 331.477 1120 329.273ZM1128.16 342V316.545H1136.76C1138.75 316.545 1140.38 316.885 1141.66 317.565C1142.94 318.236 1143.88 319.16 1144.49 320.336C1145.11 321.513 1145.41 322.851 1145.41 324.351C1145.41 325.851 1145.11 327.181 1144.49 328.341C1143.88 329.501 1142.94 330.412 1141.67 331.075C1140.41 331.73 1138.79 332.057 1136.81 332.057H1129.85V329.273H1136.71C1138.07 329.273 1139.17 329.074 1140 328.676C1140.83 328.278 1141.44 327.715 1141.81 326.986C1142.19 326.248 1142.38 325.37 1142.38 324.351C1142.38 323.332 1142.19 322.441 1141.81 321.679C1141.43 320.916 1140.82 320.328 1139.98 319.914C1139.15 319.491 1138.04 319.28 1136.66 319.28H1131.25V342H1128.16ZM1140.14 330.565L1146.41 342H1142.83L1136.66 330.565H1140.14ZM1150.55 342V316.545H1153.63V329.173H1153.93L1165.37 316.545H1169.39L1158.7 328.03L1169.39 342H1165.66L1156.81 330.168L1153.63 333.747V342H1150.55ZM1173.38 342V316.545H1188.74V319.28H1176.47V327.881H1187.95V330.615H1176.47V339.266H1188.94V342H1173.38ZM1194.3 342V316.545H1202.9C1204.89 316.545 1206.52 316.885 1207.8 317.565C1209.07 318.236 1210.02 319.16 1210.63 320.336C1211.25 321.513 1211.55 322.851 1211.55 324.351C1211.55 325.851 1211.25 327.181 1210.63 328.341C1210.02 329.501 1209.08 330.412 1207.81 331.075C1206.54 331.73 1204.92 332.057 1202.95 332.057H1195.99V329.273H1202.85C1204.21 329.273 1205.3 329.074 1206.13 328.676C1206.97 328.278 1207.57 327.715 1207.95 326.986C1208.33 326.248 1208.52 325.37 1208.52 324.351C1208.52 323.332 1208.33 322.441 1207.95 321.679C1207.57 320.916 1206.96 320.328 1206.12 319.914C1205.28 319.491 1204.18 319.28 1202.8 319.28H1197.38V342H1194.3ZM1206.28 330.565L1212.55 342H1208.97L1202.8 330.565H1206.28Z" fill="white"/>
</svg>
