<svg width="1600" height="828" viewBox="0 0 1600 828" fill="none" xmlns="http://www.w3.org/2000/svg">
<rect width="1600" height="828" fill="white"/>
<path d="M507 41C507 32.1635 514.163 25 523 25H1074C1082.84 25 1090 32.1634 1090 41V787C1090 795.837 1082.84 803 1074 803H523C514.163 803 507 795.837 507 787V41Z" fill="#EBEDF0"/>
<path d="M658.445 37.5455L666.001 58.973H666.3L673.857 37.5455H677.088L667.742 63H664.56L655.213 37.5455H658.445ZM686.882 63.3977C685.043 63.3977 683.456 62.9917 682.122 62.1797C680.796 61.3594 679.773 60.2159 679.052 58.7493C678.339 57.2744 677.983 55.5592 677.983 53.6037C677.983 51.6482 678.339 49.9247 679.052 48.4332C679.773 46.9335 680.775 45.7652 682.06 44.9283C683.352 44.0831 684.86 43.6605 686.584 43.6605C687.578 43.6605 688.56 43.8262 689.53 44.1577C690.499 44.4891 691.381 45.0277 692.177 45.7734C692.972 46.5109 693.606 47.4886 694.079 48.7067C694.551 49.9247 694.787 51.4245 694.787 53.206V54.4489H680.071V51.9134H691.804C691.804 50.8362 691.589 49.875 691.158 49.0298C690.735 48.1847 690.13 47.5176 689.343 47.0288C688.564 46.5399 687.644 46.2955 686.584 46.2955C685.416 46.2955 684.405 46.5855 683.551 47.1655C682.706 47.7372 682.056 48.483 681.6 49.4027C681.144 50.3224 680.916 51.3085 680.916 52.3608V54.0511C680.916 55.4929 681.165 56.7151 681.662 57.7177C682.167 58.712 682.868 59.4702 683.762 59.9922C684.657 60.5059 685.697 60.7628 686.882 60.7628C687.653 60.7628 688.349 60.6551 688.97 60.4396C689.6 60.2159 690.143 59.8845 690.598 59.4453C691.054 58.9979 691.406 58.4427 691.655 57.7798L694.489 58.5753C694.19 59.5365 693.689 60.3816 692.985 61.1108C692.28 61.8317 691.41 62.3951 690.375 62.8011C689.339 63.1989 688.175 63.3977 686.882 63.3977ZM712.772 48.1847L710.137 48.9304C709.971 48.4912 709.727 48.0645 709.403 47.6502C709.089 47.2276 708.658 46.8796 708.111 46.6062C707.564 46.3327 706.864 46.196 706.01 46.196C704.842 46.196 703.868 46.4653 703.09 47.0039C702.319 47.5342 701.934 48.2095 701.934 49.0298C701.934 49.759 702.199 50.3349 702.729 50.7575C703.259 51.18 704.088 51.5322 705.215 51.8139L708.049 52.5099C709.756 52.9242 711.028 53.5581 711.864 54.4116C712.701 55.2567 713.12 56.3464 713.12 57.6804C713.12 58.7741 712.805 59.7519 712.175 60.6136C711.554 61.4754 710.684 62.1548 709.565 62.652C708.446 63.1491 707.146 63.3977 705.662 63.3977C703.715 63.3977 702.104 62.9751 700.827 62.13C699.551 61.2848 698.744 60.0502 698.404 58.4261L701.188 57.7301C701.453 58.7576 701.954 59.5282 702.692 60.0419C703.438 60.5556 704.411 60.8125 705.613 60.8125C706.98 60.8125 708.065 60.5225 708.869 59.9425C709.681 59.3542 710.087 58.6499 710.087 57.8295C710.087 57.1667 709.855 56.6115 709.391 56.1641C708.927 55.7083 708.214 55.3686 707.253 55.1449L704.071 54.3991C702.323 53.9848 701.039 53.3427 700.218 52.4727C699.406 51.5943 699 50.4964 699 49.179C699 48.1018 699.303 47.1489 699.908 46.3203C700.521 45.4917 701.354 44.8413 702.406 44.369C703.467 43.8967 704.668 43.6605 706.01 43.6605C707.9 43.6605 709.383 44.0748 710.46 44.9034C711.545 45.732 712.316 46.8258 712.772 48.1847ZM731.058 48.1847L728.423 48.9304C728.257 48.4912 728.013 48.0645 727.69 47.6502C727.375 47.2276 726.944 46.8796 726.397 46.6062C725.85 46.3327 725.15 46.196 724.296 46.196C723.128 46.196 722.155 46.4653 721.376 47.0039C720.605 47.5342 720.22 48.2095 720.22 49.0298C720.22 49.759 720.485 50.3349 721.015 50.7575C721.546 51.18 722.374 51.5322 723.501 51.8139L726.335 52.5099C728.042 52.9242 729.314 53.5581 730.151 54.4116C730.987 55.2567 731.406 56.3464 731.406 57.6804C731.406 58.7741 731.091 59.7519 730.461 60.6136C729.84 61.4754 728.97 62.1548 727.851 62.652C726.733 63.1491 725.432 63.3977 723.948 63.3977C722.001 63.3977 720.39 62.9751 719.114 62.13C717.838 61.2848 717.03 60.0502 716.69 58.4261L719.474 57.7301C719.739 58.7576 720.241 59.5282 720.978 60.0419C721.724 60.5556 722.697 60.8125 723.899 60.8125C725.266 60.8125 726.351 60.5225 727.155 59.9425C727.967 59.3542 728.373 58.6499 728.373 57.8295C728.373 57.1667 728.141 56.6115 727.677 56.1641C727.213 55.7083 726.501 55.3686 725.539 55.1449L722.358 54.3991C720.609 53.9848 719.325 53.3427 718.505 52.4727C717.693 51.5943 717.287 50.4964 717.287 49.179C717.287 48.1018 717.589 47.1489 718.194 46.3203C718.807 45.4917 719.64 44.8413 720.692 44.369C721.753 43.8967 722.954 43.6605 724.296 43.6605C726.186 43.6605 727.669 44.0748 728.746 44.9034C729.832 45.732 730.602 46.8258 731.058 48.1847ZM743.826 63.3977C741.986 63.3977 740.399 62.9917 739.065 62.1797C737.739 61.3594 736.716 60.2159 735.995 58.7493C735.283 57.2744 734.926 55.5592 734.926 53.6037C734.926 51.6482 735.283 49.9247 735.995 48.4332C736.716 46.9335 737.719 45.7652 739.003 44.9283C740.296 44.0831 741.804 43.6605 743.527 43.6605C744.522 43.6605 745.503 43.8262 746.473 44.1577C747.442 44.4891 748.325 45.0277 749.12 45.7734C749.916 46.5109 750.55 47.4886 751.022 48.7067C751.494 49.9247 751.73 51.4245 751.73 53.206V54.4489H737.014V51.9134H748.747C748.747 50.8362 748.532 49.875 748.101 49.0298C747.679 48.1847 747.074 47.5176 746.286 47.0288C745.508 46.5399 744.588 46.2955 743.527 46.2955C742.359 46.2955 741.348 46.5855 740.495 47.1655C739.649 47.7372 738.999 48.483 738.543 49.4027C738.087 50.3224 737.86 51.3085 737.86 52.3608V54.0511C737.86 55.4929 738.108 56.7151 738.605 57.7177C739.111 58.712 739.811 59.4702 740.706 59.9922C741.601 60.5059 742.641 60.7628 743.826 60.7628C744.596 60.7628 745.292 60.6551 745.914 60.4396C746.543 60.2159 747.086 59.8845 747.542 59.4453C747.998 58.9979 748.35 58.4427 748.598 57.7798L751.432 58.5753C751.134 59.5365 750.632 60.3816 749.928 61.1108C749.224 61.8317 748.354 62.3951 747.318 62.8011C746.282 63.1989 745.118 63.3977 743.826 63.3977ZM759.126 37.5455V63H756.192V37.5455H759.126ZM775.187 51.6648V49.6761L791.195 41.5227V44.7045L778.916 50.6207L779.015 50.4219V50.919L778.916 50.7202L791.195 56.6364V59.8182L775.187 51.6648ZM811.731 43.9091C811.582 42.6496 810.977 41.6719 809.917 40.9759C808.856 40.2798 807.555 39.9318 806.014 39.9318C804.887 39.9318 803.901 40.1141 803.056 40.4787C802.219 40.8433 801.564 41.3446 801.092 41.9826C800.628 42.6206 800.396 43.3456 800.396 44.1577C800.396 44.8371 800.558 45.4213 800.881 45.9102C801.212 46.3907 801.635 46.7926 802.148 47.1158C802.662 47.4306 803.201 47.6916 803.764 47.8988C804.328 48.0977 804.846 48.2592 805.318 48.3835L807.903 49.0795C808.566 49.2535 809.303 49.4938 810.115 49.8004C810.936 50.107 811.719 50.5254 812.465 51.0558C813.219 51.5778 813.84 52.2489 814.329 53.0692C814.818 53.8896 815.062 54.8963 815.062 56.0895C815.062 57.465 814.702 58.7079 813.981 59.8182C813.268 60.9285 812.224 61.811 810.849 62.4656C809.482 63.1201 807.82 63.4474 805.865 63.4474C804.042 63.4474 802.463 63.1533 801.129 62.565C799.804 61.9767 798.76 61.1564 797.997 60.104C797.243 59.0517 796.816 57.8295 796.717 56.4375H799.899C799.982 57.3987 800.305 58.1941 800.868 58.8239C801.44 59.4453 802.161 59.9093 803.031 60.2159C803.909 60.5142 804.854 60.6634 805.865 60.6634C807.041 60.6634 808.098 60.4728 809.034 60.0916C809.97 59.7022 810.712 59.1636 811.259 58.4758C811.806 57.7798 812.079 56.9678 812.079 56.0398C812.079 55.1946 811.843 54.5069 811.371 53.9766C810.898 53.4463 810.277 53.0154 809.506 52.6839C808.736 52.3525 807.903 52.0625 807.008 51.8139L803.876 50.919C801.887 50.3473 800.313 49.5311 799.153 48.4705C797.993 47.4099 797.413 46.022 797.413 44.3068C797.413 42.8816 797.798 41.6387 798.569 40.5781C799.348 39.5092 800.392 38.6806 801.701 38.0923C803.019 37.4957 804.489 37.1974 806.113 37.1974C807.754 37.1974 809.212 37.4916 810.488 38.0799C811.764 38.6599 812.775 39.4554 813.521 40.4663C814.275 41.4772 814.673 42.6248 814.714 43.9091H811.731ZM827.737 63.3977C825.897 63.3977 824.31 62.9917 822.976 62.1797C821.651 61.3594 820.627 60.2159 819.906 58.7493C819.194 57.2744 818.838 55.5592 818.838 53.6037C818.838 51.6482 819.194 49.9247 819.906 48.4332C820.627 46.9335 821.63 45.7652 822.914 44.9283C824.207 44.0831 825.715 43.6605 827.438 43.6605C828.433 43.6605 829.415 43.8262 830.384 44.1577C831.353 44.4891 832.236 45.0277 833.031 45.7734C833.827 46.5109 834.461 47.4886 834.933 48.7067C835.405 49.9247 835.641 51.4245 835.641 53.206V54.4489H820.926V51.9134H832.659C832.659 50.8362 832.443 49.875 832.012 49.0298C831.59 48.1847 830.985 47.5176 830.198 47.0288C829.419 46.5399 828.499 46.2955 827.438 46.2955C826.27 46.2955 825.259 46.5855 824.406 47.1655C823.561 47.7372 822.91 48.483 822.454 49.4027C821.999 50.3224 821.771 51.3085 821.771 52.3608V54.0511C821.771 55.4929 822.019 56.7151 822.516 57.7177C823.022 58.712 823.722 59.4702 824.617 59.9922C825.512 60.5059 826.552 60.7628 827.737 60.7628C828.507 60.7628 829.203 60.6551 829.825 60.4396C830.454 60.2159 830.997 59.8845 831.453 59.4453C831.909 58.9979 832.261 58.4427 832.509 57.7798L835.343 58.5753C835.045 59.5365 834.544 60.3816 833.839 61.1108C833.135 61.8317 832.265 62.3951 831.229 62.8011C830.193 63.1989 829.029 63.3977 827.737 63.3977ZM840.103 63V43.9091H842.937V46.7926H843.136C843.484 45.848 844.114 45.0816 845.025 44.4933C845.937 43.9049 846.964 43.6108 848.108 43.6108C848.323 43.6108 848.592 43.6149 848.916 43.6232C849.239 43.6315 849.483 43.6439 849.649 43.6605V46.6435C849.55 46.6186 849.322 46.5813 848.965 46.5316C848.617 46.4736 848.249 46.4446 847.859 46.4446C846.931 46.4446 846.103 46.6393 845.373 47.0288C844.652 47.4099 844.081 47.9402 843.658 48.6197C843.244 49.2908 843.037 50.0573 843.037 50.919V63H840.103ZM869.318 43.9091L862.258 63H859.275L852.216 43.9091H855.397L860.667 59.1222H860.866L866.136 43.9091H869.318ZM873.189 63V43.9091H876.123V63H873.189ZM874.681 40.7273C874.109 40.7273 873.616 40.5326 873.202 40.1431C872.796 39.7537 872.593 39.2855 872.593 38.7386C872.593 38.1918 872.796 37.7236 873.202 37.3342C873.616 36.9447 874.109 36.75 874.681 36.75C875.253 36.75 875.742 36.9447 876.148 37.3342C876.562 37.7236 876.769 38.1918 876.769 38.7386C876.769 39.2855 876.562 39.7537 876.148 40.1431C875.742 40.5326 875.253 40.7273 874.681 40.7273ZM884.428 51.5156V63H881.495V43.9091H884.329V46.892H884.577C885.025 45.9226 885.704 45.1437 886.616 44.5554C887.527 43.9588 888.704 43.6605 890.146 43.6605C891.438 43.6605 892.569 43.9257 893.539 44.456C894.508 44.978 895.262 45.7734 895.801 46.8423C896.339 47.9029 896.609 49.2453 896.609 50.8693V63H893.675V51.0682C893.675 49.5684 893.286 48.4001 892.507 47.5632C891.728 46.718 890.659 46.2955 889.3 46.2955C888.364 46.2955 887.527 46.4985 886.79 46.9045C886.061 47.3105 885.485 47.9029 885.062 48.6818C884.64 49.4607 884.428 50.4053 884.428 51.5156ZM909.675 70.5568C908.258 70.5568 907.04 70.3745 906.021 70.0099C905.001 69.6536 904.152 69.1813 903.473 68.593C902.801 68.013 902.267 67.3916 901.869 66.7287L904.206 65.0881C904.471 65.4361 904.807 65.8338 905.213 66.2812C905.619 66.737 906.174 67.1306 906.878 67.462C907.591 67.8017 908.523 67.9716 909.675 67.9716C911.216 67.9716 912.488 67.5987 913.49 66.853C914.493 66.1072 914.994 64.9389 914.994 63.348V59.4702H914.746C914.53 59.8182 914.224 60.2491 913.826 60.7628C913.437 61.2682 912.873 61.7198 912.136 62.1175C911.406 62.507 910.42 62.7017 909.178 62.7017C907.636 62.7017 906.253 62.3371 905.026 61.608C903.808 60.8788 902.843 59.8182 902.13 58.4261C901.426 57.0341 901.074 55.3437 901.074 53.3551C901.074 51.3996 901.418 49.6968 902.105 48.2468C902.793 46.7885 903.75 45.6616 904.977 44.8661C906.203 44.0624 907.62 43.6605 909.227 43.6605C910.47 43.6605 911.456 43.8677 912.185 44.282C912.923 44.688 913.486 45.152 913.876 45.674C914.273 46.1877 914.58 46.6103 914.795 46.9418H915.094V43.9091H917.928V63.5469C917.928 65.1875 917.555 66.5215 916.809 67.549C916.071 68.5848 915.077 69.3429 913.826 69.8235C912.583 70.3124 911.199 70.5568 909.675 70.5568ZM909.575 60.0668C910.752 60.0668 911.746 59.7975 912.558 59.2589C913.37 58.7203 913.988 57.9455 914.41 56.9347C914.833 55.9238 915.044 54.714 915.044 53.3054C915.044 51.9299 914.837 50.716 914.423 49.6637C914.008 48.6114 913.395 47.7869 912.583 47.1903C911.771 46.5937 910.768 46.2955 909.575 46.2955C908.332 46.2955 907.297 46.6103 906.468 47.2401C905.648 47.8698 905.03 48.715 904.616 49.7756C904.21 50.8362 904.007 52.0128 904.007 53.3054C904.007 54.6312 904.214 55.8036 904.629 56.8228C905.051 57.8337 905.673 58.6291 906.493 59.2092C907.321 59.7809 908.349 60.0668 909.575 60.0668ZM940.151 54.0511L924.142 62.2045V59.0227L936.422 53.1065L936.322 53.3054V52.8082L936.422 53.0071L924.142 47.0909V43.9091L940.151 52.0625V54.0511Z" fill="#999999"/>
<path d="M640 105C640 96.1634 647.163 89 656 89H941C949.837 89 957 96.1634 957 105V560C957 568.837 949.837 576 941 576H656C647.163 576 640 568.837 640 560V105Z" fill="#AF52DE"/>
<path d="M750.336 157.322H747.104L756.451 131.867H759.633L768.979 157.322H765.748L758.141 135.894H757.942L750.336 157.322ZM751.529 147.379H764.555V150.113H751.529V147.379ZM780.302 157.72C778.512 157.72 776.971 157.297 775.679 156.452C774.386 155.607 773.392 154.442 772.696 152.959C772 151.476 771.652 149.782 771.652 147.876C771.652 145.937 772.008 144.226 772.72 142.743C773.441 141.251 774.444 140.087 775.728 139.25C777.021 138.405 778.529 137.982 780.252 137.982C781.595 137.982 782.805 138.231 783.882 138.728C784.959 139.225 785.841 139.921 786.529 140.816C787.217 141.711 787.644 142.755 787.809 143.948H784.876C784.652 143.078 784.155 142.308 783.385 141.636C782.622 140.957 781.595 140.617 780.302 140.617C779.159 140.617 778.156 140.916 777.294 141.512C776.441 142.1 775.774 142.933 775.293 144.01C774.821 145.079 774.585 146.335 774.585 147.776C774.585 149.251 774.817 150.536 775.281 151.629C775.753 152.723 776.416 153.572 777.269 154.177C778.131 154.782 779.142 155.085 780.302 155.085C781.064 155.085 781.756 154.952 782.378 154.687C782.999 154.422 783.525 154.041 783.956 153.543C784.387 153.046 784.694 152.45 784.876 151.754H787.809C787.644 152.88 787.233 153.896 786.579 154.799C785.932 155.694 785.075 156.406 784.006 156.936C782.945 157.458 781.711 157.72 780.302 157.72ZM800.4 138.231V140.717H790.506V138.231H800.4ZM793.39 133.657H796.323V151.853C796.323 152.682 796.443 153.303 796.684 153.717C796.932 154.123 797.247 154.397 797.628 154.538C798.018 154.67 798.428 154.737 798.859 154.737C799.182 154.737 799.447 154.72 799.654 154.687C799.861 154.645 800.027 154.612 800.151 154.587L800.748 157.222C800.549 157.297 800.271 157.371 799.915 157.446C799.559 157.529 799.107 157.57 798.56 157.57C797.732 157.57 796.92 157.392 796.124 157.036C795.337 156.68 794.682 156.137 794.16 155.408C793.647 154.679 793.39 153.759 793.39 152.648V133.657ZM804.812 157.322V138.231H807.745V157.322H804.812ZM806.304 135.049C805.732 135.049 805.239 134.854 804.825 134.465C804.419 134.075 804.216 133.607 804.216 133.06C804.216 132.514 804.419 132.045 804.825 131.656C805.239 131.266 805.732 131.072 806.304 131.072C806.875 131.072 807.364 131.266 807.77 131.656C808.184 132.045 808.392 132.514 808.392 133.06C808.392 133.607 808.184 134.075 807.77 134.465C807.364 134.854 806.875 135.049 806.304 135.049ZM820.873 157.72C819.15 157.72 817.638 157.309 816.337 156.489C815.044 155.669 814.033 154.521 813.304 153.046C812.583 151.571 812.223 149.848 812.223 147.876C812.223 145.887 812.583 144.151 813.304 142.668C814.033 141.185 815.044 140.033 816.337 139.213C817.638 138.392 819.15 137.982 820.873 137.982C822.597 137.982 824.105 138.392 825.398 139.213C826.698 140.033 827.709 141.185 828.43 142.668C829.159 144.151 829.524 145.887 829.524 147.876C829.524 149.848 829.159 151.571 828.43 153.046C827.709 154.521 826.698 155.669 825.398 156.489C824.105 157.309 822.597 157.72 820.873 157.72ZM820.873 155.085C822.183 155.085 823.26 154.749 824.105 154.078C824.95 153.407 825.576 152.524 825.982 151.43C826.388 150.337 826.591 149.152 826.591 147.876C826.591 146.6 826.388 145.411 825.982 144.309C825.576 143.207 824.95 142.316 824.105 141.636C823.26 140.957 822.183 140.617 820.873 140.617C819.564 140.617 818.487 140.957 817.642 141.636C816.797 142.316 816.171 143.207 815.765 144.309C815.359 145.411 815.156 146.6 815.156 147.876C815.156 149.152 815.359 150.337 815.765 151.43C816.171 152.524 816.797 153.407 817.642 154.078C818.487 154.749 819.564 155.085 820.873 155.085ZM836.935 145.837V157.322H834.002V138.231H836.835V141.214H837.084C837.531 140.244 838.211 139.465 839.122 138.877C840.034 138.281 841.21 137.982 842.652 137.982C843.945 137.982 845.076 138.247 846.045 138.778C847.015 139.3 847.769 140.095 848.307 141.164C848.846 142.225 849.115 143.567 849.115 145.191V157.322H846.182V145.39C846.182 143.89 845.793 142.722 845.014 141.885C844.235 141.04 843.166 140.617 841.807 140.617C840.871 140.617 840.034 140.82 839.296 141.226C838.567 141.632 837.991 142.225 837.569 143.004C837.146 143.782 836.935 144.727 836.935 145.837ZM708.194 187.987V185.998L724.202 177.845V181.026L711.923 186.943L712.022 186.744V187.241L711.923 187.042L724.202 192.958V196.14L708.194 187.987ZM747.522 173.867H750.605V190.721C750.605 192.461 750.195 194.015 749.374 195.382C748.562 196.741 747.415 197.814 745.931 198.601C744.448 199.38 742.708 199.769 740.711 199.769C738.714 199.769 736.974 199.38 735.491 198.601C734.008 197.814 732.856 196.741 732.036 195.382C731.224 194.015 730.818 192.461 730.818 190.721V173.867H733.9V190.472C733.9 191.715 734.174 192.821 734.72 193.791C735.267 194.752 736.046 195.51 737.057 196.065C738.076 196.612 739.294 196.886 740.711 196.886C742.128 196.886 743.346 196.612 744.365 196.065C745.385 195.51 746.163 194.752 746.702 193.791C747.249 192.821 747.522 191.715 747.522 190.472V173.867ZM769.885 184.506L767.25 185.252C767.084 184.813 766.84 184.386 766.517 183.972C766.202 183.549 765.771 183.201 765.224 182.928C764.677 182.655 763.977 182.518 763.124 182.518C761.955 182.518 760.982 182.787 760.203 183.326C759.432 183.856 759.047 184.531 759.047 185.352C759.047 186.081 759.312 186.657 759.843 187.079C760.373 187.502 761.201 187.854 762.328 188.136L765.162 188.832C766.869 189.246 768.141 189.88 768.978 190.733C769.815 191.579 770.233 192.668 770.233 194.002C770.233 195.096 769.918 196.074 769.289 196.935C768.667 197.797 767.797 198.477 766.678 198.974C765.56 199.471 764.259 199.719 762.776 199.719C760.829 199.719 759.217 199.297 757.941 198.452C756.665 197.607 755.857 196.372 755.517 194.748L758.301 194.052C758.566 195.079 759.068 195.85 759.805 196.364C760.551 196.877 761.525 197.134 762.726 197.134C764.093 197.134 765.179 196.844 765.982 196.264C766.794 195.676 767.2 194.972 767.2 194.151C767.2 193.488 766.968 192.933 766.504 192.486C766.04 192.03 765.328 191.69 764.367 191.467L761.185 190.721C759.436 190.307 758.152 189.664 757.332 188.794C756.52 187.916 756.114 186.818 756.114 185.501C756.114 184.424 756.416 183.471 757.021 182.642C757.634 181.813 758.467 181.163 759.519 180.691C760.58 180.218 761.781 179.982 763.124 179.982C765.013 179.982 766.496 180.397 767.573 181.225C768.659 182.054 769.429 183.148 769.885 184.506ZM782.653 199.719C780.813 199.719 779.227 199.313 777.892 198.501C776.567 197.681 775.543 196.538 774.823 195.071C774.11 193.596 773.754 191.881 773.754 189.925C773.754 187.97 774.11 186.246 774.823 184.755C775.543 183.255 776.546 182.087 777.83 181.25C779.123 180.405 780.631 179.982 782.354 179.982C783.349 179.982 784.331 180.148 785.3 180.479C786.27 180.811 787.152 181.349 787.948 182.095C788.743 182.833 789.377 183.81 789.849 185.028C790.321 186.246 790.558 187.746 790.558 189.528V190.771H775.842V188.235H787.575C787.575 187.158 787.359 186.197 786.928 185.352C786.506 184.506 785.901 183.839 785.114 183.351C784.335 182.862 783.415 182.617 782.354 182.617C781.186 182.617 780.175 182.907 779.322 183.487C778.477 184.059 777.826 184.805 777.37 185.724C776.915 186.644 776.687 187.63 776.687 188.683V190.373C776.687 191.815 776.935 193.037 777.433 194.039C777.938 195.034 778.638 195.792 779.533 196.314C780.428 196.828 781.468 197.085 782.653 197.085C783.423 197.085 784.119 196.977 784.741 196.761C785.371 196.538 785.913 196.206 786.369 195.767C786.825 195.32 787.177 194.764 787.426 194.102L790.259 194.897C789.961 195.858 789.46 196.703 788.755 197.433C788.051 198.153 787.181 198.717 786.145 199.123C785.11 199.521 783.945 199.719 782.653 199.719ZM802.775 199.719C800.986 199.719 799.444 199.297 798.152 198.452C796.859 197.607 795.865 196.442 795.169 194.959C794.473 193.476 794.125 191.782 794.125 189.876C794.125 187.937 794.481 186.226 795.194 184.743C795.915 183.251 796.917 182.087 798.201 181.25C799.494 180.405 801.002 179.982 802.726 179.982C804.068 179.982 805.278 180.231 806.355 180.728C807.432 181.225 808.314 181.921 809.002 182.816C809.69 183.711 810.117 184.755 810.282 185.948H807.349C807.125 185.078 806.628 184.308 805.858 183.636C805.095 182.957 804.068 182.617 802.775 182.617C801.632 182.617 800.629 182.916 799.767 183.512C798.914 184.1 798.247 184.933 797.766 186.01C797.294 187.079 797.058 188.335 797.058 189.776C797.058 191.251 797.29 192.536 797.754 193.629C798.226 194.723 798.889 195.572 799.743 196.177C800.604 196.782 801.615 197.085 802.775 197.085C803.538 197.085 804.229 196.952 804.851 196.687C805.472 196.422 805.999 196.041 806.429 195.543C806.86 195.046 807.167 194.45 807.349 193.754H810.282C810.117 194.88 809.707 195.896 809.052 196.799C808.406 197.694 807.548 198.406 806.479 198.936C805.419 199.458 804.184 199.719 802.775 199.719ZM820.188 199.769C818.979 199.769 817.881 199.541 816.895 199.086C815.909 198.622 815.126 197.955 814.546 197.085C813.966 196.206 813.676 195.146 813.676 193.903C813.676 192.809 813.891 191.922 814.322 191.243C814.753 190.555 815.329 190.017 816.049 189.627C816.77 189.238 817.566 188.948 818.436 188.757C819.314 188.558 820.197 188.401 821.083 188.285C822.243 188.136 823.184 188.024 823.905 187.949C824.634 187.866 825.164 187.73 825.495 187.539C825.835 187.349 826.005 187.017 826.005 186.545V186.445C826.005 185.219 825.669 184.266 824.998 183.587C824.335 182.907 823.329 182.568 821.978 182.568C820.578 182.568 819.48 182.874 818.684 183.487C817.889 184.1 817.33 184.755 817.006 185.451L814.222 184.457C814.72 183.297 815.382 182.394 816.211 181.747C817.048 181.093 817.959 180.637 818.945 180.38C819.94 180.115 820.917 179.982 821.879 179.982C822.492 179.982 823.196 180.057 823.992 180.206C824.795 180.347 825.57 180.641 826.316 181.088C827.07 181.536 827.695 182.211 828.193 183.114C828.69 184.018 828.938 185.227 828.938 186.744V199.322H826.005V196.737H825.856C825.657 197.151 825.326 197.594 824.862 198.066C824.398 198.539 823.78 198.941 823.01 199.272C822.239 199.603 821.299 199.769 820.188 199.769ZM820.636 197.134C821.796 197.134 822.774 196.906 823.569 196.451C824.373 195.995 824.978 195.407 825.384 194.686C825.798 193.965 826.005 193.207 826.005 192.411V189.727C825.881 189.876 825.607 190.012 825.185 190.137C824.77 190.253 824.29 190.356 823.743 190.447C823.204 190.53 822.678 190.605 822.165 190.671C821.659 190.729 821.249 190.779 820.934 190.82C820.172 190.92 819.459 191.081 818.796 191.305C818.142 191.521 817.611 191.848 817.205 192.287C816.808 192.718 816.609 193.306 816.609 194.052C816.609 195.071 816.986 195.842 817.74 196.364C818.502 196.877 819.467 197.134 820.636 197.134ZM847.815 184.506L845.18 185.252C845.014 184.813 844.77 184.386 844.447 183.972C844.132 183.549 843.701 183.201 843.154 182.928C842.607 182.655 841.907 182.518 841.053 182.518C839.885 182.518 838.912 182.787 838.133 183.326C837.362 183.856 836.977 184.531 836.977 185.352C836.977 186.081 837.242 186.657 837.772 187.079C838.302 187.502 839.131 187.854 840.258 188.136L843.092 188.832C844.799 189.246 846.071 189.88 846.907 190.733C847.744 191.579 848.163 192.668 848.163 194.002C848.163 195.096 847.848 196.074 847.218 196.935C846.597 197.797 845.727 198.477 844.608 198.974C843.49 199.471 842.189 199.719 840.705 199.719C838.758 199.719 837.147 199.297 835.871 198.452C834.595 197.607 833.787 196.372 833.447 194.748L836.231 194.052C836.496 195.079 836.997 195.85 837.735 196.364C838.481 196.877 839.454 197.134 840.656 197.134C842.023 197.134 843.108 196.844 843.912 196.264C844.724 195.676 845.13 194.972 845.13 194.151C845.13 193.488 844.898 192.933 844.434 192.486C843.97 192.03 843.258 191.69 842.296 191.467L839.115 190.721C837.366 190.307 836.082 189.664 835.262 188.794C834.45 187.916 834.043 186.818 834.043 185.501C834.043 184.424 834.346 183.471 834.951 182.642C835.564 181.813 836.397 181.163 837.449 180.691C838.51 180.218 839.711 179.982 841.053 179.982C842.943 179.982 844.426 180.397 845.503 181.225C846.588 182.054 847.359 183.148 847.815 184.506ZM860.582 199.719C858.743 199.719 857.156 199.313 855.822 198.501C854.496 197.681 853.473 196.538 852.752 195.071C852.04 193.596 851.683 191.881 851.683 189.925C851.683 187.97 852.04 186.246 852.752 184.755C853.473 183.255 854.476 182.087 855.76 181.25C857.053 180.405 858.561 179.982 860.284 179.982C861.278 179.982 862.26 180.148 863.23 180.479C864.199 180.811 865.082 181.349 865.877 182.095C866.673 182.833 867.307 183.81 867.779 185.028C868.251 186.246 868.487 187.746 868.487 189.528V190.771H853.771V188.235H865.504C865.504 187.158 865.289 186.197 864.858 185.352C864.435 184.506 863.831 183.839 863.043 183.351C862.265 182.862 861.345 182.617 860.284 182.617C859.116 182.617 858.105 182.907 857.251 183.487C856.406 184.059 855.756 184.805 855.3 185.724C854.844 186.644 854.617 187.63 854.617 188.683V190.373C854.617 191.815 854.865 193.037 855.362 194.039C855.868 195.034 856.568 195.792 857.463 196.314C858.358 196.828 859.398 197.085 860.582 197.085C861.353 197.085 862.049 196.977 862.671 196.761C863.3 196.538 863.843 196.206 864.299 195.767C864.754 195.32 865.107 194.764 865.355 194.102L868.189 194.897C867.891 195.858 867.389 196.703 866.685 197.433C865.981 198.153 865.111 198.717 864.075 199.123C863.039 199.521 861.875 199.719 860.582 199.719ZM889.803 190.373L873.794 198.526V195.344L886.074 189.428L885.975 189.627V189.13L886.074 189.329L873.794 183.413V180.231L889.803 188.384V190.373Z" fill="white"/>
<path d="M288 306L308 292L288 278" stroke="#34C759" stroke-width="8" stroke-linecap="round" stroke-linejoin="round"/>
<path d="M1023 306L1043 292L1023 278" stroke="#34C759" stroke-width="8" stroke-linecap="round" stroke-linejoin="round"/>
<path d="M1023 496L1043 482L1023 468" stroke="#34C759" stroke-width="8" stroke-linecap="round" stroke-linejoin="round"/>
<path d="M728 521L708 535L728 549" stroke="#34C759" stroke-width="8" stroke-linecap="round" stroke-linejoin="round"/>
<path d="M793 602L807 622L821 602" stroke="#34C759" stroke-width="8" stroke-linecap="round" stroke-linejoin="round"/>
<path d="M1155 329L1135 343L1155 357" stroke="#34C759" stroke-width="8" stroke-linecap="round" stroke-linejoin="round"/>
<path d="M1155 522L1135 536L1155 550" stroke="#34C759" stroke-width="8" stroke-linecap="round" stroke-linejoin="round"/>
<path d="M426 327L406 341L426 355" stroke="#34C759" stroke-width="8" stroke-linecap="round" stroke-linejoin="round"/>
<path d="M528 306L548 292L528 278" stroke="#34C759" stroke-width="8" stroke-linecap="round" stroke-linejoin="round"/>
<path d="M426 528L406 542L426 556" stroke="#34C759" stroke-width="8" stroke-linecap="round" stroke-linejoin="round"/>
<path d="M426 727L406 741L426 755" stroke="#34C759" stroke-width="8" stroke-linecap="round" stroke-linejoin="round"/>
<path d="M211 327L191 341L211 355" stroke="#34C759" stroke-width="8" stroke-linecap="round" stroke-linejoin="round"/>
<path d="M406 292H1193C1198.52 292 1203 296.477 1203 302V332.5C1203 338.023 1198.52 342.5 1193 342.5H816.5C810.977 342.5 806.5 346.977 806.5 352.5V472.5C806.5 478.023 810.977 482.5 816.5 482.5H1186.48C1192 482.5 1196.48 486.977 1196.48 492.5V525C1196.48 530.523 1192 535 1186.48 535H806.5M806.5 535H589.871C584.399 535 579.943 530.602 579.872 525.13L577.628 352.37C577.557 346.898 573.101 342.5 567.629 342.5H406M806.5 535V675.5C806.5 681.023 802.023 685.5 796.5 685.5H587.5C581.977 685.5 577.5 681.023 577.5 675.5V654C577.5 648.477 573.023 644 567.5 644H453M453 644V552.5C453 546.977 448.523 542.5 443 542.5H406M453 644V731C453 736.523 448.523 741 443 741H406" stroke="#34C759" stroke-opacity="0.5" stroke-width="8"/>
<rect opacity="0.4" x="777" y="506" width="60" height="60" rx="30" fill="white"/>
<rect x="781" y="510" width="52" height="52" rx="26" stroke="white" stroke-width="8"/>
<circle cx="807" cy="536" r="6.5" fill="white" stroke="white" stroke-width="3"/>
<path d="M1220 268C1220 259.163 1227.16 252 1236 252H1521C1529.84 252 1537 259.163 1537 268V366C1537 374.837 1529.84 382 1521 382H1236C1227.16 382 1220 374.837 1220 366V268Z" fill="#FF9500"/>
<path d="M1293.16 330V304.545H1301.76C1303.75 304.545 1305.39 304.885 1306.66 305.565C1307.94 306.236 1308.88 307.16 1309.5 308.336C1310.11 309.513 1310.42 310.851 1310.42 312.351C1310.42 313.851 1310.11 315.181 1309.5 316.341C1308.88 317.501 1307.94 318.412 1306.67 319.075C1305.41 319.73 1303.79 320.057 1301.81 320.057H1294.85V317.273H1301.72C1303.07 317.273 1304.17 317.074 1305 316.676C1305.83 316.278 1306.44 315.715 1306.81 314.986C1307.19 314.248 1307.38 313.37 1307.38 312.351C1307.38 311.332 1307.19 310.441 1306.81 309.679C1306.43 308.916 1305.82 308.328 1304.98 307.914C1304.15 307.491 1303.04 307.28 1301.67 307.28H1296.25V330H1293.16ZM1305.15 318.565L1311.41 330H1307.83L1301.67 318.565H1305.15ZM1322.95 330.398C1321.11 330.398 1319.53 329.992 1318.19 329.18C1316.87 328.359 1315.84 327.216 1315.12 325.749C1314.41 324.274 1314.05 322.559 1314.05 320.604C1314.05 318.648 1314.41 316.925 1315.12 315.433C1315.84 313.933 1316.85 312.765 1318.13 311.928C1319.42 311.083 1320.93 310.661 1322.65 310.661C1323.65 310.661 1324.63 310.826 1325.6 311.158C1326.57 311.489 1327.45 312.028 1328.25 312.773C1329.04 313.511 1329.68 314.489 1330.15 315.707C1330.62 316.925 1330.86 318.424 1330.86 320.206V321.449H1316.14V318.913H1327.87C1327.87 317.836 1327.66 316.875 1327.23 316.03C1326.81 315.185 1326.2 314.518 1325.41 314.029C1324.64 313.54 1323.72 313.295 1322.65 313.295C1321.49 313.295 1320.48 313.585 1319.62 314.165C1318.78 314.737 1318.13 315.483 1317.67 316.403C1317.22 317.322 1316.99 318.308 1316.99 319.361V321.051C1316.99 322.493 1317.24 323.715 1317.73 324.718C1318.24 325.712 1318.94 326.47 1319.83 326.992C1320.73 327.506 1321.77 327.763 1322.95 327.763C1323.72 327.763 1324.42 327.655 1325.04 327.44C1325.67 327.216 1326.21 326.884 1326.67 326.445C1327.13 325.998 1327.48 325.443 1327.73 324.78L1330.56 325.575C1330.26 326.536 1329.76 327.382 1329.06 328.111C1328.35 328.832 1327.48 329.395 1326.45 329.801C1325.41 330.199 1324.25 330.398 1322.95 330.398ZM1335.32 337.159V310.909H1338.15V313.942H1338.5C1338.72 313.61 1339.02 313.188 1339.4 312.674C1339.79 312.152 1340.34 311.688 1341.06 311.282C1341.79 310.868 1342.78 310.661 1344.02 310.661C1345.63 310.661 1347.04 311.062 1348.27 311.866C1349.5 312.67 1350.45 313.809 1351.14 315.284C1351.83 316.759 1352.17 318.499 1352.17 320.504C1352.17 322.526 1351.83 324.279 1351.14 325.762C1350.45 327.237 1349.5 328.38 1348.28 329.192C1347.07 329.996 1345.66 330.398 1344.07 330.398C1342.84 330.398 1341.86 330.195 1341.12 329.789C1340.39 329.374 1339.82 328.906 1339.42 328.384C1339.02 327.854 1338.72 327.415 1338.5 327.067H1338.25V337.159H1335.32ZM1338.2 320.455C1338.2 321.896 1338.41 323.168 1338.84 324.27C1339.26 325.364 1339.88 326.222 1340.69 326.843C1341.5 327.456 1342.5 327.763 1343.67 327.763C1344.9 327.763 1345.92 327.44 1346.74 326.793C1347.57 326.139 1348.19 325.26 1348.61 324.158C1349.03 323.048 1349.24 321.813 1349.24 320.455C1349.24 319.112 1349.03 317.902 1348.62 316.825C1348.21 315.74 1347.6 314.882 1346.77 314.252C1345.95 313.614 1344.92 313.295 1343.67 313.295C1342.48 313.295 1341.48 313.598 1340.66 314.203C1339.85 314.799 1339.24 315.636 1338.82 316.713C1338.41 317.782 1338.2 319.029 1338.2 320.455ZM1364.4 330.398C1362.68 330.398 1361.17 329.988 1359.87 329.167C1358.57 328.347 1357.56 327.199 1356.83 325.724C1356.11 324.25 1355.75 322.526 1355.75 320.554C1355.75 318.565 1356.11 316.829 1356.83 315.346C1357.56 313.863 1358.57 312.711 1359.87 311.891C1361.17 311.071 1362.68 310.661 1364.4 310.661C1366.13 310.661 1367.64 311.071 1368.93 311.891C1370.23 312.711 1371.24 313.863 1371.96 315.346C1372.69 316.829 1373.05 318.565 1373.05 320.554C1373.05 322.526 1372.69 324.25 1371.96 325.724C1371.24 327.199 1370.23 328.347 1368.93 329.167C1367.64 329.988 1366.13 330.398 1364.4 330.398ZM1364.4 327.763C1365.71 327.763 1366.79 327.427 1367.64 326.756C1368.48 326.085 1369.11 325.202 1369.51 324.109C1369.92 323.015 1370.12 321.83 1370.12 320.554C1370.12 319.278 1369.92 318.089 1369.51 316.987C1369.11 315.885 1368.48 314.994 1367.64 314.315C1366.79 313.635 1365.71 313.295 1364.4 313.295C1363.09 313.295 1362.02 313.635 1361.17 314.315C1360.33 314.994 1359.7 315.885 1359.3 316.987C1358.89 318.089 1358.69 319.278 1358.69 320.554C1358.69 321.83 1358.89 323.015 1359.3 324.109C1359.7 325.202 1360.33 326.085 1361.17 326.756C1362.02 327.427 1363.09 327.763 1364.4 327.763ZM1391.05 315.185L1388.42 315.93C1388.25 315.491 1388.01 315.065 1387.69 314.65C1387.37 314.228 1386.94 313.88 1386.39 313.606C1385.85 313.333 1385.15 313.196 1384.29 313.196C1383.12 313.196 1382.15 313.465 1381.37 314.004C1380.6 314.534 1380.22 315.21 1380.22 316.03C1380.22 316.759 1380.48 317.335 1381.01 317.757C1381.54 318.18 1382.37 318.532 1383.5 318.814L1386.33 319.51C1388.04 319.924 1389.31 320.558 1390.15 321.412C1390.98 322.257 1391.4 323.346 1391.4 324.68C1391.4 325.774 1391.09 326.752 1390.46 327.614C1389.84 328.475 1388.97 329.155 1387.85 329.652C1386.73 330.149 1385.43 330.398 1383.95 330.398C1382 330.398 1380.39 329.975 1379.11 329.13C1377.83 328.285 1377.03 327.05 1376.69 325.426L1379.47 324.73C1379.74 325.758 1380.24 326.528 1380.97 327.042C1381.72 327.556 1382.69 327.812 1383.9 327.812C1385.26 327.812 1386.35 327.522 1387.15 326.942C1387.96 326.354 1388.37 325.65 1388.37 324.83C1388.37 324.167 1388.14 323.612 1387.67 323.164C1387.21 322.708 1386.5 322.369 1385.54 322.145L1382.35 321.399C1380.61 320.985 1379.32 320.343 1378.5 319.473C1377.69 318.594 1377.28 317.496 1377.28 316.179C1377.28 315.102 1377.59 314.149 1378.19 313.32C1378.8 312.492 1379.64 311.841 1380.69 311.369C1381.75 310.897 1382.95 310.661 1384.29 310.661C1386.18 310.661 1387.67 311.075 1388.74 311.903C1389.83 312.732 1390.6 313.826 1391.05 315.185ZM1395.82 330V310.909H1398.75V330H1395.82ZM1397.31 307.727C1396.74 307.727 1396.24 307.533 1395.83 307.143C1395.42 306.754 1395.22 306.286 1395.22 305.739C1395.22 305.192 1395.42 304.724 1395.83 304.334C1396.24 303.945 1396.74 303.75 1397.31 303.75C1397.88 303.75 1398.37 303.945 1398.78 304.334C1399.19 304.724 1399.4 305.192 1399.4 305.739C1399.4 306.286 1399.19 306.754 1398.78 307.143C1398.37 307.533 1397.88 307.727 1397.31 307.727ZM1412.43 310.909V313.395H1402.53V310.909H1412.43ZM1405.42 306.335H1408.35V324.531C1408.35 325.36 1408.47 325.981 1408.71 326.396C1408.96 326.802 1409.27 327.075 1409.65 327.216C1410.04 327.348 1410.45 327.415 1410.88 327.415C1411.21 327.415 1411.47 327.398 1411.68 327.365C1411.89 327.324 1412.05 327.29 1412.18 327.266L1412.77 329.901C1412.58 329.975 1412.3 330.05 1411.94 330.124C1411.59 330.207 1411.13 330.249 1410.59 330.249C1409.76 330.249 1408.95 330.07 1408.15 329.714C1407.36 329.358 1406.71 328.815 1406.19 328.086C1405.67 327.357 1405.42 326.437 1405.42 325.327V306.335ZM1424.39 330.398C1422.67 330.398 1421.15 329.988 1419.85 329.167C1418.56 328.347 1417.55 327.199 1416.82 325.724C1416.1 324.25 1415.74 322.526 1415.74 320.554C1415.74 318.565 1416.1 316.829 1416.82 315.346C1417.55 313.863 1418.56 312.711 1419.85 311.891C1421.15 311.071 1422.67 310.661 1424.39 310.661C1426.11 310.661 1427.62 311.071 1428.91 311.891C1430.21 312.711 1431.22 313.863 1431.95 315.346C1432.68 316.829 1433.04 318.565 1433.04 320.554C1433.04 322.526 1432.68 324.25 1431.95 325.724C1431.22 327.199 1430.21 328.347 1428.91 329.167C1427.62 329.988 1426.11 330.398 1424.39 330.398ZM1424.39 327.763C1425.7 327.763 1426.78 327.427 1427.62 326.756C1428.47 326.085 1429.09 325.202 1429.5 324.109C1429.9 323.015 1430.11 321.83 1430.11 320.554C1430.11 319.278 1429.9 318.089 1429.5 316.987C1429.09 315.885 1428.47 314.994 1427.62 314.315C1426.78 313.635 1425.7 313.295 1424.39 313.295C1423.08 313.295 1422 313.635 1421.16 314.315C1420.31 314.994 1419.69 315.885 1419.28 316.987C1418.87 318.089 1418.67 319.278 1418.67 320.554C1418.67 321.83 1418.87 323.015 1419.28 324.109C1419.69 325.202 1420.31 326.085 1421.16 326.756C1422 327.427 1423.08 327.763 1424.39 327.763ZM1437.52 330V310.909H1440.35V313.793H1440.55C1440.9 312.848 1441.53 312.082 1442.44 311.493C1443.35 310.905 1444.38 310.611 1445.52 310.611C1445.74 310.611 1446.01 310.615 1446.33 310.623C1446.65 310.632 1446.9 310.644 1447.06 310.661V313.643C1446.96 313.619 1446.74 313.581 1446.38 313.532C1446.03 313.474 1445.66 313.445 1445.27 313.445C1444.34 313.445 1443.52 313.639 1442.79 314.029C1442.07 314.41 1441.49 314.94 1441.07 315.62C1440.66 316.291 1440.45 317.057 1440.45 317.919V330H1437.52ZM1453.01 337.159C1452.51 337.159 1452.07 337.118 1451.68 337.035C1451.29 336.96 1451.02 336.886 1450.87 336.811L1451.62 334.226C1452.33 334.408 1452.96 334.474 1453.51 334.425C1454.05 334.375 1454.54 334.131 1454.96 333.691C1455.39 333.261 1455.79 332.56 1456.14 331.591L1456.69 330.099L1449.63 310.909H1452.81L1458.08 326.122H1458.28L1463.55 310.909H1466.73L1458.63 332.784C1458.26 333.77 1457.81 334.586 1457.27 335.233C1456.73 335.887 1456.11 336.372 1455.4 336.687C1454.69 337.002 1453.9 337.159 1453.01 337.159Z" fill="white"/>
<path d="M1220 462C1220 453.163 1227.16 446 1236 446H1521C1529.84 446 1537 453.163 1537 462V560C1537 568.837 1529.84 576 1521 576H1236C1227.16 576 1220 568.837 1220 560V462Z" fill="#FF9500"/>
<path d="M1293.16 524V498.545H1301.76C1303.75 498.545 1305.39 498.885 1306.66 499.565C1307.94 500.236 1308.88 501.16 1309.5 502.336C1310.11 503.513 1310.42 504.851 1310.42 506.351C1310.42 507.851 1310.11 509.181 1309.5 510.341C1308.88 511.501 1307.94 512.412 1306.67 513.075C1305.41 513.73 1303.79 514.057 1301.81 514.057H1294.85V511.273H1301.72C1303.07 511.273 1304.17 511.074 1305 510.676C1305.83 510.278 1306.44 509.715 1306.81 508.986C1307.19 508.248 1307.38 507.37 1307.38 506.351C1307.38 505.332 1307.19 504.441 1306.81 503.679C1306.43 502.916 1305.82 502.328 1304.98 501.914C1304.15 501.491 1303.04 501.28 1301.67 501.28H1296.25V524H1293.16ZM1305.15 512.565L1311.41 524H1307.83L1301.67 512.565H1305.15ZM1322.95 524.398C1321.11 524.398 1319.53 523.992 1318.19 523.18C1316.87 522.359 1315.84 521.216 1315.12 519.749C1314.41 518.274 1314.05 516.559 1314.05 514.604C1314.05 512.648 1314.41 510.925 1315.12 509.433C1315.84 507.933 1316.85 506.765 1318.13 505.928C1319.42 505.083 1320.93 504.661 1322.65 504.661C1323.65 504.661 1324.63 504.826 1325.6 505.158C1326.57 505.489 1327.45 506.028 1328.25 506.773C1329.04 507.511 1329.68 508.489 1330.15 509.707C1330.62 510.925 1330.86 512.424 1330.86 514.206V515.449H1316.14V512.913H1327.87C1327.87 511.836 1327.66 510.875 1327.23 510.03C1326.81 509.185 1326.2 508.518 1325.41 508.029C1324.64 507.54 1323.72 507.295 1322.65 507.295C1321.49 507.295 1320.48 507.585 1319.62 508.165C1318.78 508.737 1318.13 509.483 1317.67 510.403C1317.22 511.322 1316.99 512.308 1316.99 513.361V515.051C1316.99 516.493 1317.24 517.715 1317.73 518.718C1318.24 519.712 1318.94 520.47 1319.83 520.992C1320.73 521.506 1321.77 521.763 1322.95 521.763C1323.72 521.763 1324.42 521.655 1325.04 521.44C1325.67 521.216 1326.21 520.884 1326.67 520.445C1327.13 519.998 1327.48 519.443 1327.73 518.78L1330.56 519.575C1330.26 520.536 1329.76 521.382 1329.06 522.111C1328.35 522.832 1327.48 523.395 1326.45 523.801C1325.41 524.199 1324.25 524.398 1322.95 524.398ZM1335.32 531.159V504.909H1338.15V507.942H1338.5C1338.72 507.61 1339.02 507.188 1339.4 506.674C1339.79 506.152 1340.34 505.688 1341.06 505.282C1341.79 504.868 1342.78 504.661 1344.02 504.661C1345.63 504.661 1347.04 505.062 1348.27 505.866C1349.5 506.67 1350.45 507.809 1351.14 509.284C1351.83 510.759 1352.17 512.499 1352.17 514.504C1352.17 516.526 1351.83 518.279 1351.14 519.762C1350.45 521.237 1349.5 522.38 1348.28 523.192C1347.07 523.996 1345.66 524.398 1344.07 524.398C1342.84 524.398 1341.86 524.195 1341.12 523.789C1340.39 523.374 1339.82 522.906 1339.42 522.384C1339.02 521.854 1338.72 521.415 1338.5 521.067H1338.25V531.159H1335.32ZM1338.2 514.455C1338.2 515.896 1338.41 517.168 1338.84 518.27C1339.26 519.364 1339.88 520.222 1340.69 520.843C1341.5 521.456 1342.5 521.763 1343.67 521.763C1344.9 521.763 1345.92 521.44 1346.74 520.793C1347.57 520.139 1348.19 519.26 1348.61 518.158C1349.03 517.048 1349.24 515.813 1349.24 514.455C1349.24 513.112 1349.03 511.902 1348.62 510.825C1348.21 509.74 1347.6 508.882 1346.77 508.252C1345.95 507.614 1344.92 507.295 1343.67 507.295C1342.48 507.295 1341.48 507.598 1340.66 508.203C1339.85 508.799 1339.24 509.636 1338.82 510.713C1338.41 511.782 1338.2 513.029 1338.2 514.455ZM1364.4 524.398C1362.68 524.398 1361.17 523.988 1359.87 523.167C1358.57 522.347 1357.56 521.199 1356.83 519.724C1356.11 518.25 1355.75 516.526 1355.75 514.554C1355.75 512.565 1356.11 510.829 1356.83 509.346C1357.56 507.863 1358.57 506.711 1359.87 505.891C1361.17 505.071 1362.68 504.661 1364.4 504.661C1366.13 504.661 1367.64 505.071 1368.93 505.891C1370.23 506.711 1371.24 507.863 1371.96 509.346C1372.69 510.829 1373.05 512.565 1373.05 514.554C1373.05 516.526 1372.69 518.25 1371.96 519.724C1371.24 521.199 1370.23 522.347 1368.93 523.167C1367.64 523.988 1366.13 524.398 1364.4 524.398ZM1364.4 521.763C1365.71 521.763 1366.79 521.427 1367.64 520.756C1368.48 520.085 1369.11 519.202 1369.51 518.109C1369.92 517.015 1370.12 515.83 1370.12 514.554C1370.12 513.278 1369.92 512.089 1369.51 510.987C1369.11 509.885 1368.48 508.994 1367.64 508.315C1366.79 507.635 1365.71 507.295 1364.4 507.295C1363.09 507.295 1362.02 507.635 1361.17 508.315C1360.33 508.994 1359.7 509.885 1359.3 510.987C1358.89 512.089 1358.69 513.278 1358.69 514.554C1358.69 515.83 1358.89 517.015 1359.3 518.109C1359.7 519.202 1360.33 520.085 1361.17 520.756C1362.02 521.427 1363.09 521.763 1364.4 521.763ZM1391.05 509.185L1388.42 509.93C1388.25 509.491 1388.01 509.065 1387.69 508.65C1387.37 508.228 1386.94 507.88 1386.39 507.606C1385.85 507.333 1385.15 507.196 1384.29 507.196C1383.12 507.196 1382.15 507.465 1381.37 508.004C1380.6 508.534 1380.22 509.21 1380.22 510.03C1380.22 510.759 1380.48 511.335 1381.01 511.757C1381.54 512.18 1382.37 512.532 1383.5 512.814L1386.33 513.51C1388.04 513.924 1389.31 514.558 1390.15 515.412C1390.98 516.257 1391.4 517.346 1391.4 518.68C1391.4 519.774 1391.09 520.752 1390.46 521.614C1389.84 522.475 1388.97 523.155 1387.85 523.652C1386.73 524.149 1385.43 524.398 1383.95 524.398C1382 524.398 1380.39 523.975 1379.11 523.13C1377.83 522.285 1377.03 521.05 1376.69 519.426L1379.47 518.73C1379.74 519.758 1380.24 520.528 1380.97 521.042C1381.72 521.556 1382.69 521.812 1383.9 521.812C1385.26 521.812 1386.35 521.522 1387.15 520.942C1387.96 520.354 1388.37 519.65 1388.37 518.83C1388.37 518.167 1388.14 517.612 1387.67 517.164C1387.21 516.708 1386.5 516.369 1385.54 516.145L1382.35 515.399C1380.61 514.985 1379.32 514.343 1378.5 513.473C1377.69 512.594 1377.28 511.496 1377.28 510.179C1377.28 509.102 1377.59 508.149 1378.19 507.32C1378.8 506.492 1379.64 505.841 1380.69 505.369C1381.75 504.897 1382.95 504.661 1384.29 504.661C1386.18 504.661 1387.67 505.075 1388.74 505.903C1389.83 506.732 1390.6 507.826 1391.05 509.185ZM1395.82 524V504.909H1398.75V524H1395.82ZM1397.31 501.727C1396.74 501.727 1396.24 501.533 1395.83 501.143C1395.42 500.754 1395.22 500.286 1395.22 499.739C1395.22 499.192 1395.42 498.724 1395.83 498.334C1396.24 497.945 1396.74 497.75 1397.31 497.75C1397.88 497.75 1398.37 497.945 1398.78 498.334C1399.19 498.724 1399.4 499.192 1399.4 499.739C1399.4 500.286 1399.19 500.754 1398.78 501.143C1398.37 501.533 1397.88 501.727 1397.31 501.727ZM1412.43 504.909V507.395H1402.53V504.909H1412.43ZM1405.42 500.335H1408.35V518.531C1408.35 519.36 1408.47 519.981 1408.71 520.396C1408.96 520.802 1409.27 521.075 1409.65 521.216C1410.04 521.348 1410.45 521.415 1410.88 521.415C1411.21 521.415 1411.47 521.398 1411.68 521.365C1411.89 521.324 1412.05 521.29 1412.18 521.266L1412.77 523.901C1412.58 523.975 1412.3 524.05 1411.94 524.124C1411.59 524.207 1411.13 524.249 1410.59 524.249C1409.76 524.249 1408.95 524.07 1408.15 523.714C1407.36 523.358 1406.71 522.815 1406.19 522.086C1405.67 521.357 1405.42 520.437 1405.42 519.327V500.335ZM1424.39 524.398C1422.67 524.398 1421.15 523.988 1419.85 523.167C1418.56 522.347 1417.55 521.199 1416.82 519.724C1416.1 518.25 1415.74 516.526 1415.74 514.554C1415.74 512.565 1416.1 510.829 1416.82 509.346C1417.55 507.863 1418.56 506.711 1419.85 505.891C1421.15 505.071 1422.67 504.661 1424.39 504.661C1426.11 504.661 1427.62 505.071 1428.91 505.891C1430.21 506.711 1431.22 507.863 1431.95 509.346C1432.68 510.829 1433.04 512.565 1433.04 514.554C1433.04 516.526 1432.68 518.25 1431.95 519.724C1431.22 521.199 1430.21 522.347 1428.91 523.167C1427.62 523.988 1426.11 524.398 1424.39 524.398ZM1424.39 521.763C1425.7 521.763 1426.78 521.427 1427.62 520.756C1428.47 520.085 1429.09 519.202 1429.5 518.109C1429.9 517.015 1430.11 515.83 1430.11 514.554C1430.11 513.278 1429.9 512.089 1429.5 510.987C1429.09 509.885 1428.47 508.994 1427.62 508.315C1426.78 507.635 1425.7 507.295 1424.39 507.295C1423.08 507.295 1422 507.635 1421.16 508.315C1420.31 508.994 1419.69 509.885 1419.28 510.987C1418.87 512.089 1418.67 513.278 1418.67 514.554C1418.67 515.83 1418.87 517.015 1419.28 518.109C1419.69 519.202 1420.31 520.085 1421.16 520.756C1422 521.427 1423.08 521.763 1424.39 521.763ZM1437.52 524V504.909H1440.35V507.793H1440.55C1440.9 506.848 1441.53 506.082 1442.44 505.493C1443.35 504.905 1444.38 504.611 1445.52 504.611C1445.74 504.611 1446.01 504.615 1446.33 504.623C1446.65 504.632 1446.9 504.644 1447.06 504.661V507.643C1446.96 507.619 1446.74 507.581 1446.38 507.532C1446.03 507.474 1445.66 507.445 1445.27 507.445C1444.34 507.445 1443.52 507.639 1442.79 508.029C1442.07 508.41 1441.49 508.94 1441.07 509.62C1440.66 510.291 1440.45 511.057 1440.45 511.919V524H1437.52ZM1453.01 531.159C1452.51 531.159 1452.07 531.118 1451.68 531.035C1451.29 530.96 1451.02 530.886 1450.87 530.811L1451.62 528.226C1452.33 528.408 1452.96 528.474 1453.51 528.425C1454.05 528.375 1454.54 528.131 1454.96 527.691C1455.39 527.261 1455.79 526.56 1456.14 525.591L1456.69 524.099L1449.63 504.909H1452.81L1458.08 520.122H1458.28L1463.55 504.909H1466.73L1458.63 526.784C1458.26 527.77 1457.81 528.586 1457.27 529.233C1456.73 529.887 1456.11 530.372 1455.4 530.687C1454.69 531.002 1453.9 531.159 1453.01 531.159Z" fill="white"/>
<path d="M639 656C639 647.163 646.163 640 655 640H940C948.837 640 956 647.163 956 656V754C956 762.837 948.837 770 940 770H655C646.163 770 639 762.837 639 754V656Z" fill="#5856D6"/>
<path d="M725.154 718H721.922L731.269 692.545H734.451L743.797 718H740.566L732.959 696.572H732.76L725.154 718ZM726.347 708.057H739.373V710.791H726.347V708.057ZM747.364 725.159V698.909H750.198V701.942H750.546C750.762 701.61 751.06 701.188 751.441 700.674C751.83 700.152 752.386 699.688 753.107 699.282C753.836 698.868 754.822 698.661 756.065 698.661C757.672 698.661 759.089 699.062 760.315 699.866C761.542 700.67 762.499 701.809 763.186 703.284C763.874 704.759 764.218 706.499 764.218 708.504C764.218 710.526 763.874 712.279 763.186 713.762C762.499 715.237 761.546 716.38 760.328 717.192C759.11 717.996 757.705 718.398 756.114 718.398C754.888 718.398 753.906 718.195 753.169 717.789C752.431 717.374 751.864 716.906 751.466 716.384C751.068 715.854 750.762 715.415 750.546 715.067H750.298V725.159H747.364ZM750.248 708.455C750.248 709.896 750.459 711.168 750.882 712.27C751.304 713.364 751.922 714.222 752.734 714.843C753.546 715.456 754.54 715.763 755.717 715.763C756.943 715.763 757.966 715.44 758.787 714.793C759.615 714.139 760.237 713.26 760.651 712.158C761.074 711.048 761.285 709.813 761.285 708.455C761.285 707.112 761.078 705.902 760.663 704.825C760.257 703.74 759.64 702.882 758.811 702.252C757.991 701.614 756.96 701.295 755.717 701.295C754.523 701.295 753.521 701.598 752.709 702.203C751.897 702.799 751.284 703.636 750.869 704.713C750.455 705.782 750.248 707.029 750.248 708.455ZM768.692 725.159V698.909H771.526V701.942H771.874C772.09 701.61 772.388 701.188 772.769 700.674C773.159 700.152 773.714 699.688 774.435 699.282C775.164 698.868 776.15 698.661 777.393 698.661C779 698.661 780.417 699.062 781.643 699.866C782.87 700.67 783.827 701.809 784.515 703.284C785.202 704.759 785.546 706.499 785.546 708.504C785.546 710.526 785.202 712.279 784.515 713.762C783.827 715.237 782.874 716.38 781.656 717.192C780.438 717.996 779.033 718.398 777.442 718.398C776.216 718.398 775.234 718.195 774.497 717.789C773.759 717.374 773.192 716.906 772.794 716.384C772.396 715.854 772.09 715.415 771.874 715.067H771.626V725.159H768.692ZM771.576 708.455C771.576 709.896 771.787 711.168 772.21 712.27C772.632 713.364 773.25 714.222 774.062 714.843C774.874 715.456 775.868 715.763 777.045 715.763C778.271 715.763 779.294 715.44 780.115 714.793C780.943 714.139 781.565 713.26 781.979 712.158C782.402 711.048 782.613 709.813 782.613 708.455C782.613 707.112 782.406 705.902 781.991 704.825C781.585 703.74 780.968 702.882 780.14 702.252C779.319 701.614 778.288 701.295 777.045 701.295C775.852 701.295 774.849 701.598 774.037 702.203C773.225 702.799 772.612 703.636 772.197 704.713C771.783 705.782 771.576 707.029 771.576 708.455ZM804.339 698.909C804.19 697.65 803.585 696.672 802.524 695.976C801.464 695.28 800.163 694.932 798.621 694.932C797.495 694.932 796.509 695.114 795.663 695.479C794.826 695.843 794.172 696.345 793.7 696.983C793.236 697.621 793.004 698.346 793.004 699.158C793.004 699.837 793.165 700.421 793.488 700.91C793.82 701.391 794.242 701.793 794.756 702.116C795.27 702.431 795.808 702.692 796.372 702.899C796.935 703.098 797.453 703.259 797.925 703.384L800.511 704.08C801.174 704.254 801.911 704.494 802.723 704.8C803.543 705.107 804.326 705.525 805.072 706.056C805.826 706.578 806.448 707.249 806.936 708.069C807.425 708.89 807.67 709.896 807.67 711.089C807.67 712.465 807.309 713.708 806.588 714.818C805.876 715.928 804.832 716.811 803.456 717.466C802.089 718.12 800.428 718.447 798.472 718.447C796.649 718.447 795.071 718.153 793.737 717.565C792.411 716.977 791.367 716.156 790.605 715.104C789.851 714.052 789.424 712.83 789.325 711.437H792.506C792.589 712.399 792.912 713.194 793.476 713.824C794.048 714.445 794.768 714.909 795.638 715.216C796.517 715.514 797.461 715.663 798.472 715.663C799.649 715.663 800.705 715.473 801.642 715.092C802.578 714.702 803.32 714.164 803.866 713.476C804.413 712.78 804.687 711.968 804.687 711.04C804.687 710.195 804.451 709.507 803.978 708.977C803.506 708.446 802.885 708.015 802.114 707.684C801.343 707.353 800.511 707.062 799.616 706.814L796.484 705.919C794.495 705.347 792.921 704.531 791.761 703.471C790.601 702.41 790.021 701.022 790.021 699.307C790.021 697.882 790.406 696.639 791.176 695.578C791.955 694.509 792.999 693.681 794.309 693.092C795.626 692.496 797.097 692.197 798.721 692.197C800.361 692.197 801.82 692.492 803.096 693.08C804.372 693.66 805.383 694.455 806.129 695.466C806.883 696.477 807.28 697.625 807.322 698.909H804.339ZM820.642 698.909V701.395H810.749V698.909H820.642ZM813.633 694.335H816.566V712.531C816.566 713.36 816.686 713.981 816.926 714.396C817.175 714.802 817.49 715.075 817.871 715.216C818.26 715.348 818.67 715.415 819.101 715.415C819.424 715.415 819.69 715.398 819.897 715.365C820.104 715.324 820.27 715.29 820.394 715.266L820.99 717.901C820.792 717.975 820.514 718.05 820.158 718.124C819.801 718.207 819.35 718.249 818.803 718.249C817.974 718.249 817.162 718.07 816.367 717.714C815.58 717.358 814.925 716.815 814.403 716.086C813.889 715.357 813.633 714.437 813.633 713.327V694.335ZM830.673 718.447C829.463 718.447 828.365 718.22 827.379 717.764C826.393 717.3 825.61 716.633 825.03 715.763C824.45 714.884 824.16 713.824 824.16 712.581C824.16 711.487 824.375 710.601 824.806 709.921C825.237 709.233 825.813 708.695 826.534 708.305C827.255 707.916 828.05 707.626 828.92 707.435C829.798 707.237 830.681 707.079 831.568 706.963C832.728 706.814 833.668 706.702 834.389 706.627C835.118 706.545 835.648 706.408 835.98 706.217C836.32 706.027 836.489 705.695 836.489 705.223V705.124C836.489 703.897 836.154 702.944 835.483 702.265C834.82 701.585 833.813 701.246 832.462 701.246C831.062 701.246 829.964 701.552 829.169 702.165C828.373 702.779 827.814 703.433 827.491 704.129L824.707 703.135C825.204 701.975 825.867 701.072 826.695 700.425C827.532 699.771 828.444 699.315 829.43 699.058C830.424 698.793 831.402 698.661 832.363 698.661C832.976 698.661 833.68 698.735 834.476 698.884C835.28 699.025 836.054 699.319 836.8 699.767C837.554 700.214 838.18 700.889 838.677 701.793C839.174 702.696 839.423 703.906 839.423 705.422V718H836.489V715.415H836.34C836.141 715.829 835.81 716.272 835.346 716.745C834.882 717.217 834.265 717.619 833.494 717.95C832.723 718.282 831.783 718.447 830.673 718.447ZM831.12 715.812C832.28 715.812 833.258 715.585 834.053 715.129C834.857 714.673 835.462 714.085 835.868 713.364C836.282 712.643 836.489 711.885 836.489 711.089V708.405C836.365 708.554 836.092 708.691 835.669 708.815C835.255 708.931 834.774 709.035 834.227 709.126C833.689 709.209 833.163 709.283 832.649 709.349C832.143 709.407 831.733 709.457 831.418 709.499C830.656 709.598 829.943 709.76 829.281 709.983C828.626 710.199 828.096 710.526 827.69 710.965C827.292 711.396 827.093 711.984 827.093 712.73C827.093 713.749 827.47 714.52 828.224 715.042C828.986 715.556 829.952 715.812 831.12 715.812ZM853.079 698.909V701.395H843.186V698.909H853.079ZM846.069 694.335H849.002V712.531C849.002 713.36 849.122 713.981 849.363 714.396C849.611 714.802 849.926 715.075 850.307 715.216C850.697 715.348 851.107 715.415 851.538 715.415C851.861 715.415 852.126 715.398 852.333 715.365C852.54 715.324 852.706 715.29 852.83 715.266L853.427 717.901C853.228 717.975 852.951 718.05 852.594 718.124C852.238 718.207 851.786 718.249 851.24 718.249C850.411 718.249 849.599 718.07 848.803 717.714C848.016 717.358 847.362 716.815 846.84 716.086C846.326 715.357 846.069 714.437 846.069 713.327V694.335ZM865.29 718.398C863.451 718.398 861.864 717.992 860.53 717.18C859.204 716.359 858.181 715.216 857.46 713.749C856.748 712.274 856.391 710.559 856.391 708.604C856.391 706.648 856.748 704.925 857.46 703.433C858.181 701.933 859.184 700.765 860.468 699.928C861.761 699.083 863.269 698.661 864.992 698.661C865.986 698.661 866.968 698.826 867.938 699.158C868.907 699.489 869.79 700.028 870.585 700.773C871.381 701.511 872.015 702.489 872.487 703.707C872.959 704.925 873.195 706.424 873.195 708.206V709.449H858.479V706.913H870.212C870.212 705.836 869.997 704.875 869.566 704.03C869.143 703.185 868.539 702.518 867.751 702.029C866.973 701.54 866.053 701.295 864.992 701.295C863.824 701.295 862.813 701.585 861.96 702.165C861.114 702.737 860.464 703.483 860.008 704.403C859.552 705.322 859.325 706.308 859.325 707.361V709.051C859.325 710.493 859.573 711.715 860.07 712.718C860.576 713.712 861.276 714.47 862.171 714.992C863.066 715.506 864.106 715.763 865.29 715.763C866.061 715.763 866.757 715.655 867.379 715.44C868.008 715.216 868.551 714.884 869.007 714.445C869.462 713.998 869.815 713.443 870.063 712.78L872.897 713.575C872.599 714.536 872.097 715.382 871.393 716.111C870.689 716.832 869.819 717.395 868.783 717.801C867.747 718.199 866.583 718.398 865.29 718.398Z" fill="white"/>
<path d="M60 462C60 453.163 67.1634 446 76 446H361C369.837 446 377 453.163 377 462V560C377 568.837 369.837 576 361 576H76C67.1635 576 60 568.837 60 560V462Z" fill="#FF3B30" fill-opacity="0.85"/>
<path d="M182.743 498.545L190.3 519.973H190.598L198.155 498.545H201.387L192.04 524H188.858L179.512 498.545H182.743ZM204.954 524V504.909H207.887V524H204.954ZM206.445 501.727C205.873 501.727 205.38 501.533 204.966 501.143C204.56 500.754 204.357 500.286 204.357 499.739C204.357 499.192 204.56 498.724 204.966 498.334C205.38 497.945 205.873 497.75 206.445 497.75C207.017 497.75 207.506 497.945 207.912 498.334C208.326 498.724 208.533 499.192 208.533 499.739C208.533 500.286 208.326 500.754 207.912 501.143C207.506 501.533 207.017 501.727 206.445 501.727ZM221.264 524.398C219.424 524.398 217.837 523.992 216.503 523.18C215.178 522.359 214.154 521.216 213.433 519.749C212.721 518.274 212.364 516.559 212.364 514.604C212.364 512.648 212.721 510.925 213.433 509.433C214.154 507.933 215.157 506.765 216.441 505.928C217.734 505.083 219.242 504.661 220.965 504.661C221.96 504.661 222.942 504.826 223.911 505.158C224.88 505.489 225.763 506.028 226.558 506.773C227.354 507.511 227.988 508.489 228.46 509.707C228.932 510.925 229.168 512.424 229.168 514.206V515.449H214.453V512.913H226.185C226.185 511.836 225.97 510.875 225.539 510.03C225.117 509.185 224.512 508.518 223.725 508.029C222.946 507.54 222.026 507.295 220.965 507.295C219.797 507.295 218.786 507.585 217.933 508.165C217.087 508.737 216.437 509.483 215.981 510.403C215.526 511.322 215.298 512.308 215.298 513.361V515.051C215.298 516.493 215.546 517.715 216.043 518.718C216.549 519.712 217.249 520.47 218.144 520.992C219.039 521.506 220.079 521.763 221.264 521.763C222.034 521.763 222.73 521.655 223.352 521.44C223.981 521.216 224.524 520.884 224.98 520.445C225.436 519.998 225.788 519.443 226.036 518.78L228.87 519.575C228.572 520.536 228.071 521.382 227.366 522.111C226.662 522.832 225.792 523.395 224.756 523.801C223.72 524.199 222.556 524.398 221.264 524.398ZM237.956 524L232.139 504.909H235.221L239.348 519.526H239.547L243.623 504.909H246.755L250.782 519.476H250.981L255.108 504.909H258.19L252.373 524H249.49L245.314 509.334H245.015L240.839 524H237.956Z" fill="white"/>
<path d="M60 268C60 259.163 67.1634 252 76 252H361C369.837 252 377 259.163 377 268V366C377 374.837 369.837 382 361 382H76C67.1635 382 60 374.837 60 366V268Z" fill="#FF2D55"/>
<path d="M131.525 304.545L139.082 325.973H139.38L146.937 304.545H150.168L140.822 330H137.64L128.293 304.545H131.525ZM153.735 330V310.909H156.669V330H153.735ZM155.227 307.727C154.655 307.727 154.162 307.533 153.748 307.143C153.342 306.754 153.139 306.286 153.139 305.739C153.139 305.192 153.342 304.724 153.748 304.334C154.162 303.945 154.655 303.75 155.227 303.75C155.799 303.75 156.288 303.945 156.694 304.334C157.108 304.724 157.315 305.192 157.315 305.739C157.315 306.286 157.108 306.754 156.694 307.143C156.288 307.533 155.799 307.727 155.227 307.727ZM170.045 330.398C168.206 330.398 166.619 329.992 165.285 329.18C163.959 328.359 162.936 327.216 162.215 325.749C161.503 324.274 161.146 322.559 161.146 320.604C161.146 318.648 161.503 316.925 162.215 315.433C162.936 313.933 163.939 312.765 165.223 311.928C166.516 311.083 168.024 310.661 169.747 310.661C170.741 310.661 171.723 310.826 172.693 311.158C173.662 311.489 174.545 312.028 175.34 312.773C176.136 313.511 176.769 314.489 177.242 315.707C177.714 316.925 177.95 318.424 177.95 320.206V321.449H163.234V318.913H174.967C174.967 317.836 174.752 316.875 174.321 316.03C173.898 315.185 173.293 314.518 172.506 314.029C171.727 313.54 170.808 313.295 169.747 313.295C168.579 313.295 167.568 313.585 166.714 314.165C165.869 314.737 165.219 315.483 164.763 316.403C164.307 317.322 164.079 318.308 164.079 319.361V321.051C164.079 322.493 164.328 323.715 164.825 324.718C165.331 325.712 166.031 326.47 166.926 326.992C167.821 327.506 168.86 327.763 170.045 327.763C170.816 327.763 171.512 327.655 172.133 327.44C172.763 327.216 173.306 326.884 173.762 326.445C174.217 325.998 174.57 325.443 174.818 324.78L177.652 325.575C177.354 326.536 176.852 327.382 176.148 328.111C175.444 328.832 174.574 329.395 173.538 329.801C172.502 330.199 171.338 330.398 170.045 330.398ZM186.737 330L180.921 310.909H184.003L188.13 325.526H188.328L192.405 310.909H195.537L199.564 325.476H199.763L203.889 310.909H206.972L201.155 330H198.272L194.095 315.334H193.797L189.621 330H186.737ZM211.247 304.545H214.926L223.577 325.675H223.875L232.526 304.545H236.205V330H233.321V310.661H233.073L225.118 330H222.334L214.38 310.661H214.131V330H211.247V304.545ZM249.743 330.398C248.02 330.398 246.507 329.988 245.206 329.167C243.914 328.347 242.903 327.199 242.174 325.724C241.453 324.25 241.092 322.526 241.092 320.554C241.092 318.565 241.453 316.829 242.174 315.346C242.903 313.863 243.914 312.711 245.206 311.891C246.507 311.071 248.02 310.661 249.743 310.661C251.467 310.661 252.975 311.071 254.267 311.891C255.568 312.711 256.579 313.863 257.3 315.346C258.029 316.829 258.394 318.565 258.394 320.554C258.394 322.526 258.029 324.25 257.3 325.724C256.579 327.199 255.568 328.347 254.267 329.167C252.975 329.988 251.467 330.398 249.743 330.398ZM249.743 327.763C251.052 327.763 252.129 327.427 252.975 326.756C253.82 326.085 254.445 325.202 254.851 324.109C255.257 323.015 255.46 321.83 255.46 320.554C255.46 319.278 255.257 318.089 254.851 316.987C254.445 315.885 253.82 314.994 252.975 314.315C252.129 313.635 251.052 313.295 249.743 313.295C248.434 313.295 247.357 313.635 246.512 314.315C245.666 314.994 245.041 315.885 244.635 316.987C244.229 318.089 244.026 319.278 244.026 320.554C244.026 321.83 244.229 323.015 244.635 324.109C245.041 325.202 245.666 326.085 246.512 326.756C247.357 327.427 248.434 327.763 249.743 327.763ZM270.08 330.398C268.489 330.398 267.085 329.996 265.867 329.192C264.649 328.38 263.696 327.237 263.008 325.762C262.32 324.279 261.976 322.526 261.976 320.504C261.976 318.499 262.32 316.759 263.008 315.284C263.696 313.809 264.653 312.67 265.879 311.866C267.105 311.062 268.522 310.661 270.13 310.661C271.373 310.661 272.354 310.868 273.075 311.282C273.805 311.688 274.36 312.152 274.741 312.674C275.13 313.188 275.433 313.61 275.648 313.942H275.897V304.545H278.83V330H275.996V327.067H275.648C275.433 327.415 275.126 327.854 274.728 328.384C274.331 328.906 273.763 329.374 273.026 329.789C272.288 330.195 271.306 330.398 270.08 330.398ZM270.478 327.763C271.654 327.763 272.649 327.456 273.461 326.843C274.273 326.222 274.89 325.364 275.313 324.27C275.735 323.168 275.946 321.896 275.946 320.455C275.946 319.029 275.739 317.782 275.325 316.713C274.911 315.636 274.298 314.799 273.486 314.203C272.673 313.598 271.671 313.295 270.478 313.295C269.235 313.295 268.199 313.614 267.37 314.252C266.55 314.882 265.933 315.74 265.519 316.825C265.113 317.902 264.91 319.112 264.91 320.455C264.91 321.813 265.117 323.048 265.531 324.158C265.954 325.26 266.575 326.139 267.395 326.793C268.224 327.44 269.251 327.763 270.478 327.763ZM292.614 330.398C290.774 330.398 289.187 329.992 287.853 329.18C286.528 328.359 285.504 327.216 284.783 325.749C284.071 324.274 283.715 322.559 283.715 320.604C283.715 318.648 284.071 316.925 284.783 315.433C285.504 313.933 286.507 312.765 287.791 311.928C289.084 311.083 290.592 310.661 292.315 310.661C293.31 310.661 294.292 310.826 295.261 311.158C296.231 311.489 297.113 312.028 297.908 312.773C298.704 313.511 299.338 314.489 299.81 315.707C300.282 316.925 300.519 318.424 300.519 320.206V321.449H285.803V318.913H297.536C297.536 317.836 297.32 316.875 296.889 316.03C296.467 315.185 295.862 314.518 295.075 314.029C294.296 313.54 293.376 313.295 292.315 313.295C291.147 313.295 290.136 313.585 289.283 314.165C288.438 314.737 287.787 315.483 287.331 316.403C286.876 317.322 286.648 318.308 286.648 319.361V321.051C286.648 322.493 286.896 323.715 287.394 324.718C287.899 325.712 288.599 326.47 289.494 326.992C290.389 327.506 291.429 327.763 292.614 327.763C293.384 327.763 294.08 327.655 294.702 327.44C295.332 327.216 295.874 326.884 296.33 326.445C296.786 325.998 297.138 325.443 297.386 324.78L300.22 325.575C299.922 326.536 299.421 327.382 298.716 328.111C298.012 328.832 297.142 329.395 296.106 329.801C295.071 330.199 293.906 330.398 292.614 330.398ZM307.914 304.545V330H304.981V304.545H307.914Z" fill="white"/>
<path d="M60 656C60 647.163 67.1634 640 76 640H361C369.837 640 377 647.163 377 656V754C377 762.837 369.837 770 361 770H76C67.1635 770 60 762.837 60 754V656Z" fill="#FF2D55"/>
<path d="M131.525 692.545L139.082 713.973H139.38L146.937 692.545H150.168L140.822 718H137.64L128.293 692.545H131.525ZM153.735 718V698.909H156.669V718H153.735ZM155.227 695.727C154.655 695.727 154.162 695.533 153.748 695.143C153.342 694.754 153.139 694.286 153.139 693.739C153.139 693.192 153.342 692.724 153.748 692.334C154.162 691.945 154.655 691.75 155.227 691.75C155.799 691.75 156.288 691.945 156.694 692.334C157.108 692.724 157.315 693.192 157.315 693.739C157.315 694.286 157.108 694.754 156.694 695.143C156.288 695.533 155.799 695.727 155.227 695.727ZM170.045 718.398C168.206 718.398 166.619 717.992 165.285 717.18C163.959 716.359 162.936 715.216 162.215 713.749C161.503 712.274 161.146 710.559 161.146 708.604C161.146 706.648 161.503 704.925 162.215 703.433C162.936 701.933 163.939 700.765 165.223 699.928C166.516 699.083 168.024 698.661 169.747 698.661C170.741 698.661 171.723 698.826 172.693 699.158C173.662 699.489 174.545 700.028 175.34 700.773C176.136 701.511 176.769 702.489 177.242 703.707C177.714 704.925 177.95 706.424 177.95 708.206V709.449H163.234V706.913H174.967C174.967 705.836 174.752 704.875 174.321 704.03C173.898 703.185 173.293 702.518 172.506 702.029C171.727 701.54 170.808 701.295 169.747 701.295C168.579 701.295 167.568 701.585 166.714 702.165C165.869 702.737 165.219 703.483 164.763 704.403C164.307 705.322 164.079 706.308 164.079 707.361V709.051C164.079 710.493 164.328 711.715 164.825 712.718C165.331 713.712 166.031 714.47 166.926 714.992C167.821 715.506 168.86 715.763 170.045 715.763C170.816 715.763 171.512 715.655 172.133 715.44C172.763 715.216 173.306 714.884 173.762 714.445C174.217 713.998 174.57 713.443 174.818 712.78L177.652 713.575C177.354 714.536 176.852 715.382 176.148 716.111C175.444 716.832 174.574 717.395 173.538 717.801C172.502 718.199 171.338 718.398 170.045 718.398ZM186.737 718L180.921 698.909H184.003L188.13 713.526H188.328L192.405 698.909H195.537L199.564 713.476H199.763L203.889 698.909H206.972L201.155 718H198.272L194.095 703.334H193.797L189.621 718H186.737ZM211.247 692.545H214.926L223.577 713.675H223.875L232.526 692.545H236.205V718H233.321V698.661H233.073L225.118 718H222.334L214.38 698.661H214.131V718H211.247V692.545ZM249.743 718.398C248.02 718.398 246.507 717.988 245.206 717.167C243.914 716.347 242.903 715.199 242.174 713.724C241.453 712.25 241.092 710.526 241.092 708.554C241.092 706.565 241.453 704.829 242.174 703.346C242.903 701.863 243.914 700.711 245.206 699.891C246.507 699.071 248.02 698.661 249.743 698.661C251.467 698.661 252.975 699.071 254.267 699.891C255.568 700.711 256.579 701.863 257.3 703.346C258.029 704.829 258.394 706.565 258.394 708.554C258.394 710.526 258.029 712.25 257.3 713.724C256.579 715.199 255.568 716.347 254.267 717.167C252.975 717.988 251.467 718.398 249.743 718.398ZM249.743 715.763C251.052 715.763 252.129 715.427 252.975 714.756C253.82 714.085 254.445 713.202 254.851 712.109C255.257 711.015 255.46 709.83 255.46 708.554C255.46 707.278 255.257 706.089 254.851 704.987C254.445 703.885 253.82 702.994 252.975 702.315C252.129 701.635 251.052 701.295 249.743 701.295C248.434 701.295 247.357 701.635 246.512 702.315C245.666 702.994 245.041 703.885 244.635 704.987C244.229 706.089 244.026 707.278 244.026 708.554C244.026 709.83 244.229 711.015 244.635 712.109C245.041 713.202 245.666 714.085 246.512 714.756C247.357 715.427 248.434 715.763 249.743 715.763ZM270.08 718.398C268.489 718.398 267.085 717.996 265.867 717.192C264.649 716.38 263.696 715.237 263.008 713.762C262.32 712.279 261.976 710.526 261.976 708.504C261.976 706.499 262.32 704.759 263.008 703.284C263.696 701.809 264.653 700.67 265.879 699.866C267.105 699.062 268.522 698.661 270.13 698.661C271.373 698.661 272.354 698.868 273.075 699.282C273.805 699.688 274.36 700.152 274.741 700.674C275.13 701.188 275.433 701.61 275.648 701.942H275.897V692.545H278.83V718H275.996V715.067H275.648C275.433 715.415 275.126 715.854 274.728 716.384C274.331 716.906 273.763 717.374 273.026 717.789C272.288 718.195 271.306 718.398 270.08 718.398ZM270.478 715.763C271.654 715.763 272.649 715.456 273.461 714.843C274.273 714.222 274.89 713.364 275.313 712.27C275.735 711.168 275.946 709.896 275.946 708.455C275.946 707.029 275.739 705.782 275.325 704.713C274.911 703.636 274.298 702.799 273.486 702.203C272.673 701.598 271.671 701.295 270.478 701.295C269.235 701.295 268.199 701.614 267.37 702.252C266.55 702.882 265.933 703.74 265.519 704.825C265.113 705.902 264.91 707.112 264.91 708.455C264.91 709.813 265.117 711.048 265.531 712.158C265.954 713.26 266.575 714.139 267.395 714.793C268.224 715.44 269.251 715.763 270.478 715.763ZM292.614 718.398C290.774 718.398 289.187 717.992 287.853 717.18C286.528 716.359 285.504 715.216 284.783 713.749C284.071 712.274 283.715 710.559 283.715 708.604C283.715 706.648 284.071 704.925 284.783 703.433C285.504 701.933 286.507 700.765 287.791 699.928C289.084 699.083 290.592 698.661 292.315 698.661C293.31 698.661 294.292 698.826 295.261 699.158C296.231 699.489 297.113 700.028 297.908 700.773C298.704 701.511 299.338 702.489 299.81 703.707C300.282 704.925 300.519 706.424 300.519 708.206V709.449H285.803V706.913H297.536C297.536 705.836 297.32 704.875 296.889 704.03C296.467 703.185 295.862 702.518 295.075 702.029C294.296 701.54 293.376 701.295 292.315 701.295C291.147 701.295 290.136 701.585 289.283 702.165C288.438 702.737 287.787 703.483 287.331 704.403C286.876 705.322 286.648 706.308 286.648 707.361V709.051C286.648 710.493 286.896 711.715 287.394 712.718C287.899 713.712 288.599 714.47 289.494 714.992C290.389 715.506 291.429 715.763 292.614 715.763C293.384 715.763 294.08 715.655 294.702 715.44C295.332 715.216 295.874 714.884 296.33 714.445C296.786 713.998 297.138 713.443 297.386 712.78L300.22 713.575C299.922 714.536 299.421 715.382 298.716 716.111C298.012 716.832 297.142 717.395 296.106 717.801C295.071 718.199 293.906 718.398 292.614 718.398ZM307.914 692.545V718H304.981V692.545H307.914Z" fill="white"/>
</svg>
