<svg width="1600" height="703" viewBox="0 0 1600 703" fill="none" xmlns="http://www.w3.org/2000/svg">
<rect width="1600" height="703" fill="white"/>
<path opacity="0.5" d="M1010.71 191H1556C1567.05 191 1576 199.954 1576 211V664C1576 675.046 1567.05 684 1556 684H639C627.954 684 619 675.046 619 664V399C619 387.954 627.954 379 639 379H970.715C981.76 379 990.715 370.046 990.715 359V211C990.715 199.954 999.669 191 1010.71 191Z" fill="#D9D9D9" fill-opacity="0.2" stroke="#999999" stroke-width="5"/>
<path d="M642 52C642 43.1634 649.163 36 658 36H943C951.837 36 959 43.1634 959 52V150C959 158.837 951.837 166 943 166H658C649.163 166 642 158.837 642 150V52Z" fill="black" fill-opacity="0.2"/>
<path d="M742.988 94.8661C742.888 93.8635 742.462 93.0846 741.708 92.5295C740.954 91.9743 739.93 91.6967 738.638 91.6967C737.759 91.6967 737.018 91.821 736.413 92.0696C735.808 92.3099 735.344 92.6455 735.021 93.0763C734.706 93.5072 734.548 93.9961 734.548 94.543C734.532 94.9987 734.627 95.3964 734.834 95.7361C735.05 96.0759 735.344 96.37 735.717 96.6186C736.09 96.8589 736.521 97.0702 737.009 97.2525C737.498 97.4265 738.02 97.5756 738.575 97.6999L740.862 98.2468C741.973 98.4954 742.992 98.8268 743.92 99.2411C744.848 99.6554 745.652 100.165 746.331 100.77C747.011 101.375 747.537 102.087 747.91 102.908C748.291 103.728 748.485 104.668 748.494 105.729C748.485 107.287 748.088 108.637 747.301 109.781C746.522 110.916 745.395 111.799 743.92 112.428C742.453 113.05 740.684 113.36 738.613 113.36C736.558 113.36 734.768 113.046 733.243 112.416C731.727 111.786 730.542 110.854 729.689 109.619C728.844 108.376 728.4 106.839 728.359 105.008H733.567C733.625 105.862 733.869 106.574 734.3 107.146C734.739 107.709 735.323 108.136 736.052 108.426C736.79 108.708 737.623 108.849 738.551 108.849C739.462 108.849 740.253 108.716 740.925 108.451C741.604 108.186 742.13 107.817 742.503 107.345C742.876 106.873 743.062 106.33 743.062 105.717C743.062 105.145 742.892 104.664 742.553 104.275C742.221 103.885 741.732 103.554 741.086 103.281C740.448 103.007 739.665 102.759 738.737 102.535L735.965 101.839C733.819 101.317 732.125 100.501 730.882 99.3903C729.639 98.2799 729.022 96.7843 729.03 94.9034C729.022 93.3622 729.432 92.0157 730.26 90.864C731.097 89.7122 732.245 88.8132 733.703 88.1669C735.162 87.5206 736.819 87.1974 738.675 87.1974C740.564 87.1974 742.213 87.5206 743.622 88.1669C745.039 88.8132 746.141 89.7122 746.928 90.864C747.715 92.0157 748.121 93.3498 748.146 94.8661H742.988ZM750.622 87.5455H756.65L762.455 98.5078H762.703L768.508 87.5455H774.536L765.251 104.001V113H759.907V104.001L750.622 87.5455ZM791.284 94.8661C791.184 93.8635 790.757 93.0846 790.003 92.5295C789.249 91.9743 788.226 91.6967 786.933 91.6967C786.055 91.6967 785.314 91.821 784.709 92.0696C784.104 92.3099 783.64 92.6455 783.317 93.0763C783.002 93.5072 782.844 93.9961 782.844 94.543C782.828 94.9987 782.923 95.3964 783.13 95.7361C783.346 96.0759 783.64 96.37 784.013 96.6186C784.386 96.8589 784.816 97.0702 785.305 97.2525C785.794 97.4265 786.316 97.5756 786.871 97.6999L789.158 98.2468C790.269 98.4954 791.288 98.8268 792.216 99.2411C793.144 99.6554 793.948 100.165 794.627 100.77C795.306 101.375 795.833 102.087 796.206 102.908C796.587 103.728 796.781 104.668 796.79 105.729C796.781 107.287 796.384 108.637 795.596 109.781C794.818 110.916 793.691 111.799 792.216 112.428C790.749 113.05 788.98 113.36 786.909 113.36C784.854 113.36 783.064 113.046 781.539 112.416C780.023 111.786 778.838 110.854 777.985 109.619C777.139 108.376 776.696 106.839 776.655 105.008H781.862C781.92 105.862 782.165 106.574 782.596 107.146C783.035 107.709 783.619 108.136 784.348 108.426C785.086 108.708 785.918 108.849 786.846 108.849C787.758 108.849 788.549 108.716 789.22 108.451C789.9 108.186 790.426 107.817 790.799 107.345C791.172 106.873 791.358 106.33 791.358 105.717C791.358 105.145 791.188 104.664 790.849 104.275C790.517 103.885 790.028 103.554 789.382 103.281C788.744 103.007 787.961 102.759 787.033 102.535L784.261 101.839C782.115 101.317 780.421 100.501 779.178 99.3903C777.935 98.2799 777.318 96.7843 777.326 94.9034C777.318 93.3622 777.728 92.0157 778.556 90.864C779.393 89.7122 780.541 88.8132 781.999 88.1669C783.458 87.5206 785.115 87.1974 786.971 87.1974C788.86 87.1974 790.509 87.5206 791.918 88.1669C793.334 88.8132 794.436 89.7122 795.224 90.864C796.011 92.0157 796.417 93.3498 796.442 94.8661H791.284ZM799.44 91.9826V87.5455H820.346V91.9826H812.553V113H807.233V91.9826H799.44ZM823.789 113V87.5455H840.941V91.9826H829.17V98.0479H840.058V102.485H829.17V108.563H840.99V113H823.789ZM845.219 87.5455H851.856L858.866 104.648H859.164L866.174 87.5455H872.812V113H867.591V96.4322H867.38L860.793 112.876H857.238L850.651 96.37H850.439V113H845.219V87.5455Z" fill="white"/>
<path d="M642 244C642 235.163 649.163 228 658 228H943C951.837 228 959 235.163 959 244V342C959 350.837 951.837 358 943 358H658C649.163 358 642 350.837 642 342V244Z" fill="black" fill-opacity="0.2"/>
<path d="M741.826 286.866C741.726 285.864 741.299 285.085 740.545 284.529C739.791 283.974 738.768 283.697 737.475 283.697C736.597 283.697 735.856 283.821 735.251 284.07C734.646 284.31 734.182 284.645 733.859 285.076C733.544 285.507 733.386 285.996 733.386 286.543C733.37 286.999 733.465 287.396 733.672 287.736C733.888 288.076 734.182 288.37 734.555 288.619C734.928 288.859 735.358 289.07 735.847 289.252C736.336 289.426 736.858 289.576 737.413 289.7L739.7 290.247C740.811 290.495 741.83 290.827 742.758 291.241C743.686 291.655 744.49 292.165 745.169 292.77C745.848 293.375 746.375 294.087 746.748 294.908C747.129 295.728 747.323 296.668 747.332 297.729C747.323 299.287 746.926 300.637 746.138 301.781C745.36 302.916 744.233 303.799 742.758 304.428C741.291 305.05 739.522 305.36 737.451 305.36C735.396 305.36 733.606 305.046 732.081 304.416C730.565 303.786 729.38 302.854 728.527 301.619C727.681 300.376 727.238 298.839 727.197 297.008H732.404C732.462 297.862 732.707 298.574 733.138 299.146C733.577 299.709 734.161 300.136 734.89 300.426C735.628 300.708 736.46 300.849 737.388 300.849C738.3 300.849 739.091 300.716 739.762 300.451C740.442 300.186 740.968 299.817 741.341 299.345C741.714 298.873 741.9 298.33 741.9 297.717C741.9 297.145 741.73 296.664 741.391 296.275C741.059 295.885 740.57 295.554 739.924 295.281C739.286 295.007 738.503 294.759 737.575 294.535L734.803 293.839C732.657 293.317 730.963 292.501 729.72 291.39C728.477 290.28 727.86 288.784 727.868 286.903C727.86 285.362 728.27 284.016 729.098 282.864C729.935 281.712 731.083 280.813 732.541 280.167C734 279.521 735.657 279.197 737.513 279.197C739.402 279.197 741.051 279.521 742.46 280.167C743.876 280.813 744.978 281.712 745.766 282.864C746.553 284.016 746.959 285.35 746.984 286.866H741.826ZM750.952 305V279.545H768.104V283.983H756.333V290.048H767.221V294.485H756.333V300.563H768.153V305H750.952ZM772.382 305V279.545H782.425C784.347 279.545 785.988 279.889 787.347 280.577C788.714 281.257 789.754 282.222 790.466 283.473C791.187 284.716 791.548 286.178 791.548 287.86C791.548 289.551 791.183 291.005 790.454 292.223C789.725 293.433 788.668 294.361 787.285 295.007C785.909 295.653 784.244 295.977 782.288 295.977H775.564V291.651H781.418C782.446 291.651 783.299 291.51 783.979 291.229C784.658 290.947 785.163 290.524 785.495 289.961C785.835 289.397 786.004 288.697 786.004 287.86C786.004 287.015 785.835 286.303 785.495 285.723C785.163 285.143 784.654 284.703 783.966 284.405C783.287 284.099 782.429 283.945 781.393 283.945H777.764V305H772.382ZM786.129 293.416L792.455 305H786.514L780.324 293.416H786.129ZM799.266 279.545L805.418 298.885H805.655L811.819 279.545H817.785L809.01 305H802.075L793.288 279.545H799.266ZM826.231 279.545V305H820.849V279.545H826.231ZM853.118 288.457H847.674C847.574 287.753 847.371 287.127 847.065 286.58C846.758 286.025 846.365 285.553 845.884 285.163C845.404 284.774 844.848 284.476 844.219 284.268C843.597 284.061 842.922 283.958 842.193 283.958C840.875 283.958 839.728 284.285 838.75 284.94C837.772 285.586 837.014 286.531 836.475 287.773C835.937 289.008 835.668 290.508 835.668 292.273C835.668 294.087 835.937 295.612 836.475 296.847C837.022 298.081 837.785 299.013 838.762 299.643C839.74 300.273 840.871 300.588 842.155 300.588C842.876 300.588 843.543 300.492 844.157 300.302C844.778 300.111 845.329 299.834 845.81 299.469C846.29 299.096 846.688 298.645 847.003 298.114C847.326 297.584 847.55 296.979 847.674 296.3L853.118 296.325C852.977 297.493 852.625 298.62 852.061 299.705C851.506 300.782 850.756 301.748 849.812 302.601C848.875 303.446 847.757 304.118 846.456 304.615C845.163 305.104 843.701 305.348 842.068 305.348C839.798 305.348 837.768 304.834 835.978 303.807C834.197 302.779 832.788 301.292 831.752 299.345C830.725 297.398 830.211 295.04 830.211 292.273C830.211 289.497 830.733 287.135 831.777 285.188C832.821 283.241 834.238 281.758 836.028 280.739C837.818 279.711 839.831 279.197 842.068 279.197C843.543 279.197 844.911 279.405 846.17 279.819C847.438 280.233 848.561 280.838 849.538 281.634C850.516 282.421 851.311 283.386 851.925 284.529C852.546 285.673 852.944 286.982 853.118 288.457ZM856.977 305V279.545H874.129V283.983H862.359V290.048H873.247V294.485H862.359V300.563H874.179V305H856.977Z" fill="white"/>
<path d="M642 434C642 425.163 649.163 418 658 418H943C951.837 418 959 425.163 959 434V532C959 540.837 951.837 548 943 548H658C649.163 548 642 540.837 642 532V434Z" fill="#00C7BE"/>
<path d="M738.937 495H729.914V469.545H739.012C741.572 469.545 743.776 470.055 745.624 471.074C747.472 472.085 748.893 473.539 749.887 475.437C750.89 477.334 751.391 479.605 751.391 482.248C751.391 484.899 750.89 487.178 749.887 489.084C748.893 490.99 747.464 492.452 745.599 493.471C743.743 494.49 741.523 495 738.937 495ZM735.296 490.389H738.714C740.305 490.389 741.643 490.107 742.728 489.544C743.822 488.972 744.642 488.089 745.189 486.896C745.744 485.695 746.022 484.145 746.022 482.248C746.022 480.367 745.744 478.83 745.189 477.637C744.642 476.444 743.826 475.565 742.741 475.002C741.655 474.438 740.317 474.157 738.726 474.157H735.296V490.389ZM778.769 482.273C778.769 485.049 778.243 487.41 777.191 489.357C776.147 491.304 774.722 492.792 772.915 493.819C771.117 494.838 769.095 495.348 766.85 495.348C764.588 495.348 762.558 494.834 760.76 493.807C758.962 492.779 757.541 491.292 756.496 489.345C755.452 487.398 754.93 485.04 754.93 482.273C754.93 479.497 755.452 477.135 756.496 475.188C757.541 473.241 758.962 471.758 760.76 470.739C762.558 469.711 764.588 469.197 766.85 469.197C769.095 469.197 771.117 469.711 772.915 470.739C774.722 471.758 776.147 473.241 777.191 475.188C778.243 477.135 778.769 479.497 778.769 482.273ZM773.313 482.273C773.313 480.475 773.044 478.958 772.505 477.724C771.975 476.489 771.225 475.553 770.255 474.915C769.286 474.277 768.151 473.958 766.85 473.958C765.549 473.958 764.414 474.277 763.444 474.915C762.475 475.553 761.721 476.489 761.182 477.724C760.652 478.958 760.387 480.475 760.387 482.273C760.387 484.071 760.652 485.587 761.182 486.822C761.721 488.056 762.475 488.993 763.444 489.631C764.414 490.269 765.549 490.588 766.85 490.588C768.151 490.588 769.286 490.269 770.255 489.631C771.225 488.993 771.975 488.056 772.505 486.822C773.044 485.587 773.313 484.071 773.313 482.273ZM782.756 469.545H789.393L796.403 486.648H796.701L803.711 469.545H810.348V495H805.128V478.432H804.917L798.329 494.876H794.775L788.187 478.37H787.976V495H782.756V469.545ZM819.17 495H813.403L822.19 469.545H829.125L837.9 495H832.133L825.757 475.362H825.558L819.17 495ZM818.809 484.995H832.431V489.196H818.809V484.995ZM846.346 469.545V495H840.964V469.545H846.346ZM872.064 469.545V495H867.416L856.342 478.979H856.155V495H850.773V469.545H855.496L866.484 485.554H866.707V469.545H872.064Z" fill="white"/>
<path d="M50 244C50 235.163 57.1634 228 66 228H351C359.837 228 367 235.163 367 244V342C367 350.837 359.837 358 351 358H66C57.1635 358 50 350.837 50 342V244Z" fill="black" fill-opacity="0.2"/>
<path d="M156.823 285.909C156.674 284.65 156.069 283.672 155.009 282.976C153.948 282.28 152.647 281.932 151.106 281.932C149.979 281.932 148.993 282.114 148.148 282.479C147.311 282.843 146.656 283.345 146.184 283.983C145.72 284.621 145.488 285.346 145.488 286.158C145.488 286.837 145.65 287.421 145.973 287.91C146.304 288.391 146.727 288.793 147.24 289.116C147.754 289.431 148.293 289.692 148.856 289.899C149.42 290.098 149.937 290.259 150.41 290.384L152.995 291.08C153.658 291.254 154.395 291.494 155.207 291.8C156.028 292.107 156.811 292.525 157.556 293.056C158.31 293.578 158.932 294.249 159.421 295.069C159.91 295.89 160.154 296.896 160.154 298.089C160.154 299.465 159.794 300.708 159.073 301.818C158.36 302.928 157.316 303.811 155.941 304.466C154.574 305.12 152.912 305.447 150.957 305.447C149.134 305.447 147.555 305.153 146.221 304.565C144.895 303.977 143.851 303.156 143.089 302.104C142.335 301.052 141.908 299.83 141.809 298.437H144.991C145.074 299.399 145.397 300.194 145.96 300.824C146.532 301.445 147.253 301.909 148.123 302.216C149.001 302.514 149.946 302.663 150.957 302.663C152.133 302.663 153.19 302.473 154.126 302.092C155.062 301.702 155.804 301.164 156.351 300.476C156.898 299.78 157.171 298.968 157.171 298.04C157.171 297.195 156.935 296.507 156.463 295.977C155.99 295.446 155.369 295.015 154.598 294.684C153.828 294.353 152.995 294.062 152.1 293.814L148.968 292.919C146.979 292.347 145.405 291.531 144.245 290.471C143.085 289.41 142.505 288.022 142.505 286.307C142.505 284.882 142.89 283.639 143.661 282.578C144.44 281.509 145.484 280.681 146.793 280.092C148.11 279.496 149.581 279.197 151.205 279.197C152.846 279.197 154.304 279.492 155.58 280.08C156.856 280.66 157.867 281.455 158.613 282.466C159.367 283.477 159.765 284.625 159.806 285.909H156.823ZM185.705 287.5H182.623C182.44 286.613 182.121 285.835 181.666 285.163C181.218 284.492 180.671 283.929 180.025 283.473C179.387 283.009 178.678 282.661 177.9 282.429C177.121 282.197 176.309 282.081 175.464 282.081C173.922 282.081 172.526 282.47 171.275 283.249C170.032 284.028 169.042 285.176 168.304 286.692C167.575 288.208 167.211 290.069 167.211 292.273C167.211 294.477 167.575 296.337 168.304 297.853C169.042 299.37 170.032 300.517 171.275 301.296C172.526 302.075 173.922 302.464 175.464 302.464C176.309 302.464 177.121 302.348 177.9 302.116C178.678 301.884 179.387 301.541 180.025 301.085C180.671 300.621 181.218 300.053 181.666 299.382C182.121 298.703 182.44 297.924 182.623 297.045H185.705C185.473 298.346 185.05 299.511 184.437 300.538C183.824 301.565 183.062 302.44 182.15 303.161C181.239 303.873 180.216 304.416 179.08 304.789C177.953 305.162 176.748 305.348 175.464 305.348C173.293 305.348 171.362 304.818 169.672 303.757C167.981 302.696 166.651 301.188 165.682 299.233C164.712 297.277 164.228 294.957 164.228 292.273C164.228 289.588 164.712 287.268 165.682 285.312C166.651 283.357 167.981 281.849 169.672 280.788C171.362 279.728 173.293 279.197 175.464 279.197C176.748 279.197 177.953 279.384 179.08 279.757C180.216 280.13 181.239 280.676 182.15 281.397C183.062 282.11 183.824 282.98 184.437 284.007C185.05 285.027 185.473 286.191 185.705 287.5ZM190.686 305V279.545H199.287C201.275 279.545 202.908 279.885 204.184 280.565C205.46 281.236 206.404 282.16 207.018 283.336C207.631 284.513 207.937 285.851 207.937 287.351C207.937 288.851 207.631 290.181 207.018 291.341C206.404 292.501 205.464 293.412 204.196 294.075C202.928 294.73 201.309 295.057 199.336 295.057H192.376V292.273H199.237C200.596 292.273 201.69 292.074 202.518 291.676C203.355 291.278 203.96 290.715 204.333 289.986C204.714 289.248 204.905 288.37 204.905 287.351C204.905 286.332 204.714 285.441 204.333 284.679C203.952 283.916 203.343 283.328 202.506 282.914C201.669 282.491 200.563 282.28 199.187 282.28H193.768V305H190.686ZM202.667 293.565L208.932 305H205.352L199.187 293.565H202.667ZM213.074 305V279.545H228.436V282.28H216.156V290.881H227.64V293.615H216.156V302.266H228.635V305H213.074ZM233.992 305V279.545H249.354V282.28H237.074V290.881H248.558V293.615H237.074V302.266H249.553V305H233.992ZM275.094 279.545V305H272.111L258.24 285.014H257.992V305H254.91V279.545H257.892L271.813 299.581H272.062V279.545H275.094Z" fill="white"/>
<path d="M50 624.458C50 615.621 57.1634 608.458 66 608.458H351C359.837 608.458 367 615.621 367 624.458V652C367 660.837 359.837 668 351 668H66C57.1635 668 50 660.837 50 652V624.458Z" fill="black" fill-opacity="0.2"/>
<path d="M171.948 630.909C171.799 629.65 171.194 628.672 170.133 627.976C169.072 627.28 167.772 626.932 166.23 626.932C165.103 626.932 164.117 627.114 163.272 627.479C162.435 627.843 161.781 628.345 161.308 628.983C160.844 629.621 160.612 630.346 160.612 631.158C160.612 631.837 160.774 632.421 161.097 632.91C161.429 633.391 161.851 633.793 162.365 634.116C162.879 634.431 163.417 634.692 163.981 634.899C164.544 635.098 165.062 635.259 165.534 635.384L168.12 636.08C168.782 636.254 169.52 636.494 170.332 636.8C171.152 637.107 171.935 637.525 172.681 638.056C173.435 638.578 174.056 639.249 174.545 640.069C175.034 640.89 175.279 641.896 175.279 643.089C175.279 644.465 174.918 645.708 174.197 646.818C173.485 647.929 172.441 648.811 171.065 649.466C169.698 650.12 168.037 650.447 166.081 650.447C164.258 650.447 162.68 650.153 161.346 649.565C160.02 648.977 158.976 648.156 158.214 647.104C157.46 646.052 157.033 644.83 156.933 643.437H160.115C160.198 644.399 160.521 645.194 161.085 645.824C161.656 646.445 162.377 646.909 163.247 647.216C164.126 647.514 165.07 647.663 166.081 647.663C167.258 647.663 168.314 647.473 169.251 647.092C170.187 646.702 170.928 646.164 171.475 645.476C172.022 644.78 172.296 643.968 172.296 643.04C172.296 642.195 172.06 641.507 171.587 640.977C171.115 640.446 170.493 640.015 169.723 639.684C168.952 639.353 168.12 639.062 167.225 638.814L164.093 637.919C162.104 637.347 160.53 636.531 159.37 635.471C158.209 634.41 157.629 633.022 157.629 631.307C157.629 629.882 158.015 628.639 158.785 627.578C159.564 626.509 160.608 625.681 161.917 625.092C163.235 624.496 164.706 624.197 166.33 624.197C167.97 624.197 169.429 624.492 170.705 625.08C171.981 625.66 172.992 626.455 173.737 627.466C174.491 628.477 174.889 629.625 174.931 630.909H171.948ZM180.347 650V624.545H183.429V635.881H197.001V624.545H200.084V650H197.001V638.615H183.429V650H180.347ZM227.732 637.273C227.732 639.957 227.247 642.277 226.278 644.233C225.308 646.188 223.978 647.696 222.288 648.757C220.598 649.818 218.667 650.348 216.496 650.348C214.325 650.348 212.395 649.818 210.704 648.757C209.014 647.696 207.684 646.188 206.715 644.233C205.745 642.277 205.26 639.957 205.26 637.273C205.26 634.588 205.745 632.268 206.715 630.312C207.684 628.357 209.014 626.849 210.704 625.788C212.395 624.728 214.325 624.197 216.496 624.197C218.667 624.197 220.598 624.728 222.288 625.788C223.978 626.849 225.308 628.357 226.278 630.312C227.247 632.268 227.732 634.588 227.732 637.273ZM224.749 637.273C224.749 635.069 224.38 633.208 223.643 631.692C222.914 630.176 221.924 629.028 220.672 628.249C219.429 627.47 218.037 627.081 216.496 627.081C214.955 627.081 213.559 627.47 212.308 628.249C211.065 629.028 210.075 630.176 209.337 631.692C208.608 633.208 208.243 635.069 208.243 637.273C208.243 639.477 208.608 641.337 209.337 642.853C210.075 644.37 211.065 645.517 212.308 646.296C213.559 647.075 214.955 647.464 216.496 647.464C218.037 647.464 219.429 647.075 220.672 646.296C221.924 645.517 222.914 644.37 223.643 642.853C224.38 641.337 224.749 639.477 224.749 637.273ZM237.538 650L230.578 624.545H233.71L239.03 645.277H239.279L244.698 624.545H248.178L253.597 645.277H253.845L259.165 624.545H262.297L255.337 650H252.155L246.537 629.716H246.338L240.72 650H237.538Z" fill="white"/>
<path d="M642 624.458C642 615.621 649.163 608.458 658 608.458H943C951.837 608.458 959 615.621 959 624.458V652C959 660.837 951.837 668 943 668H658C649.163 668 642 660.837 642 652V624.458Z" fill="#007AFF"/>
<path d="M782.113 624.545H785.195V641.399C785.195 643.139 784.785 644.693 783.965 646.06C783.153 647.419 782.005 648.492 780.522 649.279C779.039 650.058 777.298 650.447 775.302 650.447C773.305 650.447 771.565 650.058 770.081 649.279C768.598 648.492 767.446 647.419 766.626 646.06C765.814 644.693 765.408 643.139 765.408 641.399V624.545H768.49V641.151C768.49 642.393 768.764 643.5 769.311 644.469C769.858 645.43 770.637 646.188 771.647 646.744C772.667 647.29 773.885 647.564 775.302 647.564C776.718 647.564 777.936 647.29 778.956 646.744C779.975 646.188 780.754 645.43 781.292 644.469C781.839 643.5 782.113 642.393 782.113 641.151V624.545ZM789.958 627.28V624.545H809.049V627.28H801.045V650H797.963V627.28H789.958ZM816.889 624.545V650H813.807V624.545H816.889ZM823.069 650V624.545H826.152V647.266H837.984V650H823.069Z" fill="white"/>
<path d="M1234 624.458C1234 615.621 1241.16 608.458 1250 608.458H1535C1543.84 608.458 1551 615.621 1551 624.458V652C1551 660.837 1543.84 668 1535 668H1250C1241.16 668 1234 660.837 1234 652V624.458Z" fill="#32ADE6"/>
<path d="M1367 632.5C1366.73 631.663 1366.36 630.913 1365.92 630.25C1365.48 629.579 1364.95 629.007 1364.34 628.535C1363.73 628.063 1363.05 627.702 1362.28 627.454C1361.5 627.205 1360.66 627.081 1359.74 627.081C1358.23 627.081 1356.86 627.47 1355.63 628.249C1354.39 629.028 1353.41 630.176 1352.68 631.692C1351.95 633.208 1351.59 635.069 1351.59 637.273C1351.59 639.477 1351.96 641.337 1352.69 642.853C1353.43 644.37 1354.43 645.517 1355.69 646.296C1356.95 647.075 1358.36 647.464 1359.94 647.464C1361.4 647.464 1362.68 647.154 1363.79 646.532C1364.91 645.903 1365.78 645.016 1366.4 643.873C1367.03 642.721 1367.35 641.366 1367.35 639.808L1368.29 640.007H1360.63V637.273H1370.33V640.007C1370.33 642.103 1369.88 643.926 1368.99 645.476C1368.1 647.025 1366.87 648.227 1365.31 649.08C1363.75 649.925 1361.96 650.348 1359.94 650.348C1357.69 650.348 1355.7 649.818 1354 648.757C1352.3 647.696 1350.97 646.188 1350.02 644.233C1349.08 642.277 1348.6 639.957 1348.6 637.273C1348.6 635.259 1348.87 633.449 1349.41 631.841C1349.96 630.225 1350.73 628.85 1351.72 627.715C1352.72 626.58 1353.89 625.71 1355.25 625.105C1356.61 624.5 1358.11 624.197 1359.74 624.197C1361.08 624.197 1362.33 624.4 1363.49 624.806C1364.66 625.204 1365.7 625.772 1366.61 626.509C1367.53 627.238 1368.3 628.113 1368.91 629.132C1369.53 630.143 1369.95 631.265 1370.18 632.5H1367ZM1375.61 650V624.545H1390.97V627.28H1378.69V635.881H1390.18V638.615H1378.69V647.266H1391.17V650H1375.61ZM1397.57 650H1394.34L1403.69 624.545H1406.87L1416.21 650H1412.98L1405.38 628.572H1405.18L1397.57 650ZM1398.76 640.057H1411.79V642.791H1398.76V640.057ZM1420.18 650V624.545H1428.78C1430.77 624.545 1432.4 624.885 1433.68 625.565C1434.95 626.236 1435.9 627.16 1436.51 628.336C1437.12 629.513 1437.43 630.851 1437.43 632.351C1437.43 633.851 1437.12 635.181 1436.51 636.341C1435.9 637.501 1434.96 638.412 1433.69 639.075C1432.42 639.73 1430.8 640.057 1428.83 640.057H1421.87V637.273H1428.73C1430.09 637.273 1431.18 637.074 1432.01 636.676C1432.85 636.278 1433.45 635.715 1433.83 634.986C1434.21 634.248 1434.4 633.37 1434.4 632.351C1434.4 631.332 1434.21 630.441 1433.83 629.679C1433.44 628.916 1432.84 628.328 1432 627.914C1431.16 627.491 1430.06 627.28 1428.68 627.28H1423.26V650H1420.18ZM1432.16 638.565L1438.42 650H1434.85L1428.68 638.565H1432.16Z" fill="white"/>
<path d="M1234 244C1234 235.163 1241.16 228 1250 228H1535C1543.84 228 1551 235.163 1551 244V342C1551 350.837 1543.84 358 1535 358H1250C1241.16 358 1234 350.837 1234 342V244Z" fill="#FF2D55"/>
<path d="M1327.1 305L1320.14 279.545H1323.27L1328.59 300.277H1328.84L1334.26 279.545H1337.74L1343.16 300.277H1343.41L1348.73 279.545H1351.86L1344.9 305H1341.72L1336.1 284.716H1335.9L1330.28 305H1327.1ZM1375.98 292.273C1375.98 294.957 1375.5 297.277 1374.53 299.233C1373.56 301.188 1372.23 302.696 1370.54 303.757C1368.85 304.818 1366.92 305.348 1364.74 305.348C1362.57 305.348 1360.64 304.818 1358.95 303.757C1357.26 302.696 1355.93 301.188 1354.96 299.233C1353.99 297.277 1353.51 294.957 1353.51 292.273C1353.51 289.588 1353.99 287.268 1354.96 285.312C1355.93 283.357 1357.26 281.849 1358.95 280.788C1360.64 279.728 1362.57 279.197 1364.74 279.197C1366.92 279.197 1368.85 279.728 1370.54 280.788C1372.23 281.849 1373.56 283.357 1374.53 285.312C1375.5 287.268 1375.98 289.588 1375.98 292.273ZM1373 292.273C1373 290.069 1372.63 288.208 1371.89 286.692C1371.16 285.176 1370.17 284.028 1368.92 283.249C1367.68 282.47 1366.29 282.081 1364.74 282.081C1363.2 282.081 1361.81 282.47 1360.56 283.249C1359.31 284.028 1358.32 285.176 1357.59 286.692C1356.86 288.208 1356.49 290.069 1356.49 292.273C1356.49 294.477 1356.86 296.337 1357.59 297.853C1358.32 299.37 1359.31 300.517 1360.56 301.296C1361.81 302.075 1363.2 302.464 1364.74 302.464C1366.29 302.464 1367.68 302.075 1368.92 301.296C1370.17 300.517 1371.16 299.37 1371.89 297.853C1372.63 296.337 1373 294.477 1373 292.273ZM1381.16 305V279.545H1389.76C1391.75 279.545 1393.38 279.885 1394.66 280.565C1395.94 281.236 1396.88 282.16 1397.49 283.336C1398.11 284.513 1398.41 285.851 1398.41 287.351C1398.41 288.851 1398.11 290.181 1397.49 291.341C1396.88 292.501 1395.94 293.412 1394.67 294.075C1393.41 294.73 1391.79 295.057 1389.81 295.057H1382.85V292.273H1389.71C1391.07 292.273 1392.17 292.074 1393 291.676C1393.83 291.278 1394.44 290.715 1394.81 289.986C1395.19 289.248 1395.38 288.37 1395.38 287.351C1395.38 286.332 1395.19 285.441 1394.81 284.679C1394.43 283.916 1393.82 283.328 1392.98 282.914C1392.15 282.491 1391.04 282.28 1389.66 282.28H1384.25V305H1381.16ZM1393.14 293.565L1399.41 305H1395.83L1389.66 293.565H1393.14ZM1403.55 305V279.545H1406.63V292.173H1406.93L1418.37 279.545H1422.39L1411.7 291.03L1422.39 305H1418.66L1409.81 293.168L1406.63 296.747V305H1403.55ZM1426.38 305V279.545H1441.74V282.28H1429.47V290.881H1440.95V293.615H1429.47V302.266H1441.94V305H1426.38ZM1447.3 305V279.545H1455.9C1457.89 279.545 1459.52 279.885 1460.8 280.565C1462.07 281.236 1463.02 282.16 1463.63 283.336C1464.25 284.513 1464.55 285.851 1464.55 287.351C1464.55 288.851 1464.25 290.181 1463.63 291.341C1463.02 292.501 1462.08 293.412 1460.81 294.075C1459.54 294.73 1457.92 295.057 1455.95 295.057H1448.99V292.273H1455.85C1457.21 292.273 1458.3 292.074 1459.13 291.676C1459.97 291.278 1460.57 290.715 1460.95 289.986C1461.33 289.248 1461.52 288.37 1461.52 287.351C1461.52 286.332 1461.33 285.441 1460.95 284.679C1460.57 283.916 1459.96 283.328 1459.12 282.914C1458.28 282.491 1457.18 282.28 1455.8 282.28H1450.38V305H1447.3ZM1459.28 293.565L1465.55 305H1461.97L1455.8 293.565H1459.28Z" fill="white"/>
<path d="M1037.23 291.232C1036.26 292.209 1036.26 293.791 1037.23 294.768L1053.14 310.678C1054.12 311.654 1055.7 311.654 1056.68 310.678C1057.65 309.701 1057.65 308.118 1056.68 307.142L1042.54 293L1056.68 278.858C1057.65 277.882 1057.65 276.299 1056.68 275.322C1055.7 274.346 1054.12 274.346 1053.14 275.322L1037.23 291.232ZM1159 290.5H1039V295.5H1159V290.5Z" fill="#999999" fill-opacity="0.5"/>
<path d="M1037.23 636.232C1036.26 637.209 1036.26 638.791 1037.23 639.768L1053.14 655.678C1054.12 656.654 1055.7 656.654 1056.68 655.678C1057.65 654.701 1057.65 653.118 1056.68 652.142L1042.54 638L1056.68 623.858C1057.65 622.882 1057.65 621.299 1056.68 620.322C1055.7 619.346 1054.12 619.346 1053.14 620.322L1037.23 636.232ZM1159 635.5H1039V640.5H1159V635.5Z" fill="#999999" fill-opacity="0.5"/>
<path d="M1057.96 256L1052 234.182H1054.68L1059.24 251.952H1059.45L1064.1 234.182H1067.08L1071.73 251.952H1071.94L1076.5 234.182H1079.19L1073.22 256H1070.49L1065.68 238.614H1065.51L1060.69 256H1057.96ZM1087.26 256.341C1085.78 256.341 1084.49 255.989 1083.37 255.286C1082.26 254.583 1081.4 253.599 1080.77 252.335C1080.15 251.071 1079.85 249.594 1079.85 247.903C1079.85 246.199 1080.15 244.711 1080.77 243.44C1081.4 242.168 1082.26 241.181 1083.37 240.478C1084.49 239.775 1085.78 239.423 1087.26 239.423C1088.74 239.423 1090.03 239.775 1091.14 240.478C1092.25 241.181 1093.12 242.168 1093.74 243.44C1094.36 244.711 1094.68 246.199 1094.68 247.903C1094.68 249.594 1094.36 251.071 1093.74 252.335C1093.12 253.599 1092.25 254.583 1091.14 255.286C1090.03 255.989 1088.74 256.341 1087.26 256.341ZM1087.26 254.082C1088.38 254.082 1089.31 253.795 1090.03 253.219C1090.75 252.644 1091.29 251.888 1091.64 250.95C1091.99 250.013 1092.16 248.997 1092.16 247.903C1092.16 246.81 1091.99 245.79 1091.64 244.846C1091.29 243.901 1090.75 243.138 1090.03 242.555C1089.31 241.973 1088.38 241.682 1087.26 241.682C1086.14 241.682 1085.21 241.973 1084.49 242.555C1083.77 243.138 1083.23 243.901 1082.88 244.846C1082.53 245.79 1082.36 246.81 1082.36 247.903C1082.36 248.997 1082.53 250.013 1082.88 250.95C1083.23 251.888 1083.77 252.644 1084.49 253.219C1085.21 253.795 1086.14 254.082 1087.26 254.082ZM1098.51 256V239.636H1100.94V242.108H1101.11C1101.41 241.298 1101.95 240.641 1102.73 240.137C1103.51 239.633 1104.39 239.381 1105.37 239.381C1105.56 239.381 1105.79 239.384 1106.07 239.391C1106.34 239.398 1106.55 239.409 1106.69 239.423V241.98C1106.61 241.959 1106.41 241.927 1106.11 241.884C1105.81 241.835 1105.49 241.81 1105.16 241.81C1104.37 241.81 1103.66 241.977 1103.03 242.31C1102.41 242.637 1101.92 243.092 1101.56 243.674C1101.2 244.249 1101.03 244.906 1101.03 245.645V256H1098.51ZM1112.02 250.034L1111.98 246.923H1112.49L1119.65 239.636H1122.76L1115.13 247.349H1114.92L1112.02 250.034ZM1109.68 256V234.182H1112.19V256H1109.68ZM1120.07 256L1113.68 247.903L1115.47 246.156L1123.27 256H1120.07ZM1125.99 256V239.636H1128.51V256H1125.99ZM1127.27 236.909C1126.78 236.909 1126.36 236.742 1126 236.408C1125.66 236.075 1125.48 235.673 1125.48 235.205C1125.48 234.736 1125.66 234.335 1126 234.001C1126.36 233.667 1126.78 233.5 1127.27 233.5C1127.76 233.5 1128.18 233.667 1128.53 234.001C1128.88 234.335 1129.06 234.736 1129.06 235.205C1129.06 235.673 1128.88 236.075 1128.53 236.408C1128.18 236.742 1127.76 236.909 1127.27 236.909ZM1135.63 246.156V256H1133.11V239.636H1135.54V242.193H1135.75C1136.14 241.362 1136.72 240.695 1137.5 240.19C1138.28 239.679 1139.29 239.423 1140.53 239.423C1141.64 239.423 1142.6 239.651 1143.44 240.105C1144.27 240.553 1144.91 241.234 1145.37 242.151C1145.84 243.06 1146.07 244.21 1146.07 245.602V256H1143.55V245.773C1143.55 244.487 1143.22 243.486 1142.55 242.768C1141.88 242.044 1140.97 241.682 1139.8 241.682C1139 241.682 1138.28 241.856 1137.65 242.204C1137.03 242.552 1136.53 243.06 1136.17 243.727C1135.81 244.395 1135.63 245.205 1135.63 246.156ZM1157.27 262.477C1156.05 262.477 1155.01 262.321 1154.13 262.009C1153.26 261.703 1152.53 261.298 1151.95 260.794C1151.38 260.297 1150.92 259.764 1150.58 259.196L1152.58 257.79C1152.81 258.088 1153.09 258.429 1153.44 258.812C1153.79 259.203 1154.27 259.54 1154.87 259.825C1155.48 260.116 1156.28 260.261 1157.27 260.261C1158.59 260.261 1159.68 259.942 1160.54 259.303C1161.4 258.663 1161.83 257.662 1161.83 256.298V252.974H1161.61C1161.43 253.273 1161.17 253.642 1160.82 254.082C1160.49 254.516 1160.01 254.903 1159.38 255.244C1158.75 255.577 1157.91 255.744 1156.84 255.744C1155.52 255.744 1154.33 255.432 1153.28 254.807C1152.24 254.182 1151.41 253.273 1150.8 252.08C1150.2 250.886 1149.89 249.437 1149.89 247.733C1149.89 246.057 1150.19 244.597 1150.78 243.354C1151.37 242.104 1152.19 241.138 1153.24 240.457C1154.29 239.768 1155.51 239.423 1156.88 239.423C1157.95 239.423 1158.79 239.601 1159.42 239.956C1160.05 240.304 1160.53 240.702 1160.87 241.149C1161.21 241.589 1161.47 241.952 1161.66 242.236H1161.91V239.636H1164.34V256.469C1164.34 257.875 1164.02 259.018 1163.38 259.899C1162.75 260.787 1161.9 261.437 1160.82 261.849C1159.76 262.268 1158.57 262.477 1157.27 262.477ZM1157.18 253.486C1158.19 253.486 1159.04 253.255 1159.74 252.793C1160.43 252.332 1160.96 251.668 1161.33 250.801C1161.69 249.935 1161.87 248.898 1161.87 247.69C1161.87 246.511 1161.69 245.471 1161.34 244.569C1160.98 243.667 1160.46 242.96 1159.76 242.449C1159.06 241.937 1158.2 241.682 1157.18 241.682C1156.12 241.682 1155.23 241.952 1154.52 242.491C1153.81 243.031 1153.29 243.756 1152.93 244.665C1152.58 245.574 1152.41 246.582 1152.41 247.69C1152.41 248.827 1152.59 249.832 1152.94 250.705C1153.3 251.572 1153.84 252.254 1154.54 252.751C1155.25 253.241 1156.13 253.486 1157.18 253.486Z" fill="black"/>
<path d="M460.624 239.636C460.496 238.557 459.977 237.719 459.068 237.122C458.159 236.526 457.044 236.227 455.723 236.227C454.757 236.227 453.912 236.384 453.188 236.696C452.47 237.009 451.909 237.438 451.504 237.985C451.107 238.532 450.908 239.153 450.908 239.849C450.908 240.432 451.046 240.933 451.323 241.352C451.607 241.763 451.97 242.108 452.41 242.385C452.85 242.655 453.312 242.879 453.795 243.056C454.278 243.227 454.722 243.365 455.127 243.472L457.342 244.068C457.911 244.217 458.543 244.423 459.239 244.686C459.942 244.949 460.613 245.308 461.252 245.762C461.899 246.21 462.431 246.785 462.85 247.488C463.269 248.191 463.479 249.054 463.479 250.077C463.479 251.256 463.17 252.321 462.552 253.273C461.941 254.224 461.046 254.981 459.867 255.542C458.695 256.103 457.271 256.384 455.595 256.384C454.033 256.384 452.68 256.131 451.536 255.627C450.4 255.123 449.505 254.42 448.852 253.518C448.205 252.616 447.84 251.568 447.754 250.375H450.482C450.553 251.199 450.83 251.881 451.313 252.42C451.803 252.953 452.421 253.351 453.166 253.614C453.919 253.869 454.729 253.997 455.595 253.997C456.604 253.997 457.509 253.834 458.312 253.507C459.114 253.173 459.75 252.712 460.219 252.122C460.688 251.526 460.922 250.83 460.922 250.034C460.922 249.31 460.72 248.72 460.315 248.266C459.91 247.811 459.377 247.442 458.717 247.158C458.056 246.874 457.342 246.625 456.575 246.412L453.891 245.645C452.186 245.155 450.837 244.455 449.842 243.546C448.848 242.637 448.351 241.447 448.351 239.977C448.351 238.756 448.681 237.69 449.342 236.781C450.009 235.865 450.904 235.155 452.026 234.651C453.156 234.139 454.416 233.884 455.808 233.884C457.215 233.884 458.465 234.136 459.558 234.64C460.652 235.137 461.519 235.819 462.158 236.685C462.804 237.552 463.145 238.536 463.18 239.636H460.624ZM474.343 256.341C472.766 256.341 471.406 255.993 470.262 255.297C469.126 254.594 468.249 253.614 467.631 252.357C467.02 251.092 466.715 249.622 466.715 247.946C466.715 246.27 467.02 244.793 467.631 243.514C468.249 242.229 469.108 241.227 470.209 240.51C471.317 239.786 472.61 239.423 474.087 239.423C474.939 239.423 475.781 239.565 476.612 239.849C477.443 240.134 478.199 240.595 478.881 241.234C479.563 241.866 480.106 242.705 480.511 243.749C480.916 244.793 481.118 246.078 481.118 247.605V248.67H468.505V246.497H478.561C478.561 245.574 478.377 244.75 478.007 244.026C477.645 243.301 477.127 242.729 476.452 242.31C475.784 241.891 474.996 241.682 474.087 241.682C473.085 241.682 472.219 241.93 471.487 242.428C470.763 242.918 470.206 243.557 469.815 244.345C469.424 245.134 469.229 245.979 469.229 246.881V248.33C469.229 249.565 469.442 250.613 469.868 251.472C470.301 252.325 470.902 252.974 471.669 253.422C472.436 253.862 473.327 254.082 474.343 254.082C475.003 254.082 475.6 253.99 476.132 253.805C476.672 253.614 477.137 253.33 477.528 252.953C477.919 252.57 478.22 252.094 478.434 251.526L480.862 252.207C480.607 253.031 480.177 253.756 479.573 254.381C478.97 254.999 478.224 255.482 477.336 255.83C476.448 256.17 475.451 256.341 474.343 256.341ZM484.943 256V239.636H487.372V242.108H487.542C487.84 241.298 488.38 240.641 489.161 240.137C489.943 239.633 490.823 239.381 491.804 239.381C491.988 239.381 492.219 239.384 492.496 239.391C492.773 239.398 492.983 239.409 493.125 239.423V241.98C493.039 241.959 492.844 241.927 492.539 241.884C492.24 241.835 491.924 241.81 491.59 241.81C490.795 241.81 490.085 241.977 489.46 242.31C488.842 242.637 488.352 243.092 487.99 243.674C487.634 244.249 487.457 244.906 487.457 245.645V256H484.943ZM509.984 239.636L503.932 256H501.376L495.324 239.636H498.052L502.569 252.676H502.739L507.256 239.636H509.984ZM513.302 256V239.636H515.816V256H513.302ZM514.581 236.909C514.09 236.909 513.668 236.742 513.313 236.408C512.965 236.075 512.791 235.673 512.791 235.205C512.791 234.736 512.965 234.335 513.313 234.001C513.668 233.667 514.09 233.5 514.581 233.5C515.071 233.5 515.49 233.667 515.838 234.001C516.193 234.335 516.37 234.736 516.37 235.205C516.37 235.673 516.193 236.075 515.838 236.408C515.49 236.742 515.071 236.909 514.581 236.909ZM522.935 246.156V256H520.421V239.636H522.85V242.193H523.063C523.447 241.362 524.029 240.695 524.81 240.19C525.592 239.679 526.6 239.423 527.836 239.423C528.944 239.423 529.913 239.651 530.744 240.105C531.575 240.553 532.222 241.234 532.683 242.151C533.145 243.06 533.376 244.21 533.376 245.602V256H530.862V245.773C530.862 244.487 530.528 243.486 529.86 242.768C529.193 242.044 528.276 241.682 527.112 241.682C526.309 241.682 525.592 241.856 524.96 242.204C524.335 242.552 523.841 243.06 523.479 243.727C523.117 244.395 522.935 245.205 522.935 246.156ZM544.575 262.477C543.361 262.477 542.317 262.321 541.443 262.009C540.57 261.703 539.842 261.298 539.259 260.794C538.684 260.297 538.226 259.764 537.885 259.196L539.888 257.79C540.115 258.088 540.403 258.429 540.751 258.812C541.099 259.203 541.574 259.54 542.178 259.825C542.789 260.116 543.588 260.261 544.575 260.261C545.896 260.261 546.986 259.942 547.846 259.303C548.705 258.663 549.135 257.662 549.135 256.298V252.974H548.922C548.737 253.273 548.474 253.642 548.133 254.082C547.8 254.516 547.317 254.903 546.685 255.244C546.06 255.577 545.214 255.744 544.149 255.744C542.828 255.744 541.642 255.432 540.591 254.807C539.547 254.182 538.719 253.273 538.109 252.08C537.505 250.886 537.203 249.437 537.203 247.733C537.203 246.057 537.498 244.597 538.087 243.354C538.677 242.104 539.497 241.138 540.548 240.457C541.599 239.768 542.814 239.423 544.192 239.423C545.257 239.423 546.102 239.601 546.727 239.956C547.359 240.304 547.842 240.702 548.176 241.149C548.517 241.589 548.78 241.952 548.964 242.236H549.22V239.636H551.649V256.469C551.649 257.875 551.329 259.018 550.69 259.899C550.058 260.787 549.206 261.437 548.133 261.849C547.068 262.268 545.882 262.477 544.575 262.477ZM544.49 253.486C545.498 253.486 546.351 253.255 547.047 252.793C547.743 252.332 548.272 251.668 548.634 250.801C548.996 249.935 549.177 248.898 549.177 247.69C549.177 246.511 549 245.471 548.645 244.569C548.29 243.667 547.764 242.96 547.068 242.449C546.372 241.937 545.513 241.682 544.49 241.682C543.425 241.682 542.537 241.952 541.827 242.491C541.123 243.031 540.594 243.756 540.239 244.665C539.891 245.574 539.717 246.582 539.717 247.69C539.717 248.827 539.895 249.832 540.25 250.705C540.612 251.572 541.145 252.254 541.848 252.751C542.558 253.241 543.439 253.486 544.49 253.486Z" fill="black"/>
<path d="M563.768 294.768C564.744 293.791 564.744 292.209 563.768 291.232L547.858 275.322C546.882 274.346 545.299 274.346 544.322 275.322C543.346 276.299 543.346 277.882 544.322 278.858L558.464 293L544.322 307.142C543.346 308.118 543.346 309.701 544.322 310.678C545.299 311.654 546.882 311.654 547.858 310.678L563.768 294.768ZM442 295.5H562V290.5H442V295.5Z" fill="#999999" fill-opacity="0.5"/>
<path d="M563.768 639.768C564.744 638.791 564.744 637.209 563.768 636.232L547.858 620.322C546.882 619.346 545.299 619.346 544.322 620.322C543.346 621.299 543.346 622.882 544.322 623.858L558.464 638L544.322 652.142C543.346 653.118 543.346 654.701 544.322 655.678C545.299 656.654 546.882 656.654 547.858 655.678L563.768 639.768ZM442 640.5H562V635.5H442V640.5Z" fill="#999999" fill-opacity="0.5"/>
<path d="M798.232 217.768C799.209 218.744 800.791 218.744 801.768 217.768L817.678 201.858C818.654 200.882 818.654 199.299 817.678 198.322C816.701 197.346 815.118 197.346 814.142 198.322L800 212.464L785.858 198.322C784.882 197.346 783.299 197.346 782.322 198.322C781.346 199.299 781.346 200.882 782.322 201.858L798.232 217.768ZM797.5 176L797.5 216L802.5 216L802.5 176L797.5 176Z" fill="#999999" fill-opacity="0.5"/>
<path d="M798.232 409.768C799.209 410.744 800.791 410.744 801.768 409.768L817.678 393.858C818.654 392.882 818.654 391.299 817.678 390.322C816.701 389.346 815.118 389.346 814.142 390.322L800 404.464L785.858 390.322C784.882 389.346 783.299 389.346 782.322 390.322C781.346 391.299 781.346 392.882 782.322 393.858L798.232 409.768ZM797.5 368L797.5 408L802.5 408L802.5 368L797.5 368Z" fill="#999999" fill-opacity="0.5"/>
<path d="M207.232 534.768C208.209 535.744 209.791 535.744 210.768 534.768L226.678 518.858C227.654 517.882 227.654 516.299 226.678 515.322C225.701 514.346 224.118 514.346 223.142 515.322L209 529.464L194.858 515.322C193.882 514.346 192.299 514.346 191.322 515.322C190.346 516.299 190.346 517.882 191.322 518.858L207.232 534.768ZM206.5 433L206.5 533L211.5 533L211.5 433L206.5 433Z" fill="#999999" fill-opacity="0.5"/>
<path d="M1391.23 534.768C1392.21 535.744 1393.79 535.744 1394.77 534.768L1410.68 518.858C1411.65 517.882 1411.65 516.299 1410.68 515.322C1409.7 514.346 1408.12 514.346 1407.14 515.322L1393 529.464L1378.86 515.322C1377.88 514.346 1376.3 514.346 1375.32 515.322C1374.35 516.299 1374.35 517.882 1375.32 518.858L1391.23 534.768ZM1390.5 433L1390.5 533L1395.5 533L1395.5 433L1390.5 433Z" fill="#999999" fill-opacity="0.5"/>
<path d="M798.232 599.768C799.209 600.744 800.791 600.744 801.768 599.768L817.678 583.858C818.654 582.882 818.654 581.299 817.678 580.322C816.701 579.346 815.118 579.346 814.142 580.322L800 594.464L785.858 580.322C784.882 579.346 783.299 579.346 782.322 580.322C781.346 581.299 781.346 582.882 782.322 583.858L798.232 599.768ZM797.5 558L797.5 598L802.5 598L802.5 558L797.5 558Z" fill="#999999" fill-opacity="0.5"/>
</svg>
