<svg width="1600" height="210" viewBox="0 0 1600 210" fill="none" xmlns="http://www.w3.org/2000/svg">
<rect width="1600" height="210" fill="white"/>
<path d="M642 75C642 66.1634 649.163 59 658 59H943C951.837 59 959 66.1634 959 75V173C959 181.837 951.837 189 943 189H658C649.163 189 642 181.837 642 173V75Z" fill="#00C7BE"/>
<path d="M728.154 120H724.922L734.269 94.5455H737.451L746.797 120H743.566L735.959 98.5724H735.76L728.154 120ZM729.347 110.057H742.373V112.791H729.347V110.057ZM750.364 127.159V100.909H753.198V103.942H753.546C753.762 103.61 754.06 103.188 754.441 102.674C754.83 102.152 755.386 101.688 756.107 101.282C756.836 100.868 757.822 100.661 759.065 100.661C760.672 100.661 762.089 101.062 763.315 101.866C764.542 102.67 765.499 103.809 766.186 105.284C766.874 106.759 767.218 108.499 767.218 110.504C767.218 112.526 766.874 114.279 766.186 115.762C765.499 117.237 764.546 118.38 763.328 119.192C762.11 119.996 760.705 120.398 759.114 120.398C757.888 120.398 756.906 120.195 756.169 119.789C755.431 119.374 754.864 118.906 754.466 118.384C754.068 117.854 753.762 117.415 753.546 117.067H753.298V127.159H750.364ZM753.248 110.455C753.248 111.896 753.459 113.168 753.882 114.27C754.304 115.364 754.922 116.222 755.734 116.843C756.546 117.456 757.54 117.763 758.717 117.763C759.943 117.763 760.966 117.44 761.787 116.793C762.615 116.139 763.237 115.26 763.651 114.158C764.074 113.048 764.285 111.813 764.285 110.455C764.285 109.112 764.078 107.902 763.663 106.825C763.257 105.74 762.64 104.882 761.811 104.252C760.991 103.614 759.96 103.295 758.717 103.295C757.523 103.295 756.521 103.598 755.709 104.203C754.897 104.799 754.284 105.636 753.869 106.713C753.455 107.782 753.248 109.029 753.248 110.455ZM771.692 127.159V100.909H774.526V103.942H774.874C775.09 103.61 775.388 103.188 775.769 102.674C776.159 102.152 776.714 101.688 777.435 101.282C778.164 100.868 779.15 100.661 780.393 100.661C782 100.661 783.417 101.062 784.643 101.866C785.87 102.67 786.827 103.809 787.515 105.284C788.202 106.759 788.546 108.499 788.546 110.504C788.546 112.526 788.202 114.279 787.515 115.762C786.827 117.237 785.874 118.38 784.656 119.192C783.438 119.996 782.033 120.398 780.442 120.398C779.216 120.398 778.234 120.195 777.497 119.789C776.759 119.374 776.192 118.906 775.794 118.384C775.396 117.854 775.09 117.415 774.874 117.067H774.626V127.159H771.692ZM774.576 110.455C774.576 111.896 774.787 113.168 775.21 114.27C775.632 115.364 776.25 116.222 777.062 116.843C777.874 117.456 778.868 117.763 780.045 117.763C781.271 117.763 782.294 117.44 783.115 116.793C783.943 116.139 784.565 115.26 784.979 114.158C785.402 113.048 785.613 111.813 785.613 110.455C785.613 109.112 785.406 107.902 784.991 106.825C784.585 105.74 783.968 104.882 783.14 104.252C782.319 103.614 781.288 103.295 780.045 103.295C778.852 103.295 777.849 103.598 777.037 104.203C776.225 104.799 775.612 105.636 775.197 106.713C774.783 107.782 774.576 109.029 774.576 110.455ZM807.339 100.909C807.19 99.6496 806.585 98.6719 805.524 97.9759C804.464 97.2798 803.163 96.9318 801.621 96.9318C800.495 96.9318 799.509 97.1141 798.663 97.4787C797.826 97.8433 797.172 98.3446 796.7 98.9826C796.236 99.6206 796.004 100.346 796.004 101.158C796.004 101.837 796.165 102.421 796.488 102.91C796.82 103.391 797.242 103.793 797.756 104.116C798.27 104.431 798.808 104.692 799.372 104.899C799.935 105.098 800.453 105.259 800.925 105.384L803.511 106.08C804.174 106.254 804.911 106.494 805.723 106.8C806.543 107.107 807.326 107.525 808.072 108.056C808.826 108.578 809.448 109.249 809.936 110.069C810.425 110.89 810.67 111.896 810.67 113.089C810.67 114.465 810.309 115.708 809.588 116.818C808.876 117.929 807.832 118.811 806.456 119.466C805.089 120.12 803.428 120.447 801.472 120.447C799.649 120.447 798.071 120.153 796.737 119.565C795.411 118.977 794.367 118.156 793.605 117.104C792.851 116.052 792.424 114.83 792.325 113.437H795.506C795.589 114.399 795.912 115.194 796.476 115.824C797.048 116.445 797.768 116.909 798.638 117.216C799.517 117.514 800.461 117.663 801.472 117.663C802.649 117.663 803.705 117.473 804.642 117.092C805.578 116.702 806.32 116.164 806.866 115.476C807.413 114.78 807.687 113.968 807.687 113.04C807.687 112.195 807.451 111.507 806.978 110.977C806.506 110.446 805.885 110.015 805.114 109.684C804.343 109.353 803.511 109.062 802.616 108.814L799.484 107.919C797.495 107.347 795.921 106.531 794.761 105.471C793.601 104.41 793.021 103.022 793.021 101.307C793.021 99.8816 793.406 98.6387 794.176 97.5781C794.955 96.5092 795.999 95.6806 797.309 95.0923C798.626 94.4957 800.097 94.1974 801.721 94.1974C803.361 94.1974 804.82 94.4916 806.096 95.0799C807.372 95.6599 808.383 96.4554 809.129 97.4663C809.883 98.4772 810.28 99.6248 810.322 100.909H807.339ZM823.642 100.909V103.395H813.749V100.909H823.642ZM816.633 96.3352H819.566V114.531C819.566 115.36 819.686 115.981 819.926 116.396C820.175 116.802 820.49 117.075 820.871 117.216C821.26 117.348 821.67 117.415 822.101 117.415C822.424 117.415 822.69 117.398 822.897 117.365C823.104 117.324 823.27 117.29 823.394 117.266L823.99 119.901C823.792 119.975 823.514 120.05 823.158 120.124C822.801 120.207 822.35 120.249 821.803 120.249C820.974 120.249 820.162 120.07 819.367 119.714C818.58 119.358 817.925 118.815 817.403 118.086C816.889 117.357 816.633 116.437 816.633 115.327V96.3352ZM833.673 120.447C832.463 120.447 831.365 120.22 830.379 119.764C829.393 119.3 828.61 118.633 828.03 117.763C827.45 116.884 827.16 115.824 827.16 114.581C827.16 113.487 827.375 112.601 827.806 111.921C828.237 111.233 828.813 110.695 829.534 110.305C830.255 109.916 831.05 109.626 831.92 109.435C832.798 109.237 833.681 109.079 834.568 108.963C835.728 108.814 836.668 108.702 837.389 108.627C838.118 108.545 838.648 108.408 838.98 108.217C839.32 108.027 839.489 107.695 839.489 107.223V107.124C839.489 105.897 839.154 104.944 838.483 104.265C837.82 103.585 836.813 103.246 835.462 103.246C834.062 103.246 832.964 103.552 832.169 104.165C831.373 104.779 830.814 105.433 830.491 106.129L827.707 105.135C828.204 103.975 828.867 103.072 829.695 102.425C830.532 101.771 831.444 101.315 832.43 101.058C833.424 100.793 834.402 100.661 835.363 100.661C835.976 100.661 836.68 100.735 837.476 100.884C838.28 101.025 839.054 101.319 839.8 101.767C840.554 102.214 841.18 102.889 841.677 103.793C842.174 104.696 842.423 105.906 842.423 107.422V120H839.489V117.415H839.34C839.141 117.829 838.81 118.272 838.346 118.745C837.882 119.217 837.265 119.619 836.494 119.95C835.723 120.282 834.783 120.447 833.673 120.447ZM834.12 117.812C835.28 117.812 836.258 117.585 837.053 117.129C837.857 116.673 838.462 116.085 838.868 115.364C839.282 114.643 839.489 113.885 839.489 113.089V110.405C839.365 110.554 839.092 110.691 838.669 110.815C838.255 110.931 837.774 111.035 837.227 111.126C836.689 111.209 836.163 111.283 835.649 111.349C835.143 111.407 834.733 111.457 834.418 111.499C833.656 111.598 832.943 111.76 832.281 111.983C831.626 112.199 831.096 112.526 830.69 112.965C830.292 113.396 830.093 113.984 830.093 114.73C830.093 115.749 830.47 116.52 831.224 117.042C831.986 117.556 832.952 117.812 834.12 117.812ZM856.079 100.909V103.395H846.186V100.909H856.079ZM849.069 96.3352H852.002V114.531C852.002 115.36 852.122 115.981 852.363 116.396C852.611 116.802 852.926 117.075 853.307 117.216C853.697 117.348 854.107 117.415 854.538 117.415C854.861 117.415 855.126 117.398 855.333 117.365C855.54 117.324 855.706 117.29 855.83 117.266L856.427 119.901C856.228 119.975 855.951 120.05 855.594 120.124C855.238 120.207 854.786 120.249 854.24 120.249C853.411 120.249 852.599 120.07 851.803 119.714C851.016 119.358 850.362 118.815 849.84 118.086C849.326 117.357 849.069 116.437 849.069 115.327V96.3352ZM868.29 120.398C866.451 120.398 864.864 119.992 863.53 119.18C862.204 118.359 861.181 117.216 860.46 115.749C859.748 114.274 859.391 112.559 859.391 110.604C859.391 108.648 859.748 106.925 860.46 105.433C861.181 103.933 862.184 102.765 863.468 101.928C864.761 101.083 866.269 100.661 867.992 100.661C868.986 100.661 869.968 100.826 870.938 101.158C871.907 101.489 872.79 102.028 873.585 102.773C874.381 103.511 875.015 104.489 875.487 105.707C875.959 106.925 876.195 108.424 876.195 110.206V111.449H861.479V108.913H873.212C873.212 107.836 872.997 106.875 872.566 106.03C872.143 105.185 871.539 104.518 870.751 104.029C869.973 103.54 869.053 103.295 867.992 103.295C866.824 103.295 865.813 103.585 864.96 104.165C864.114 104.737 863.464 105.483 863.008 106.403C862.552 107.322 862.325 108.308 862.325 109.361V111.051C862.325 112.493 862.573 113.715 863.07 114.718C863.576 115.712 864.276 116.47 865.171 116.992C866.066 117.506 867.106 117.763 868.29 117.763C869.061 117.763 869.757 117.655 870.379 117.44C871.008 117.216 871.551 116.884 872.007 116.445C872.462 115.998 872.815 115.443 873.063 114.78L875.897 115.575C875.599 116.536 875.097 117.382 874.393 118.111C873.689 118.832 872.819 119.395 871.783 119.801C870.747 120.199 869.583 120.398 868.29 120.398ZM749.522 136.545H752.605V153.399C752.605 155.139 752.195 156.693 751.374 158.06C750.562 159.419 749.415 160.492 747.931 161.279C746.448 162.058 744.708 162.447 742.711 162.447C740.714 162.447 738.974 162.058 737.491 161.279C736.008 160.492 734.856 159.419 734.036 158.06C733.224 156.693 732.818 155.139 732.818 153.399V136.545H735.9V153.151C735.9 154.393 736.174 155.5 736.72 156.469C737.267 157.43 738.046 158.188 739.057 158.744C740.076 159.29 741.294 159.564 742.711 159.564C744.128 159.564 745.346 159.29 746.365 158.744C747.384 158.188 748.163 157.43 748.702 156.469C749.249 155.5 749.522 154.393 749.522 153.151V136.545ZM771.885 147.185L769.25 147.93C769.084 147.491 768.84 147.065 768.517 146.65C768.202 146.228 767.771 145.88 767.224 145.606C766.677 145.333 765.977 145.196 765.124 145.196C763.955 145.196 762.982 145.465 762.203 146.004C761.432 146.534 761.047 147.21 761.047 148.03C761.047 148.759 761.312 149.335 761.843 149.757C762.373 150.18 763.201 150.532 764.328 150.814L767.162 151.51C768.869 151.924 770.141 152.558 770.978 153.412C771.815 154.257 772.233 155.346 772.233 156.68C772.233 157.774 771.918 158.752 771.289 159.614C770.667 160.475 769.797 161.155 768.678 161.652C767.56 162.149 766.259 162.398 764.776 162.398C762.829 162.398 761.217 161.975 759.941 161.13C758.665 160.285 757.857 159.05 757.517 157.426L760.301 156.73C760.566 157.758 761.068 158.528 761.805 159.042C762.551 159.556 763.525 159.812 764.726 159.812C766.093 159.812 767.179 159.522 767.982 158.942C768.794 158.354 769.2 157.65 769.2 156.83C769.2 156.167 768.968 155.612 768.504 155.164C768.04 154.708 767.328 154.369 766.367 154.145L763.185 153.399C761.436 152.985 760.152 152.343 759.332 151.473C758.52 150.594 758.114 149.496 758.114 148.179C758.114 147.102 758.416 146.149 759.021 145.32C759.634 144.492 760.467 143.841 761.519 143.369C762.58 142.897 763.781 142.661 765.124 142.661C767.013 142.661 768.496 143.075 769.573 143.903C770.659 144.732 771.429 145.826 771.885 147.185ZM784.653 162.398C782.813 162.398 781.227 161.992 779.892 161.18C778.567 160.359 777.543 159.216 776.823 157.749C776.11 156.274 775.754 154.559 775.754 152.604C775.754 150.648 776.11 148.925 776.823 147.433C777.543 145.933 778.546 144.765 779.83 143.928C781.123 143.083 782.631 142.661 784.354 142.661C785.349 142.661 786.331 142.826 787.3 143.158C788.27 143.489 789.152 144.028 789.948 144.773C790.743 145.511 791.377 146.489 791.849 147.707C792.321 148.925 792.558 150.424 792.558 152.206V153.449H777.842V150.913H789.575C789.575 149.836 789.359 148.875 788.928 148.03C788.506 147.185 787.901 146.518 787.114 146.029C786.335 145.54 785.415 145.295 784.354 145.295C783.186 145.295 782.175 145.585 781.322 146.165C780.477 146.737 779.826 147.483 779.37 148.403C778.915 149.322 778.687 150.308 778.687 151.361V153.051C778.687 154.493 778.935 155.715 779.433 156.718C779.938 157.712 780.638 158.47 781.533 158.992C782.428 159.506 783.468 159.763 784.653 159.763C785.423 159.763 786.119 159.655 786.741 159.44C787.371 159.216 787.913 158.884 788.369 158.445C788.825 157.998 789.177 157.443 789.426 156.78L792.259 157.575C791.961 158.536 791.46 159.382 790.755 160.111C790.051 160.832 789.181 161.395 788.145 161.801C787.11 162.199 785.945 162.398 784.653 162.398ZM804.775 162.398C802.986 162.398 801.444 161.975 800.152 161.13C798.859 160.285 797.865 159.121 797.169 157.637C796.473 156.154 796.125 154.46 796.125 152.554C796.125 150.615 796.481 148.904 797.194 147.421C797.914 145.929 798.917 144.765 800.201 143.928C801.494 143.083 803.002 142.661 804.726 142.661C806.068 142.661 807.278 142.909 808.355 143.406C809.432 143.903 810.314 144.599 811.002 145.494C811.69 146.389 812.117 147.433 812.282 148.626H809.349C809.125 147.756 808.628 146.986 807.858 146.315C807.095 145.635 806.068 145.295 804.775 145.295C803.632 145.295 802.629 145.594 801.767 146.19C800.914 146.779 800.247 147.611 799.766 148.689C799.294 149.757 799.058 151.013 799.058 152.455C799.058 153.929 799.29 155.214 799.754 156.308C800.226 157.401 800.889 158.251 801.743 158.855C802.604 159.46 803.615 159.763 804.775 159.763C805.538 159.763 806.229 159.63 806.851 159.365C807.472 159.1 807.999 158.719 808.429 158.222C808.86 157.724 809.167 157.128 809.349 156.432H812.282C812.117 157.559 811.707 158.574 811.052 159.477C810.406 160.372 809.548 161.084 808.479 161.615C807.419 162.137 806.184 162.398 804.775 162.398ZM822.188 162.447C820.979 162.447 819.881 162.22 818.895 161.764C817.909 161.3 817.126 160.633 816.546 159.763C815.966 158.884 815.676 157.824 815.676 156.581C815.676 155.487 815.891 154.601 816.322 153.921C816.753 153.233 817.329 152.695 818.049 152.305C818.77 151.916 819.566 151.626 820.436 151.435C821.314 151.237 822.197 151.079 823.083 150.963C824.243 150.814 825.184 150.702 825.905 150.627C826.634 150.545 827.164 150.408 827.495 150.217C827.835 150.027 828.005 149.695 828.005 149.223V149.124C828.005 147.897 827.669 146.944 826.998 146.265C826.335 145.585 825.329 145.246 823.978 145.246C822.578 145.246 821.48 145.552 820.684 146.165C819.889 146.779 819.33 147.433 819.006 148.129L816.222 147.135C816.72 145.975 817.382 145.072 818.211 144.425C819.048 143.771 819.959 143.315 820.945 143.058C821.94 142.793 822.917 142.661 823.879 142.661C824.492 142.661 825.196 142.735 825.992 142.884C826.795 143.025 827.57 143.319 828.316 143.767C829.07 144.214 829.695 144.889 830.193 145.793C830.69 146.696 830.938 147.906 830.938 149.422V162H828.005V159.415H827.856C827.657 159.829 827.326 160.272 826.862 160.745C826.398 161.217 825.78 161.619 825.01 161.95C824.239 162.282 823.299 162.447 822.188 162.447ZM822.636 159.812C823.796 159.812 824.774 159.585 825.569 159.129C826.373 158.673 826.978 158.085 827.384 157.364C827.798 156.643 828.005 155.885 828.005 155.089V152.405C827.881 152.554 827.607 152.691 827.185 152.815C826.77 152.931 826.29 153.035 825.743 153.126C825.204 153.209 824.678 153.283 824.164 153.349C823.659 153.407 823.249 153.457 822.934 153.499C822.172 153.598 821.459 153.76 820.796 153.983C820.142 154.199 819.611 154.526 819.205 154.965C818.808 155.396 818.609 155.984 818.609 156.73C818.609 157.749 818.986 158.52 819.74 159.042C820.502 159.556 821.467 159.812 822.636 159.812ZM849.815 147.185L847.18 147.93C847.014 147.491 846.77 147.065 846.447 146.65C846.132 146.228 845.701 145.88 845.154 145.606C844.607 145.333 843.907 145.196 843.053 145.196C841.885 145.196 840.912 145.465 840.133 146.004C839.362 146.534 838.977 147.21 838.977 148.03C838.977 148.759 839.242 149.335 839.772 149.757C840.302 150.18 841.131 150.532 842.258 150.814L845.092 151.51C846.799 151.924 848.071 152.558 848.907 153.412C849.744 154.257 850.163 155.346 850.163 156.68C850.163 157.774 849.848 158.752 849.218 159.614C848.597 160.475 847.727 161.155 846.608 161.652C845.49 162.149 844.189 162.398 842.705 162.398C840.758 162.398 839.147 161.975 837.871 161.13C836.595 160.285 835.787 159.05 835.447 157.426L838.231 156.73C838.496 157.758 838.997 158.528 839.735 159.042C840.481 159.556 841.454 159.812 842.656 159.812C844.023 159.812 845.108 159.522 845.912 158.942C846.724 158.354 847.13 157.65 847.13 156.83C847.13 156.167 846.898 155.612 846.434 155.164C845.97 154.708 845.258 154.369 844.296 154.145L841.115 153.399C839.366 152.985 838.082 152.343 837.262 151.473C836.45 150.594 836.043 149.496 836.043 148.179C836.043 147.102 836.346 146.149 836.951 145.32C837.564 144.492 838.397 143.841 839.449 143.369C840.51 142.897 841.711 142.661 843.053 142.661C844.943 142.661 846.426 143.075 847.503 143.903C848.588 144.732 849.359 145.826 849.815 147.185ZM862.582 162.398C860.743 162.398 859.156 161.992 857.822 161.18C856.496 160.359 855.473 159.216 854.752 157.749C854.04 156.274 853.683 154.559 853.683 152.604C853.683 150.648 854.04 148.925 854.752 147.433C855.473 145.933 856.476 144.765 857.76 143.928C859.053 143.083 860.561 142.661 862.284 142.661C863.278 142.661 864.26 142.826 865.23 143.158C866.199 143.489 867.082 144.028 867.877 144.773C868.673 145.511 869.307 146.489 869.779 147.707C870.251 148.925 870.487 150.424 870.487 152.206V153.449H855.771V150.913H867.504C867.504 149.836 867.289 148.875 866.858 148.03C866.435 147.185 865.831 146.518 865.043 146.029C864.265 145.54 863.345 145.295 862.284 145.295C861.116 145.295 860.105 145.585 859.251 146.165C858.406 146.737 857.756 147.483 857.3 148.403C856.844 149.322 856.617 150.308 856.617 151.361V153.051C856.617 154.493 856.865 155.715 857.362 156.718C857.868 157.712 858.568 158.47 859.463 158.992C860.358 159.506 861.398 159.763 862.582 159.763C863.353 159.763 864.049 159.655 864.671 159.44C865.3 159.216 865.843 158.884 866.299 158.445C866.754 157.998 867.107 157.443 867.355 156.78L870.189 157.575C869.891 158.536 869.389 159.382 868.685 160.111C867.981 160.832 867.111 161.395 866.075 161.801C865.039 162.199 863.875 162.398 862.582 162.398Z" fill="white"/>
<path d="M738.264 30.2031C738.139 28.9427 737.602 27.9635 736.654 27.2656C735.706 26.5677 734.42 26.2187 732.795 26.2187C731.691 26.2187 730.758 26.375 729.998 26.6875C729.238 26.9896 728.654 27.4115 728.248 27.9531C727.852 28.4948 727.654 29.1094 727.654 29.7969C727.633 30.3698 727.753 30.8698 728.014 31.2969C728.285 31.724 728.654 32.0937 729.123 32.4062C729.592 32.7083 730.133 32.974 730.748 33.2031C731.363 33.4219 732.019 33.6094 732.717 33.7656L735.592 34.4531C736.988 34.7656 738.269 35.1823 739.436 35.7031C740.602 36.224 741.613 36.8646 742.467 37.625C743.321 38.3854 743.982 39.2812 744.451 40.3125C744.93 41.3437 745.175 42.526 745.186 43.8594C745.175 45.8177 744.675 47.5156 743.686 48.9531C742.706 50.3802 741.29 51.4896 739.436 52.2812C737.592 53.0625 735.368 53.4531 732.764 53.4531C730.18 53.4531 727.93 53.0573 726.014 52.2656C724.107 51.474 722.618 50.3021 721.545 48.75C720.482 47.1875 719.925 45.2552 719.873 42.9531H726.42C726.493 44.026 726.8 44.9219 727.342 45.6406C727.894 46.349 728.628 46.8854 729.545 47.25C730.472 47.6042 731.519 47.7812 732.686 47.7812C733.831 47.7812 734.826 47.6146 735.67 47.2812C736.524 46.9479 737.186 46.4844 737.654 45.8906C738.123 45.2969 738.357 44.6146 738.357 43.8437C738.357 43.125 738.144 42.5208 737.717 42.0312C737.3 41.5417 736.686 41.125 735.873 40.7812C735.071 40.4375 734.087 40.125 732.92 39.8437L729.436 38.9687C726.738 38.3125 724.607 37.2865 723.045 35.8906C721.482 34.4948 720.706 32.6146 720.717 30.25C720.706 28.3125 721.222 26.6198 722.264 25.1719C723.316 23.724 724.758 22.5937 726.592 21.7812C728.425 20.9687 730.508 20.5625 732.842 20.5625C735.217 20.5625 737.29 20.9687 739.061 21.7812C740.842 22.5937 742.227 23.724 743.217 25.1719C744.206 26.6198 744.717 28.2969 744.748 30.2031H738.264ZM760.549 53.4688C758.08 53.4688 755.955 52.9688 754.174 51.9688C752.403 50.9583 751.038 49.5312 750.08 47.6875C749.122 45.8333 748.643 43.6406 748.643 41.1094C748.643 38.6406 749.122 36.474 750.08 34.6094C751.038 32.7448 752.387 31.2917 754.127 30.25C755.877 29.2083 757.929 28.6875 760.283 28.6875C761.867 28.6875 763.34 28.9427 764.705 29.4531C766.08 29.9531 767.278 30.7083 768.299 31.7187C769.33 32.7292 770.132 34 770.705 35.5312C771.278 37.0521 771.564 38.8333 771.564 40.875V42.7031H751.299V38.5781H765.299C765.299 37.6198 765.09 36.7708 764.674 36.0313C764.257 35.2917 763.679 34.7135 762.939 34.2969C762.21 33.8698 761.361 33.6562 760.393 33.6562C759.382 33.6562 758.486 33.8906 757.705 34.3594C756.934 34.8177 756.33 35.4375 755.893 36.2187C755.455 36.9896 755.231 37.849 755.221 38.7969V42.7187C755.221 43.9062 755.439 44.9323 755.877 45.7969C756.325 46.6615 756.955 47.3281 757.768 47.7969C758.58 48.2656 759.544 48.5 760.658 48.5C761.398 48.5 762.075 48.3958 762.689 48.1875C763.304 47.9792 763.83 47.6667 764.268 47.25C764.705 46.8333 765.038 46.3229 765.268 45.7188L771.424 46.125C771.111 47.6042 770.471 48.8958 769.502 50C768.544 51.0937 767.304 51.9479 765.783 52.5625C764.273 53.1667 762.528 53.4688 760.549 53.4688ZM775.908 53V29H782.361V33.1875H782.611C783.049 31.6979 783.783 30.5729 784.814 29.8125C785.846 29.0417 787.033 28.6562 788.377 28.6562C788.71 28.6562 789.07 28.6771 789.455 28.7187C789.84 28.7604 790.179 28.8177 790.471 28.8906V34.7969C790.158 34.7031 789.726 34.6198 789.174 34.5469C788.622 34.474 788.117 34.4375 787.658 34.4375C786.679 34.4375 785.804 34.651 785.033 35.0781C784.273 35.4948 783.669 36.0781 783.221 36.8281C782.783 37.5781 782.564 38.4427 782.564 39.4219V53H775.908ZM817.018 29L808.627 53H801.127L792.736 29H799.768L804.752 46.1719H805.002L809.971 29H817.018ZM820.424 53V29H827.08V53H820.424ZM823.768 25.9062C822.778 25.9062 821.929 25.5781 821.221 24.9219C820.523 24.2552 820.174 23.4583 820.174 22.5312C820.174 21.6146 820.523 20.8281 821.221 20.1719C821.929 19.5052 822.778 19.1719 823.768 19.1719C824.757 19.1719 825.601 19.5052 826.299 20.1719C827.007 20.8281 827.361 21.6146 827.361 22.5312C827.361 23.4583 827.007 24.2552 826.299 24.9219C825.601 25.5781 824.757 25.9062 823.768 25.9062ZM843.256 53.4688C840.798 53.4688 838.683 52.9479 836.912 51.9062C835.152 50.8542 833.798 49.3958 832.85 47.5312C831.912 45.6667 831.443 43.5208 831.443 41.0937C831.443 38.6354 831.917 36.4792 832.865 34.625C833.824 32.7604 835.183 31.3073 836.943 30.2656C838.704 29.2135 840.798 28.6875 843.225 28.6875C845.318 28.6875 847.152 29.0677 848.725 29.8281C850.298 30.5885 851.542 31.6562 852.459 33.0312C853.376 34.4062 853.881 36.0208 853.975 37.875H847.693C847.516 36.6771 847.048 35.7135 846.287 34.9844C845.537 34.2448 844.553 33.875 843.334 33.875C842.303 33.875 841.402 34.1562 840.631 34.7187C839.87 35.2708 839.277 36.0781 838.85 37.1406C838.423 38.2031 838.209 39.4896 838.209 41C838.209 42.5312 838.417 43.8333 838.834 44.9062C839.261 45.9792 839.86 46.7969 840.631 47.3594C841.402 47.9219 842.303 48.2031 843.334 48.2031C844.094 48.2031 844.777 48.0469 845.381 47.7344C845.995 47.4219 846.501 46.9687 846.896 46.375C847.303 45.7708 847.568 45.0469 847.693 44.2031H853.975C853.87 46.0365 853.37 47.651 852.475 49.0469C851.589 50.4323 850.365 51.5156 848.803 52.2969C847.24 53.0781 845.391 53.4688 843.256 53.4688ZM869.174 53.4688C866.705 53.4688 864.58 52.9688 862.799 51.9688C861.028 50.9583 859.663 49.5312 858.705 47.6875C857.747 45.8333 857.268 43.6406 857.268 41.1094C857.268 38.6406 857.747 36.474 858.705 34.6094C859.663 32.7448 861.012 31.2917 862.752 30.25C864.502 29.2083 866.554 28.6875 868.908 28.6875C870.492 28.6875 871.965 28.9427 873.33 29.4531C874.705 29.9531 875.903 30.7083 876.924 31.7187C877.955 32.7292 878.757 34 879.33 35.5312C879.903 37.0521 880.189 38.8333 880.189 40.875V42.7031H859.924V38.5781H873.924C873.924 37.6198 873.715 36.7708 873.299 36.0313C872.882 35.2917 872.304 34.7135 871.564 34.2969C870.835 33.8698 869.986 33.6562 869.018 33.6562C868.007 33.6562 867.111 33.8906 866.33 34.3594C865.559 34.8177 864.955 35.4375 864.518 36.2187C864.08 36.9896 863.856 37.849 863.846 38.7969V42.7187C863.846 43.9062 864.064 44.9323 864.502 45.7969C864.95 46.6615 865.58 47.3281 866.393 47.7969C867.205 48.2656 868.169 48.5 869.283 48.5C870.023 48.5 870.7 48.3958 871.314 48.1875C871.929 47.9792 872.455 47.6667 872.893 47.25C873.33 46.8333 873.663 46.3229 873.893 45.7188L880.049 46.125C879.736 47.6042 879.096 48.8958 878.127 50C877.169 51.0937 875.929 51.9479 874.408 52.5625C872.898 53.1667 871.153 53.4688 869.174 53.4688Z" fill="#00C7BE"/>
<path d="M1224 75C1224 66.1634 1231.16 59 1240 59H1525C1533.84 59 1541 66.1634 1541 75V173C1541 181.837 1533.84 189 1525 189H1240C1231.16 189 1224 181.837 1224 173V75Z" fill="#FF2D55"/>
<path d="M1297.16 141V115.545H1305.76C1307.75 115.545 1309.39 115.885 1310.66 116.565C1311.94 117.236 1312.88 118.16 1313.5 119.336C1314.11 120.513 1314.42 121.851 1314.42 123.351C1314.42 124.851 1314.11 126.181 1313.5 127.341C1312.88 128.501 1311.94 129.412 1310.67 130.075C1309.41 130.73 1307.79 131.057 1305.81 131.057H1298.85V128.273H1305.72C1307.07 128.273 1308.17 128.074 1309 127.676C1309.83 127.278 1310.44 126.715 1310.81 125.986C1311.19 125.248 1311.38 124.37 1311.38 123.351C1311.38 122.332 1311.19 121.441 1310.81 120.679C1310.43 119.916 1309.82 119.328 1308.98 118.914C1308.15 118.491 1307.04 118.28 1305.67 118.28H1300.25V141H1297.16ZM1309.15 129.565L1315.41 141H1311.83L1305.67 129.565H1309.15ZM1326.95 141.398C1325.11 141.398 1323.53 140.992 1322.19 140.18C1320.87 139.359 1319.84 138.216 1319.12 136.749C1318.41 135.274 1318.05 133.559 1318.05 131.604C1318.05 129.648 1318.41 127.925 1319.12 126.433C1319.84 124.933 1320.85 123.765 1322.13 122.928C1323.42 122.083 1324.93 121.661 1326.65 121.661C1327.65 121.661 1328.63 121.826 1329.6 122.158C1330.57 122.489 1331.45 123.028 1332.25 123.773C1333.04 124.511 1333.68 125.489 1334.15 126.707C1334.62 127.925 1334.86 129.424 1334.86 131.206V132.449H1320.14V129.913H1331.87C1331.87 128.836 1331.66 127.875 1331.23 127.03C1330.81 126.185 1330.2 125.518 1329.41 125.029C1328.64 124.54 1327.72 124.295 1326.65 124.295C1325.49 124.295 1324.48 124.585 1323.62 125.165C1322.78 125.737 1322.13 126.483 1321.67 127.403C1321.22 128.322 1320.99 129.308 1320.99 130.361V132.051C1320.99 133.493 1321.24 134.715 1321.73 135.718C1322.24 136.712 1322.94 137.47 1323.83 137.992C1324.73 138.506 1325.77 138.763 1326.95 138.763C1327.72 138.763 1328.42 138.655 1329.04 138.44C1329.67 138.216 1330.21 137.884 1330.67 137.445C1331.13 136.998 1331.48 136.443 1331.73 135.78L1334.56 136.575C1334.26 137.536 1333.76 138.382 1333.06 139.111C1332.35 139.832 1331.48 140.395 1330.45 140.801C1329.41 141.199 1328.25 141.398 1326.95 141.398ZM1339.32 148.159V121.909H1342.15V124.942H1342.5C1342.72 124.61 1343.02 124.188 1343.4 123.674C1343.79 123.152 1344.34 122.688 1345.06 122.282C1345.79 121.868 1346.78 121.661 1348.02 121.661C1349.63 121.661 1351.04 122.062 1352.27 122.866C1353.5 123.67 1354.45 124.809 1355.14 126.284C1355.83 127.759 1356.17 129.499 1356.17 131.504C1356.17 133.526 1355.83 135.279 1355.14 136.762C1354.45 138.237 1353.5 139.38 1352.28 140.192C1351.07 140.996 1349.66 141.398 1348.07 141.398C1346.84 141.398 1345.86 141.195 1345.12 140.789C1344.39 140.374 1343.82 139.906 1343.42 139.384C1343.02 138.854 1342.72 138.415 1342.5 138.067H1342.25V148.159H1339.32ZM1342.2 131.455C1342.2 132.896 1342.41 134.168 1342.84 135.27C1343.26 136.364 1343.88 137.222 1344.69 137.843C1345.5 138.456 1346.5 138.763 1347.67 138.763C1348.9 138.763 1349.92 138.44 1350.74 137.793C1351.57 137.139 1352.19 136.26 1352.61 135.158C1353.03 134.048 1353.24 132.813 1353.24 131.455C1353.24 130.112 1353.03 128.902 1352.62 127.825C1352.21 126.74 1351.6 125.882 1350.77 125.252C1349.95 124.614 1348.92 124.295 1347.67 124.295C1346.48 124.295 1345.48 124.598 1344.66 125.203C1343.85 125.799 1343.24 126.636 1342.82 127.713C1342.41 128.782 1342.2 130.029 1342.2 131.455ZM1368.4 141.398C1366.68 141.398 1365.17 140.988 1363.87 140.167C1362.57 139.347 1361.56 138.199 1360.83 136.724C1360.11 135.25 1359.75 133.526 1359.75 131.554C1359.75 129.565 1360.11 127.829 1360.83 126.346C1361.56 124.863 1362.57 123.711 1363.87 122.891C1365.17 122.071 1366.68 121.661 1368.4 121.661C1370.13 121.661 1371.64 122.071 1372.93 122.891C1374.23 123.711 1375.24 124.863 1375.96 126.346C1376.69 127.829 1377.05 129.565 1377.05 131.554C1377.05 133.526 1376.69 135.25 1375.96 136.724C1375.24 138.199 1374.23 139.347 1372.93 140.167C1371.64 140.988 1370.13 141.398 1368.4 141.398ZM1368.4 138.763C1369.71 138.763 1370.79 138.427 1371.64 137.756C1372.48 137.085 1373.11 136.202 1373.51 135.109C1373.92 134.015 1374.12 132.83 1374.12 131.554C1374.12 130.278 1373.92 129.089 1373.51 127.987C1373.11 126.885 1372.48 125.994 1371.64 125.315C1370.79 124.635 1369.71 124.295 1368.4 124.295C1367.09 124.295 1366.02 124.635 1365.17 125.315C1364.33 125.994 1363.7 126.885 1363.3 127.987C1362.89 129.089 1362.69 130.278 1362.69 131.554C1362.69 132.83 1362.89 134.015 1363.3 135.109C1363.7 136.202 1364.33 137.085 1365.17 137.756C1366.02 138.427 1367.09 138.763 1368.4 138.763ZM1395.05 126.185L1392.42 126.93C1392.25 126.491 1392.01 126.065 1391.69 125.65C1391.37 125.228 1390.94 124.88 1390.39 124.606C1389.85 124.333 1389.15 124.196 1388.29 124.196C1387.12 124.196 1386.15 124.465 1385.37 125.004C1384.6 125.534 1384.22 126.21 1384.22 127.03C1384.22 127.759 1384.48 128.335 1385.01 128.757C1385.54 129.18 1386.37 129.532 1387.5 129.814L1390.33 130.51C1392.04 130.924 1393.31 131.558 1394.15 132.412C1394.98 133.257 1395.4 134.346 1395.4 135.68C1395.4 136.774 1395.09 137.752 1394.46 138.614C1393.84 139.475 1392.97 140.155 1391.85 140.652C1390.73 141.149 1389.43 141.398 1387.95 141.398C1386 141.398 1384.39 140.975 1383.11 140.13C1381.83 139.285 1381.03 138.05 1380.69 136.426L1383.47 135.73C1383.74 136.758 1384.24 137.528 1384.97 138.042C1385.72 138.556 1386.69 138.812 1387.9 138.812C1389.26 138.812 1390.35 138.522 1391.15 137.942C1391.96 137.354 1392.37 136.65 1392.37 135.83C1392.37 135.167 1392.14 134.612 1391.67 134.164C1391.21 133.708 1390.5 133.369 1389.54 133.145L1386.35 132.399C1384.61 131.985 1383.32 131.343 1382.5 130.473C1381.69 129.594 1381.28 128.496 1381.28 127.179C1381.28 126.102 1381.59 125.149 1382.19 124.32C1382.8 123.492 1383.64 122.841 1384.69 122.369C1385.75 121.897 1386.95 121.661 1388.29 121.661C1390.18 121.661 1391.67 122.075 1392.74 122.903C1393.83 123.732 1394.6 124.826 1395.05 126.185ZM1399.82 141V121.909H1402.75V141H1399.82ZM1401.31 118.727C1400.74 118.727 1400.24 118.533 1399.83 118.143C1399.42 117.754 1399.22 117.286 1399.22 116.739C1399.22 116.192 1399.42 115.724 1399.83 115.334C1400.24 114.945 1400.74 114.75 1401.31 114.75C1401.88 114.75 1402.37 114.945 1402.78 115.334C1403.19 115.724 1403.4 116.192 1403.4 116.739C1403.4 117.286 1403.19 117.754 1402.78 118.143C1402.37 118.533 1401.88 118.727 1401.31 118.727ZM1416.43 121.909V124.395H1406.53V121.909H1416.43ZM1409.42 117.335H1412.35V135.531C1412.35 136.36 1412.47 136.981 1412.71 137.396C1412.96 137.802 1413.27 138.075 1413.65 138.216C1414.04 138.348 1414.45 138.415 1414.88 138.415C1415.21 138.415 1415.47 138.398 1415.68 138.365C1415.89 138.324 1416.05 138.29 1416.18 138.266L1416.77 140.901C1416.58 140.975 1416.3 141.05 1415.94 141.124C1415.59 141.207 1415.13 141.249 1414.59 141.249C1413.76 141.249 1412.95 141.07 1412.15 140.714C1411.36 140.358 1410.71 139.815 1410.19 139.086C1409.67 138.357 1409.42 137.437 1409.42 136.327V117.335ZM1428.39 141.398C1426.67 141.398 1425.15 140.988 1423.85 140.167C1422.56 139.347 1421.55 138.199 1420.82 136.724C1420.1 135.25 1419.74 133.526 1419.74 131.554C1419.74 129.565 1420.1 127.829 1420.82 126.346C1421.55 124.863 1422.56 123.711 1423.85 122.891C1425.15 122.071 1426.67 121.661 1428.39 121.661C1430.11 121.661 1431.62 122.071 1432.91 122.891C1434.21 123.711 1435.22 124.863 1435.95 126.346C1436.68 127.829 1437.04 129.565 1437.04 131.554C1437.04 133.526 1436.68 135.25 1435.95 136.724C1435.22 138.199 1434.21 139.347 1432.91 140.167C1431.62 140.988 1430.11 141.398 1428.39 141.398ZM1428.39 138.763C1429.7 138.763 1430.78 138.427 1431.62 137.756C1432.47 137.085 1433.09 136.202 1433.5 135.109C1433.9 134.015 1434.11 132.83 1434.11 131.554C1434.11 130.278 1433.9 129.089 1433.5 127.987C1433.09 126.885 1432.47 125.994 1431.62 125.315C1430.78 124.635 1429.7 124.295 1428.39 124.295C1427.08 124.295 1426 124.635 1425.16 125.315C1424.31 125.994 1423.69 126.885 1423.28 127.987C1422.87 129.089 1422.67 130.278 1422.67 131.554C1422.67 132.83 1422.87 134.015 1423.28 135.109C1423.69 136.202 1424.31 137.085 1425.16 137.756C1426 138.427 1427.08 138.763 1428.39 138.763ZM1441.52 141V121.909H1444.35V124.793H1444.55C1444.9 123.848 1445.53 123.082 1446.44 122.493C1447.35 121.905 1448.38 121.611 1449.52 121.611C1449.74 121.611 1450.01 121.615 1450.33 121.623C1450.65 121.632 1450.9 121.644 1451.06 121.661V124.643C1450.96 124.619 1450.74 124.581 1450.38 124.532C1450.03 124.474 1449.66 124.445 1449.27 124.445C1448.34 124.445 1447.52 124.639 1446.79 125.029C1446.07 125.41 1445.49 125.94 1445.07 126.62C1444.66 127.291 1444.45 128.057 1444.45 128.919V141H1441.52ZM1457.01 148.159C1456.51 148.159 1456.07 148.118 1455.68 148.035C1455.29 147.96 1455.02 147.886 1454.87 147.811L1455.62 145.226C1456.33 145.408 1456.96 145.474 1457.51 145.425C1458.05 145.375 1458.54 145.131 1458.96 144.691C1459.39 144.261 1459.79 143.56 1460.14 142.591L1460.69 141.099L1453.63 121.909H1456.81L1462.08 137.122H1462.28L1467.55 121.909H1470.73L1462.63 143.784C1462.26 144.77 1461.81 145.586 1461.27 146.233C1460.73 146.887 1460.11 147.372 1459.4 147.687C1458.69 148.002 1457.9 148.159 1457.01 148.159Z" fill="white"/>
<path d="M1313.52 53L1304.37 21H1311.76L1317.05 43.2344H1317.32L1323.16 21H1329.49L1335.32 43.2812H1335.6L1340.9 21H1348.29L1339.13 53H1332.54L1326.45 32.0781H1326.2L1320.12 53H1313.52ZM1360.05 53.4688C1357.62 53.4688 1355.52 52.9531 1353.75 51.9219C1351.99 50.8802 1350.63 49.4323 1349.68 47.5781C1348.72 45.7135 1348.24 43.5521 1348.24 41.0937C1348.24 38.6146 1348.72 36.4479 1349.68 34.5937C1350.63 32.7292 1351.99 31.2812 1353.75 30.25C1355.52 29.2083 1357.62 28.6875 1360.05 28.6875C1362.48 28.6875 1364.57 29.2083 1366.33 30.25C1368.1 31.2812 1369.47 32.7292 1370.43 34.5937C1371.38 36.4479 1371.86 38.6146 1371.86 41.0937C1371.86 43.5521 1371.38 45.7135 1370.43 47.5781C1369.47 49.4323 1368.1 50.8802 1366.33 51.9219C1364.57 52.9531 1362.48 53.4688 1360.05 53.4688ZM1360.08 48.3125C1361.19 48.3125 1362.11 48 1362.85 47.375C1363.59 46.7396 1364.14 45.875 1364.52 44.7812C1364.9 43.6875 1365.1 42.4427 1365.1 41.0469C1365.1 39.651 1364.9 38.4063 1364.52 37.3125C1364.14 36.2187 1363.59 35.3542 1362.85 34.7187C1362.11 34.0833 1361.19 33.7656 1360.08 33.7656C1358.97 33.7656 1358.03 34.0833 1357.27 34.7187C1356.52 35.3542 1355.95 36.2187 1355.57 37.3125C1355.19 38.4063 1355 39.651 1355 41.0469C1355 42.4427 1355.19 43.6875 1355.57 44.7812C1355.95 45.875 1356.52 46.7396 1357.27 47.375C1358.03 48 1358.97 48.3125 1360.08 48.3125ZM1376.19 53V29H1382.64V33.1875H1382.89C1383.33 31.6979 1384.07 30.5729 1385.1 29.8125C1386.13 29.0417 1387.32 28.6562 1388.66 28.6562C1388.99 28.6562 1389.35 28.6771 1389.74 28.7187C1390.12 28.7604 1390.46 28.8177 1390.75 28.8906V34.7969C1390.44 34.7031 1390.01 34.6198 1389.46 34.5469C1388.9 34.474 1388.4 34.4375 1387.94 34.4375C1386.96 34.4375 1386.09 34.651 1385.32 35.0781C1384.56 35.4948 1383.95 36.0781 1383.5 36.8281C1383.07 37.5781 1382.85 38.4427 1382.85 39.4219V53H1376.19ZM1400.23 46.0937L1400.24 38.1094H1401.21L1408.9 29H1416.54L1406.21 41.0625H1404.63L1400.23 46.0937ZM1394.2 53V21H1400.85V53H1394.2ZM1409.2 53L1402.13 42.5469L1406.57 37.8437L1416.99 53H1409.2ZM1429.75 53.4688C1427.29 53.4688 1425.16 52.9688 1423.38 51.9688C1421.61 50.9583 1420.24 49.5312 1419.29 47.6875C1418.33 45.8333 1417.85 43.6406 1417.85 41.1094C1417.85 38.6406 1418.33 36.474 1419.29 34.6094C1420.24 32.7448 1421.59 31.2917 1423.33 30.25C1425.08 29.2083 1427.13 28.6875 1429.49 28.6875C1431.07 28.6875 1432.55 28.9427 1433.91 29.4531C1435.29 29.9531 1436.48 30.7083 1437.5 31.7187C1438.54 32.7292 1439.34 34 1439.91 35.5312C1440.48 37.0521 1440.77 38.8333 1440.77 40.875V42.7031H1420.5V38.5781H1434.5C1434.5 37.6198 1434.3 36.7708 1433.88 36.0313C1433.46 35.2917 1432.88 34.7135 1432.14 34.2969C1431.42 33.8698 1430.57 33.6562 1429.6 33.6562C1428.59 33.6562 1427.69 33.8906 1426.91 34.3594C1426.14 34.8177 1425.54 35.4375 1425.1 36.2187C1424.66 36.9896 1424.44 37.849 1424.43 38.7969V42.7187C1424.43 43.9062 1424.64 44.9323 1425.08 45.7969C1425.53 46.6615 1426.16 47.3281 1426.97 47.7969C1427.79 48.2656 1428.75 48.5 1429.86 48.5C1430.6 48.5 1431.28 48.3958 1431.89 48.1875C1432.51 47.9792 1433.04 47.6667 1433.47 47.25C1433.91 46.8333 1434.24 46.3229 1434.47 45.7188L1440.63 46.125C1440.32 47.6042 1439.68 48.8958 1438.71 50C1437.75 51.0937 1436.51 51.9479 1434.99 52.5625C1433.48 53.1667 1431.73 53.4688 1429.75 53.4688ZM1445.11 53V29H1451.57V33.1875H1451.82C1452.25 31.6979 1452.99 30.5729 1454.02 29.8125C1455.05 29.0417 1456.24 28.6562 1457.58 28.6562C1457.92 28.6562 1458.27 28.6771 1458.66 28.7187C1459.05 28.7604 1459.38 28.8177 1459.68 28.8906V34.7969C1459.36 34.7031 1458.93 34.6198 1458.38 34.5469C1457.83 34.474 1457.32 34.4375 1456.86 34.4375C1455.88 34.4375 1455.01 34.651 1454.24 35.0781C1453.48 35.4948 1452.87 36.0781 1452.43 36.8281C1451.99 37.5781 1451.77 38.4427 1451.77 39.4219V53H1445.11Z" fill="#FF2D55"/>
<path d="M60 75C60 66.1634 67.1634 59 76 59H361C369.837 59 377 66.1634 377 75V173C377 181.837 369.837 189 361 189H76C67.1635 189 60 181.837 60 173V75Z" fill="#FF2D55"/>
<path d="M182.743 94.5455L190.3 115.973H190.598L198.155 94.5455H201.387L192.04 120H188.858L179.512 94.5455H182.743ZM204.954 120V100.909H207.887V120H204.954ZM206.445 97.7273C205.873 97.7273 205.38 97.5326 204.966 97.1431C204.56 96.7537 204.357 96.2855 204.357 95.7386C204.357 95.1918 204.56 94.7236 204.966 94.3342C205.38 93.9447 205.873 93.75 206.445 93.75C207.017 93.75 207.506 93.9447 207.912 94.3342C208.326 94.7236 208.533 95.1918 208.533 95.7386C208.533 96.2855 208.326 96.7537 207.912 97.1431C207.506 97.5326 207.017 97.7273 206.445 97.7273ZM221.264 120.398C219.424 120.398 217.837 119.992 216.503 119.18C215.178 118.359 214.154 117.216 213.433 115.749C212.721 114.274 212.364 112.559 212.364 110.604C212.364 108.648 212.721 106.925 213.433 105.433C214.154 103.933 215.157 102.765 216.441 101.928C217.734 101.083 219.242 100.661 220.965 100.661C221.96 100.661 222.942 100.826 223.911 101.158C224.88 101.489 225.763 102.028 226.558 102.773C227.354 103.511 227.988 104.489 228.46 105.707C228.932 106.925 229.168 108.424 229.168 110.206V111.449H214.453V108.913H226.185C226.185 107.836 225.97 106.875 225.539 106.03C225.117 105.185 224.512 104.518 223.725 104.029C222.946 103.54 222.026 103.295 220.965 103.295C219.797 103.295 218.786 103.585 217.933 104.165C217.087 104.737 216.437 105.483 215.981 106.403C215.526 107.322 215.298 108.308 215.298 109.361V111.051C215.298 112.493 215.546 113.715 216.043 114.718C216.549 115.712 217.249 116.47 218.144 116.992C219.039 117.506 220.079 117.763 221.264 117.763C222.034 117.763 222.73 117.655 223.352 117.44C223.981 117.216 224.524 116.884 224.98 116.445C225.436 115.998 225.788 115.443 226.036 114.78L228.87 115.575C228.572 116.536 228.071 117.382 227.366 118.111C226.662 118.832 225.792 119.395 224.756 119.801C223.72 120.199 222.556 120.398 221.264 120.398ZM237.956 120L232.139 100.909H235.221L239.348 115.526H239.547L243.623 100.909H246.755L250.782 115.476H250.981L255.108 100.909H258.19L252.373 120H249.49L245.314 105.334H245.015L240.839 120H237.956ZM131.525 136.545L139.082 157.973H139.38L146.937 136.545H150.168L140.822 162H137.64L128.293 136.545H131.525ZM153.735 162V142.909H156.669V162H153.735ZM155.227 139.727C154.655 139.727 154.162 139.533 153.748 139.143C153.342 138.754 153.139 138.286 153.139 137.739C153.139 137.192 153.342 136.724 153.748 136.334C154.162 135.945 154.655 135.75 155.227 135.75C155.799 135.75 156.288 135.945 156.694 136.334C157.108 136.724 157.315 137.192 157.315 137.739C157.315 138.286 157.108 138.754 156.694 139.143C156.288 139.533 155.799 139.727 155.227 139.727ZM170.045 162.398C168.206 162.398 166.619 161.992 165.285 161.18C163.959 160.359 162.936 159.216 162.215 157.749C161.503 156.274 161.146 154.559 161.146 152.604C161.146 150.648 161.503 148.925 162.215 147.433C162.936 145.933 163.939 144.765 165.223 143.928C166.516 143.083 168.024 142.661 169.747 142.661C170.741 142.661 171.723 142.826 172.693 143.158C173.662 143.489 174.545 144.028 175.34 144.773C176.136 145.511 176.769 146.489 177.242 147.707C177.714 148.925 177.95 150.424 177.95 152.206V153.449H163.234V150.913H174.967C174.967 149.836 174.752 148.875 174.321 148.03C173.898 147.185 173.293 146.518 172.506 146.029C171.727 145.54 170.808 145.295 169.747 145.295C168.579 145.295 167.568 145.585 166.714 146.165C165.869 146.737 165.219 147.483 164.763 148.403C164.307 149.322 164.079 150.308 164.079 151.361V153.051C164.079 154.493 164.328 155.715 164.825 156.718C165.331 157.712 166.031 158.47 166.926 158.992C167.821 159.506 168.86 159.763 170.045 159.763C170.816 159.763 171.512 159.655 172.133 159.44C172.763 159.216 173.306 158.884 173.762 158.445C174.217 157.998 174.57 157.443 174.818 156.78L177.652 157.575C177.354 158.536 176.852 159.382 176.148 160.111C175.444 160.832 174.574 161.395 173.538 161.801C172.502 162.199 171.338 162.398 170.045 162.398ZM186.737 162L180.921 142.909H184.003L188.13 157.526H188.328L192.405 142.909H195.537L199.564 157.476H199.763L203.889 142.909H206.972L201.155 162H198.272L194.095 147.334H193.797L189.621 162H186.737ZM211.247 136.545H214.926L223.577 157.675H223.875L232.526 136.545H236.205V162H233.321V142.661H233.073L225.118 162H222.334L214.38 142.661H214.131V162H211.247V136.545ZM249.743 162.398C248.02 162.398 246.507 161.988 245.206 161.167C243.914 160.347 242.903 159.199 242.174 157.724C241.453 156.25 241.092 154.526 241.092 152.554C241.092 150.565 241.453 148.829 242.174 147.346C242.903 145.863 243.914 144.711 245.206 143.891C246.507 143.071 248.02 142.661 249.743 142.661C251.467 142.661 252.975 143.071 254.267 143.891C255.568 144.711 256.579 145.863 257.3 147.346C258.029 148.829 258.394 150.565 258.394 152.554C258.394 154.526 258.029 156.25 257.3 157.724C256.579 159.199 255.568 160.347 254.267 161.167C252.975 161.988 251.467 162.398 249.743 162.398ZM249.743 159.763C251.052 159.763 252.129 159.427 252.975 158.756C253.82 158.085 254.445 157.202 254.851 156.109C255.257 155.015 255.46 153.83 255.46 152.554C255.46 151.278 255.257 150.089 254.851 148.987C254.445 147.885 253.82 146.994 252.975 146.315C252.129 145.635 251.052 145.295 249.743 145.295C248.434 145.295 247.357 145.635 246.512 146.315C245.666 146.994 245.041 147.885 244.635 148.987C244.229 150.089 244.026 151.278 244.026 152.554C244.026 153.83 244.229 155.015 244.635 156.109C245.041 157.202 245.666 158.085 246.512 158.756C247.357 159.427 248.434 159.763 249.743 159.763ZM270.08 162.398C268.489 162.398 267.085 161.996 265.867 161.192C264.649 160.38 263.696 159.237 263.008 157.762C262.32 156.279 261.976 154.526 261.976 152.504C261.976 150.499 262.32 148.759 263.008 147.284C263.696 145.809 264.653 144.67 265.879 143.866C267.105 143.062 268.522 142.661 270.13 142.661C271.373 142.661 272.354 142.868 273.075 143.282C273.805 143.688 274.36 144.152 274.741 144.674C275.13 145.188 275.433 145.61 275.648 145.942H275.897V136.545H278.83V162H275.996V159.067H275.648C275.433 159.415 275.126 159.854 274.728 160.384C274.331 160.906 273.763 161.374 273.026 161.789C272.288 162.195 271.306 162.398 270.08 162.398ZM270.478 159.763C271.654 159.763 272.649 159.456 273.461 158.843C274.273 158.222 274.89 157.364 275.313 156.27C275.735 155.168 275.946 153.896 275.946 152.455C275.946 151.029 275.739 149.782 275.325 148.713C274.911 147.636 274.298 146.799 273.486 146.203C272.673 145.598 271.671 145.295 270.478 145.295C269.235 145.295 268.199 145.614 267.37 146.252C266.55 146.882 265.933 147.74 265.519 148.825C265.113 149.902 264.91 151.112 264.91 152.455C264.91 153.813 265.117 155.048 265.531 156.158C265.954 157.26 266.575 158.139 267.395 158.793C268.224 159.44 269.251 159.763 270.478 159.763ZM292.614 162.398C290.774 162.398 289.187 161.992 287.853 161.18C286.528 160.359 285.504 159.216 284.783 157.749C284.071 156.274 283.715 154.559 283.715 152.604C283.715 150.648 284.071 148.925 284.783 147.433C285.504 145.933 286.507 144.765 287.791 143.928C289.084 143.083 290.592 142.661 292.315 142.661C293.31 142.661 294.292 142.826 295.261 143.158C296.231 143.489 297.113 144.028 297.908 144.773C298.704 145.511 299.338 146.489 299.81 147.707C300.282 148.925 300.519 150.424 300.519 152.206V153.449H285.803V150.913H297.536C297.536 149.836 297.32 148.875 296.889 148.03C296.467 147.185 295.862 146.518 295.075 146.029C294.296 145.54 293.376 145.295 292.315 145.295C291.147 145.295 290.136 145.585 289.283 146.165C288.438 146.737 287.787 147.483 287.331 148.403C286.876 149.322 286.648 150.308 286.648 151.361V153.051C286.648 154.493 286.896 155.715 287.394 156.718C287.899 157.712 288.599 158.47 289.494 158.992C290.389 159.506 291.429 159.763 292.614 159.763C293.384 159.763 294.08 159.655 294.702 159.44C295.332 159.216 295.874 158.884 296.33 158.445C296.786 157.998 297.138 157.443 297.386 156.78L300.22 157.575C299.922 158.536 299.421 159.382 298.716 160.111C298.012 160.832 297.142 161.395 296.106 161.801C295.071 162.199 293.906 162.398 292.614 162.398ZM307.914 136.545V162H304.981V136.545H307.914Z" fill="white"/>
<path d="M162.387 30.2031C162.262 28.9427 161.725 27.9635 160.777 27.2656C159.829 26.5677 158.543 26.2187 156.918 26.2187C155.814 26.2187 154.882 26.375 154.121 26.6875C153.361 26.9896 152.777 27.4115 152.371 27.9531C151.975 28.4948 151.777 29.1094 151.777 29.7969C151.757 30.3698 151.876 30.8698 152.137 31.2969C152.408 31.724 152.777 32.0937 153.246 32.4062C153.715 32.7083 154.257 32.974 154.871 33.2031C155.486 33.4219 156.142 33.6094 156.84 33.7656L159.715 34.4531C161.111 34.7656 162.392 35.1823 163.559 35.7031C164.725 36.224 165.736 36.8646 166.59 37.625C167.444 38.3854 168.105 39.2812 168.574 40.3125C169.053 41.3437 169.298 42.526 169.309 43.8594C169.298 45.8177 168.798 47.5156 167.809 48.9531C166.829 50.3802 165.413 51.4896 163.559 52.2812C161.715 53.0625 159.491 53.4531 156.887 53.4531C154.303 53.4531 152.053 53.0573 150.137 52.2656C148.23 51.474 146.741 50.3021 145.668 48.75C144.605 47.1875 144.048 45.2552 143.996 42.9531H150.543C150.616 44.026 150.923 44.9219 151.465 45.6406C152.017 46.349 152.751 46.8854 153.668 47.25C154.595 47.6042 155.642 47.7812 156.809 47.7812C157.954 47.7812 158.949 47.6146 159.793 47.2812C160.647 46.9479 161.309 46.4844 161.777 45.8906C162.246 45.2969 162.48 44.6146 162.48 43.8437C162.48 43.125 162.267 42.5208 161.84 42.0312C161.423 41.5417 160.809 41.125 159.996 40.7812C159.194 40.4375 158.21 40.125 157.043 39.8437L153.559 38.9687C150.861 38.3125 148.73 37.2865 147.168 35.8906C145.605 34.4948 144.829 32.6146 144.84 30.25C144.829 28.3125 145.345 26.6198 146.387 25.1719C147.439 23.724 148.882 22.5937 150.715 21.7812C152.548 20.9687 154.632 20.5625 156.965 20.5625C159.34 20.5625 161.413 20.9687 163.184 21.7812C164.965 22.5937 166.35 23.724 167.34 25.1719C168.329 26.6198 168.84 28.2969 168.871 30.2031H162.387ZM184.578 53.4688C182.12 53.4688 180.005 52.9479 178.234 51.9062C176.474 50.8542 175.12 49.3958 174.172 47.5312C173.234 45.6667 172.766 43.5208 172.766 41.0937C172.766 38.6354 173.24 36.4792 174.188 34.625C175.146 32.7604 176.505 31.3073 178.266 30.2656C180.026 29.2135 182.12 28.6875 184.547 28.6875C186.641 28.6875 188.474 29.0677 190.047 29.8281C191.62 30.5885 192.865 31.6562 193.781 33.0312C194.698 34.4062 195.203 36.0208 195.297 37.875H189.016C188.839 36.6771 188.37 35.7135 187.609 34.9844C186.859 34.2448 185.875 33.875 184.656 33.875C183.625 33.875 182.724 34.1562 181.953 34.7187C181.193 35.2708 180.599 36.0781 180.172 37.1406C179.745 38.2031 179.531 39.4896 179.531 41C179.531 42.5312 179.74 43.8333 180.156 44.9062C180.583 45.9792 181.182 46.7969 181.953 47.3594C182.724 47.9219 183.625 48.2031 184.656 48.2031C185.417 48.2031 186.099 48.0469 186.703 47.7344C187.318 47.4219 187.823 46.9687 188.219 46.375C188.625 45.7708 188.891 45.0469 189.016 44.2031H195.297C195.193 46.0365 194.693 47.651 193.797 49.0469C192.911 50.4323 191.688 51.5156 190.125 52.2969C188.563 53.0781 186.714 53.4688 184.578 53.4688ZM199.559 53V29H206.012V33.1875H206.262C206.699 31.6979 207.434 30.5729 208.465 29.8125C209.496 29.0417 210.684 28.6562 212.027 28.6562C212.361 28.6562 212.72 28.6771 213.105 28.7187C213.491 28.7604 213.829 28.8177 214.121 28.8906V34.7969C213.809 34.7031 213.376 34.6198 212.824 34.5469C212.272 34.474 211.767 34.4375 211.309 34.4375C210.329 34.4375 209.454 34.651 208.684 35.0781C207.923 35.4948 207.319 36.0781 206.871 36.8281C206.434 37.5781 206.215 38.4427 206.215 39.4219V53H199.559ZM227.383 53.4688C224.914 53.4688 222.789 52.9688 221.008 51.9688C219.237 50.9583 217.872 49.5312 216.914 47.6875C215.956 45.8333 215.477 43.6406 215.477 41.1094C215.477 38.6406 215.956 36.474 216.914 34.6094C217.872 32.7448 219.221 31.2917 220.961 30.25C222.711 29.2083 224.763 28.6875 227.117 28.6875C228.701 28.6875 230.174 28.9427 231.539 29.4531C232.914 29.9531 234.112 30.7083 235.133 31.7187C236.164 32.7292 236.966 34 237.539 35.5312C238.112 37.0521 238.398 38.8333 238.398 40.875V42.7031H218.133V38.5781H232.133C232.133 37.6198 231.924 36.7708 231.508 36.0313C231.091 35.2917 230.513 34.7135 229.773 34.2969C229.044 33.8698 228.195 33.6562 227.227 33.6562C226.216 33.6562 225.32 33.8906 224.539 34.3594C223.768 34.8177 223.164 35.4375 222.727 36.2187C222.289 36.9896 222.065 37.849 222.055 38.7969V42.7187C222.055 43.9062 222.273 44.9323 222.711 45.7969C223.159 46.6615 223.789 47.3281 224.602 47.7969C225.414 48.2656 226.378 48.5 227.492 48.5C228.232 48.5 228.909 48.3958 229.523 48.1875C230.138 47.9792 230.664 47.6667 231.102 47.25C231.539 46.8333 231.872 46.3229 232.102 45.7188L238.258 46.125C237.945 47.6042 237.305 48.8958 236.336 50C235.378 51.0937 234.138 51.9479 232.617 52.5625C231.107 53.1667 229.362 53.4688 227.383 53.4688ZM253.68 53.4688C251.211 53.4688 249.086 52.9688 247.305 51.9688C245.534 50.9583 244.169 49.5312 243.211 47.6875C242.253 45.8333 241.773 43.6406 241.773 41.1094C241.773 38.6406 242.253 36.474 243.211 34.6094C244.169 32.7448 245.518 31.2917 247.258 30.25C249.008 29.2083 251.06 28.6875 253.414 28.6875C254.997 28.6875 256.471 28.9427 257.836 29.4531C259.211 29.9531 260.409 30.7083 261.43 31.7187C262.461 32.7292 263.263 34 263.836 35.5312C264.409 37.0521 264.695 38.8333 264.695 40.875V42.7031H244.43V38.5781H258.43C258.43 37.6198 258.221 36.7708 257.805 36.0313C257.388 35.2917 256.81 34.7135 256.07 34.2969C255.341 33.8698 254.492 33.6562 253.523 33.6562C252.513 33.6562 251.617 33.8906 250.836 34.3594C250.065 34.8177 249.461 35.4375 249.023 36.2187C248.586 36.9896 248.362 37.849 248.352 38.7969V42.7187C248.352 43.9062 248.57 44.9323 249.008 45.7969C249.456 46.6615 250.086 47.3281 250.898 47.7969C251.711 48.2656 252.674 48.5 253.789 48.5C254.529 48.5 255.206 48.3958 255.82 48.1875C256.435 47.9792 256.961 47.6667 257.398 47.25C257.836 46.8333 258.169 46.3229 258.398 45.7188L264.555 46.125C264.242 47.6042 263.602 48.8958 262.633 50C261.674 51.0937 260.435 51.9479 258.914 52.5625C257.404 53.1667 255.659 53.4688 253.68 53.4688ZM275.695 39.125V53H269.039V29H275.383V33.2344H275.664C276.195 31.8385 277.086 30.7344 278.336 29.9219C279.586 29.099 281.102 28.6875 282.883 28.6875C284.549 28.6875 286.003 29.0521 287.242 29.7812C288.482 30.5104 289.445 31.5521 290.133 32.9062C290.82 34.25 291.164 35.8542 291.164 37.7187V53H284.508V38.9062C284.518 37.4375 284.143 36.2917 283.383 35.4688C282.622 34.6354 281.576 34.2187 280.242 34.2187C279.346 34.2187 278.555 34.4115 277.867 34.7969C277.19 35.1823 276.659 35.7448 276.273 36.4844C275.898 37.2135 275.706 38.0938 275.695 39.125Z" fill="#FF2D55"/>
<path d="M585.768 129.768C586.744 128.791 586.744 127.209 585.768 126.232L569.858 110.322C568.882 109.346 567.299 109.346 566.322 110.322C565.346 111.299 565.346 112.882 566.322 113.858L580.464 128L566.322 142.142C565.346 143.118 565.346 144.701 566.322 145.678C567.299 146.654 568.882 146.654 569.858 145.678L585.768 129.768ZM434 130.5H584V125.5H434V130.5Z" fill="#FF3B30"/>
<path d="M1015.23 126.232C1014.26 127.209 1014.26 128.791 1015.23 129.768L1031.14 145.678C1032.12 146.654 1033.7 146.654 1034.68 145.678C1035.65 144.701 1035.65 143.118 1034.68 142.142L1020.54 128L1034.68 113.858C1035.65 112.882 1035.65 111.299 1034.68 110.322C1033.7 109.346 1032.12 109.346 1031.14 110.322L1015.23 126.232ZM1167 125.5L1017 125.5L1017 130.5L1167 130.5L1167 125.5Z" fill="#FF3B30"/>
<path d="M463.061 66.9091C462.912 65.6496 462.307 64.6719 461.246 63.9759C460.186 63.2798 458.885 62.9318 457.344 62.9318C456.217 62.9318 455.231 63.1141 454.386 63.4787C453.549 63.8433 452.894 64.3446 452.422 64.9826C451.958 65.6206 451.726 66.3456 451.726 67.1577C451.726 67.8371 451.887 68.4213 452.21 68.9102C452.542 69.3907 452.964 69.7926 453.478 70.1158C453.992 70.4306 454.531 70.6916 455.094 70.8988C455.657 71.0977 456.175 71.2592 456.648 71.3835L459.233 72.0795C459.896 72.2535 460.633 72.4938 461.445 72.8004C462.265 73.107 463.049 73.5254 463.794 74.0558C464.548 74.5778 465.17 75.2489 465.659 76.0692C466.147 76.8896 466.392 77.8963 466.392 79.0895C466.392 80.465 466.031 81.7079 465.311 82.8182C464.598 83.9285 463.554 84.811 462.178 85.4656C460.811 86.1201 459.15 86.4474 457.194 86.4474C455.372 86.4474 453.793 86.1533 452.459 85.565C451.133 84.9767 450.089 84.1564 449.327 83.104C448.573 82.0517 448.146 80.8295 448.047 79.4375H451.229C451.311 80.3987 451.635 81.1941 452.198 81.8239C452.77 82.4453 453.491 82.9093 454.361 83.2159C455.239 83.5142 456.184 83.6633 457.194 83.6633C458.371 83.6633 459.428 83.4728 460.364 83.0916C461.3 82.7022 462.042 82.1636 462.589 81.4758C463.136 80.7798 463.409 79.9678 463.409 79.0398C463.409 78.1946 463.173 77.5069 462.701 76.9766C462.228 76.4463 461.607 76.0154 460.836 75.6839C460.066 75.3525 459.233 75.0625 458.338 74.8139L455.206 73.919C453.217 73.3473 451.643 72.5311 450.483 71.4705C449.323 70.4099 448.743 69.022 448.743 67.3068C448.743 65.8816 449.128 64.6387 449.899 63.5781C450.678 62.5092 451.722 61.6806 453.031 61.0923C454.348 60.4957 455.819 60.1974 457.443 60.1974C459.084 60.1974 460.542 60.4916 461.818 61.0799C463.094 61.6599 464.105 62.4554 464.851 63.4663C465.605 64.4772 466.002 65.6248 466.044 66.9091H463.061ZM479.066 86.3977C477.227 86.3977 475.64 85.9917 474.306 85.1797C472.98 84.3594 471.957 83.2159 471.236 81.7493C470.524 80.2744 470.167 78.5592 470.167 76.6037C470.167 74.6482 470.524 72.9247 471.236 71.4332C471.957 69.9335 472.96 68.7651 474.244 67.9283C475.537 67.0831 477.045 66.6605 478.768 66.6605C479.762 66.6605 480.744 66.8262 481.714 67.1577C482.683 67.4891 483.566 68.0277 484.361 68.7734C485.157 69.5109 485.79 70.4886 486.263 71.7067C486.735 72.9247 486.971 74.4245 486.971 76.206V77.4489H472.255V74.9133H483.988C483.988 73.8362 483.773 72.875 483.342 72.0298C482.919 71.1847 482.314 70.5176 481.527 70.0288C480.748 69.5399 479.829 69.2955 478.768 69.2955C477.6 69.2955 476.589 69.5855 475.735 70.1655C474.89 70.7372 474.24 71.483 473.784 72.4027C473.328 73.3224 473.1 74.3085 473.1 75.3608V77.0511C473.1 78.4929 473.349 79.7151 473.846 80.7177C474.352 81.712 475.052 82.4702 475.947 82.9922C476.842 83.5059 477.881 83.7628 479.066 83.7628C479.837 83.7628 480.533 83.6551 481.154 83.4396C481.784 83.2159 482.327 82.8845 482.783 82.4453C483.238 81.9979 483.591 81.4427 483.839 80.7798L486.673 81.5753C486.375 82.5365 485.873 83.3816 485.169 84.1108C484.465 84.8317 483.595 85.3951 482.559 85.8011C481.523 86.1989 480.359 86.3977 479.066 86.3977ZM491.433 86V66.9091H494.267V69.7926H494.466C494.814 68.848 495.444 68.0816 496.355 67.4932C497.267 66.9049 498.294 66.6108 499.437 66.6108C499.653 66.6108 499.922 66.6149 500.245 66.6232C500.568 66.6315 500.813 66.6439 500.979 66.6605V69.6435C500.879 69.6186 500.651 69.5813 500.295 69.5316C499.947 69.4736 499.578 69.4446 499.189 69.4446C498.261 69.4446 497.432 69.6393 496.703 70.0288C495.982 70.4099 495.41 70.9402 494.988 71.6197C494.574 72.2908 494.366 73.0573 494.366 73.919V86H491.433ZM520.647 66.9091L513.588 86H510.605L503.545 66.9091H506.727L511.997 82.1222H512.196L517.466 66.9091H520.647ZM524.519 86V66.9091H527.452V86H524.519ZM526.011 63.7273C525.439 63.7273 524.946 63.5326 524.532 63.1431C524.126 62.7537 523.923 62.2855 523.923 61.7386C523.923 61.1918 524.126 60.7236 524.532 60.3342C524.946 59.9447 525.439 59.75 526.011 59.75C526.582 59.75 527.071 59.9447 527.477 60.3342C527.892 60.7236 528.099 61.1918 528.099 61.7386C528.099 62.2855 527.892 62.7537 527.477 63.1431C527.071 63.5326 526.582 63.7273 526.011 63.7273ZM535.758 74.5156V86H532.825V66.9091H535.659V69.892H535.907C536.355 68.9226 537.034 68.1437 537.946 67.5554C538.857 66.9588 540.034 66.6605 541.475 66.6605C542.768 66.6605 543.899 66.9257 544.868 67.456C545.838 67.978 546.592 68.7734 547.131 69.8423C547.669 70.9029 547.938 72.2453 547.938 73.8693V86H545.005V74.0682C545.005 72.5684 544.616 71.4001 543.837 70.5632C543.058 69.718 541.989 69.2955 540.63 69.2955C539.694 69.2955 538.857 69.4985 538.12 69.9045C537.39 70.3105 536.814 70.9029 536.392 71.6818C535.969 72.4607 535.758 73.4053 535.758 74.5156ZM561.004 93.5568C559.587 93.5568 558.369 93.3745 557.35 93.0099C556.331 92.6536 555.482 92.1813 554.802 91.593C554.131 91.013 553.597 90.3916 553.199 89.7287L555.536 88.0881C555.801 88.4361 556.136 88.8338 556.542 89.2812C556.948 89.737 557.504 90.1306 558.208 90.462C558.92 90.8017 559.853 90.9716 561.004 90.9716C562.546 90.9716 563.817 90.5987 564.82 89.853C565.823 89.1072 566.324 87.9389 566.324 86.348V82.4702H566.075C565.86 82.8182 565.553 83.2491 565.156 83.7628C564.766 84.2682 564.203 84.7198 563.465 85.1175C562.736 85.507 561.75 85.7017 560.507 85.7017C558.966 85.7017 557.582 85.3371 556.356 84.608C555.138 83.8788 554.173 82.8182 553.46 81.4261C552.756 80.0341 552.404 78.3437 552.404 76.3551C552.404 74.3996 552.747 72.6968 553.435 71.2468C554.123 69.7885 555.08 68.6616 556.306 67.8661C557.533 67.0624 558.949 66.6605 560.557 66.6605C561.8 66.6605 562.786 66.8677 563.515 67.282C564.252 67.688 564.816 68.152 565.205 68.674C565.603 69.1877 565.91 69.6103 566.125 69.9418H566.423V66.9091H569.257V86.5469C569.257 88.1875 568.884 89.5215 568.139 90.549C567.401 91.5848 566.407 92.3429 565.156 92.8235C563.913 93.3124 562.529 93.5568 561.004 93.5568ZM560.905 83.0668C562.082 83.0668 563.076 82.7975 563.888 82.2589C564.7 81.7203 565.317 80.9455 565.74 79.9347C566.162 78.9238 566.374 77.714 566.374 76.3054C566.374 74.9299 566.167 73.716 565.752 72.6637C565.338 71.6114 564.725 70.7869 563.913 70.1903C563.101 69.5937 562.098 69.2955 560.905 69.2955C559.662 69.2955 558.626 69.6103 557.798 70.2401C556.977 70.8698 556.36 71.715 555.946 72.7756C555.54 73.8362 555.337 75.0128 555.337 76.3054C555.337 77.6312 555.544 78.8036 555.958 79.8228C556.381 80.8337 557.002 81.6291 557.823 82.2092C558.651 82.7809 559.679 83.0668 560.905 83.0668Z" fill="#007AFF"/>
<path d="M1032.46 92L1025.5 66.5455H1028.63L1033.95 87.277H1034.2L1039.62 66.5455H1043.1L1048.52 87.277H1048.76L1054.08 66.5455H1057.22L1050.26 92H1047.07L1041.46 71.7159H1041.26L1035.64 92H1032.46ZM1066.64 92.3977C1064.91 92.3977 1063.4 91.9876 1062.1 91.1673C1060.81 90.3469 1059.8 89.1993 1059.07 87.7244C1058.35 86.2495 1057.99 84.526 1057.99 82.554C1057.99 80.5653 1058.35 78.8294 1059.07 77.3462C1059.8 75.863 1060.81 74.7113 1062.1 73.891C1063.4 73.0707 1064.91 72.6605 1066.64 72.6605C1068.36 72.6605 1069.87 73.0707 1071.16 73.891C1072.46 74.7113 1073.47 75.863 1074.19 77.3462C1074.92 78.8294 1075.29 80.5653 1075.29 82.554C1075.29 84.526 1074.92 86.2495 1074.19 87.7244C1073.47 89.1993 1072.46 90.3469 1071.16 91.1673C1069.87 91.9876 1068.36 92.3977 1066.64 92.3977ZM1066.64 89.7628C1067.95 89.7628 1069.02 89.4272 1069.87 88.756C1070.71 88.0849 1071.34 87.2024 1071.75 86.1087C1072.15 85.0149 1072.35 83.83 1072.35 82.554C1072.35 81.2779 1072.15 80.0889 1071.75 78.9869C1071.34 77.8848 1070.71 76.9941 1069.87 76.3146C1069.02 75.6352 1067.95 75.2955 1066.64 75.2955C1065.33 75.2955 1064.25 75.6352 1063.41 76.3146C1062.56 76.9941 1061.93 77.8848 1061.53 78.9869C1061.12 80.0889 1060.92 81.2779 1060.92 82.554C1060.92 83.83 1061.12 85.0149 1061.53 86.1087C1061.93 87.2024 1062.56 88.0849 1063.41 88.756C1064.25 89.4272 1065.33 89.7628 1066.64 89.7628ZM1079.77 92V72.9091H1082.6V75.7926H1082.8C1083.15 74.848 1083.78 74.0816 1084.69 73.4932C1085.6 72.9049 1086.63 72.6108 1087.77 72.6108C1087.98 72.6108 1088.25 72.6149 1088.58 72.6232C1088.9 72.6315 1089.14 72.6439 1089.31 72.6605V75.6435C1089.21 75.6186 1088.98 75.5813 1088.63 75.5316C1088.28 75.4736 1087.91 75.4446 1087.52 75.4446C1086.59 75.4446 1085.76 75.6393 1085.04 76.0288C1084.31 76.4099 1083.74 76.9402 1083.32 77.6197C1082.91 78.2908 1082.7 79.0573 1082.7 79.919V92H1079.77ZM1095.52 85.0398L1095.47 81.4105H1096.07L1104.42 72.9091H1108.05L1099.15 81.9077H1098.9L1095.52 85.0398ZM1092.79 92V66.5455H1095.72V92H1092.79ZM1104.92 92L1097.46 82.554L1099.55 80.5156L1108.65 92H1104.92ZM1111.83 92V72.9091H1114.76V92H1111.83ZM1113.32 69.7273C1112.75 69.7273 1112.25 69.5326 1111.84 69.1431C1111.43 68.7537 1111.23 68.2855 1111.23 67.7386C1111.23 67.1918 1111.43 66.7236 1111.84 66.3342C1112.25 65.9447 1112.75 65.75 1113.32 65.75C1113.89 65.75 1114.38 65.9447 1114.78 66.3342C1115.2 66.7236 1115.41 67.1918 1115.41 67.7386C1115.41 68.2855 1115.2 68.7537 1114.78 69.1431C1114.38 69.5326 1113.89 69.7273 1113.32 69.7273ZM1123.06 80.5156V92H1120.13V72.9091H1122.97V75.892H1123.21C1123.66 74.9226 1124.34 74.1437 1125.25 73.5554C1126.16 72.9588 1127.34 72.6605 1128.78 72.6605C1130.07 72.6605 1131.21 72.9257 1132.18 73.456C1133.14 73.978 1133.9 74.7734 1134.44 75.8423C1134.98 76.9029 1135.25 78.2453 1135.25 79.8693V92H1132.31V80.0682C1132.31 78.5684 1131.92 77.4001 1131.14 76.5632C1130.36 75.718 1129.3 75.2955 1127.94 75.2955C1127 75.2955 1126.16 75.4985 1125.43 75.9045C1124.7 76.3105 1124.12 76.9029 1123.7 77.6818C1123.28 78.4607 1123.06 79.4053 1123.06 80.5156ZM1148.31 99.5568C1146.89 99.5568 1145.68 99.3745 1144.66 99.0099C1143.64 98.6536 1142.79 98.1813 1142.11 97.593C1141.44 97.013 1140.9 96.3916 1140.51 95.7287L1142.84 94.0881C1143.11 94.4361 1143.44 94.8338 1143.85 95.2812C1144.26 95.737 1144.81 96.1306 1145.51 96.462C1146.23 96.8017 1147.16 96.9716 1148.31 96.9716C1149.85 96.9716 1151.12 96.5987 1152.13 95.853C1153.13 95.1072 1153.63 93.9389 1153.63 92.348V88.4702H1153.38C1153.17 88.8182 1152.86 89.2491 1152.46 89.7628C1152.07 90.2682 1151.51 90.7198 1150.77 91.1175C1150.04 91.507 1149.06 91.7017 1147.81 91.7017C1146.27 91.7017 1144.89 91.3371 1143.66 90.608C1142.44 89.8788 1141.48 88.8182 1140.77 87.4261C1140.06 86.0341 1139.71 84.3437 1139.71 82.3551C1139.71 80.3996 1140.05 78.6968 1140.74 77.2468C1141.43 75.7885 1142.39 74.6616 1143.61 73.8661C1144.84 73.0624 1146.26 72.6605 1147.86 72.6605C1149.11 72.6605 1150.09 72.8677 1150.82 73.282C1151.56 73.688 1152.12 74.152 1152.51 74.674C1152.91 75.1877 1153.22 75.6103 1153.43 75.9418H1153.73V72.9091H1156.56V92.5469C1156.56 94.1875 1156.19 95.5215 1155.45 96.549C1154.71 97.5848 1153.71 98.3429 1152.46 98.8235C1151.22 99.3124 1149.84 99.5568 1148.31 99.5568ZM1148.21 89.0668C1149.39 89.0668 1150.38 88.7975 1151.19 88.2589C1152.01 87.7203 1152.62 86.9455 1153.05 85.9347C1153.47 84.9238 1153.68 83.714 1153.68 82.3054C1153.68 80.9299 1153.47 79.716 1153.06 78.6637C1152.64 77.6114 1152.03 76.7869 1151.22 76.1903C1150.41 75.5937 1149.4 75.2955 1148.21 75.2955C1146.97 75.2955 1145.93 75.6103 1145.1 76.2401C1144.28 76.8698 1143.67 77.715 1143.25 78.7756C1142.85 79.8362 1142.64 81.0128 1142.64 82.3054C1142.64 83.6312 1142.85 84.8036 1143.26 85.8228C1143.69 86.8337 1144.31 87.6291 1145.13 88.2092C1145.96 88.7809 1146.99 89.0668 1148.21 89.0668Z" fill="#007AFF"/>
</svg>
