<svg width="1600" height="703" viewBox="0 0 1600 703" fill="none" xmlns="http://www.w3.org/2000/svg">
<rect width="1600" height="703" fill="white"/>
<path opacity="0.5" d="M1010.71 191H1556C1567.05 191 1576 199.954 1576 211V664C1576 675.046 1567.05 684 1556 684H639C627.954 684 619 675.046 619 664V399C619 387.954 627.954 379 639 379H970.715C981.76 379 990.715 370.046 990.715 359V211C990.715 199.954 999.669 191 1010.71 191Z" fill="#D9D9D9" fill-opacity="0.2" stroke="#999999" stroke-width="5"/>
<path d="M642 52C642 43.1634 649.163 36 658 36H943C951.837 36 959 43.1634 959 52V150C959 158.837 951.837 166 943 166H658C649.163 166 642 158.837 642 150V52Z" fill="black" fill-opacity="0.2"/>
<path d="M742.988 80.8661C742.888 79.8635 742.462 79.0846 741.708 78.5295C740.954 77.9743 739.93 77.6967 738.638 77.6967C737.759 77.6967 737.018 77.821 736.413 78.0696C735.808 78.3099 735.344 78.6455 735.021 79.0763C734.706 79.5072 734.548 79.9961 734.548 80.543C734.532 80.9987 734.627 81.3964 734.834 81.7361C735.05 82.0759 735.344 82.37 735.717 82.6186C736.09 82.8589 736.521 83.0702 737.009 83.2525C737.498 83.4265 738.02 83.5756 738.575 83.6999L740.862 84.2468C741.973 84.4954 742.992 84.8268 743.92 85.2411C744.848 85.6554 745.652 86.165 746.331 86.7699C747.011 87.3748 747.537 88.0874 747.91 88.9077C748.291 89.728 748.485 90.6684 748.494 91.729C748.485 93.2868 748.088 94.6374 747.301 95.7809C746.522 96.9161 745.395 97.7985 743.92 98.4283C742.453 99.0497 740.684 99.3604 738.613 99.3604C736.558 99.3604 734.768 99.0456 733.243 98.4158C731.727 97.7861 730.542 96.8539 729.689 95.6193C728.844 94.3764 728.4 92.8394 728.359 91.0082H733.567C733.625 91.8616 733.869 92.5742 734.3 93.1459C734.739 93.7094 735.323 94.1361 736.052 94.4261C736.79 94.7079 737.623 94.8487 738.551 94.8487C739.462 94.8487 740.253 94.7161 740.925 94.451C741.604 94.1858 742.13 93.8171 742.503 93.3448C742.876 92.8725 743.062 92.3298 743.062 91.7166C743.062 91.1449 742.892 90.6643 742.553 90.2749C742.221 89.8854 741.732 89.554 741.086 89.2805C740.448 89.0071 739.665 88.7585 738.737 88.5348L735.965 87.8388C733.819 87.3168 732.125 86.5006 730.882 85.3903C729.639 84.2799 729.022 82.7843 729.03 80.9034C729.022 79.3622 729.432 78.0157 730.26 76.864C731.097 75.7122 732.245 74.8132 733.703 74.1669C735.162 73.5206 736.819 73.1974 738.675 73.1974C740.564 73.1974 742.213 73.5206 743.622 74.1669C745.039 74.8132 746.141 75.7122 746.928 76.864C747.715 78.0157 748.121 79.3498 748.146 80.8661H742.988ZM750.622 73.5455H756.65L762.455 84.5078H762.703L768.508 73.5455H774.536L765.251 90.0014V99H759.907V90.0014L750.622 73.5455ZM791.284 80.8661C791.184 79.8635 790.757 79.0846 790.003 78.5295C789.249 77.9743 788.226 77.6967 786.933 77.6967C786.055 77.6967 785.314 77.821 784.709 78.0696C784.104 78.3099 783.64 78.6455 783.317 79.0763C783.002 79.5072 782.844 79.9961 782.844 80.543C782.828 80.9987 782.923 81.3964 783.13 81.7361C783.346 82.0759 783.64 82.37 784.013 82.6186C784.386 82.8589 784.816 83.0702 785.305 83.2525C785.794 83.4265 786.316 83.5756 786.871 83.6999L789.158 84.2468C790.269 84.4954 791.288 84.8268 792.216 85.2411C793.144 85.6554 793.948 86.165 794.627 86.7699C795.306 87.3748 795.833 88.0874 796.206 88.9077C796.587 89.728 796.781 90.6684 796.79 91.729C796.781 93.2868 796.384 94.6374 795.596 95.7809C794.818 96.9161 793.691 97.7985 792.216 98.4283C790.749 99.0497 788.98 99.3604 786.909 99.3604C784.854 99.3604 783.064 99.0456 781.539 98.4158C780.023 97.7861 778.838 96.8539 777.985 95.6193C777.139 94.3764 776.696 92.8394 776.655 91.0082H781.862C781.92 91.8616 782.165 92.5742 782.596 93.1459C783.035 93.7094 783.619 94.1361 784.348 94.4261C785.086 94.7079 785.918 94.8487 786.846 94.8487C787.758 94.8487 788.549 94.7161 789.22 94.451C789.9 94.1858 790.426 93.8171 790.799 93.3448C791.172 92.8725 791.358 92.3298 791.358 91.7166C791.358 91.1449 791.188 90.6643 790.849 90.2749C790.517 89.8854 790.028 89.554 789.382 89.2805C788.744 89.0071 787.961 88.7585 787.033 88.5348L784.261 87.8388C782.115 87.3168 780.421 86.5006 779.178 85.3903C777.935 84.2799 777.318 82.7843 777.326 80.9034C777.318 79.3622 777.728 78.0157 778.556 76.864C779.393 75.7122 780.541 74.8132 781.999 74.1669C783.458 73.5206 785.115 73.1974 786.971 73.1974C788.86 73.1974 790.509 73.5206 791.918 74.1669C793.334 74.8132 794.436 75.7122 795.224 76.864C796.011 78.0157 796.417 79.3498 796.442 80.8661H791.284ZM799.44 77.9826V73.5455H820.346V77.9826H812.553V99H807.233V77.9826H799.44ZM823.789 99V73.5455H840.941V77.9826H829.17V84.0479H840.058V88.4851H829.17V94.5629H840.99V99H823.789ZM845.219 73.5455H851.856L858.866 90.6477H859.164L866.174 73.5455H872.812V99H867.591V82.4322H867.38L860.793 98.8757H857.238L850.651 82.37H850.439V99H845.219V73.5455ZM766.42 121.33C766.42 119.092 766.71 117.036 767.29 115.159C767.876 113.277 768.71 111.546 769.793 109.966H771.64C771.214 110.552 770.814 111.274 770.441 112.132C770.074 112.984 769.752 113.922 769.474 114.946C769.196 115.964 768.977 117.018 768.817 118.107C768.663 119.196 768.586 120.27 768.586 121.33C768.586 122.738 768.722 124.167 768.994 125.618C769.267 127.068 769.633 128.414 770.095 129.657C770.557 130.9 771.072 131.912 771.64 132.693H769.793C768.71 131.113 767.876 129.385 767.29 127.509C766.71 125.626 766.42 123.567 766.42 121.33ZM774.732 129V115.364H776.756V117.494H776.933C777.217 116.766 777.676 116.201 778.309 115.799C778.943 115.39 779.703 115.186 780.591 115.186C781.491 115.186 782.239 115.39 782.837 115.799C783.441 116.201 783.911 116.766 784.249 117.494H784.391C784.74 116.79 785.264 116.231 785.962 115.816C786.66 115.396 787.498 115.186 788.474 115.186C789.694 115.186 790.691 115.568 791.466 116.331C792.242 117.089 792.629 118.27 792.629 119.874V129H790.534V119.874C790.534 118.867 790.259 118.148 789.708 117.716C789.158 117.284 788.51 117.068 787.764 117.068C786.805 117.068 786.063 117.358 785.536 117.938C785.009 118.512 784.746 119.24 784.746 120.122V129H782.615V119.661C782.615 118.885 782.364 118.261 781.86 117.787C781.357 117.308 780.709 117.068 779.916 117.068C779.372 117.068 778.863 117.213 778.389 117.503C777.922 117.793 777.543 118.196 777.253 118.711C776.969 119.22 776.827 119.808 776.827 120.477V129H774.732ZM800.473 129.32C799.609 129.32 798.825 129.157 798.12 128.831C797.416 128.5 796.857 128.023 796.442 127.402C796.028 126.775 795.821 126.017 795.821 125.129C795.821 124.348 795.975 123.715 796.283 123.229C796.59 122.738 797.002 122.353 797.517 122.075C798.031 121.797 798.6 121.59 799.221 121.454C799.848 121.312 800.479 121.199 801.112 121.116C801.941 121.01 802.612 120.93 803.127 120.877C803.648 120.818 804.027 120.72 804.264 120.584C804.506 120.448 804.628 120.211 804.628 119.874V119.803C804.628 118.927 804.388 118.246 803.909 117.761C803.435 117.275 802.716 117.033 801.751 117.033C800.751 117.033 799.967 117.252 799.399 117.69C798.83 118.128 798.431 118.595 798.2 119.092L796.212 118.382C796.567 117.553 797.04 116.908 797.632 116.447C798.23 115.979 798.881 115.654 799.585 115.47C800.295 115.281 800.994 115.186 801.68 115.186C802.118 115.186 802.621 115.239 803.189 115.346C803.764 115.446 804.317 115.657 804.85 115.976C805.388 116.296 805.835 116.778 806.19 117.423C806.545 118.068 806.723 118.933 806.723 120.016V129H804.628V127.153H804.521C804.379 127.449 804.142 127.766 803.811 128.103C803.48 128.441 803.039 128.728 802.488 128.964C801.938 129.201 801.266 129.32 800.473 129.32ZM800.792 127.437C801.621 127.437 802.319 127.275 802.888 126.949C803.462 126.624 803.894 126.203 804.184 125.689C804.48 125.174 804.628 124.632 804.628 124.064V122.146C804.539 122.253 804.344 122.35 804.042 122.439C803.746 122.522 803.403 122.596 803.012 122.661C802.627 122.72 802.251 122.774 801.884 122.821C801.523 122.862 801.23 122.898 801.006 122.928C800.461 122.999 799.952 123.114 799.479 123.274C799.011 123.428 798.632 123.661 798.342 123.975C798.058 124.283 797.916 124.703 797.916 125.236C797.916 125.964 798.185 126.514 798.724 126.887C799.268 127.254 799.958 127.437 800.792 127.437ZM810.547 129V115.364H812.642V129H810.547ZM811.612 113.091C811.204 113.091 810.852 112.952 810.556 112.674C810.266 112.395 810.121 112.061 810.121 111.67C810.121 111.28 810.266 110.945 810.556 110.667C810.852 110.389 811.204 110.25 811.612 110.25C812.021 110.25 812.37 110.389 812.66 110.667C812.956 110.945 813.104 111.28 813.104 111.67C813.104 112.061 812.956 112.395 812.66 112.674C812.37 112.952 812.021 113.091 811.612 113.091ZM818.575 120.797V129H816.48V115.364H818.504V117.494H818.681C819.001 116.802 819.486 116.245 820.137 115.825C820.788 115.399 821.629 115.186 822.659 115.186C823.582 115.186 824.39 115.375 825.082 115.754C825.775 116.127 826.313 116.695 826.698 117.459C827.083 118.216 827.275 119.175 827.275 120.335V129H825.18V120.477C825.18 119.406 824.902 118.571 824.345 117.974C823.789 117.37 823.026 117.068 822.055 117.068C821.386 117.068 820.788 117.213 820.262 117.503C819.741 117.793 819.329 118.216 819.028 118.773C818.726 119.329 818.575 120.004 818.575 120.797ZM835.578 121.33C835.578 123.567 835.285 125.626 834.699 127.509C834.119 129.385 833.288 131.113 832.204 132.693H830.358C830.784 132.107 831.181 131.385 831.548 130.527C831.92 129.675 832.246 128.74 832.524 127.722C832.802 126.698 833.018 125.641 833.172 124.552C833.332 123.457 833.412 122.383 833.412 121.33C833.412 119.921 833.276 118.492 833.003 117.042C832.731 115.591 832.364 114.245 831.903 113.002C831.441 111.759 830.926 110.747 830.358 109.966H832.204C833.288 111.546 834.119 113.277 834.699 115.159C835.285 117.036 835.578 119.092 835.578 121.33Z" fill="white"/>
<path d="M642 244C642 235.163 649.163 228 658 228H943C951.837 228 959 235.163 959 244V342C959 350.837 951.837 358 943 358H658C649.163 358 642 350.837 642 342V244Z" fill="black" fill-opacity="0.2"/>
<path d="M741.326 272.866C741.226 271.864 740.799 271.085 740.045 270.529C739.291 269.974 738.268 269.697 736.976 269.697C736.097 269.697 735.356 269.821 734.751 270.07C734.146 270.31 733.682 270.645 733.359 271.076C733.044 271.507 732.886 271.996 732.886 272.543C732.87 272.999 732.965 273.396 733.172 273.736C733.388 274.076 733.682 274.37 734.055 274.619C734.428 274.859 734.858 275.07 735.347 275.252C735.836 275.426 736.358 275.576 736.913 275.7L739.2 276.247C740.311 276.495 741.33 276.827 742.258 277.241C743.186 277.655 743.99 278.165 744.669 278.77C745.348 279.375 745.875 280.087 746.248 280.908C746.629 281.728 746.823 282.668 746.832 283.729C746.823 285.287 746.426 286.637 745.639 287.781C744.86 288.916 743.733 289.799 742.258 290.428C740.791 291.05 739.022 291.36 736.951 291.36C734.896 291.36 733.106 291.046 731.581 290.416C730.065 289.786 728.88 288.854 728.027 287.619C727.181 286.376 726.738 284.839 726.697 283.008H731.904C731.962 283.862 732.207 284.574 732.638 285.146C733.077 285.709 733.661 286.136 734.39 286.426C735.128 286.708 735.96 286.849 736.889 286.849C737.8 286.849 738.591 286.716 739.262 286.451C739.942 286.186 740.468 285.817 740.841 285.345C741.214 284.873 741.4 284.33 741.4 283.717C741.4 283.145 741.23 282.664 740.891 282.275C740.559 281.885 740.07 281.554 739.424 281.281C738.786 281.007 738.003 280.759 737.075 280.535L734.303 279.839C732.157 279.317 730.463 278.501 729.22 277.39C727.977 276.28 727.36 274.784 727.368 272.903C727.36 271.362 727.77 270.016 728.598 268.864C729.435 267.712 730.583 266.813 732.041 266.167C733.5 265.521 735.157 265.197 737.013 265.197C738.902 265.197 740.551 265.521 741.96 266.167C743.376 266.813 744.478 267.712 745.266 268.864C746.053 270.016 746.459 271.35 746.484 272.866H741.326ZM750.452 291V265.545H767.604V269.983H755.833V276.048H766.721V280.485H755.833V286.563H767.653V291H750.452ZM771.882 291V265.545H781.925C783.847 265.545 785.488 265.889 786.847 266.577C788.214 267.257 789.254 268.222 789.966 269.473C790.687 270.716 791.048 272.178 791.048 273.86C791.048 275.551 790.683 277.005 789.954 278.223C789.225 279.433 788.168 280.361 786.785 281.007C785.409 281.653 783.744 281.977 781.788 281.977H775.064V277.651H780.918C781.946 277.651 782.799 277.51 783.479 277.229C784.158 276.947 784.663 276.524 784.995 275.961C785.335 275.397 785.504 274.697 785.504 273.86C785.504 273.015 785.335 272.303 784.995 271.723C784.663 271.143 784.154 270.703 783.466 270.405C782.787 270.099 781.929 269.945 780.893 269.945H777.264V291H771.882ZM785.629 279.416L791.955 291H786.014L779.824 279.416H785.629ZM798.766 265.545L804.919 284.885H805.155L811.319 265.545H817.285L808.51 291H801.575L792.788 265.545H798.766ZM825.731 265.545V291H820.349V265.545H825.731ZM852.618 274.457H847.174C847.074 273.753 846.871 273.127 846.565 272.58C846.258 272.025 845.865 271.553 845.384 271.163C844.904 270.774 844.348 270.476 843.719 270.268C843.097 270.061 842.422 269.958 841.693 269.958C840.375 269.958 839.228 270.285 838.25 270.94C837.272 271.586 836.514 272.531 835.975 273.773C835.437 275.008 835.168 276.508 835.168 278.273C835.168 280.087 835.437 281.612 835.975 282.847C836.522 284.081 837.285 285.013 838.262 285.643C839.24 286.273 840.371 286.588 841.655 286.588C842.376 286.588 843.043 286.492 843.657 286.302C844.278 286.111 844.829 285.834 845.31 285.469C845.79 285.096 846.188 284.645 846.503 284.114C846.826 283.584 847.05 282.979 847.174 282.3L852.618 282.325C852.477 283.493 852.125 284.62 851.561 285.705C851.006 286.782 850.256 287.748 849.312 288.601C848.375 289.446 847.257 290.118 845.956 290.615C844.663 291.104 843.201 291.348 841.568 291.348C839.298 291.348 837.268 290.834 835.478 289.807C833.697 288.779 832.288 287.292 831.252 285.345C830.225 283.398 829.711 281.04 829.711 278.273C829.711 275.497 830.233 273.135 831.277 271.188C832.321 269.241 833.738 267.758 835.528 266.739C837.318 265.711 839.331 265.197 841.568 265.197C843.043 265.197 844.411 265.405 845.67 265.819C846.938 266.233 848.061 266.838 849.038 267.634C850.016 268.421 850.811 269.386 851.425 270.529C852.046 271.673 852.444 272.982 852.618 274.457ZM856.477 291V265.545H873.629V269.983H861.859V276.048H872.747V280.485H861.859V286.563H873.679V291H856.477ZM681.203 311.909C681.203 309.672 681.493 307.615 682.073 305.739C682.659 303.857 683.493 302.126 684.576 300.545H686.423C685.997 301.131 685.597 301.853 685.225 302.712C684.858 303.564 684.535 304.502 684.257 305.526C683.979 306.544 683.76 307.597 683.6 308.686C683.446 309.775 683.369 310.85 683.369 311.909C683.369 313.318 683.505 314.747 683.777 316.197C684.05 317.647 684.417 318.994 684.878 320.237C685.34 321.479 685.855 322.491 686.423 323.273H684.576C683.493 321.692 682.659 319.964 682.073 318.088C681.493 316.206 681.203 314.146 681.203 311.909ZM690.545 321H688.236L694.913 302.818H697.185L703.861 321H701.553L696.12 305.695H695.978L690.545 321ZM691.397 313.898H700.701V315.851H691.397V313.898ZM706.409 326.114V307.364H708.433V309.53H708.682C708.836 309.293 709.049 308.991 709.321 308.624C709.599 308.251 709.996 307.92 710.511 307.63C711.032 307.334 711.736 307.186 712.624 307.186C713.772 307.186 714.784 307.473 715.66 308.047C716.536 308.621 717.22 309.435 717.711 310.489C718.202 311.542 718.448 312.785 718.448 314.217C718.448 315.661 718.202 316.913 717.711 317.973C717.22 319.026 716.539 319.843 715.669 320.423C714.799 320.997 713.796 321.284 712.659 321.284C711.783 321.284 711.082 321.139 710.555 320.849C710.029 320.553 709.623 320.219 709.339 319.846C709.055 319.467 708.836 319.153 708.682 318.905H708.504V326.114H706.409ZM708.469 314.182C708.469 315.212 708.62 316.12 708.922 316.907C709.224 317.689 709.665 318.301 710.245 318.745C710.825 319.183 711.535 319.402 712.375 319.402C713.251 319.402 713.982 319.171 714.568 318.71C715.16 318.242 715.604 317.615 715.9 316.827C716.202 316.034 716.353 315.152 716.353 314.182C716.353 313.223 716.205 312.359 715.909 311.589C715.619 310.814 715.178 310.202 714.586 309.752C714 309.296 713.263 309.068 712.375 309.068C711.523 309.068 710.807 309.284 710.227 309.716C709.647 310.142 709.209 310.74 708.913 311.51C708.617 312.273 708.469 313.164 708.469 314.182ZM721.644 326.114V307.364H723.668V309.53H723.916C724.07 309.293 724.283 308.991 724.556 308.624C724.834 308.251 725.23 307.92 725.745 307.63C726.266 307.334 726.97 307.186 727.858 307.186C729.006 307.186 730.018 307.473 730.894 308.047C731.77 308.621 732.454 309.435 732.945 310.489C733.436 311.542 733.682 312.785 733.682 314.217C733.682 315.661 733.436 316.913 732.945 317.973C732.454 319.026 731.773 319.843 730.903 320.423C730.033 320.997 729.03 321.284 727.894 321.284C727.018 321.284 726.316 321.139 725.79 320.849C725.263 320.553 724.857 320.219 724.573 319.846C724.289 319.467 724.07 319.153 723.916 318.905H723.739V326.114H721.644ZM723.703 314.182C723.703 315.212 723.854 316.12 724.156 316.907C724.458 317.689 724.899 318.301 725.479 318.745C726.059 319.183 726.769 319.402 727.61 319.402C728.486 319.402 729.216 319.171 729.802 318.71C730.394 318.242 730.838 317.615 731.134 316.827C731.436 316.034 731.587 315.152 731.587 314.182C731.587 313.223 731.439 312.359 731.143 311.589C730.853 310.814 730.412 310.202 729.82 309.752C729.234 309.296 728.497 309.068 727.61 309.068C726.757 309.068 726.041 309.284 725.461 309.716C724.881 310.142 724.443 310.74 724.147 311.51C723.851 312.273 723.703 313.164 723.703 314.182ZM747.105 307.364C746.999 306.464 746.567 305.766 745.809 305.268C745.052 304.771 744.122 304.523 743.022 304.523C742.217 304.523 741.512 304.653 740.909 304.913C740.311 305.174 739.843 305.532 739.506 305.988C739.174 306.443 739.009 306.961 739.009 307.541C739.009 308.027 739.124 308.444 739.355 308.793C739.592 309.136 739.894 309.423 740.261 309.654C740.627 309.879 741.012 310.065 741.415 310.213C741.817 310.355 742.187 310.471 742.524 310.56L744.371 311.057C744.844 311.181 745.371 311.353 745.951 311.572C746.537 311.791 747.096 312.09 747.629 312.468C748.168 312.841 748.612 313.321 748.961 313.907C749.31 314.493 749.485 315.212 749.485 316.064C749.485 317.046 749.227 317.934 748.712 318.727C748.203 319.52 747.457 320.151 746.475 320.618C745.498 321.086 744.312 321.32 742.915 321.32C741.613 321.32 740.485 321.109 739.533 320.689C738.586 320.269 737.84 319.683 737.295 318.931C736.757 318.18 736.452 317.307 736.381 316.312H738.654C738.713 316.999 738.944 317.567 739.346 318.017C739.754 318.461 740.269 318.792 740.891 319.011C741.518 319.224 742.193 319.331 742.915 319.331C743.755 319.331 744.51 319.195 745.179 318.923C745.848 318.644 746.377 318.26 746.768 317.768C747.159 317.271 747.354 316.691 747.354 316.028C747.354 315.425 747.185 314.933 746.848 314.555C746.511 314.176 746.067 313.868 745.516 313.631C744.966 313.395 744.371 313.187 743.732 313.01L741.495 312.371C740.074 311.962 738.95 311.379 738.121 310.622C737.292 309.864 736.878 308.873 736.878 307.648C736.878 306.63 737.153 305.742 737.704 304.984C738.26 304.221 739.006 303.629 739.941 303.209C740.882 302.783 741.933 302.57 743.093 302.57C744.264 302.57 745.306 302.78 746.218 303.2C747.129 303.614 747.851 304.182 748.384 304.904C748.922 305.627 749.206 306.446 749.236 307.364H747.105ZM758.751 307.364V309.139H751.684V307.364H758.751ZM753.744 304.097H755.839V317.094C755.839 317.686 755.925 318.129 756.096 318.425C756.274 318.715 756.499 318.911 756.771 319.011C757.049 319.106 757.342 319.153 757.65 319.153C757.881 319.153 758.07 319.142 758.218 319.118C758.366 319.088 758.485 319.065 758.573 319.047L758.999 320.929C758.857 320.982 758.659 321.036 758.405 321.089C758.15 321.148 757.828 321.178 757.437 321.178C756.845 321.178 756.265 321.05 755.697 320.796C755.135 320.541 754.667 320.154 754.294 319.633C753.927 319.112 753.744 318.455 753.744 317.662V304.097ZM765.915 321.32C765.051 321.32 764.267 321.157 763.563 320.831C762.858 320.5 762.299 320.023 761.885 319.402C761.47 318.775 761.263 318.017 761.263 317.129C761.263 316.348 761.417 315.715 761.725 315.229C762.033 314.738 762.444 314.353 762.959 314.075C763.474 313.797 764.042 313.59 764.663 313.454C765.291 313.312 765.921 313.199 766.554 313.116C767.383 313.01 768.055 312.93 768.57 312.877C769.091 312.818 769.469 312.72 769.706 312.584C769.949 312.448 770.07 312.211 770.07 311.874V311.803C770.07 310.927 769.83 310.246 769.351 309.761C768.878 309.275 768.158 309.033 767.194 309.033C766.193 309.033 765.409 309.252 764.841 309.69C764.273 310.128 763.873 310.595 763.643 311.092L761.654 310.382C762.009 309.553 762.483 308.908 763.074 308.447C763.672 307.979 764.323 307.654 765.027 307.47C765.738 307.281 766.436 307.186 767.123 307.186C767.561 307.186 768.064 307.239 768.632 307.346C769.206 307.446 769.759 307.657 770.292 307.976C770.831 308.296 771.277 308.778 771.633 309.423C771.988 310.068 772.165 310.933 772.165 312.016V321H770.07V319.153H769.964C769.822 319.449 769.585 319.766 769.253 320.103C768.922 320.441 768.481 320.728 767.931 320.964C767.38 321.201 766.708 321.32 765.915 321.32ZM766.235 319.437C767.063 319.437 767.762 319.275 768.33 318.949C768.904 318.624 769.336 318.203 769.626 317.689C769.922 317.174 770.07 316.632 770.07 316.064V314.146C769.981 314.253 769.786 314.35 769.484 314.439C769.188 314.522 768.845 314.596 768.454 314.661C768.07 314.72 767.694 314.774 767.327 314.821C766.966 314.862 766.673 314.898 766.448 314.928C765.903 314.999 765.394 315.114 764.921 315.274C764.453 315.428 764.075 315.661 763.785 315.975C763.5 316.283 763.358 316.703 763.358 317.236C763.358 317.964 763.628 318.514 764.166 318.887C764.711 319.254 765.4 319.437 766.235 319.437ZM781.92 307.364V309.139H774.853V307.364H781.92ZM776.913 304.097H779.008V317.094C779.008 317.686 779.094 318.129 779.265 318.425C779.443 318.715 779.668 318.911 779.94 319.011C780.218 319.106 780.511 319.153 780.819 319.153C781.05 319.153 781.239 319.142 781.387 319.118C781.535 319.088 781.653 319.065 781.742 319.047L782.168 320.929C782.026 320.982 781.828 321.036 781.574 321.089C781.319 321.148 780.997 321.178 780.606 321.178C780.014 321.178 779.434 321.05 778.866 320.796C778.304 320.541 777.836 320.154 777.463 319.633C777.096 319.112 776.913 318.455 776.913 317.662V304.097ZM790.642 321.284C789.328 321.284 788.195 320.994 787.242 320.414C786.295 319.828 785.564 319.011 785.049 317.964C784.54 316.91 784.286 315.685 784.286 314.288C784.286 312.892 784.54 311.661 785.049 310.595C785.564 309.524 786.28 308.689 787.198 308.092C788.121 307.488 789.198 307.186 790.429 307.186C791.139 307.186 791.841 307.304 792.533 307.541C793.226 307.778 793.856 308.163 794.424 308.695C794.992 309.222 795.445 309.92 795.783 310.79C796.12 311.661 796.289 312.732 796.289 314.004V314.892H785.777V313.081H794.158C794.158 312.312 794.004 311.625 793.696 311.021C793.394 310.418 792.962 309.941 792.4 309.592C791.844 309.243 791.187 309.068 790.429 309.068C789.595 309.068 788.873 309.275 788.263 309.69C787.659 310.098 787.195 310.631 786.869 311.288C786.544 311.945 786.381 312.649 786.381 313.401V314.608C786.381 315.638 786.558 316.511 786.914 317.227C787.275 317.937 787.775 318.479 788.414 318.852C789.053 319.219 789.796 319.402 790.642 319.402C791.193 319.402 791.69 319.325 792.134 319.171C792.584 319.011 792.971 318.775 793.297 318.461C793.622 318.141 793.874 317.745 794.051 317.271L796.076 317.839C795.862 318.526 795.504 319.13 795.001 319.651C794.498 320.165 793.877 320.568 793.137 320.858C792.397 321.142 791.566 321.284 790.642 321.284ZM802.601 318.514L802.459 319.473C802.358 320.148 802.204 320.87 801.997 321.639C801.796 322.409 801.586 323.134 801.367 323.814C801.148 324.495 800.967 325.036 800.825 325.439H799.227C799.304 325.06 799.405 324.56 799.529 323.939C799.653 323.317 799.778 322.622 799.902 321.852C800.032 321.089 800.139 320.308 800.221 319.509L800.328 318.514H802.601ZM825.73 302.818H827.931V314.857C827.931 316.099 827.638 317.209 827.053 318.186C826.472 319.156 825.653 319.923 824.593 320.485C823.534 321.041 822.291 321.32 820.865 321.32C819.438 321.32 818.195 321.041 817.136 320.485C816.077 319.923 815.254 319.156 814.668 318.186C814.088 317.209 813.798 316.099 813.798 314.857V302.818H816V314.679C816 315.567 816.195 316.357 816.586 317.049C816.976 317.736 817.533 318.277 818.255 318.674C818.983 319.065 819.853 319.26 820.865 319.26C821.877 319.26 822.747 319.065 823.475 318.674C824.203 318.277 824.759 317.736 825.144 317.049C825.534 316.357 825.73 315.567 825.73 314.679V302.818ZM841.703 310.418L839.821 310.95C839.703 310.637 839.528 310.332 839.297 310.036C839.072 309.734 838.765 309.485 838.374 309.29C837.983 309.095 837.483 308.997 836.874 308.997C836.039 308.997 835.344 309.19 834.787 309.574C834.237 309.953 833.962 310.435 833.962 311.021C833.962 311.542 834.151 311.953 834.53 312.255C834.909 312.557 835.501 312.809 836.305 313.01L838.33 313.507C839.549 313.803 840.457 314.256 841.055 314.865C841.653 315.469 841.952 316.247 841.952 317.2C841.952 317.982 841.727 318.68 841.277 319.295C840.833 319.911 840.212 320.396 839.413 320.751C838.614 321.107 837.684 321.284 836.625 321.284C835.234 321.284 834.083 320.982 833.172 320.379C832.26 319.775 831.683 318.893 831.44 317.733L833.429 317.236C833.618 317.97 833.976 318.52 834.503 318.887C835.036 319.254 835.731 319.437 836.59 319.437C837.566 319.437 838.341 319.23 838.916 318.816C839.496 318.396 839.786 317.893 839.786 317.307C839.786 316.833 839.62 316.437 839.288 316.117C838.957 315.792 838.448 315.549 837.761 315.389L835.489 314.857C834.24 314.561 833.322 314.102 832.737 313.48C832.157 312.853 831.867 312.069 831.867 311.128C831.867 310.358 832.083 309.678 832.515 309.086C832.953 308.494 833.547 308.029 834.299 307.692C835.057 307.355 835.915 307.186 836.874 307.186C838.223 307.186 839.282 307.482 840.052 308.074C840.827 308.666 841.378 309.447 841.703 310.418ZM850.823 321.284C849.509 321.284 848.376 320.994 847.423 320.414C846.476 319.828 845.745 319.011 845.23 317.964C844.721 316.91 844.466 315.685 844.466 314.288C844.466 312.892 844.721 311.661 845.23 310.595C845.745 309.524 846.461 308.689 847.378 308.092C848.302 307.488 849.379 307.186 850.61 307.186C851.32 307.186 852.021 307.304 852.714 307.541C853.406 307.778 854.037 308.163 854.605 308.695C855.173 309.222 855.626 309.92 855.963 310.79C856.301 311.661 856.469 312.732 856.469 314.004V314.892H845.958V313.081H854.339C854.339 312.312 854.185 311.625 853.877 311.021C853.575 310.418 853.143 309.941 852.581 309.592C852.024 309.243 851.367 309.068 850.61 309.068C849.775 309.068 849.053 309.275 848.444 309.69C847.84 310.098 847.375 310.631 847.05 311.288C846.724 311.945 846.562 312.649 846.562 313.401V314.608C846.562 315.638 846.739 316.511 847.094 317.227C847.455 317.937 847.955 318.479 848.595 318.852C849.234 319.219 849.977 319.402 850.823 319.402C851.373 319.402 851.871 319.325 852.314 319.171C852.764 319.011 853.152 318.775 853.477 318.461C853.803 318.141 854.054 317.745 854.232 317.271L856.256 317.839C856.043 318.526 855.685 319.13 855.182 319.651C854.679 320.165 854.057 320.568 853.318 320.858C852.578 321.142 851.746 321.284 850.823 321.284ZM865.196 321.284C863.918 321.284 862.817 320.982 861.894 320.379C860.97 319.775 860.26 318.943 859.763 317.884C859.266 316.824 859.017 315.614 859.017 314.253C859.017 312.868 859.272 311.646 859.781 310.586C860.296 309.521 861.012 308.689 861.929 308.092C862.852 307.488 863.93 307.186 865.161 307.186C866.119 307.186 866.984 307.364 867.753 307.719C868.522 308.074 869.153 308.571 869.644 309.21C870.135 309.849 870.44 310.595 870.558 311.447H868.463C868.303 310.826 867.948 310.276 867.398 309.796C866.853 309.311 866.119 309.068 865.196 309.068C864.379 309.068 863.663 309.281 863.048 309.707C862.438 310.128 861.962 310.722 861.618 311.492C861.281 312.255 861.112 313.152 861.112 314.182C861.112 315.235 861.278 316.153 861.61 316.934C861.947 317.715 862.42 318.322 863.03 318.754C863.645 319.186 864.368 319.402 865.196 319.402C865.741 319.402 866.235 319.307 866.679 319.118C867.123 318.928 867.498 318.656 867.806 318.301C868.114 317.946 868.333 317.52 868.463 317.023H870.558C870.44 317.828 870.147 318.553 869.679 319.198C869.218 319.837 868.605 320.346 867.842 320.725C867.084 321.098 866.202 321.284 865.196 321.284ZM877.634 321.32C876.77 321.32 875.986 321.157 875.281 320.831C874.577 320.5 874.018 320.023 873.603 319.402C873.189 318.775 872.982 318.017 872.982 317.129C872.982 316.348 873.136 315.715 873.444 315.229C873.751 314.738 874.163 314.353 874.678 314.075C875.193 313.797 875.761 313.59 876.382 313.454C877.01 313.312 877.64 313.199 878.273 313.116C879.102 313.01 879.774 312.93 880.288 312.877C880.809 312.818 881.188 312.72 881.425 312.584C881.668 312.448 881.789 312.211 881.789 311.874V311.803C881.789 310.927 881.549 310.246 881.07 309.761C880.596 309.275 879.877 309.033 878.912 309.033C877.912 309.033 877.128 309.252 876.56 309.69C875.992 310.128 875.592 310.595 875.361 311.092L873.373 310.382C873.728 309.553 874.201 308.908 874.793 308.447C875.391 307.979 876.042 307.654 876.746 307.47C877.456 307.281 878.155 307.186 878.841 307.186C879.279 307.186 879.782 307.239 880.351 307.346C880.925 307.446 881.478 307.657 882.011 307.976C882.549 308.296 882.996 308.778 883.351 309.423C883.706 310.068 883.884 310.933 883.884 312.016V321H881.789V319.153H881.682C881.54 319.449 881.304 319.766 880.972 320.103C880.641 320.441 880.2 320.728 879.649 320.964C879.099 321.201 878.427 321.32 877.634 321.32ZM877.954 319.437C878.782 319.437 879.481 319.275 880.049 318.949C880.623 318.624 881.055 318.203 881.345 317.689C881.641 317.174 881.789 316.632 881.789 316.064V314.146C881.7 314.253 881.505 314.35 881.203 314.439C880.907 314.522 880.564 314.596 880.173 314.661C879.788 314.72 879.413 314.774 879.046 314.821C878.685 314.862 878.392 314.898 878.167 314.928C877.622 314.999 877.113 315.114 876.64 315.274C876.172 315.428 875.793 315.661 875.503 315.975C875.219 316.283 875.077 316.703 875.077 317.236C875.077 317.964 875.346 318.514 875.885 318.887C876.43 319.254 877.119 319.437 877.954 319.437ZM897.367 310.418L895.485 310.95C895.367 310.637 895.192 310.332 894.961 310.036C894.736 309.734 894.429 309.485 894.038 309.29C893.647 309.095 893.147 308.997 892.538 308.997C891.703 308.997 891.008 309.19 890.451 309.574C889.901 309.953 889.626 310.435 889.626 311.021C889.626 311.542 889.815 311.953 890.194 312.255C890.573 312.557 891.165 312.809 891.97 313.01L893.994 313.507C895.213 313.803 896.121 314.256 896.719 314.865C897.317 315.469 897.616 316.247 897.616 317.2C897.616 317.982 897.391 318.68 896.941 319.295C896.497 319.911 895.876 320.396 895.077 320.751C894.278 321.107 893.349 321.284 892.289 321.284C890.898 321.284 889.747 320.982 888.836 320.379C887.924 319.775 887.347 318.893 887.104 317.733L889.093 317.236C889.282 317.97 889.641 318.52 890.167 318.887C890.7 319.254 891.395 319.437 892.254 319.437C893.23 319.437 894.005 319.23 894.58 318.816C895.16 318.396 895.45 317.893 895.45 317.307C895.45 316.833 895.284 316.437 894.952 316.117C894.621 315.792 894.112 315.549 893.425 315.389L891.153 314.857C889.904 314.561 888.987 314.102 888.401 313.48C887.821 312.853 887.531 312.069 887.531 311.128C887.531 310.358 887.747 309.678 888.179 309.086C888.617 308.494 889.211 308.029 889.963 307.692C890.721 307.355 891.579 307.186 892.538 307.186C893.887 307.186 894.947 307.482 895.716 308.074C896.491 308.666 897.042 309.447 897.367 310.418ZM906.487 321.284C905.173 321.284 904.04 320.994 903.087 320.414C902.14 319.828 901.409 319.011 900.894 317.964C900.385 316.91 900.13 315.685 900.13 314.288C900.13 312.892 900.385 311.661 900.894 310.595C901.409 309.524 902.125 308.689 903.042 308.092C903.966 307.488 905.043 307.186 906.274 307.186C906.984 307.186 907.685 307.304 908.378 307.541C909.07 307.778 909.701 308.163 910.269 308.695C910.837 309.222 911.29 309.92 911.627 310.79C911.965 311.661 912.133 312.732 912.133 314.004V314.892H901.622V313.081H910.003C910.003 312.312 909.849 311.625 909.541 311.021C909.239 310.418 908.807 309.941 908.245 309.592C907.688 309.243 907.031 309.068 906.274 309.068C905.439 309.068 904.717 309.275 904.108 309.69C903.504 310.098 903.039 310.631 902.714 311.288C902.388 311.945 902.226 312.649 902.226 313.401V314.608C902.226 315.638 902.403 316.511 902.758 317.227C903.119 317.937 903.619 318.479 904.259 318.852C904.898 319.219 905.641 319.402 906.487 319.402C907.037 319.402 907.535 319.325 907.978 319.171C908.428 319.011 908.816 318.775 909.141 318.461C909.467 318.141 909.719 317.745 909.896 317.271L911.92 317.839C911.707 318.526 911.349 319.13 910.846 319.651C910.343 320.165 909.721 320.568 908.982 320.858C908.242 321.142 907.41 321.284 906.487 321.284ZM919.795 313.33C919.795 315.567 919.502 317.626 918.916 319.509C918.336 321.385 917.504 323.113 916.421 324.693H914.575C915.001 324.107 915.397 323.385 915.764 322.527C916.137 321.675 916.463 320.74 916.741 319.722C917.019 318.698 917.235 317.641 917.389 316.552C917.549 315.457 917.629 314.383 917.629 313.33C917.629 311.921 917.493 310.492 917.22 309.042C916.948 307.591 916.581 306.245 916.119 305.002C915.658 303.759 915.143 302.747 914.575 301.966H916.421C917.504 303.546 918.336 305.277 918.916 307.159C919.502 309.036 919.795 311.092 919.795 313.33Z" fill="white"/>
<path d="M642 434C642 425.163 649.163 418 658 418H943C951.837 418 959 425.163 959 434V532C959 540.837 951.837 548 943 548H658C649.163 548 642 540.837 642 532V434Z" fill="#00C7BE"/>
<path d="M738.437 481H729.414V455.545H738.512C741.072 455.545 743.276 456.055 745.124 457.074C746.972 458.085 748.393 459.539 749.387 461.437C750.39 463.334 750.891 465.605 750.891 468.248C750.891 470.899 750.39 473.178 749.387 475.084C748.393 476.99 746.964 478.452 745.099 479.471C743.243 480.49 741.023 481 738.437 481ZM734.796 476.389H738.214C739.805 476.389 741.143 476.107 742.228 475.544C743.322 474.972 744.142 474.089 744.689 472.896C745.244 471.695 745.522 470.145 745.522 468.248C745.522 466.367 745.244 464.83 744.689 463.637C744.142 462.444 743.326 461.565 742.241 461.002C741.155 460.438 739.817 460.157 738.226 460.157H734.796V476.389ZM778.269 468.273C778.269 471.049 777.743 473.41 776.691 475.357C775.647 477.304 774.222 478.792 772.415 479.819C770.617 480.838 768.595 481.348 766.35 481.348C764.088 481.348 762.058 480.834 760.26 479.807C758.462 478.779 757.041 477.292 755.997 475.345C754.952 473.398 754.43 471.04 754.43 468.273C754.43 465.497 754.952 463.135 755.997 461.188C757.041 459.241 758.462 457.758 760.26 456.739C762.058 455.711 764.088 455.197 766.35 455.197C768.595 455.197 770.617 455.711 772.415 456.739C774.222 457.758 775.647 459.241 776.691 461.188C777.743 463.135 778.269 465.497 778.269 468.273ZM772.813 468.273C772.813 466.475 772.544 464.958 772.005 463.724C771.475 462.489 770.725 461.553 769.755 460.915C768.786 460.277 767.651 459.958 766.35 459.958C765.049 459.958 763.914 460.277 762.944 460.915C761.975 461.553 761.221 462.489 760.682 463.724C760.152 464.958 759.887 466.475 759.887 468.273C759.887 470.071 760.152 471.587 760.682 472.822C761.221 474.056 761.975 474.993 762.944 475.631C763.914 476.269 765.049 476.588 766.35 476.588C767.651 476.588 768.786 476.269 769.755 475.631C770.725 474.993 771.475 474.056 772.005 472.822C772.544 471.587 772.813 470.071 772.813 468.273ZM782.256 455.545H788.893L795.903 472.648H796.201L803.211 455.545H809.848V481H804.628V464.432H804.417L797.829 480.876H794.275L787.687 464.37H787.476V481H782.256V455.545ZM818.67 481H812.903L821.69 455.545H828.625L837.4 481H831.633L825.257 461.362H825.058L818.67 481ZM818.309 470.995H831.931V475.196H818.309V470.995ZM845.846 455.545V481H840.464V455.545H845.846ZM871.564 455.545V481H866.916L855.842 464.979H855.655V481H850.273V455.545H854.996L865.984 471.554H866.207V455.545H871.564ZM684.29 511V497.364H686.314V499.494H686.492C686.776 498.766 687.235 498.201 687.868 497.799C688.501 497.39 689.262 497.186 690.15 497.186C691.049 497.186 691.798 497.39 692.396 497.799C692.999 498.201 693.47 498.766 693.807 499.494H693.949C694.298 498.79 694.822 498.231 695.521 497.816C696.219 497.396 697.057 497.186 698.033 497.186C699.252 497.186 700.25 497.568 701.025 498.331C701.8 499.089 702.188 500.27 702.188 501.874V511H700.093V501.874C700.093 500.867 699.818 500.148 699.267 499.716C698.717 499.284 698.069 499.068 697.323 499.068C696.364 499.068 695.621 499.358 695.095 499.938C694.568 500.512 694.304 501.24 694.304 502.122V511H692.174V501.661C692.174 500.885 691.922 500.261 691.419 499.787C690.916 499.308 690.268 499.068 689.475 499.068C688.93 499.068 688.421 499.213 687.948 499.503C687.48 499.793 687.102 500.196 686.811 500.711C686.527 501.22 686.385 501.808 686.385 502.477V511H684.29ZM711.558 511.284C710.327 511.284 709.247 510.991 708.318 510.405C707.395 509.819 706.673 509 706.152 507.946C705.637 506.893 705.379 505.661 705.379 504.253C705.379 502.832 705.637 501.592 706.152 500.533C706.673 499.474 707.395 498.651 708.318 498.065C709.247 497.479 710.327 497.186 711.558 497.186C712.79 497.186 713.867 497.479 714.79 498.065C715.719 498.651 716.441 499.474 716.956 500.533C717.477 501.592 717.737 502.832 717.737 504.253C717.737 505.661 717.477 506.893 716.956 507.946C716.441 509 715.719 509.819 714.79 510.405C713.867 510.991 712.79 511.284 711.558 511.284ZM711.558 509.402C712.494 509.402 713.263 509.162 713.867 508.683C714.47 508.203 714.917 507.573 715.207 506.792C715.497 506.011 715.642 505.164 715.642 504.253C715.642 503.341 715.497 502.492 715.207 501.705C714.917 500.918 714.47 500.281 713.867 499.796C713.263 499.311 712.494 499.068 711.558 499.068C710.623 499.068 709.854 499.311 709.25 499.796C708.647 500.281 708.2 500.918 707.91 501.705C707.62 502.492 707.475 503.341 707.475 504.253C707.475 505.164 707.62 506.011 707.91 506.792C708.2 507.573 708.647 508.203 709.25 508.683C709.854 509.162 710.623 509.402 711.558 509.402ZM726.085 511.284C724.948 511.284 723.945 510.997 723.075 510.423C722.205 509.843 721.525 509.026 721.033 507.973C720.542 506.913 720.296 505.661 720.296 504.217C720.296 502.785 720.542 501.542 721.033 500.489C721.525 499.435 722.208 498.621 723.084 498.047C723.96 497.473 724.972 497.186 726.12 497.186C727.008 497.186 727.709 497.334 728.224 497.63C728.745 497.92 729.142 498.251 729.414 498.624C729.692 498.991 729.908 499.293 730.062 499.53H730.24V492.818H732.335V511H730.311V508.905H730.062C729.908 509.153 729.689 509.467 729.405 509.846C729.121 510.219 728.716 510.553 728.189 510.849C727.662 511.139 726.961 511.284 726.085 511.284ZM726.369 509.402C727.209 509.402 727.92 509.183 728.5 508.745C729.08 508.301 729.521 507.689 729.822 506.907C730.124 506.12 730.275 505.212 730.275 504.182C730.275 503.164 730.127 502.273 729.831 501.51C729.535 500.74 729.097 500.142 728.517 499.716C727.937 499.284 727.221 499.068 726.369 499.068C725.481 499.068 724.741 499.296 724.149 499.752C723.564 500.202 723.123 500.814 722.827 501.589C722.537 502.359 722.392 503.223 722.392 504.182C722.392 505.152 722.54 506.034 722.836 506.827C723.137 507.615 723.581 508.242 724.167 508.71C724.759 509.171 725.493 509.402 726.369 509.402ZM742.18 511.284C740.866 511.284 739.733 510.994 738.78 510.414C737.833 509.828 737.102 509.011 736.587 507.964C736.078 506.91 735.824 505.685 735.824 504.288C735.824 502.892 736.078 501.661 736.587 500.595C737.102 499.524 737.818 498.689 738.736 498.092C739.659 497.488 740.736 497.186 741.967 497.186C742.678 497.186 743.379 497.304 744.071 497.541C744.764 497.778 745.394 498.163 745.962 498.695C746.531 499.222 746.983 499.92 747.321 500.79C747.658 501.661 747.827 502.732 747.827 504.004V504.892H737.315V503.081H745.696C745.696 502.312 745.542 501.625 745.234 501.021C744.932 500.418 744.5 499.941 743.938 499.592C743.382 499.243 742.725 499.068 741.967 499.068C741.133 499.068 740.411 499.275 739.801 499.69C739.197 500.098 738.733 500.631 738.407 501.288C738.082 501.945 737.919 502.649 737.919 503.401V504.608C737.919 505.638 738.097 506.511 738.452 507.227C738.813 507.937 739.313 508.479 739.952 508.852C740.591 509.219 741.334 509.402 742.18 509.402C742.731 509.402 743.228 509.325 743.672 509.171C744.122 509.011 744.509 508.775 744.835 508.461C745.16 508.141 745.412 507.745 745.589 507.271L747.614 507.839C747.401 508.526 747.042 509.13 746.539 509.651C746.036 510.165 745.415 510.568 744.675 510.858C743.935 511.142 743.104 511.284 742.18 511.284ZM753.109 492.818V511H751.014V492.818H753.109ZM757.692 503.33C757.692 501.092 757.982 499.036 758.562 497.159C759.148 495.277 759.983 493.546 761.066 491.966H762.912C762.486 492.552 762.087 493.274 761.714 494.132C761.347 494.984 761.024 495.922 760.746 496.946C760.468 497.964 760.249 499.018 760.089 500.107C759.935 501.196 759.858 502.27 759.858 503.33C759.858 504.738 759.994 506.167 760.267 507.618C760.539 509.068 760.906 510.414 761.368 511.657C761.829 512.9 762.344 513.912 762.912 514.693H761.066C759.983 513.113 759.148 511.385 758.562 509.509C757.982 507.626 757.692 505.567 757.692 503.33ZM766.288 511V492.818H777.261V494.771H768.49V500.915H776.693V502.868H768.49V509.047H777.403V511H766.288ZM783.041 502.797V511H780.945V497.364H782.97V499.494H783.147C783.467 498.802 783.952 498.245 784.603 497.825C785.254 497.399 786.095 497.186 787.124 497.186C788.048 497.186 788.856 497.375 789.548 497.754C790.241 498.127 790.779 498.695 791.164 499.459C791.549 500.216 791.741 501.175 791.741 502.335V511H789.646V502.477C789.646 501.406 789.368 500.571 788.811 499.974C788.255 499.37 787.491 499.068 786.521 499.068C785.852 499.068 785.254 499.213 784.727 499.503C784.207 499.793 783.795 500.216 783.493 500.773C783.192 501.329 783.041 502.004 783.041 502.797ZM801.5 497.364V499.139H794.433V497.364H801.5ZM796.493 494.097H798.588V507.094C798.588 507.686 798.674 508.129 798.845 508.425C799.023 508.715 799.248 508.911 799.52 509.011C799.798 509.106 800.091 509.153 800.399 509.153C800.63 509.153 800.819 509.142 800.967 509.118C801.115 509.088 801.234 509.065 801.322 509.047L801.748 510.929C801.606 510.982 801.408 511.036 801.154 511.089C800.899 511.148 800.577 511.178 800.186 511.178C799.594 511.178 799.014 511.05 798.446 510.796C797.884 510.541 797.416 510.154 797.043 509.633C796.676 509.112 796.493 508.455 796.493 507.662V494.097ZM804.652 511V497.364H806.747V511H804.652ZM805.717 495.091C805.308 495.091 804.956 494.952 804.66 494.674C804.37 494.395 804.225 494.061 804.225 493.67C804.225 493.28 804.37 492.945 804.66 492.667C804.956 492.389 805.308 492.25 805.717 492.25C806.125 492.25 806.474 492.389 806.764 492.667C807.06 492.945 807.208 493.28 807.208 493.67C807.208 494.061 807.06 494.395 806.764 494.674C806.474 494.952 806.125 495.091 805.717 495.091ZM816.515 497.364V499.139H809.448V497.364H816.515ZM811.507 494.097H813.603V507.094C813.603 507.686 813.688 508.129 813.86 508.425C814.038 508.715 814.263 508.911 814.535 509.011C814.813 509.106 815.106 509.153 815.414 509.153C815.644 509.153 815.834 509.142 815.982 509.118C816.13 509.088 816.248 509.065 816.337 509.047L816.763 510.929C816.621 510.982 816.423 511.036 816.168 511.089C815.914 511.148 815.591 511.178 815.201 511.178C814.609 511.178 814.029 511.05 813.461 510.796C812.898 510.541 812.431 510.154 812.058 509.633C811.691 509.112 811.507 508.455 811.507 507.662V494.097ZM821.016 516.114C820.66 516.114 820.344 516.084 820.066 516.025C819.787 515.972 819.595 515.918 819.489 515.865L820.021 514.018C820.53 514.149 820.98 514.196 821.371 514.161C821.761 514.125 822.108 513.95 822.409 513.637C822.717 513.329 822.998 512.829 823.253 512.136L823.643 511.071L818.601 497.364H820.874L824.638 508.23H824.78L828.544 497.364H830.817L825.028 512.989C824.768 513.693 824.445 514.276 824.061 514.738C823.676 515.205 823.229 515.551 822.72 515.776C822.217 516.001 821.649 516.114 821.016 516.114ZM835.853 508.514L835.711 509.473C835.61 510.148 835.456 510.87 835.249 511.639C835.048 512.409 834.838 513.134 834.619 513.814C834.4 514.495 834.219 515.036 834.077 515.439H832.479C832.556 515.06 832.657 514.56 832.781 513.939C832.905 513.317 833.03 512.622 833.154 511.852C833.284 511.089 833.391 510.308 833.473 509.509L833.58 508.514H835.853ZM847.796 492.818L853.193 508.124H853.406L858.804 492.818H861.112L854.436 511H852.163L845.487 492.818H847.796ZM866.404 511.32C865.539 511.32 864.755 511.157 864.051 510.831C863.347 510.5 862.787 510.023 862.373 509.402C861.959 508.775 861.752 508.017 861.752 507.129C861.752 506.348 861.905 505.715 862.213 505.229C862.521 504.738 862.932 504.353 863.447 504.075C863.962 503.797 864.53 503.59 865.152 503.454C865.779 503.312 866.409 503.199 867.043 503.116C867.871 503.01 868.543 502.93 869.058 502.877C869.579 502.818 869.958 502.72 870.194 502.584C870.437 502.448 870.558 502.211 870.558 501.874V501.803C870.558 500.927 870.319 500.246 869.839 499.761C869.366 499.275 868.647 499.033 867.682 499.033C866.682 499.033 865.898 499.252 865.329 499.69C864.761 500.128 864.362 500.595 864.131 501.092L862.142 500.382C862.497 499.553 862.971 498.908 863.563 498.447C864.16 497.979 864.811 497.654 865.516 497.47C866.226 497.281 866.924 497.186 867.611 497.186C868.049 497.186 868.552 497.239 869.12 497.346C869.694 497.446 870.248 497.657 870.78 497.976C871.319 498.296 871.766 498.778 872.121 499.423C872.476 500.068 872.654 500.933 872.654 502.016V511H870.558V509.153H870.452C870.31 509.449 870.073 509.766 869.742 510.103C869.41 510.441 868.969 510.728 868.419 510.964C867.868 511.201 867.197 511.32 866.404 511.32ZM866.723 509.437C867.552 509.437 868.25 509.275 868.818 508.949C869.392 508.624 869.824 508.203 870.114 507.689C870.41 507.174 870.558 506.632 870.558 506.064V504.146C870.47 504.253 870.274 504.35 869.972 504.439C869.677 504.522 869.333 504.596 868.943 504.661C868.558 504.72 868.182 504.774 867.815 504.821C867.454 504.862 867.161 504.898 866.936 504.928C866.392 504.999 865.883 505.114 865.409 505.274C864.942 505.428 864.563 505.661 864.273 505.975C863.989 506.283 863.847 506.703 863.847 507.236C863.847 507.964 864.116 508.514 864.655 508.887C865.199 509.254 865.889 509.437 866.723 509.437ZM878.573 492.818V511H876.478V492.818H878.573ZM891.004 505.425V497.364H893.099V511H891.004V508.692H890.862C890.542 509.384 890.045 509.973 889.371 510.458C888.696 510.938 887.844 511.178 886.814 511.178C885.961 511.178 885.204 510.991 884.541 510.618C883.878 510.239 883.357 509.671 882.978 508.914C882.6 508.15 882.41 507.188 882.41 506.028V497.364H884.505V505.886C884.505 506.881 884.784 507.674 885.34 508.266C885.902 508.857 886.618 509.153 887.488 509.153C888.009 509.153 888.539 509.02 889.078 508.754C889.622 508.488 890.078 508.079 890.445 507.529C890.818 506.978 891.004 506.277 891.004 505.425ZM902.654 511.284C901.34 511.284 900.207 510.994 899.254 510.414C898.307 509.828 897.576 509.011 897.061 507.964C896.552 506.91 896.297 505.685 896.297 504.288C896.297 502.892 896.552 501.661 897.061 500.595C897.576 499.524 898.292 498.689 899.209 498.092C900.133 497.488 901.21 497.186 902.441 497.186C903.151 497.186 903.852 497.304 904.545 497.541C905.237 497.778 905.868 498.163 906.436 498.695C907.004 499.222 907.457 499.92 907.794 500.79C908.132 501.661 908.3 502.732 908.3 504.004V504.892H897.789V503.081H906.17C906.17 502.312 906.016 501.625 905.708 501.021C905.406 500.418 904.974 499.941 904.412 499.592C903.855 499.243 903.198 499.068 902.441 499.068C901.606 499.068 900.884 499.275 900.275 499.69C899.671 500.098 899.206 500.631 898.881 501.288C898.555 501.945 898.393 502.649 898.393 503.401V504.608C898.393 505.638 898.57 506.511 898.925 507.227C899.286 507.937 899.786 508.479 900.426 508.852C901.065 509.219 901.808 509.402 902.654 509.402C903.204 509.402 903.702 509.325 904.145 509.171C904.595 509.011 904.983 508.775 905.308 508.461C905.634 508.141 905.886 507.745 906.063 507.271L908.087 507.839C907.874 508.526 907.516 509.13 907.013 509.651C906.51 510.165 905.888 510.568 905.149 510.858C904.409 511.142 903.577 511.284 902.654 511.284ZM915.962 503.33C915.962 505.567 915.669 507.626 915.083 509.509C914.503 511.385 913.671 513.113 912.588 514.693H910.742C911.168 514.107 911.564 513.385 911.931 512.527C912.304 511.675 912.63 510.74 912.908 509.722C913.186 508.698 913.402 507.641 913.556 506.552C913.716 505.457 913.796 504.383 913.796 503.33C913.796 501.921 913.66 500.492 913.387 499.042C913.115 497.591 912.748 496.245 912.286 495.002C911.825 493.759 911.31 492.747 910.742 491.966H912.588C913.671 493.546 914.503 495.277 915.083 497.159C915.669 499.036 915.962 501.092 915.962 503.33Z" fill="white"/>
<path d="M50 244C50 235.163 57.1634 228 66 228H351C359.837 228 367 235.163 367 244V342C367 350.837 359.837 358 351 358H66C57.1635 358 50 350.837 50 342V244Z" fill="black" fill-opacity="0.2"/>
<path d="M156.823 271.909C156.674 270.65 156.069 269.672 155.009 268.976C153.948 268.28 152.647 267.932 151.106 267.932C149.979 267.932 148.993 268.114 148.148 268.479C147.311 268.843 146.656 269.345 146.184 269.983C145.72 270.621 145.488 271.346 145.488 272.158C145.488 272.837 145.65 273.421 145.973 273.91C146.304 274.391 146.727 274.793 147.24 275.116C147.754 275.431 148.293 275.692 148.856 275.899C149.42 276.098 149.937 276.259 150.41 276.384L152.995 277.08C153.658 277.254 154.395 277.494 155.207 277.8C156.028 278.107 156.811 278.525 157.556 279.056C158.31 279.578 158.932 280.249 159.421 281.069C159.91 281.89 160.154 282.896 160.154 284.089C160.154 285.465 159.794 286.708 159.073 287.818C158.36 288.929 157.316 289.811 155.941 290.466C154.574 291.12 152.912 291.447 150.957 291.447C149.134 291.447 147.555 291.153 146.221 290.565C144.895 289.977 143.851 289.156 143.089 288.104C142.335 287.052 141.908 285.83 141.809 284.437H144.991C145.074 285.399 145.397 286.194 145.96 286.824C146.532 287.445 147.253 287.909 148.123 288.216C149.001 288.514 149.946 288.663 150.957 288.663C152.133 288.663 153.19 288.473 154.126 288.092C155.062 287.702 155.804 287.164 156.351 286.476C156.898 285.78 157.171 284.968 157.171 284.04C157.171 283.195 156.935 282.507 156.463 281.977C155.99 281.446 155.369 281.015 154.598 280.684C153.828 280.353 152.995 280.062 152.1 279.814L148.968 278.919C146.979 278.347 145.405 277.531 144.245 276.471C143.085 275.41 142.505 274.022 142.505 272.307C142.505 270.882 142.89 269.639 143.661 268.578C144.44 267.509 145.484 266.681 146.793 266.092C148.11 265.496 149.581 265.197 151.205 265.197C152.846 265.197 154.304 265.492 155.58 266.08C156.856 266.66 157.867 267.455 158.613 268.466C159.367 269.477 159.765 270.625 159.806 271.909H156.823ZM185.705 273.5H182.623C182.44 272.613 182.121 271.835 181.666 271.163C181.218 270.492 180.671 269.929 180.025 269.473C179.387 269.009 178.678 268.661 177.9 268.429C177.121 268.197 176.309 268.081 175.464 268.081C173.922 268.081 172.526 268.47 171.275 269.249C170.032 270.028 169.042 271.176 168.304 272.692C167.575 274.208 167.211 276.069 167.211 278.273C167.211 280.477 167.575 282.337 168.304 283.853C169.042 285.37 170.032 286.517 171.275 287.296C172.526 288.075 173.922 288.464 175.464 288.464C176.309 288.464 177.121 288.348 177.9 288.116C178.678 287.884 179.387 287.541 180.025 287.085C180.671 286.621 181.218 286.053 181.666 285.382C182.121 284.703 182.44 283.924 182.623 283.045H185.705C185.473 284.346 185.05 285.511 184.437 286.538C183.824 287.565 183.062 288.44 182.15 289.161C181.239 289.873 180.216 290.416 179.08 290.789C177.953 291.162 176.748 291.348 175.464 291.348C173.293 291.348 171.362 290.818 169.672 289.757C167.981 288.696 166.651 287.188 165.682 285.233C164.712 283.277 164.228 280.957 164.228 278.273C164.228 275.588 164.712 273.268 165.682 271.312C166.651 269.357 167.981 267.849 169.672 266.788C171.362 265.728 173.293 265.197 175.464 265.197C176.748 265.197 177.953 265.384 179.08 265.757C180.216 266.13 181.239 266.676 182.15 267.397C183.062 268.11 183.824 268.98 184.437 270.007C185.05 271.027 185.473 272.191 185.705 273.5ZM190.686 291V265.545H199.287C201.275 265.545 202.908 265.885 204.184 266.565C205.46 267.236 206.404 268.16 207.018 269.336C207.631 270.513 207.937 271.851 207.937 273.351C207.937 274.851 207.631 276.181 207.018 277.341C206.404 278.501 205.464 279.412 204.196 280.075C202.928 280.73 201.309 281.057 199.336 281.057H192.376V278.273H199.237C200.596 278.273 201.69 278.074 202.518 277.676C203.355 277.278 203.96 276.715 204.333 275.986C204.714 275.248 204.905 274.37 204.905 273.351C204.905 272.332 204.714 271.441 204.333 270.679C203.952 269.916 203.343 269.328 202.506 268.914C201.669 268.491 200.563 268.28 199.187 268.28H193.768V291H190.686ZM202.667 279.565L208.932 291H205.352L199.187 279.565H202.667ZM213.074 291V265.545H228.436V268.28H216.156V276.881H227.64V279.615H216.156V288.266H228.635V291H213.074ZM233.992 291V265.545H249.354V268.28H237.074V276.881H248.558V279.615H237.074V288.266H249.553V291H233.992ZM275.094 265.545V291H272.111L258.24 271.014H257.992V291H254.91V265.545H257.892L271.813 285.581H272.062V265.545H275.094ZM102.24 311.909C102.24 309.672 102.53 307.615 103.11 305.739C103.695 303.857 104.53 302.126 105.613 300.545H107.46C107.034 301.131 106.634 301.853 106.261 302.712C105.894 303.564 105.572 304.502 105.294 305.526C105.015 306.544 104.796 307.597 104.637 308.686C104.483 309.775 104.406 310.85 104.406 311.909C104.406 313.318 104.542 314.747 104.814 316.197C105.086 317.647 105.453 318.994 105.915 320.237C106.377 321.479 106.892 322.491 107.46 323.273H105.613C104.53 321.692 103.695 319.964 103.11 318.088C102.53 316.206 102.24 314.146 102.24 311.909ZM111.581 302.818L116.979 318.124H117.192L122.59 302.818H124.898L118.222 321H115.949L109.273 302.818H111.581ZM127.446 321V307.364H129.541V321H127.446ZM128.511 305.091C128.103 305.091 127.751 304.952 127.455 304.674C127.165 304.395 127.02 304.061 127.02 303.67C127.02 303.28 127.165 302.945 127.455 302.667C127.751 302.389 128.103 302.25 128.511 302.25C128.92 302.25 129.269 302.389 129.559 302.667C129.855 302.945 130.003 303.28 130.003 303.67C130.003 304.061 129.855 304.395 129.559 304.674C129.269 304.952 128.92 305.091 128.511 305.091ZM139.096 321.284C137.782 321.284 136.649 320.994 135.696 320.414C134.749 319.828 134.018 319.011 133.503 317.964C132.994 316.91 132.739 315.685 132.739 314.288C132.739 312.892 132.994 311.661 133.503 310.595C134.018 309.524 134.734 308.689 135.651 308.092C136.575 307.488 137.652 307.186 138.883 307.186C139.593 307.186 140.294 307.304 140.987 307.541C141.679 307.778 142.31 308.163 142.878 308.695C143.446 309.222 143.899 309.92 144.236 310.79C144.574 311.661 144.742 312.732 144.742 314.004V314.892H134.231V313.081H142.612C142.612 312.312 142.458 311.625 142.15 311.021C141.848 310.418 141.416 309.941 140.854 309.592C140.297 309.243 139.64 309.068 138.883 309.068C138.048 309.068 137.326 309.275 136.717 309.69C136.113 310.098 135.648 310.631 135.323 311.288C134.997 311.945 134.835 312.649 134.835 313.401V314.608C134.835 315.638 135.012 316.511 135.367 317.227C135.728 317.937 136.228 318.479 136.868 318.852C137.507 319.219 138.25 319.402 139.096 319.402C139.646 319.402 140.143 319.325 140.587 319.171C141.037 319.011 141.425 318.775 141.75 318.461C142.076 318.141 142.327 317.745 142.505 317.271L144.529 317.839C144.316 318.526 143.958 319.13 143.455 319.651C142.952 320.165 142.33 320.568 141.591 320.858C140.851 321.142 140.019 321.284 139.096 321.284ZM151.019 321L146.864 307.364H149.066L152.013 317.804H152.155L155.067 307.364H157.304L160.181 317.768H160.323L163.27 307.364H165.472L161.317 321H159.257L156.274 310.524H156.061L153.078 321H151.019ZM169.511 318.514L169.369 319.473C169.269 320.148 169.115 320.87 168.908 321.639C168.706 322.409 168.496 323.134 168.277 323.814C168.058 324.495 167.878 325.036 167.736 325.439H166.138C166.215 325.06 166.315 324.56 166.44 323.939C166.564 323.317 166.688 322.622 166.812 321.852C166.943 321.089 167.049 320.308 167.132 319.509L167.239 318.514H169.511ZM181.454 302.818L186.852 318.124H187.065L192.463 302.818H194.771L188.095 321H185.822L179.146 302.818H181.454ZM197.319 321V307.364H199.414V321H197.319ZM198.384 305.091C197.976 305.091 197.624 304.952 197.328 304.674C197.038 304.395 196.893 304.061 196.893 303.67C196.893 303.28 197.038 302.945 197.328 302.667C197.624 302.389 197.976 302.25 198.384 302.25C198.793 302.25 199.142 302.389 199.432 302.667C199.728 302.945 199.876 303.28 199.876 303.67C199.876 304.061 199.728 304.395 199.432 304.674C199.142 304.952 198.793 305.091 198.384 305.091ZM208.969 321.284C207.655 321.284 206.522 320.994 205.569 320.414C204.622 319.828 203.891 319.011 203.376 317.964C202.867 316.91 202.612 315.685 202.612 314.288C202.612 312.892 202.867 311.661 203.376 310.595C203.891 309.524 204.607 308.689 205.524 308.092C206.448 307.488 207.525 307.186 208.756 307.186C209.466 307.186 210.167 307.304 210.86 307.541C211.552 307.778 212.183 308.163 212.751 308.695C213.319 309.222 213.772 309.92 214.109 310.79C214.447 311.661 214.615 312.732 214.615 314.004V314.892H204.104V313.081H212.485C212.485 312.312 212.331 311.625 212.023 311.021C211.721 310.418 211.289 309.941 210.727 309.592C210.17 309.243 209.513 309.068 208.756 309.068C207.921 309.068 207.199 309.275 206.59 309.69C205.986 310.098 205.521 310.631 205.196 311.288C204.87 311.945 204.708 312.649 204.708 313.401V314.608C204.708 315.638 204.885 316.511 205.24 317.227C205.601 317.937 206.101 318.479 206.741 318.852C207.38 319.219 208.123 319.402 208.969 319.402C209.519 319.402 210.017 319.325 210.46 319.171C210.91 319.011 211.298 318.775 211.623 318.461C211.949 318.141 212.2 317.745 212.378 317.271L214.402 317.839C214.189 318.526 213.831 319.13 213.328 319.651C212.825 320.165 212.203 320.568 211.464 320.858C210.724 321.142 209.892 321.284 208.969 321.284ZM220.892 321L216.737 307.364H218.939L221.886 317.804H222.028L224.94 307.364H227.177L230.054 317.768H230.196L233.143 307.364H235.345L231.19 321H229.13L226.148 310.524H225.934L222.952 321H220.892ZM238.399 302.818H241.027L247.206 317.911H247.419L253.598 302.818H256.226V321H254.166V307.186H253.988L248.307 321H246.318L240.636 307.186H240.459V321H238.399V302.818ZM265.896 321.284C264.665 321.284 263.585 320.991 262.655 320.405C261.732 319.819 261.01 319 260.489 317.946C259.974 316.893 259.717 315.661 259.717 314.253C259.717 312.832 259.974 311.592 260.489 310.533C261.01 309.474 261.732 308.651 262.655 308.065C263.585 307.479 264.665 307.186 265.896 307.186C267.127 307.186 268.204 307.479 269.127 308.065C270.057 308.651 270.779 309.474 271.294 310.533C271.814 311.592 272.075 312.832 272.075 314.253C272.075 315.661 271.814 316.893 271.294 317.946C270.779 319 270.057 319.819 269.127 320.405C268.204 320.991 267.127 321.284 265.896 321.284ZM265.896 319.402C266.831 319.402 267.6 319.162 268.204 318.683C268.808 318.203 269.255 317.573 269.545 316.792C269.835 316.011 269.98 315.164 269.98 314.253C269.98 313.341 269.835 312.492 269.545 311.705C269.255 310.918 268.808 310.281 268.204 309.796C267.6 309.311 266.831 309.068 265.896 309.068C264.961 309.068 264.191 309.311 263.588 309.796C262.984 310.281 262.537 310.918 262.247 311.705C261.957 312.492 261.812 313.341 261.812 314.253C261.812 315.164 261.957 316.011 262.247 316.792C262.537 317.573 262.984 318.203 263.588 318.683C264.191 319.162 264.961 319.402 265.896 319.402ZM280.422 321.284C279.286 321.284 278.283 320.997 277.413 320.423C276.543 319.843 275.862 319.026 275.371 317.973C274.879 316.913 274.634 315.661 274.634 314.217C274.634 312.785 274.879 311.542 275.371 310.489C275.862 309.435 276.546 308.621 277.422 308.047C278.297 307.473 279.31 307.186 280.458 307.186C281.346 307.186 282.047 307.334 282.562 307.63C283.083 307.92 283.479 308.251 283.751 308.624C284.03 308.991 284.246 309.293 284.399 309.53H284.577V302.818H286.672V321H284.648V318.905H284.399C284.246 319.153 284.027 319.467 283.743 319.846C283.458 320.219 283.053 320.553 282.526 320.849C282 321.139 281.298 321.284 280.422 321.284ZM280.706 319.402C281.547 319.402 282.257 319.183 282.837 318.745C283.417 318.301 283.858 317.689 284.16 316.907C284.462 316.12 284.613 315.212 284.613 314.182C284.613 313.164 284.465 312.273 284.169 311.51C283.873 310.74 283.435 310.142 282.855 309.716C282.275 309.284 281.559 309.068 280.706 309.068C279.819 309.068 279.079 309.296 278.487 309.752C277.901 310.202 277.46 310.814 277.164 311.589C276.874 312.359 276.729 313.223 276.729 314.182C276.729 315.152 276.877 316.034 277.173 316.827C277.475 317.615 277.919 318.242 278.505 318.71C279.096 319.171 279.83 319.402 280.706 319.402ZM296.518 321.284C295.204 321.284 294.07 320.994 293.118 320.414C292.171 319.828 291.44 319.011 290.925 317.964C290.416 316.91 290.161 315.685 290.161 314.288C290.161 312.892 290.416 311.661 290.925 310.595C291.44 309.524 292.156 308.689 293.073 308.092C293.996 307.488 295.074 307.186 296.305 307.186C297.015 307.186 297.716 307.304 298.409 307.541C299.101 307.778 299.732 308.163 300.3 308.695C300.868 309.222 301.321 309.92 301.658 310.79C301.995 311.661 302.164 312.732 302.164 314.004V314.892H291.653V313.081H300.033C300.033 312.312 299.879 311.625 299.572 311.021C299.27 310.418 298.838 309.941 298.276 309.592C297.719 309.243 297.062 309.068 296.305 309.068C295.47 309.068 294.748 309.275 294.138 309.69C293.535 310.098 293.07 310.631 292.745 311.288C292.419 311.945 292.256 312.649 292.256 313.401V314.608C292.256 315.638 292.434 316.511 292.789 317.227C293.15 317.937 293.65 318.479 294.289 318.852C294.929 319.219 295.671 319.402 296.518 319.402C297.068 319.402 297.565 319.325 298.009 319.171C298.459 319.011 298.847 318.775 299.172 318.461C299.498 318.141 299.749 317.745 299.927 317.271L301.951 317.839C301.738 318.526 301.38 319.13 300.877 319.651C300.374 320.165 299.752 320.568 299.012 320.858C298.273 321.142 297.441 321.284 296.518 321.284ZM307.446 302.818V321H305.351V302.818H307.446ZM315.758 313.33C315.758 315.567 315.465 317.626 314.879 319.509C314.299 321.385 313.468 323.113 312.385 324.693H310.538C310.964 324.107 311.361 323.385 311.728 322.527C312.101 321.675 312.426 320.74 312.704 319.722C312.982 318.698 313.198 317.641 313.352 316.552C313.512 315.457 313.592 314.383 313.592 313.33C313.592 311.921 313.456 310.492 313.184 309.042C312.911 307.591 312.544 306.245 312.083 305.002C311.621 303.759 311.106 302.747 310.538 301.966H312.385C313.468 303.546 314.299 305.277 314.879 307.159C315.465 309.036 315.758 311.092 315.758 313.33Z" fill="white"/>
<path d="M50 624.458C50 615.621 57.1634 608.458 66 608.458H351C359.837 608.458 367 615.621 367 624.458V652C367 660.837 359.837 668 351 668H66C57.1635 668 50 660.837 50 652V624.458Z" fill="black" fill-opacity="0.2"/>
<path d="M171.948 630.909C171.799 629.65 171.194 628.672 170.133 627.976C169.072 627.28 167.772 626.932 166.23 626.932C165.103 626.932 164.117 627.114 163.272 627.479C162.435 627.843 161.781 628.345 161.308 628.983C160.844 629.621 160.612 630.346 160.612 631.158C160.612 631.837 160.774 632.421 161.097 632.91C161.429 633.391 161.851 633.793 162.365 634.116C162.879 634.431 163.417 634.692 163.981 634.899C164.544 635.098 165.062 635.259 165.534 635.384L168.12 636.08C168.782 636.254 169.52 636.494 170.332 636.8C171.152 637.107 171.935 637.525 172.681 638.056C173.435 638.578 174.056 639.249 174.545 640.069C175.034 640.89 175.279 641.896 175.279 643.089C175.279 644.465 174.918 645.708 174.197 646.818C173.485 647.929 172.441 648.811 171.065 649.466C169.698 650.12 168.037 650.447 166.081 650.447C164.258 650.447 162.68 650.153 161.346 649.565C160.02 648.977 158.976 648.156 158.214 647.104C157.46 646.052 157.033 644.83 156.933 643.437H160.115C160.198 644.399 160.521 645.194 161.085 645.824C161.656 646.445 162.377 646.909 163.247 647.216C164.126 647.514 165.07 647.663 166.081 647.663C167.258 647.663 168.314 647.473 169.251 647.092C170.187 646.702 170.928 646.164 171.475 645.476C172.022 644.78 172.296 643.968 172.296 643.04C172.296 642.195 172.06 641.507 171.587 640.977C171.115 640.446 170.493 640.015 169.723 639.684C168.952 639.353 168.12 639.062 167.225 638.814L164.093 637.919C162.104 637.347 160.53 636.531 159.37 635.471C158.209 634.41 157.629 633.022 157.629 631.307C157.629 629.882 158.015 628.639 158.785 627.578C159.564 626.509 160.608 625.681 161.917 625.092C163.235 624.496 164.706 624.197 166.33 624.197C167.97 624.197 169.429 624.492 170.705 625.08C171.981 625.66 172.992 626.455 173.737 627.466C174.491 628.477 174.889 629.625 174.931 630.909H171.948ZM180.347 650V624.545H183.429V635.881H197.001V624.545H200.084V650H197.001V638.615H183.429V650H180.347ZM227.732 637.273C227.732 639.957 227.247 642.277 226.278 644.233C225.308 646.188 223.978 647.696 222.288 648.757C220.598 649.818 218.667 650.348 216.496 650.348C214.325 650.348 212.395 649.818 210.704 648.757C209.014 647.696 207.684 646.188 206.715 644.233C205.745 642.277 205.26 639.957 205.26 637.273C205.26 634.588 205.745 632.268 206.715 630.312C207.684 628.357 209.014 626.849 210.704 625.788C212.395 624.728 214.325 624.197 216.496 624.197C218.667 624.197 220.598 624.728 222.288 625.788C223.978 626.849 225.308 628.357 226.278 630.312C227.247 632.268 227.732 634.588 227.732 637.273ZM224.749 637.273C224.749 635.069 224.38 633.208 223.643 631.692C222.914 630.176 221.924 629.028 220.672 628.249C219.429 627.47 218.037 627.081 216.496 627.081C214.955 627.081 213.559 627.47 212.308 628.249C211.065 629.028 210.075 630.176 209.337 631.692C208.608 633.208 208.243 635.069 208.243 637.273C208.243 639.477 208.608 641.337 209.337 642.853C210.075 644.37 211.065 645.517 212.308 646.296C213.559 647.075 214.955 647.464 216.496 647.464C218.037 647.464 219.429 647.075 220.672 646.296C221.924 645.517 222.914 644.37 223.643 642.853C224.38 641.337 224.749 639.477 224.749 637.273ZM237.538 650L230.578 624.545H233.71L239.03 645.277H239.279L244.698 624.545H248.178L253.597 645.277H253.845L259.165 624.545H262.297L255.337 650H252.155L246.537 629.716H246.338L240.72 650H237.538Z" fill="white"/>
<path d="M642 624.458C642 615.621 649.163 608.458 658 608.458H943C951.837 608.458 959 615.621 959 624.458V652C959 660.837 951.837 668 943 668H658C649.163 668 642 660.837 642 652V624.458Z" fill="#007AFF"/>
<path d="M782.113 624.545H785.195V641.399C785.195 643.139 784.785 644.693 783.965 646.06C783.153 647.419 782.005 648.492 780.522 649.279C779.039 650.058 777.298 650.447 775.302 650.447C773.305 650.447 771.565 650.058 770.081 649.279C768.598 648.492 767.446 647.419 766.626 646.06C765.814 644.693 765.408 643.139 765.408 641.399V624.545H768.49V641.151C768.49 642.393 768.764 643.5 769.311 644.469C769.858 645.43 770.637 646.188 771.647 646.744C772.667 647.29 773.885 647.564 775.302 647.564C776.718 647.564 777.936 647.29 778.956 646.744C779.975 646.188 780.754 645.43 781.292 644.469C781.839 643.5 782.113 642.393 782.113 641.151V624.545ZM789.958 627.28V624.545H809.049V627.28H801.045V650H797.963V627.28H789.958ZM816.889 624.545V650H813.807V624.545H816.889ZM823.069 650V624.545H826.152V647.266H837.984V650H823.069Z" fill="white"/>
<path d="M1234 624.458C1234 615.621 1241.16 608.458 1250 608.458H1535C1543.84 608.458 1551 615.621 1551 624.458V652C1551 660.837 1543.84 668 1535 668H1250C1241.16 668 1234 660.837 1234 652V624.458Z" fill="#32ADE6"/>
<path d="M1367 632.5C1366.73 631.663 1366.36 630.913 1365.92 630.25C1365.48 629.579 1364.95 629.007 1364.34 628.535C1363.73 628.063 1363.05 627.702 1362.28 627.454C1361.5 627.205 1360.66 627.081 1359.74 627.081C1358.23 627.081 1356.86 627.47 1355.63 628.249C1354.39 629.028 1353.41 630.176 1352.68 631.692C1351.95 633.208 1351.59 635.069 1351.59 637.273C1351.59 639.477 1351.96 641.337 1352.69 642.853C1353.43 644.37 1354.43 645.517 1355.69 646.296C1356.95 647.075 1358.36 647.464 1359.94 647.464C1361.4 647.464 1362.68 647.154 1363.79 646.532C1364.91 645.903 1365.78 645.016 1366.4 643.873C1367.03 642.721 1367.35 641.366 1367.35 639.808L1368.29 640.007H1360.63V637.273H1370.33V640.007C1370.33 642.103 1369.88 643.926 1368.99 645.476C1368.1 647.025 1366.87 648.227 1365.31 649.08C1363.75 649.925 1361.96 650.348 1359.94 650.348C1357.69 650.348 1355.7 649.818 1354 648.757C1352.3 647.696 1350.97 646.188 1350.02 644.233C1349.08 642.277 1348.6 639.957 1348.6 637.273C1348.6 635.259 1348.87 633.449 1349.41 631.841C1349.96 630.225 1350.73 628.85 1351.72 627.715C1352.72 626.58 1353.89 625.71 1355.25 625.105C1356.61 624.5 1358.11 624.197 1359.74 624.197C1361.08 624.197 1362.33 624.4 1363.49 624.806C1364.66 625.204 1365.7 625.772 1366.61 626.509C1367.53 627.238 1368.3 628.113 1368.91 629.132C1369.53 630.143 1369.95 631.265 1370.18 632.5H1367ZM1375.61 650V624.545H1390.97V627.28H1378.69V635.881H1390.18V638.615H1378.69V647.266H1391.17V650H1375.61ZM1397.57 650H1394.34L1403.69 624.545H1406.87L1416.21 650H1412.98L1405.38 628.572H1405.18L1397.57 650ZM1398.76 640.057H1411.79V642.791H1398.76V640.057ZM1420.18 650V624.545H1428.78C1430.77 624.545 1432.4 624.885 1433.68 625.565C1434.95 626.236 1435.9 627.16 1436.51 628.336C1437.12 629.513 1437.43 630.851 1437.43 632.351C1437.43 633.851 1437.12 635.181 1436.51 636.341C1435.9 637.501 1434.96 638.412 1433.69 639.075C1432.42 639.73 1430.8 640.057 1428.83 640.057H1421.87V637.273H1428.73C1430.09 637.273 1431.18 637.074 1432.01 636.676C1432.85 636.278 1433.45 635.715 1433.83 634.986C1434.21 634.248 1434.4 633.37 1434.4 632.351C1434.4 631.332 1434.21 630.441 1433.83 629.679C1433.44 628.916 1432.84 628.328 1432 627.914C1431.16 627.491 1430.06 627.28 1428.68 627.28H1423.26V650H1420.18ZM1432.16 638.565L1438.42 650H1434.85L1428.68 638.565H1432.16Z" fill="white"/>
<path d="M1234 244C1234 235.163 1241.16 228 1250 228H1535C1543.84 228 1551 235.163 1551 244V342C1551 350.837 1543.84 358 1535 358H1250C1241.16 358 1234 350.837 1234 342V244Z" fill="#FF2D55"/>
<path d="M1327.6 291L1320.64 265.545H1323.77L1329.09 286.277H1329.34L1334.76 265.545H1338.24L1343.66 286.277H1343.91L1349.23 265.545H1352.36L1345.4 291H1342.22L1336.6 270.716H1336.4L1330.78 291H1327.6ZM1376.48 278.273C1376.48 280.957 1376 283.277 1375.03 285.233C1374.06 287.188 1372.73 288.696 1371.04 289.757C1369.35 290.818 1367.42 291.348 1365.24 291.348C1363.07 291.348 1361.14 290.818 1359.45 289.757C1357.76 288.696 1356.43 287.188 1355.46 285.233C1354.49 283.277 1354.01 280.957 1354.01 278.273C1354.01 275.588 1354.49 273.268 1355.46 271.312C1356.43 269.357 1357.76 267.849 1359.45 266.788C1361.14 265.728 1363.07 265.197 1365.24 265.197C1367.42 265.197 1369.35 265.728 1371.04 266.788C1372.73 267.849 1374.06 269.357 1375.03 271.312C1376 273.268 1376.48 275.588 1376.48 278.273ZM1373.5 278.273C1373.5 276.069 1373.13 274.208 1372.39 272.692C1371.66 271.176 1370.67 270.028 1369.42 269.249C1368.18 268.47 1366.79 268.081 1365.24 268.081C1363.7 268.081 1362.31 268.47 1361.06 269.249C1359.81 270.028 1358.82 271.176 1358.09 272.692C1357.36 274.208 1356.99 276.069 1356.99 278.273C1356.99 280.477 1357.36 282.337 1358.09 283.853C1358.82 285.37 1359.81 286.517 1361.06 287.296C1362.31 288.075 1363.7 288.464 1365.24 288.464C1366.79 288.464 1368.18 288.075 1369.42 287.296C1370.67 286.517 1371.66 285.37 1372.39 283.853C1373.13 282.337 1373.5 280.477 1373.5 278.273ZM1381.66 291V265.545H1390.26C1392.25 265.545 1393.88 265.885 1395.16 266.565C1396.44 267.236 1397.38 268.16 1397.99 269.336C1398.61 270.513 1398.91 271.851 1398.91 273.351C1398.91 274.851 1398.61 276.181 1397.99 277.341C1397.38 278.501 1396.44 279.412 1395.17 280.075C1393.91 280.73 1392.29 281.057 1390.31 281.057H1383.35V278.273H1390.21C1391.57 278.273 1392.67 278.074 1393.5 277.676C1394.33 277.278 1394.94 276.715 1395.31 275.986C1395.69 275.248 1395.88 274.37 1395.88 273.351C1395.88 272.332 1395.69 271.441 1395.31 270.679C1394.93 269.916 1394.32 269.328 1393.48 268.914C1392.65 268.491 1391.54 268.28 1390.16 268.28H1384.75V291H1381.66ZM1393.64 279.565L1399.91 291H1396.33L1390.16 279.565H1393.64ZM1404.05 291V265.545H1407.13V278.173H1407.43L1418.87 265.545H1422.89L1412.2 277.03L1422.89 291H1419.16L1410.31 279.168L1407.13 282.747V291H1404.05ZM1426.88 291V265.545H1442.24V268.28H1429.97V276.881H1441.45V279.615H1429.97V288.266H1442.44V291H1426.88ZM1447.8 291V265.545H1456.4C1458.39 265.545 1460.02 265.885 1461.3 266.565C1462.57 267.236 1463.52 268.16 1464.13 269.336C1464.75 270.513 1465.05 271.851 1465.05 273.351C1465.05 274.851 1464.75 276.181 1464.13 277.341C1463.52 278.501 1462.58 279.412 1461.31 280.075C1460.04 280.73 1458.42 281.057 1456.45 281.057H1449.49V278.273H1456.35C1457.71 278.273 1458.8 278.074 1459.63 277.676C1460.47 277.278 1461.07 276.715 1461.45 275.986C1461.83 275.248 1462.02 274.37 1462.02 273.351C1462.02 272.332 1461.83 271.441 1461.45 270.679C1461.07 269.916 1460.46 269.328 1459.62 268.914C1458.78 268.491 1457.68 268.28 1456.3 268.28H1450.88V291H1447.8ZM1459.78 279.565L1466.05 291H1462.47L1456.3 279.565H1459.78ZM1327.07 313.33C1327.07 311.092 1327.36 309.036 1327.94 307.159C1328.53 305.277 1329.36 303.546 1330.45 301.966H1332.29C1331.87 302.552 1331.47 303.274 1331.09 304.132C1330.73 304.984 1330.4 305.922 1330.13 306.946C1329.85 307.964 1329.63 309.018 1329.47 310.107C1329.31 311.196 1329.24 312.27 1329.24 313.33C1329.24 314.738 1329.37 316.167 1329.65 317.618C1329.92 319.068 1330.29 320.414 1330.75 321.657C1331.21 322.9 1331.72 323.912 1332.29 324.693H1330.45C1329.36 323.113 1328.53 321.385 1327.94 319.509C1327.36 317.626 1327.07 315.567 1327.07 313.33ZM1335.38 321V307.364H1337.41V309.423H1337.55C1337.8 308.749 1338.25 308.201 1338.9 307.781C1339.55 307.361 1340.28 307.151 1341.1 307.151C1341.25 307.151 1341.45 307.154 1341.68 307.159C1341.91 307.165 1342.08 307.174 1342.2 307.186V309.317C1342.13 309.299 1341.97 309.272 1341.71 309.237C1341.46 309.195 1341.2 309.175 1340.92 309.175C1340.26 309.175 1339.67 309.314 1339.15 309.592C1338.63 309.864 1338.22 310.243 1337.92 310.728C1337.63 311.208 1337.48 311.755 1337.48 312.371V321H1335.38ZM1349.99 321.284C1348.67 321.284 1347.54 320.994 1346.59 320.414C1345.64 319.828 1344.91 319.011 1344.39 317.964C1343.89 316.91 1343.63 315.685 1343.63 314.288C1343.63 312.892 1343.89 311.661 1344.39 310.595C1344.91 309.524 1345.63 308.689 1346.54 308.092C1347.47 307.488 1348.54 307.186 1349.77 307.186C1350.48 307.186 1351.19 307.304 1351.88 307.541C1352.57 307.778 1353.2 308.163 1353.77 308.695C1354.34 309.222 1354.79 309.92 1355.13 310.79C1355.47 311.661 1355.63 312.732 1355.63 314.004V314.892H1345.12V313.081H1353.5C1353.5 312.312 1353.35 311.625 1353.04 311.021C1352.74 310.418 1352.31 309.941 1351.75 309.592C1351.19 309.243 1350.53 309.068 1349.77 309.068C1348.94 309.068 1348.22 309.275 1347.61 309.69C1347 310.098 1346.54 310.631 1346.21 311.288C1345.89 311.945 1345.73 312.649 1345.73 313.401V314.608C1345.73 315.638 1345.9 316.511 1346.26 317.227C1346.62 317.937 1347.12 318.479 1347.76 318.852C1348.4 319.219 1349.14 319.402 1349.99 319.402C1350.54 319.402 1351.04 319.325 1351.48 319.171C1351.93 319.011 1352.32 318.775 1352.64 318.461C1352.97 318.141 1353.22 317.745 1353.4 317.271L1355.42 317.839C1355.21 318.526 1354.85 319.13 1354.35 319.651C1353.84 320.165 1353.22 320.568 1352.48 320.858C1351.74 321.142 1350.91 321.284 1349.99 321.284ZM1358.82 326.114V307.364H1360.85V309.53H1361.09C1361.25 309.293 1361.46 308.991 1361.73 308.624C1362.01 308.251 1362.41 307.92 1362.92 307.63C1363.44 307.334 1364.15 307.186 1365.04 307.186C1366.18 307.186 1367.2 307.473 1368.07 308.047C1368.95 308.621 1369.63 309.435 1370.12 310.489C1370.61 311.542 1370.86 312.785 1370.86 314.217C1370.86 315.661 1370.61 316.913 1370.12 317.973C1369.63 319.026 1368.95 319.843 1368.08 320.423C1367.21 320.997 1366.21 321.284 1365.07 321.284C1364.19 321.284 1363.49 321.139 1362.97 320.849C1362.44 320.553 1362.03 320.219 1361.75 319.846C1361.47 319.467 1361.25 319.153 1361.09 318.905H1360.92V326.114H1358.82ZM1360.88 314.182C1360.88 315.212 1361.03 316.12 1361.33 316.907C1361.64 317.689 1362.08 318.301 1362.66 318.745C1363.24 319.183 1363.95 319.402 1364.79 319.402C1365.66 319.402 1366.39 319.171 1366.98 318.71C1367.57 318.242 1368.02 317.615 1368.31 316.827C1368.61 316.034 1368.76 315.152 1368.76 314.182C1368.76 313.223 1368.62 312.359 1368.32 311.589C1368.03 310.814 1367.59 310.202 1367 309.752C1366.41 309.296 1365.67 309.068 1364.79 309.068C1363.93 309.068 1363.22 309.284 1362.64 309.716C1362.06 310.142 1361.62 310.74 1361.32 311.51C1361.03 312.273 1360.88 313.164 1360.88 314.182ZM1379.6 321.284C1378.36 321.284 1377.28 320.991 1376.35 320.405C1375.43 319.819 1374.71 319 1374.19 317.946C1373.67 316.893 1373.42 315.661 1373.42 314.253C1373.42 312.832 1373.67 311.592 1374.19 310.533C1374.71 309.474 1375.43 308.651 1376.35 308.065C1377.28 307.479 1378.36 307.186 1379.6 307.186C1380.83 307.186 1381.9 307.479 1382.83 308.065C1383.76 308.651 1384.48 309.474 1384.99 310.533C1385.51 311.592 1385.77 312.832 1385.77 314.253C1385.77 315.661 1385.51 316.893 1384.99 317.946C1384.48 319 1383.76 319.819 1382.83 320.405C1381.9 320.991 1380.83 321.284 1379.6 321.284ZM1379.6 319.402C1380.53 319.402 1381.3 319.162 1381.9 318.683C1382.51 318.203 1382.95 317.573 1383.24 316.792C1383.53 316.011 1383.68 315.164 1383.68 314.253C1383.68 313.341 1383.53 312.492 1383.24 311.705C1382.95 310.918 1382.51 310.281 1381.9 309.796C1381.3 309.311 1380.53 309.068 1379.6 309.068C1378.66 309.068 1377.89 309.311 1377.29 309.796C1376.68 310.281 1376.24 310.918 1375.95 311.705C1375.66 312.492 1375.51 313.341 1375.51 314.253C1375.51 315.164 1375.66 316.011 1375.95 316.792C1376.24 317.573 1376.68 318.203 1377.29 318.683C1377.89 319.162 1378.66 319.402 1379.6 319.402ZM1398.63 310.418L1396.75 310.95C1396.63 310.637 1396.46 310.332 1396.23 310.036C1396 309.734 1395.69 309.485 1395.3 309.29C1394.91 309.095 1394.41 308.997 1393.8 308.997C1392.97 308.997 1392.27 309.19 1391.72 309.574C1391.17 309.953 1390.89 310.435 1390.89 311.021C1390.89 311.542 1391.08 311.953 1391.46 312.255C1391.84 312.557 1392.43 312.809 1393.23 313.01L1395.26 313.507C1396.48 313.803 1397.39 314.256 1397.98 314.865C1398.58 315.469 1398.88 316.247 1398.88 317.2C1398.88 317.982 1398.66 318.68 1398.21 319.295C1397.76 319.911 1397.14 320.396 1396.34 320.751C1395.54 321.107 1394.61 321.284 1393.55 321.284C1392.16 321.284 1391.01 320.982 1390.1 320.379C1389.19 319.775 1388.61 318.893 1388.37 317.733L1390.36 317.236C1390.55 317.97 1390.9 318.52 1391.43 318.887C1391.96 319.254 1392.66 319.437 1393.52 319.437C1394.49 319.437 1395.27 319.23 1395.84 318.816C1396.42 318.396 1396.71 317.893 1396.71 317.307C1396.71 316.833 1396.55 316.437 1396.22 316.117C1395.89 315.792 1395.38 315.549 1394.69 315.389L1392.42 314.857C1391.17 314.561 1390.25 314.102 1389.66 313.48C1389.08 312.853 1388.79 312.069 1388.79 311.128C1388.79 310.358 1389.01 309.678 1389.44 309.086C1389.88 308.494 1390.48 308.029 1391.23 307.692C1391.98 307.355 1392.84 307.186 1393.8 307.186C1395.15 307.186 1396.21 307.482 1396.98 308.074C1397.76 308.666 1398.31 309.447 1398.63 310.418ZM1402.03 321V307.364H1404.13V321H1402.03ZM1403.1 305.091C1402.69 305.091 1402.34 304.952 1402.04 304.674C1401.75 304.395 1401.61 304.061 1401.61 303.67C1401.61 303.28 1401.75 302.945 1402.04 302.667C1402.34 302.389 1402.69 302.25 1403.1 302.25C1403.51 302.25 1403.86 302.389 1404.15 302.667C1404.44 302.945 1404.59 303.28 1404.59 303.67C1404.59 304.061 1404.44 304.395 1404.15 304.674C1403.86 304.952 1403.51 305.091 1403.1 305.091ZM1413.9 307.364V309.139H1406.83V307.364H1413.9ZM1408.89 304.097H1410.98V317.094C1410.98 317.686 1411.07 318.129 1411.24 318.425C1411.42 318.715 1411.64 318.911 1411.92 319.011C1412.2 319.106 1412.49 319.153 1412.8 319.153C1413.03 319.153 1413.22 319.142 1413.36 319.118C1413.51 319.088 1413.63 319.065 1413.72 319.047L1414.15 320.929C1414 320.982 1413.81 321.036 1413.55 321.089C1413.3 321.148 1412.97 321.178 1412.58 321.178C1411.99 321.178 1411.41 321.05 1410.84 320.796C1410.28 320.541 1409.81 320.154 1409.44 319.633C1409.07 319.112 1408.89 318.455 1408.89 317.662V304.097ZM1422.44 321.284C1421.21 321.284 1420.13 320.991 1419.2 320.405C1418.28 319.819 1417.56 319 1417.04 317.946C1416.52 316.893 1416.26 315.661 1416.26 314.253C1416.26 312.832 1416.52 311.592 1417.04 310.533C1417.56 309.474 1418.28 308.651 1419.2 308.065C1420.13 307.479 1421.21 307.186 1422.44 307.186C1423.67 307.186 1424.75 307.479 1425.67 308.065C1426.6 308.651 1427.32 309.474 1427.84 310.533C1428.36 311.592 1428.62 312.832 1428.62 314.253C1428.62 315.661 1428.36 316.893 1427.84 317.946C1427.32 319 1426.6 319.819 1425.67 320.405C1424.75 320.991 1423.67 321.284 1422.44 321.284ZM1422.44 319.402C1423.38 319.402 1424.15 319.162 1424.75 318.683C1425.35 318.203 1425.8 317.573 1426.09 316.792C1426.38 316.011 1426.53 315.164 1426.53 314.253C1426.53 313.341 1426.38 312.492 1426.09 311.705C1425.8 310.918 1425.35 310.281 1424.75 309.796C1424.15 309.311 1423.38 309.068 1422.44 309.068C1421.51 309.068 1420.74 309.311 1420.13 309.796C1419.53 310.281 1419.08 310.918 1418.79 311.705C1418.5 312.492 1418.36 313.341 1418.36 314.253C1418.36 315.164 1418.5 316.011 1418.79 316.792C1419.08 317.573 1419.53 318.203 1420.13 318.683C1420.74 319.162 1421.51 319.402 1422.44 319.402ZM1431.82 321V307.364H1433.84V309.423H1433.99C1434.23 308.749 1434.68 308.201 1435.33 307.781C1435.99 307.361 1436.72 307.151 1437.54 307.151C1437.69 307.151 1437.88 307.154 1438.11 307.159C1438.34 307.165 1438.52 307.174 1438.64 307.186V309.317C1438.57 309.299 1438.4 309.272 1438.15 309.237C1437.9 309.195 1437.64 309.175 1437.36 309.175C1436.7 309.175 1436.1 309.314 1435.58 309.592C1435.07 309.864 1434.66 310.243 1434.36 310.728C1434.06 311.208 1433.91 311.755 1433.91 312.371V321H1431.82ZM1442.89 326.114C1442.53 326.114 1442.21 326.084 1441.94 326.025C1441.66 325.972 1441.46 325.918 1441.36 325.865L1441.89 324.018C1442.4 324.149 1442.85 324.196 1443.24 324.161C1443.63 324.125 1443.98 323.95 1444.28 323.637C1444.59 323.329 1444.87 322.829 1445.12 322.136L1445.51 321.071L1440.47 307.364H1442.74L1446.51 318.23H1446.65L1450.41 307.364H1452.69L1446.9 322.989C1446.64 323.693 1446.32 324.276 1445.93 324.738C1445.55 325.205 1445.1 325.551 1444.59 325.776C1444.09 326.001 1443.52 326.114 1442.89 326.114ZM1459.93 313.33C1459.93 315.567 1459.63 317.626 1459.05 319.509C1458.47 321.385 1457.64 323.113 1456.55 324.693H1454.71C1455.13 324.107 1455.53 323.385 1455.9 322.527C1456.27 321.675 1456.59 320.74 1456.87 319.722C1457.15 318.698 1457.37 317.641 1457.52 316.552C1457.68 315.457 1457.76 314.383 1457.76 313.33C1457.76 311.921 1457.62 310.492 1457.35 309.042C1457.08 307.591 1456.71 306.245 1456.25 305.002C1455.79 303.759 1455.27 302.747 1454.71 301.966H1456.55C1457.64 303.546 1458.47 305.277 1459.05 307.159C1459.63 309.036 1459.93 311.092 1459.93 313.33Z" fill="white"/>
<path d="M1037.23 291.232C1036.26 292.209 1036.26 293.791 1037.23 294.768L1053.14 310.678C1054.12 311.654 1055.7 311.654 1056.68 310.678C1057.65 309.701 1057.65 308.118 1056.68 307.142L1042.54 293L1056.68 278.858C1057.65 277.882 1057.65 276.299 1056.68 275.322C1055.7 274.346 1054.12 274.346 1053.14 275.322L1037.23 291.232ZM1159 290.5H1039V295.5H1159V290.5Z" fill="#999999" fill-opacity="0.5"/>
<path d="M1037.23 636.232C1036.26 637.209 1036.26 638.791 1037.23 639.768L1053.14 655.678C1054.12 656.654 1055.7 656.654 1056.68 655.678C1057.65 654.701 1057.65 653.118 1056.68 652.142L1042.54 638L1056.68 623.858C1057.65 622.882 1057.65 621.299 1056.68 620.322C1055.7 619.346 1054.12 619.346 1053.14 620.322L1037.23 636.232ZM1159 635.5H1039V640.5H1159V635.5Z" fill="#999999" fill-opacity="0.5"/>
<path d="M1057.96 256L1052 234.182H1054.68L1059.24 251.952H1059.45L1064.1 234.182H1067.08L1071.73 251.952H1071.94L1076.5 234.182H1079.19L1073.22 256H1070.49L1065.68 238.614H1065.51L1060.69 256H1057.96ZM1087.26 256.341C1085.78 256.341 1084.49 255.989 1083.37 255.286C1082.26 254.583 1081.4 253.599 1080.77 252.335C1080.15 251.071 1079.85 249.594 1079.85 247.903C1079.85 246.199 1080.15 244.711 1080.77 243.44C1081.4 242.168 1082.26 241.181 1083.37 240.478C1084.49 239.775 1085.78 239.423 1087.26 239.423C1088.74 239.423 1090.03 239.775 1091.14 240.478C1092.25 241.181 1093.12 242.168 1093.74 243.44C1094.36 244.711 1094.68 246.199 1094.68 247.903C1094.68 249.594 1094.36 251.071 1093.74 252.335C1093.12 253.599 1092.25 254.583 1091.14 255.286C1090.03 255.989 1088.74 256.341 1087.26 256.341ZM1087.26 254.082C1088.38 254.082 1089.31 253.795 1090.03 253.219C1090.75 252.644 1091.29 251.888 1091.64 250.95C1091.99 250.013 1092.16 248.997 1092.16 247.903C1092.16 246.81 1091.99 245.79 1091.64 244.846C1091.29 243.901 1090.75 243.138 1090.03 242.555C1089.31 241.973 1088.38 241.682 1087.26 241.682C1086.14 241.682 1085.21 241.973 1084.49 242.555C1083.77 243.138 1083.23 243.901 1082.88 244.846C1082.53 245.79 1082.36 246.81 1082.36 247.903C1082.36 248.997 1082.53 250.013 1082.88 250.95C1083.23 251.888 1083.77 252.644 1084.49 253.219C1085.21 253.795 1086.14 254.082 1087.26 254.082ZM1098.51 256V239.636H1100.94V242.108H1101.11C1101.41 241.298 1101.95 240.641 1102.73 240.137C1103.51 239.633 1104.39 239.381 1105.37 239.381C1105.56 239.381 1105.79 239.384 1106.07 239.391C1106.34 239.398 1106.55 239.409 1106.69 239.423V241.98C1106.61 241.959 1106.41 241.927 1106.11 241.884C1105.81 241.835 1105.49 241.81 1105.16 241.81C1104.37 241.81 1103.66 241.977 1103.03 242.31C1102.41 242.637 1101.92 243.092 1101.56 243.674C1101.2 244.249 1101.03 244.906 1101.03 245.645V256H1098.51ZM1112.02 250.034L1111.98 246.923H1112.49L1119.65 239.636H1122.76L1115.13 247.349H1114.92L1112.02 250.034ZM1109.68 256V234.182H1112.19V256H1109.68ZM1120.07 256L1113.68 247.903L1115.47 246.156L1123.27 256H1120.07ZM1125.99 256V239.636H1128.51V256H1125.99ZM1127.27 236.909C1126.78 236.909 1126.36 236.742 1126 236.408C1125.66 236.075 1125.48 235.673 1125.48 235.205C1125.48 234.736 1125.66 234.335 1126 234.001C1126.36 233.667 1126.78 233.5 1127.27 233.5C1127.76 233.5 1128.18 233.667 1128.53 234.001C1128.88 234.335 1129.06 234.736 1129.06 235.205C1129.06 235.673 1128.88 236.075 1128.53 236.408C1128.18 236.742 1127.76 236.909 1127.27 236.909ZM1135.63 246.156V256H1133.11V239.636H1135.54V242.193H1135.75C1136.14 241.362 1136.72 240.695 1137.5 240.19C1138.28 239.679 1139.29 239.423 1140.53 239.423C1141.64 239.423 1142.6 239.651 1143.44 240.105C1144.27 240.553 1144.91 241.234 1145.37 242.151C1145.84 243.06 1146.07 244.21 1146.07 245.602V256H1143.55V245.773C1143.55 244.487 1143.22 243.486 1142.55 242.768C1141.88 242.044 1140.97 241.682 1139.8 241.682C1139 241.682 1138.28 241.856 1137.65 242.204C1137.03 242.552 1136.53 243.06 1136.17 243.727C1135.81 244.395 1135.63 245.205 1135.63 246.156ZM1157.27 262.477C1156.05 262.477 1155.01 262.321 1154.13 262.009C1153.26 261.703 1152.53 261.298 1151.95 260.794C1151.38 260.297 1150.92 259.764 1150.58 259.196L1152.58 257.79C1152.81 258.088 1153.09 258.429 1153.44 258.812C1153.79 259.203 1154.27 259.54 1154.87 259.825C1155.48 260.116 1156.28 260.261 1157.27 260.261C1158.59 260.261 1159.68 259.942 1160.54 259.303C1161.4 258.663 1161.83 257.662 1161.83 256.298V252.974H1161.61C1161.43 253.273 1161.17 253.642 1160.82 254.082C1160.49 254.516 1160.01 254.903 1159.38 255.244C1158.75 255.577 1157.91 255.744 1156.84 255.744C1155.52 255.744 1154.33 255.432 1153.28 254.807C1152.24 254.182 1151.41 253.273 1150.8 252.08C1150.2 250.886 1149.89 249.437 1149.89 247.733C1149.89 246.057 1150.19 244.597 1150.78 243.354C1151.37 242.104 1152.19 241.138 1153.24 240.457C1154.29 239.768 1155.51 239.423 1156.88 239.423C1157.95 239.423 1158.79 239.601 1159.42 239.956C1160.05 240.304 1160.53 240.702 1160.87 241.149C1161.21 241.589 1161.47 241.952 1161.66 242.236H1161.91V239.636H1164.34V256.469C1164.34 257.875 1164.02 259.018 1163.38 259.899C1162.75 260.787 1161.9 261.437 1160.82 261.849C1159.76 262.268 1158.57 262.477 1157.27 262.477ZM1157.18 253.486C1158.19 253.486 1159.04 253.255 1159.74 252.793C1160.43 252.332 1160.96 251.668 1161.33 250.801C1161.69 249.935 1161.87 248.898 1161.87 247.69C1161.87 246.511 1161.69 245.471 1161.34 244.569C1160.98 243.667 1160.46 242.96 1159.76 242.449C1159.06 241.937 1158.2 241.682 1157.18 241.682C1156.12 241.682 1155.23 241.952 1154.52 242.491C1153.81 243.031 1153.29 243.756 1152.93 244.665C1152.58 245.574 1152.41 246.582 1152.41 247.69C1152.41 248.827 1152.59 249.832 1152.94 250.705C1153.3 251.572 1153.84 252.254 1154.54 252.751C1155.25 253.241 1156.13 253.486 1157.18 253.486Z" fill="black"/>
<path d="M460.624 239.636C460.496 238.557 459.977 237.719 459.068 237.122C458.159 236.526 457.044 236.227 455.723 236.227C454.757 236.227 453.912 236.384 453.188 236.696C452.47 237.009 451.909 237.438 451.504 237.985C451.107 238.532 450.908 239.153 450.908 239.849C450.908 240.432 451.046 240.933 451.323 241.352C451.607 241.763 451.97 242.108 452.41 242.385C452.85 242.655 453.312 242.879 453.795 243.056C454.278 243.227 454.722 243.365 455.127 243.472L457.342 244.068C457.911 244.217 458.543 244.423 459.239 244.686C459.942 244.949 460.613 245.308 461.252 245.762C461.899 246.21 462.431 246.785 462.85 247.488C463.269 248.191 463.479 249.054 463.479 250.077C463.479 251.256 463.17 252.321 462.552 253.273C461.941 254.224 461.046 254.981 459.867 255.542C458.695 256.103 457.271 256.384 455.595 256.384C454.033 256.384 452.68 256.131 451.536 255.627C450.4 255.123 449.505 254.42 448.852 253.518C448.205 252.616 447.84 251.568 447.754 250.375H450.482C450.553 251.199 450.83 251.881 451.313 252.42C451.803 252.953 452.421 253.351 453.166 253.614C453.919 253.869 454.729 253.997 455.595 253.997C456.604 253.997 457.509 253.834 458.312 253.507C459.114 253.173 459.75 252.712 460.219 252.122C460.688 251.526 460.922 250.83 460.922 250.034C460.922 249.31 460.72 248.72 460.315 248.266C459.91 247.811 459.377 247.442 458.717 247.158C458.056 246.874 457.342 246.625 456.575 246.412L453.891 245.645C452.186 245.155 450.837 244.455 449.842 243.546C448.848 242.637 448.351 241.447 448.351 239.977C448.351 238.756 448.681 237.69 449.342 236.781C450.009 235.865 450.904 235.155 452.026 234.651C453.156 234.139 454.416 233.884 455.808 233.884C457.215 233.884 458.465 234.136 459.558 234.64C460.652 235.137 461.519 235.819 462.158 236.685C462.804 237.552 463.145 238.536 463.18 239.636H460.624ZM474.343 256.341C472.766 256.341 471.406 255.993 470.262 255.297C469.126 254.594 468.249 253.614 467.631 252.357C467.02 251.092 466.715 249.622 466.715 247.946C466.715 246.27 467.02 244.793 467.631 243.514C468.249 242.229 469.108 241.227 470.209 240.51C471.317 239.786 472.61 239.423 474.087 239.423C474.939 239.423 475.781 239.565 476.612 239.849C477.443 240.134 478.199 240.595 478.881 241.234C479.563 241.866 480.106 242.705 480.511 243.749C480.916 244.793 481.118 246.078 481.118 247.605V248.67H468.505V246.497H478.561C478.561 245.574 478.377 244.75 478.007 244.026C477.645 243.301 477.127 242.729 476.452 242.31C475.784 241.891 474.996 241.682 474.087 241.682C473.085 241.682 472.219 241.93 471.487 242.428C470.763 242.918 470.206 243.557 469.815 244.345C469.424 245.134 469.229 245.979 469.229 246.881V248.33C469.229 249.565 469.442 250.613 469.868 251.472C470.301 252.325 470.902 252.974 471.669 253.422C472.436 253.862 473.327 254.082 474.343 254.082C475.003 254.082 475.6 253.99 476.132 253.805C476.672 253.614 477.137 253.33 477.528 252.953C477.919 252.57 478.22 252.094 478.434 251.526L480.862 252.207C480.607 253.031 480.177 253.756 479.573 254.381C478.97 254.999 478.224 255.482 477.336 255.83C476.448 256.17 475.451 256.341 474.343 256.341ZM484.943 256V239.636H487.372V242.108H487.542C487.84 241.298 488.38 240.641 489.161 240.137C489.943 239.633 490.823 239.381 491.804 239.381C491.988 239.381 492.219 239.384 492.496 239.391C492.773 239.398 492.983 239.409 493.125 239.423V241.98C493.039 241.959 492.844 241.927 492.539 241.884C492.24 241.835 491.924 241.81 491.59 241.81C490.795 241.81 490.085 241.977 489.46 242.31C488.842 242.637 488.352 243.092 487.99 243.674C487.634 244.249 487.457 244.906 487.457 245.645V256H484.943ZM509.984 239.636L503.932 256H501.376L495.324 239.636H498.052L502.569 252.676H502.739L507.256 239.636H509.984ZM513.302 256V239.636H515.816V256H513.302ZM514.581 236.909C514.09 236.909 513.668 236.742 513.313 236.408C512.965 236.075 512.791 235.673 512.791 235.205C512.791 234.736 512.965 234.335 513.313 234.001C513.668 233.667 514.09 233.5 514.581 233.5C515.071 233.5 515.49 233.667 515.838 234.001C516.193 234.335 516.37 234.736 516.37 235.205C516.37 235.673 516.193 236.075 515.838 236.408C515.49 236.742 515.071 236.909 514.581 236.909ZM522.935 246.156V256H520.421V239.636H522.85V242.193H523.063C523.447 241.362 524.029 240.695 524.81 240.19C525.592 239.679 526.6 239.423 527.836 239.423C528.944 239.423 529.913 239.651 530.744 240.105C531.575 240.553 532.222 241.234 532.683 242.151C533.145 243.06 533.376 244.21 533.376 245.602V256H530.862V245.773C530.862 244.487 530.528 243.486 529.86 242.768C529.193 242.044 528.276 241.682 527.112 241.682C526.309 241.682 525.592 241.856 524.96 242.204C524.335 242.552 523.841 243.06 523.479 243.727C523.117 244.395 522.935 245.205 522.935 246.156ZM544.575 262.477C543.361 262.477 542.317 262.321 541.443 262.009C540.57 261.703 539.842 261.298 539.259 260.794C538.684 260.297 538.226 259.764 537.885 259.196L539.888 257.79C540.115 258.088 540.403 258.429 540.751 258.812C541.099 259.203 541.574 259.54 542.178 259.825C542.789 260.116 543.588 260.261 544.575 260.261C545.896 260.261 546.986 259.942 547.846 259.303C548.705 258.663 549.135 257.662 549.135 256.298V252.974H548.922C548.737 253.273 548.474 253.642 548.133 254.082C547.8 254.516 547.317 254.903 546.685 255.244C546.06 255.577 545.214 255.744 544.149 255.744C542.828 255.744 541.642 255.432 540.591 254.807C539.547 254.182 538.719 253.273 538.109 252.08C537.505 250.886 537.203 249.437 537.203 247.733C537.203 246.057 537.498 244.597 538.087 243.354C538.677 242.104 539.497 241.138 540.548 240.457C541.599 239.768 542.814 239.423 544.192 239.423C545.257 239.423 546.102 239.601 546.727 239.956C547.359 240.304 547.842 240.702 548.176 241.149C548.517 241.589 548.78 241.952 548.964 242.236H549.22V239.636H551.649V256.469C551.649 257.875 551.329 259.018 550.69 259.899C550.058 260.787 549.206 261.437 548.133 261.849C547.068 262.268 545.882 262.477 544.575 262.477ZM544.49 253.486C545.498 253.486 546.351 253.255 547.047 252.793C547.743 252.332 548.272 251.668 548.634 250.801C548.996 249.935 549.177 248.898 549.177 247.69C549.177 246.511 549 245.471 548.645 244.569C548.29 243.667 547.764 242.96 547.068 242.449C546.372 241.937 545.513 241.682 544.49 241.682C543.425 241.682 542.537 241.952 541.827 242.491C541.123 243.031 540.594 243.756 540.239 244.665C539.891 245.574 539.717 246.582 539.717 247.69C539.717 248.827 539.895 249.832 540.25 250.705C540.612 251.572 541.145 252.254 541.848 252.751C542.558 253.241 543.439 253.486 544.49 253.486Z" fill="black"/>
<path d="M563.768 294.768C564.744 293.791 564.744 292.209 563.768 291.232L547.858 275.322C546.882 274.346 545.299 274.346 544.322 275.322C543.346 276.299 543.346 277.882 544.322 278.858L558.464 293L544.322 307.142C543.346 308.118 543.346 309.701 544.322 310.678C545.299 311.654 546.882 311.654 547.858 310.678L563.768 294.768ZM442 295.5H562V290.5H442V295.5Z" fill="#999999" fill-opacity="0.5"/>
<path d="M563.768 639.768C564.744 638.791 564.744 637.209 563.768 636.232L547.858 620.322C546.882 619.346 545.299 619.346 544.322 620.322C543.346 621.299 543.346 622.882 544.322 623.858L558.464 638L544.322 652.142C543.346 653.118 543.346 654.701 544.322 655.678C545.299 656.654 546.882 656.654 547.858 655.678L563.768 639.768ZM442 640.5H562V635.5H442V640.5Z" fill="#999999" fill-opacity="0.5"/>
<path d="M798.232 217.768C799.209 218.744 800.791 218.744 801.768 217.768L817.678 201.858C818.654 200.882 818.654 199.299 817.678 198.322C816.701 197.346 815.118 197.346 814.142 198.322L800 212.464L785.858 198.322C784.882 197.346 783.299 197.346 782.322 198.322C781.346 199.299 781.346 200.882 782.322 201.858L798.232 217.768ZM797.5 176L797.5 216L802.5 216L802.5 176L797.5 176Z" fill="#999999" fill-opacity="0.5"/>
<path d="M798.232 409.768C799.209 410.744 800.791 410.744 801.768 409.768L817.678 393.858C818.654 392.882 818.654 391.299 817.678 390.322C816.701 389.346 815.118 389.346 814.142 390.322L800 404.464L785.858 390.322C784.882 389.346 783.299 389.346 782.322 390.322C781.346 391.299 781.346 392.882 782.322 393.858L798.232 409.768ZM797.5 368L797.5 408L802.5 408L802.5 368L797.5 368Z" fill="#999999" fill-opacity="0.5"/>
<path d="M207.232 534.768C208.209 535.744 209.791 535.744 210.768 534.768L226.678 518.858C227.654 517.882 227.654 516.299 226.678 515.322C225.701 514.346 224.118 514.346 223.142 515.322L209 529.464L194.858 515.322C193.882 514.346 192.299 514.346 191.322 515.322C190.346 516.299 190.346 517.882 191.322 518.858L207.232 534.768ZM206.5 433L206.5 533L211.5 533L211.5 433L206.5 433Z" fill="#999999" fill-opacity="0.5"/>
<path d="M1391.23 534.768C1392.21 535.744 1393.79 535.744 1394.77 534.768L1410.68 518.858C1411.65 517.882 1411.65 516.299 1410.68 515.322C1409.7 514.346 1408.12 514.346 1407.14 515.322L1393 529.464L1378.86 515.322C1377.88 514.346 1376.3 514.346 1375.32 515.322C1374.35 516.299 1374.35 517.882 1375.32 518.858L1391.23 534.768ZM1390.5 433L1390.5 533L1395.5 533L1395.5 433L1390.5 433Z" fill="#999999" fill-opacity="0.5"/>
<path d="M798.232 599.768C799.209 600.744 800.791 600.744 801.768 599.768L817.678 583.858C818.654 582.882 818.654 581.299 817.678 580.322C816.701 579.346 815.118 579.346 814.142 580.322L800 594.464L785.858 580.322C784.882 579.346 783.299 579.346 782.322 580.322C781.346 581.299 781.346 582.882 782.322 583.858L798.232 599.768ZM797.5 558L797.5 598L802.5 598L802.5 558L797.5 558Z" fill="#999999" fill-opacity="0.5"/>
</svg>
