<svg width="1600" height="533" viewBox="0 0 1600 533" fill="none" xmlns="http://www.w3.org/2000/svg">
<rect width="1600" height="533" fill="white"/>
<path d="M835 115C835 106.163 842.163 99 851 99H1136C1144.84 99 1152 106.163 1152 115V488C1152 496.837 1144.84 504 1136 504H851C842.163 504 835 496.837 835 488V115Z" fill="#F6F6F6"/>
<path d="M1223 115C1223 106.163 1230.16 99 1239 99H1524C1532.84 99 1540 106.163 1540 115V488C1540 496.837 1532.84 504 1524 504H1239C1230.16 504 1223 496.837 1223 488V115Z" fill="#F6F6F6"/>
<path d="M64 115C64 106.163 71.1634 99 80 99H749C757.837 99 765 106.163 765 115V488C765 496.837 757.837 504 749 504H80C71.1634 504 64 496.837 64 488V115Z" fill="#F6F6F6"/>
<rect x="464.842" y="176.752" width="286.961" height="118.263" rx="10" fill="#00C7BE"/>
<path d="M523.346 223.025L530.687 243.84H530.977L538.318 223.025H541.457L532.378 247.752H529.287L520.207 223.025H523.346ZM544.922 247.752V229.206H547.772V247.752H544.922ZM546.371 226.115C545.816 226.115 545.337 225.926 544.934 225.548C544.54 225.17 544.343 224.715 544.343 224.184C544.343 223.652 544.54 223.198 544.934 222.819C545.337 222.441 545.816 222.252 546.371 222.252C546.927 222.252 547.402 222.441 547.796 222.819C548.198 223.198 548.4 223.652 548.4 224.184C548.4 224.715 548.198 225.17 547.796 225.548C547.402 225.926 546.927 226.115 546.371 226.115ZM560.766 248.138C558.979 248.138 557.438 247.744 556.142 246.955C554.854 246.158 553.86 245.047 553.16 243.623C552.468 242.19 552.121 240.524 552.121 238.624C552.121 236.724 552.468 235.05 553.16 233.601C553.86 232.144 554.834 231.009 556.082 230.196C557.337 229.375 558.802 228.965 560.477 228.965C561.442 228.965 562.396 229.126 563.338 229.448C564.28 229.77 565.137 230.293 565.91 231.017C566.683 231.734 567.298 232.684 567.757 233.867C568.216 235.05 568.445 236.507 568.445 238.238V239.445H554.15V236.982H565.548C565.548 235.936 565.338 235.002 564.92 234.181C564.509 233.36 563.922 232.712 563.157 232.237C562.4 231.762 561.507 231.525 560.477 231.525C559.342 231.525 558.36 231.806 557.531 232.37C556.71 232.925 556.078 233.65 555.635 234.543C555.192 235.436 554.971 236.394 554.971 237.417V239.059C554.971 240.459 555.212 241.646 555.695 242.62C556.186 243.586 556.866 244.323 557.736 244.83C558.605 245.329 559.615 245.579 560.766 245.579C561.515 245.579 562.191 245.474 562.795 245.265C563.406 245.047 563.934 244.725 564.376 244.299C564.819 243.864 565.161 243.325 565.403 242.681L568.156 243.454C567.866 244.387 567.379 245.208 566.695 245.917C566.01 246.617 565.165 247.164 564.159 247.559C563.153 247.945 562.022 248.138 560.766 248.138ZM576.982 247.752L571.331 229.206H574.325L578.334 243.405H578.527L582.487 229.206H585.53L589.442 243.357H589.635L593.643 229.206H596.638L590.987 247.752H588.186L584.129 233.505H583.839L579.783 247.752H576.982ZM600.791 223.025H604.365L612.768 243.55H613.058L621.462 223.025H625.035V247.752H622.234V228.965H621.993L614.266 247.752H611.561L603.834 228.965H603.592V247.752H600.791V223.025ZM638.187 248.138C636.513 248.138 635.044 247.74 633.78 246.943C632.524 246.146 631.542 245.031 630.834 243.598C630.134 242.166 629.784 240.491 629.784 238.576C629.784 236.644 630.134 234.958 630.834 233.517C631.542 232.076 632.524 230.957 633.78 230.16C635.044 229.363 636.513 228.965 638.187 228.965C639.861 228.965 641.326 229.363 642.582 230.16C643.846 230.957 644.828 232.076 645.528 233.517C646.236 234.958 646.59 236.644 646.59 238.576C646.59 240.491 646.236 242.166 645.528 243.598C644.828 245.031 643.846 246.146 642.582 246.943C641.326 247.74 639.861 248.138 638.187 248.138ZM638.187 245.579C639.459 245.579 640.505 245.253 641.326 244.601C642.147 243.949 642.755 243.091 643.149 242.029C643.544 240.966 643.741 239.815 643.741 238.576C643.741 237.336 643.544 236.181 643.149 235.11C642.755 234.04 642.147 233.175 641.326 232.515C640.505 231.855 639.459 231.525 638.187 231.525C636.915 231.525 635.869 231.855 635.048 232.515C634.227 233.175 633.619 234.04 633.225 235.11C632.83 236.181 632.633 237.336 632.633 238.576C632.633 239.815 632.83 240.966 633.225 242.029C633.619 243.091 634.227 243.949 635.048 244.601C635.869 245.253 636.915 245.579 638.187 245.579ZM657.943 248.138C656.397 248.138 655.033 247.748 653.85 246.967C652.667 246.178 651.741 245.067 651.073 243.635C650.405 242.194 650.071 240.491 650.071 238.527C650.071 236.579 650.405 234.889 651.073 233.456C651.741 232.024 652.671 230.917 653.862 230.136C655.053 229.355 656.43 228.965 657.991 228.965C659.198 228.965 660.152 229.166 660.853 229.569C661.561 229.963 662.1 230.414 662.471 230.921C662.849 231.42 663.143 231.83 663.352 232.152H663.593V223.025H666.443V247.752H663.69V244.902H663.352C663.143 245.24 662.845 245.667 662.458 246.182C662.072 246.689 661.521 247.144 660.804 247.547C660.088 247.941 659.134 248.138 657.943 248.138ZM658.329 245.579C659.472 245.579 660.438 245.281 661.227 244.685C662.016 244.081 662.615 243.248 663.026 242.186C663.436 241.115 663.642 239.88 663.642 238.479C663.642 237.095 663.44 235.883 663.038 234.845C662.636 233.798 662.04 232.985 661.251 232.406C660.462 231.818 659.488 231.525 658.329 231.525C657.122 231.525 656.116 231.834 655.311 232.454C654.514 233.066 653.914 233.899 653.512 234.954C653.117 236 652.92 237.175 652.92 238.479C652.92 239.799 653.121 240.999 653.524 242.077C653.934 243.148 654.538 244.001 655.335 244.637C656.14 245.265 657.138 245.579 658.329 245.579ZM679.833 248.138C678.046 248.138 676.504 247.744 675.208 246.955C673.921 246.158 672.926 245.047 672.226 243.623C671.534 242.19 671.188 240.524 671.188 238.624C671.188 236.724 671.534 235.05 672.226 233.601C672.926 232.144 673.9 231.009 675.148 230.196C676.404 229.375 677.869 228.965 679.543 228.965C680.509 228.965 681.463 229.126 682.404 229.448C683.346 229.77 684.203 230.293 684.976 231.017C685.749 231.734 686.365 232.684 686.823 233.867C687.282 235.05 687.512 236.507 687.512 238.238V239.445H673.216V236.982H684.614C684.614 235.936 684.405 235.002 683.986 234.181C683.576 233.36 682.988 232.712 682.223 232.237C681.467 231.762 680.573 231.525 679.543 231.525C678.408 231.525 677.426 231.806 676.597 232.37C675.776 232.925 675.144 233.65 674.701 234.543C674.259 235.436 674.037 236.394 674.037 237.417V239.059C674.037 240.459 674.279 241.646 674.762 242.62C675.253 243.586 675.933 244.323 676.802 244.83C677.672 245.329 678.682 245.579 679.833 245.579C680.581 245.579 681.257 245.474 681.861 245.265C682.473 245.047 683 244.725 683.443 244.299C683.886 243.864 684.228 243.325 684.469 242.681L687.222 243.454C686.932 244.387 686.445 245.208 685.761 245.917C685.077 246.617 684.232 247.164 683.225 247.559C682.219 247.945 681.088 248.138 679.833 248.138ZM694.696 223.025V247.752H691.846V223.025H694.696Z" fill="white"/>
<rect x="850.935" y="133.752" width="286.961" height="118.263" rx="10" fill="#007AFF"/>
<path d="M944.408 180.025H947.403V196.397C947.403 198.087 947.004 199.596 946.207 200.924C945.419 202.244 944.304 203.287 942.863 204.052C941.422 204.808 939.732 205.186 937.792 205.186C935.852 205.186 934.162 204.808 932.721 204.052C931.28 203.287 930.161 202.244 929.364 200.924C928.575 199.596 928.181 198.087 928.181 196.397V180.025H931.175V196.155C931.175 197.363 931.441 198.437 931.972 199.379C932.504 200.313 933.26 201.049 934.242 201.588C935.232 202.12 936.415 202.385 937.792 202.385C939.168 202.385 940.352 202.12 941.342 201.588C942.332 201.049 943.088 200.313 943.611 199.379C944.143 198.437 944.408 197.363 944.408 196.155V180.025ZM966.132 190.36L963.573 191.084C963.412 190.658 963.174 190.243 962.86 189.841C962.554 189.43 962.136 189.092 961.605 188.826C961.073 188.561 960.393 188.428 959.564 188.428C958.429 188.428 957.483 188.69 956.727 189.213C955.978 189.728 955.604 190.384 955.604 191.181C955.604 191.889 955.861 192.449 956.377 192.859C956.892 193.27 957.697 193.612 958.791 193.885L961.544 194.561C963.202 194.964 964.438 195.58 965.251 196.409C966.064 197.23 966.47 198.288 966.47 199.584C966.47 200.647 966.164 201.597 965.553 202.434C964.949 203.271 964.104 203.931 963.017 204.414C961.931 204.897 960.667 205.138 959.226 205.138C957.334 205.138 955.769 204.728 954.529 203.907C953.29 203.086 952.505 201.886 952.175 200.309L954.879 199.633C955.137 200.631 955.624 201.379 956.34 201.878C957.065 202.377 958.011 202.627 959.178 202.627C960.506 202.627 961.56 202.345 962.341 201.782C963.13 201.21 963.524 200.526 963.524 199.729C963.524 199.085 963.299 198.546 962.848 198.111C962.397 197.668 961.705 197.338 960.771 197.121L957.681 196.397C955.982 195.994 954.735 195.37 953.938 194.525C953.149 193.672 952.754 192.606 952.754 191.326C952.754 190.279 953.048 189.354 953.636 188.549C954.231 187.744 955.04 187.112 956.063 186.653C957.093 186.194 958.26 185.965 959.564 185.965C961.399 185.965 962.84 186.367 963.887 187.172C964.941 187.977 965.69 189.04 966.132 190.36ZM978.535 205.138C976.748 205.138 975.207 204.744 973.911 203.955C972.623 203.158 971.629 202.047 970.929 200.623C970.236 199.19 969.89 197.524 969.89 195.624C969.89 193.724 970.236 192.05 970.929 190.601C971.629 189.144 972.603 188.009 973.85 187.196C975.106 186.375 976.571 185.965 978.245 185.965C979.211 185.965 980.165 186.126 981.107 186.448C982.049 186.77 982.906 187.293 983.679 188.017C984.451 188.734 985.067 189.684 985.526 190.867C985.985 192.05 986.214 193.507 986.214 195.238V196.445H971.919V193.982H983.316C983.316 192.936 983.107 192.002 982.689 191.181C982.278 190.36 981.69 189.712 980.926 189.237C980.169 188.762 979.276 188.525 978.245 188.525C977.11 188.525 976.128 188.806 975.299 189.37C974.478 189.925 973.846 190.65 973.404 191.543C972.961 192.436 972.74 193.394 972.74 194.417V196.059C972.74 197.459 972.981 198.646 973.464 199.62C973.955 200.586 974.635 201.323 975.505 201.83C976.374 202.329 977.384 202.579 978.535 202.579C979.284 202.579 979.96 202.474 980.564 202.265C981.175 202.047 981.702 201.725 982.145 201.299C982.588 200.864 982.93 200.325 983.171 199.681L985.924 200.454C985.635 201.387 985.148 202.208 984.463 202.917C983.779 203.617 982.934 204.164 981.928 204.559C980.922 204.945 979.791 205.138 978.535 205.138ZM998.083 205.138C996.344 205.138 994.847 204.728 993.591 203.907C992.336 203.086 991.37 201.955 990.693 200.514C990.017 199.073 989.679 197.427 989.679 195.576C989.679 193.692 990.025 192.03 990.718 190.589C991.418 189.14 992.392 188.009 993.64 187.196C994.895 186.375 996.36 185.965 998.034 185.965C999.338 185.965 1000.51 186.206 1001.56 186.689C1002.61 187.172 1003.46 187.848 1004.13 188.718C1004.8 189.587 1005.21 190.601 1005.38 191.76H1002.53C1002.31 190.915 1001.83 190.167 1001.08 189.515C1000.34 188.855 999.338 188.525 998.083 188.525C996.972 188.525 995.998 188.814 995.161 189.394C994.332 189.965 993.684 190.774 993.217 191.821C992.758 192.859 992.529 194.079 992.529 195.479C992.529 196.912 992.754 198.16 993.205 199.222C993.664 200.285 994.308 201.11 995.137 201.697C995.974 202.285 996.956 202.579 998.083 202.579C998.823 202.579 999.495 202.45 1000.1 202.192C1000.7 201.935 1001.21 201.564 1001.63 201.081C1002.05 200.598 1002.35 200.019 1002.53 199.343H1005.38C1005.21 200.437 1004.82 201.423 1004.18 202.301C1003.55 203.17 1002.72 203.862 1001.68 204.378C1000.65 204.885 999.451 205.138 998.083 205.138ZM1015 205.186C1013.82 205.186 1012.76 204.965 1011.8 204.522C1010.84 204.072 1010.08 203.424 1009.52 202.579C1008.95 201.725 1008.67 200.695 1008.67 199.488C1008.67 198.425 1008.88 197.564 1009.3 196.904C1009.72 196.236 1010.28 195.713 1010.98 195.334C1011.68 194.956 1012.45 194.674 1013.3 194.489C1014.15 194.296 1015.01 194.143 1015.87 194.03C1016.99 193.885 1017.91 193.777 1018.61 193.704C1019.32 193.624 1019.83 193.491 1020.15 193.306C1020.48 193.121 1020.65 192.799 1020.65 192.34V192.243C1020.65 191.052 1020.32 190.126 1019.67 189.466C1019.03 188.806 1018.05 188.476 1016.74 188.476C1015.38 188.476 1014.31 188.774 1013.54 189.37C1012.76 189.965 1012.22 190.601 1011.91 191.277L1009.2 190.311C1009.69 189.185 1010.33 188.307 1011.13 187.679C1011.95 187.043 1012.83 186.601 1013.79 186.351C1014.76 186.094 1015.71 185.965 1016.64 185.965C1017.24 185.965 1017.92 186.037 1018.69 186.182C1019.47 186.319 1020.23 186.605 1020.95 187.039C1021.68 187.474 1022.29 188.13 1022.77 189.008C1023.26 189.885 1023.5 191.06 1023.5 192.533V204.752H1020.65V202.24H1020.5C1020.31 202.643 1019.99 203.074 1019.54 203.532C1019.09 203.991 1018.49 204.382 1017.74 204.704C1016.99 205.026 1016.08 205.186 1015 205.186ZM1015.43 202.627C1016.56 202.627 1017.51 202.405 1018.28 201.963C1019.06 201.52 1019.65 200.949 1020.05 200.248C1020.45 199.548 1020.65 198.811 1020.65 198.039V195.431C1020.53 195.576 1020.26 195.709 1019.85 195.829C1019.45 195.942 1018.98 196.043 1018.45 196.131C1017.93 196.212 1017.42 196.284 1016.92 196.348C1016.43 196.405 1016.03 196.453 1015.72 196.493C1014.98 196.59 1014.29 196.747 1013.65 196.964C1013.01 197.173 1012.49 197.491 1012.1 197.918C1011.71 198.337 1011.52 198.908 1011.52 199.633C1011.52 200.623 1011.89 201.371 1012.62 201.878C1013.36 202.377 1014.3 202.627 1015.43 202.627ZM1041.84 190.36L1039.28 191.084C1039.11 190.658 1038.88 190.243 1038.56 189.841C1038.26 189.43 1037.84 189.092 1037.31 188.826C1036.78 188.561 1036.1 188.428 1035.27 188.428C1034.13 188.428 1033.19 188.69 1032.43 189.213C1031.68 189.728 1031.31 190.384 1031.31 191.181C1031.31 191.889 1031.56 192.449 1032.08 192.859C1032.59 193.27 1033.4 193.612 1034.49 193.885L1037.25 194.561C1038.91 194.964 1040.14 195.58 1040.95 196.409C1041.77 197.23 1042.17 198.288 1042.17 199.584C1042.17 200.647 1041.87 201.597 1041.26 202.434C1040.65 203.271 1039.81 203.931 1038.72 204.414C1037.63 204.897 1036.37 205.138 1034.93 205.138C1033.04 205.138 1031.47 204.728 1030.23 203.907C1028.99 203.086 1028.21 201.886 1027.88 200.309L1030.58 199.633C1030.84 200.631 1031.33 201.379 1032.04 201.878C1032.77 202.377 1033.71 202.627 1034.88 202.627C1036.21 202.627 1037.26 202.345 1038.04 201.782C1038.83 201.21 1039.23 200.526 1039.23 199.729C1039.23 199.085 1039 198.546 1038.55 198.111C1038.1 197.668 1037.41 197.338 1036.47 197.121L1033.38 196.397C1031.69 195.994 1030.44 195.37 1029.64 194.525C1028.85 193.672 1028.46 192.606 1028.46 191.326C1028.46 190.279 1028.75 189.354 1029.34 188.549C1029.93 187.744 1030.74 187.112 1031.77 186.653C1032.8 186.194 1033.96 185.965 1035.27 185.965C1037.1 185.965 1038.54 186.367 1039.59 187.172C1040.64 187.977 1041.39 189.04 1041.84 190.36ZM1054.24 205.138C1052.45 205.138 1050.91 204.744 1049.61 203.955C1048.33 203.158 1047.33 202.047 1046.63 200.623C1045.94 199.19 1045.59 197.524 1045.59 195.624C1045.59 193.724 1045.94 192.05 1046.63 190.601C1047.33 189.144 1048.31 188.009 1049.55 187.196C1050.81 186.375 1052.27 185.965 1053.95 185.965C1054.91 185.965 1055.87 186.126 1056.81 186.448C1057.75 186.77 1058.61 187.293 1059.38 188.017C1060.15 188.734 1060.77 189.684 1061.23 190.867C1061.69 192.05 1061.92 193.507 1061.92 195.238V196.445H1047.62V193.982H1059.02C1059.02 192.936 1058.81 192.002 1058.39 191.181C1057.98 190.36 1057.39 189.712 1056.63 189.237C1055.87 188.762 1054.98 188.525 1053.95 188.525C1052.81 188.525 1051.83 188.806 1051 189.37C1050.18 189.925 1049.55 190.65 1049.11 191.543C1048.66 192.436 1048.44 193.394 1048.44 194.417V196.059C1048.44 197.459 1048.68 198.646 1049.17 199.62C1049.66 200.586 1050.34 201.323 1051.21 201.83C1052.08 202.329 1053.09 202.579 1054.24 202.579C1054.99 202.579 1055.66 202.474 1056.27 202.265C1056.88 202.047 1057.41 201.725 1057.85 201.299C1058.29 200.864 1058.63 200.325 1058.87 199.681L1061.63 200.454C1061.34 201.387 1060.85 202.208 1060.17 202.917C1059.48 203.617 1058.64 204.164 1057.63 204.559C1056.62 204.945 1055.49 205.138 1054.24 205.138Z" fill="white"/>
<rect x="1237.03" y="133.752" width="286.961" height="118.263" rx="10" fill="#FFCC00"/>
<path d="M1297.12 204.752V180.025H1305.48C1307.41 180.025 1309 180.355 1310.24 181.015C1311.48 181.667 1312.39 182.564 1312.99 183.707C1313.59 184.85 1313.88 186.15 1313.88 187.607C1313.88 189.064 1313.59 190.356 1312.99 191.483C1312.39 192.61 1311.48 193.495 1310.25 194.139C1309.02 194.775 1307.44 195.093 1305.53 195.093H1298.77V192.388H1305.43C1306.75 192.388 1307.81 192.195 1308.62 191.809C1309.43 191.422 1310.02 190.875 1310.38 190.167C1310.75 189.45 1310.94 188.597 1310.94 187.607C1310.94 186.617 1310.75 185.752 1310.38 185.011C1310.01 184.271 1309.42 183.699 1308.61 183.297C1307.79 182.886 1306.72 182.681 1305.38 182.681H1300.12V204.752H1297.12ZM1308.76 193.644L1314.85 204.752H1311.37L1305.38 193.644H1308.76ZM1326.06 205.138C1324.28 205.138 1322.73 204.744 1321.44 203.955C1320.15 203.158 1319.16 202.047 1318.46 200.623C1317.76 199.19 1317.42 197.524 1317.42 195.624C1317.42 193.724 1317.76 192.05 1318.46 190.601C1319.16 189.144 1320.13 188.009 1321.38 187.196C1322.63 186.375 1324.1 185.965 1325.77 185.965C1326.74 185.965 1327.69 186.126 1328.63 186.448C1329.58 186.77 1330.43 187.293 1331.21 188.017C1331.98 188.734 1332.59 189.684 1333.05 190.867C1333.51 192.05 1333.74 193.507 1333.74 195.238V196.445H1319.45V193.982H1330.84C1330.84 192.936 1330.63 192.002 1330.22 191.181C1329.81 190.36 1329.22 189.712 1328.45 189.237C1327.7 188.762 1326.8 188.525 1325.77 188.525C1324.64 188.525 1323.66 188.806 1322.83 189.37C1322.01 189.925 1321.37 190.65 1320.93 191.543C1320.49 192.436 1320.27 193.394 1320.27 194.417V196.059C1320.27 197.459 1320.51 198.646 1320.99 199.62C1321.48 200.586 1322.16 201.323 1323.03 201.83C1323.9 202.329 1324.91 202.579 1326.06 202.579C1326.81 202.579 1327.49 202.474 1328.09 202.265C1328.7 202.047 1329.23 201.725 1329.67 201.299C1330.12 200.864 1330.46 200.325 1330.7 199.681L1333.45 200.454C1333.16 201.387 1332.68 202.208 1331.99 202.917C1331.31 203.617 1330.46 204.164 1329.46 204.559C1328.45 204.945 1327.32 205.138 1326.06 205.138ZM1338.08 211.706V186.206H1340.83V189.152H1341.17C1341.38 188.83 1341.67 188.42 1342.04 187.921C1342.41 187.414 1342.95 186.963 1343.65 186.569C1344.36 186.166 1345.32 185.965 1346.53 185.965C1348.09 185.965 1349.47 186.355 1350.66 187.136C1351.85 187.917 1352.78 189.024 1353.45 190.456C1354.11 191.889 1354.45 193.579 1354.45 195.527C1354.45 197.491 1354.11 199.194 1353.45 200.635C1352.78 202.067 1351.85 203.178 1350.67 203.967C1349.49 204.748 1348.12 205.138 1346.58 205.138C1345.38 205.138 1344.43 204.941 1343.71 204.547C1343 204.144 1342.45 203.689 1342.06 203.182C1341.67 202.667 1341.38 202.24 1341.17 201.902H1340.93V211.706H1338.08ZM1340.88 195.479C1340.88 196.88 1341.08 198.115 1341.49 199.186C1341.9 200.248 1342.5 201.081 1343.29 201.685C1344.08 202.281 1345.05 202.579 1346.19 202.579C1347.38 202.579 1348.38 202.265 1349.17 201.637C1349.98 201.001 1350.58 200.148 1350.98 199.077C1351.39 197.999 1351.6 196.799 1351.6 195.479C1351.6 194.175 1351.4 193 1351 191.954C1350.6 190.899 1350 190.066 1349.2 189.454C1348.4 188.834 1347.4 188.525 1346.19 188.525C1345.03 188.525 1344.06 188.818 1343.27 189.406C1342.48 189.985 1341.88 190.798 1341.48 191.845C1341.08 192.883 1340.88 194.095 1340.88 195.479ZM1366.33 205.138C1364.65 205.138 1363.19 204.74 1361.92 203.943C1360.67 203.146 1359.68 202.031 1358.98 200.598C1358.28 199.166 1357.93 197.491 1357.93 195.576C1357.93 193.644 1358.28 191.958 1358.98 190.517C1359.68 189.076 1360.67 187.957 1361.92 187.16C1363.19 186.363 1364.65 185.965 1366.33 185.965C1368 185.965 1369.47 186.363 1370.72 187.16C1371.99 187.957 1372.97 189.076 1373.67 190.517C1374.38 191.958 1374.73 193.644 1374.73 195.576C1374.73 197.491 1374.38 199.166 1373.67 200.598C1372.97 202.031 1371.99 203.146 1370.72 203.943C1369.47 204.74 1368 205.138 1366.33 205.138ZM1366.33 202.579C1367.6 202.579 1368.65 202.253 1369.47 201.601C1370.29 200.949 1370.9 200.091 1371.29 199.029C1371.69 197.966 1371.88 196.815 1371.88 195.576C1371.88 194.336 1371.69 193.181 1371.29 192.11C1370.9 191.04 1370.29 190.175 1369.47 189.515C1368.65 188.855 1367.6 188.525 1366.33 188.525C1365.06 188.525 1364.01 188.855 1363.19 189.515C1362.37 190.175 1361.76 191.04 1361.37 192.11C1360.97 193.181 1360.78 194.336 1360.78 195.576C1360.78 196.815 1360.97 197.966 1361.37 199.029C1361.76 200.091 1362.37 200.949 1363.19 201.601C1364.01 202.253 1365.06 202.579 1366.33 202.579ZM1392.22 190.36L1389.66 191.084C1389.5 190.658 1389.26 190.243 1388.95 189.841C1388.64 189.43 1388.22 189.092 1387.69 188.826C1387.16 188.561 1386.48 188.428 1385.65 188.428C1384.52 188.428 1383.57 188.69 1382.81 189.213C1382.06 189.728 1381.69 190.384 1381.69 191.181C1381.69 191.889 1381.95 192.449 1382.46 192.859C1382.98 193.27 1383.78 193.612 1384.88 193.885L1387.63 194.561C1389.29 194.964 1390.52 195.58 1391.34 196.409C1392.15 197.23 1392.56 198.288 1392.56 199.584C1392.56 200.647 1392.25 201.597 1391.64 202.434C1391.04 203.271 1390.19 203.931 1389.1 204.414C1388.02 204.897 1386.75 205.138 1385.31 205.138C1383.42 205.138 1381.86 204.728 1380.62 203.907C1379.38 203.086 1378.59 201.886 1378.26 200.309L1380.97 199.633C1381.22 200.631 1381.71 201.379 1382.43 201.878C1383.15 202.377 1384.1 202.627 1385.26 202.627C1386.59 202.627 1387.65 202.345 1388.43 201.782C1389.22 201.21 1389.61 200.526 1389.61 199.729C1389.61 199.085 1389.39 198.546 1388.93 198.111C1388.48 197.668 1387.79 197.338 1386.86 197.121L1383.77 196.397C1382.07 195.994 1380.82 195.37 1380.02 194.525C1379.24 193.672 1378.84 192.606 1378.84 191.326C1378.84 190.279 1379.13 189.354 1379.72 188.549C1380.32 187.744 1381.13 187.112 1382.15 186.653C1383.18 186.194 1384.35 185.965 1385.65 185.965C1387.49 185.965 1388.93 186.367 1389.97 187.172C1391.03 187.977 1391.78 189.04 1392.22 190.36ZM1396.85 204.752V186.206H1399.7V204.752H1396.85ZM1398.29 183.115C1397.74 183.115 1397.26 182.926 1396.86 182.548C1396.46 182.17 1396.27 181.715 1396.27 181.184C1396.27 180.652 1396.46 180.198 1396.86 179.819C1397.26 179.441 1397.74 179.252 1398.29 179.252C1398.85 179.252 1399.32 179.441 1399.72 179.819C1400.12 180.198 1400.32 180.652 1400.32 181.184C1400.32 181.715 1400.12 182.17 1399.72 182.548C1399.32 182.926 1398.85 183.115 1398.29 183.115ZM1412.98 186.206V188.621H1403.37V186.206H1412.98ZM1406.17 181.763H1409.02V199.439C1409.02 200.244 1409.14 200.848 1409.37 201.25C1409.61 201.645 1409.92 201.91 1410.29 202.047C1410.67 202.176 1411.06 202.24 1411.48 202.24C1411.8 202.24 1412.05 202.224 1412.26 202.192C1412.46 202.152 1412.62 202.12 1412.74 202.096L1413.32 204.655C1413.12 204.728 1412.85 204.8 1412.51 204.873C1412.16 204.953 1411.72 204.993 1411.19 204.993C1410.39 204.993 1409.6 204.82 1408.83 204.474C1408.06 204.128 1407.43 203.601 1406.92 202.892C1406.42 202.184 1406.17 201.291 1406.17 200.212V181.763ZM1424.6 205.138C1422.93 205.138 1421.46 204.74 1420.19 203.943C1418.94 203.146 1417.96 202.031 1417.25 200.598C1416.55 199.166 1416.2 197.491 1416.2 195.576C1416.2 193.644 1416.55 191.958 1417.25 190.517C1417.96 189.076 1418.94 187.957 1420.19 187.16C1421.46 186.363 1422.93 185.965 1424.6 185.965C1426.27 185.965 1427.74 186.363 1429 187.16C1430.26 187.957 1431.24 189.076 1431.94 190.517C1432.65 191.958 1433 193.644 1433 195.576C1433 197.491 1432.65 199.166 1431.94 200.598C1431.24 202.031 1430.26 203.146 1429 203.943C1427.74 204.74 1426.27 205.138 1424.6 205.138ZM1424.6 202.579C1425.87 202.579 1426.92 202.253 1427.74 201.601C1428.56 200.949 1429.17 200.091 1429.56 199.029C1429.96 197.966 1430.15 196.815 1430.15 195.576C1430.15 194.336 1429.96 193.181 1429.56 192.11C1429.17 191.04 1428.56 190.175 1427.74 189.515C1426.92 188.855 1425.87 188.525 1424.6 188.525C1423.33 188.525 1422.28 188.855 1421.46 189.515C1420.64 190.175 1420.03 191.04 1419.64 192.11C1419.24 193.181 1419.05 194.336 1419.05 195.576C1419.05 196.815 1419.24 197.966 1419.64 199.029C1420.03 200.091 1420.64 200.949 1421.46 201.601C1422.28 202.253 1423.33 202.579 1424.6 202.579ZM1437.35 204.752V186.206H1440.11V189.008H1440.3C1440.64 188.09 1441.25 187.345 1442.13 186.774C1443.02 186.202 1444.02 185.917 1445.13 185.917C1445.34 185.917 1445.6 185.921 1445.91 185.929C1446.23 185.937 1446.47 185.949 1446.63 185.965V188.863C1446.53 188.838 1446.31 188.802 1445.96 188.754C1445.62 188.698 1445.27 188.669 1444.89 188.669C1443.99 188.669 1443.18 188.859 1442.47 189.237C1441.77 189.607 1441.22 190.122 1440.81 190.782C1440.4 191.434 1440.2 192.179 1440.2 193.016V204.752H1437.35ZM1452.4 211.706C1451.92 211.706 1451.49 211.666 1451.11 211.586C1450.73 211.513 1450.47 211.441 1450.33 211.368L1451.05 208.857C1451.74 209.034 1452.36 209.098 1452.89 209.05C1453.42 209.002 1453.89 208.764 1454.3 208.338C1454.72 207.919 1455.1 207.239 1455.45 206.297L1455.98 204.848L1449.12 186.206H1452.21L1457.33 200.985H1457.52L1462.64 186.206H1465.73L1457.86 207.456C1457.51 208.414 1457.07 209.207 1456.55 209.835C1456.02 210.471 1455.41 210.942 1454.72 211.248C1454.04 211.553 1453.26 211.706 1452.4 211.706Z" fill="white"/>
<rect x="850.935" y="342.451" width="286.961" height="118.263" rx="10" fill="#AF52DE"/>
<path d="M923.65 413.451H920.511L929.591 388.724H932.682L941.761 413.451H938.622L931.233 392.635H931.04L923.65 413.451ZM924.809 403.792H937.463V406.448H924.809V403.792ZM945.226 420.405V394.905H947.979V397.851H948.317C948.527 397.529 948.816 397.119 949.187 396.62C949.565 396.113 950.104 395.662 950.804 395.268C951.513 394.865 952.471 394.664 953.678 394.664C955.24 394.664 956.616 395.054 957.807 395.835C958.999 396.616 959.928 397.723 960.596 399.155C961.264 400.588 961.599 402.278 961.599 404.226C961.599 406.19 961.264 407.893 960.596 409.334C959.928 410.766 959.003 411.877 957.819 412.666C956.636 413.447 955.272 413.837 953.726 413.837C952.535 413.837 951.581 413.64 950.865 413.246C950.148 412.843 949.597 412.388 949.211 411.881C948.824 411.366 948.527 410.939 948.317 410.601H948.076V420.405H945.226ZM948.027 404.178C948.027 405.579 948.233 406.814 948.643 407.885C949.054 408.947 949.653 409.78 950.442 410.384C951.231 410.98 952.197 411.277 953.34 411.277C954.531 411.277 955.525 410.964 956.322 410.336C957.127 409.7 957.731 408.847 958.133 407.776C958.544 406.697 958.749 405.498 958.749 404.178C958.749 402.874 958.548 401.699 958.145 400.652C957.751 399.598 957.151 398.765 956.346 398.153C955.55 397.533 954.547 397.224 953.34 397.224C952.181 397.224 951.207 397.517 950.418 398.105C949.629 398.684 949.034 399.497 948.631 400.544C948.229 401.582 948.027 402.794 948.027 404.178ZM965.945 420.405V394.905H968.698V397.851H969.036C969.245 397.529 969.535 397.119 969.905 396.62C970.284 396.113 970.823 395.662 971.523 395.268C972.232 394.865 973.189 394.664 974.397 394.664C975.958 394.664 977.335 395.054 978.526 395.835C979.717 396.616 980.647 397.723 981.315 399.155C981.983 400.588 982.317 402.278 982.317 404.226C982.317 406.19 981.983 407.893 981.315 409.334C980.647 410.766 979.721 411.877 978.538 412.666C977.355 413.447 975.991 413.837 974.445 413.837C973.254 413.837 972.3 413.64 971.584 413.246C970.867 412.843 970.316 412.388 969.929 411.881C969.543 411.366 969.245 410.939 969.036 410.601H968.795V420.405H965.945ZM968.746 404.178C968.746 405.579 968.951 406.814 969.362 407.885C969.773 408.947 970.372 409.78 971.161 410.384C971.95 410.98 972.916 411.277 974.059 411.277C975.25 411.277 976.244 410.964 977.041 410.336C977.846 409.7 978.45 408.847 978.852 407.776C979.263 406.697 979.468 405.498 979.468 404.178C979.468 402.874 979.267 401.699 978.864 400.652C978.47 399.598 977.87 398.765 977.065 398.153C976.268 397.533 975.266 397.224 974.059 397.224C972.9 397.224 971.926 397.517 971.137 398.105C970.348 398.684 969.752 399.497 969.35 400.544C968.947 401.582 968.746 402.794 968.746 404.178ZM1000.57 394.905C1000.43 393.682 999.84 392.732 998.81 392.056C997.78 391.38 996.516 391.042 995.019 391.042C993.924 391.042 992.966 391.219 992.145 391.573C991.332 391.927 990.697 392.414 990.238 393.034C989.787 393.654 989.562 394.358 989.562 395.147C989.562 395.807 989.719 396.374 990.032 396.849C990.354 397.316 990.765 397.706 991.264 398.02C991.763 398.326 992.286 398.58 992.834 398.781C993.381 398.974 993.884 399.131 994.343 399.252L996.854 399.928C997.498 400.097 998.215 400.331 999.003 400.628C999.8 400.926 1000.56 401.333 1001.29 401.848C1002.02 402.355 1002.62 403.007 1003.1 403.804C1003.57 404.601 1003.81 405.579 1003.81 406.738C1003.81 408.074 1003.46 409.281 1002.76 410.36C1002.07 411.438 1001.05 412.296 999.716 412.932C998.388 413.567 996.774 413.885 994.874 413.885C993.103 413.885 991.57 413.6 990.274 413.028C988.986 412.457 987.972 411.66 987.231 410.638C986.499 409.615 986.084 408.428 985.988 407.076H989.079C989.159 408.009 989.473 408.782 990.02 409.394C990.576 409.998 991.276 410.448 992.121 410.746C992.974 411.036 993.892 411.181 994.874 411.181C996.017 411.181 997.043 410.996 997.953 410.625C998.862 410.247 999.583 409.724 1000.11 409.056C1000.65 408.38 1000.91 407.591 1000.91 406.689C1000.91 405.868 1000.68 405.2 1000.22 404.685C999.764 404.17 999.16 403.751 998.412 403.429C997.663 403.107 996.854 402.826 995.985 402.584L992.942 401.715C991.01 401.16 989.481 400.367 988.354 399.336C987.227 398.306 986.664 396.958 986.664 395.292C986.664 393.907 987.038 392.7 987.787 391.67C988.543 390.631 989.558 389.826 990.829 389.255C992.109 388.675 993.538 388.385 995.116 388.385C996.709 388.385 998.126 388.671 999.366 389.243C1000.61 389.806 1001.59 390.579 1002.31 391.561C1003.04 392.543 1003.43 393.658 1003.47 394.905H1000.57ZM1016.41 394.905V397.32H1006.8V394.905H1016.41ZM1009.6 390.462H1012.45V408.138C1012.45 408.943 1012.57 409.547 1012.8 409.949C1013.04 410.344 1013.35 410.609 1013.72 410.746C1014.1 410.875 1014.5 410.939 1014.91 410.939C1015.23 410.939 1015.49 410.923 1015.69 410.891C1015.89 410.851 1016.05 410.819 1016.17 410.795L1016.75 413.354C1016.56 413.427 1016.29 413.499 1015.94 413.572C1015.59 413.652 1015.16 413.692 1014.62 413.692C1013.82 413.692 1013.03 413.519 1012.26 413.173C1011.49 412.827 1010.86 412.3 1010.35 411.591C1009.85 410.883 1009.6 409.99 1009.6 408.911V390.462ZM1026.15 413.885C1024.98 413.885 1023.91 413.664 1022.95 413.221C1022 412.771 1021.24 412.123 1020.67 411.277C1020.11 410.424 1019.83 409.394 1019.83 408.187C1019.83 407.124 1020.04 406.263 1020.46 405.603C1020.87 404.935 1021.43 404.411 1022.13 404.033C1022.83 403.655 1023.61 403.373 1024.45 403.188C1025.31 402.995 1026.16 402.842 1027.02 402.729C1028.15 402.584 1029.06 402.476 1029.76 402.403C1030.47 402.323 1030.99 402.19 1031.31 402.005C1031.64 401.82 1031.81 401.498 1031.81 401.039V400.942C1031.81 399.751 1031.48 398.825 1030.83 398.165C1030.18 397.505 1029.21 397.175 1027.89 397.175C1026.53 397.175 1025.47 397.473 1024.69 398.069C1023.92 398.664 1023.38 399.3 1023.06 399.976L1020.36 399.01C1020.84 397.884 1021.49 397.006 1022.29 396.378C1023.1 395.742 1023.99 395.3 1024.95 395.05C1025.91 394.793 1026.86 394.664 1027.8 394.664C1028.39 394.664 1029.08 394.736 1029.85 394.881C1030.63 395.018 1031.38 395.304 1032.11 395.738C1032.84 396.173 1033.45 396.829 1033.93 397.706C1034.41 398.584 1034.65 399.759 1034.65 401.232V413.451H1031.81V410.939H1031.66C1031.47 411.342 1031.14 411.773 1030.69 412.231C1030.24 412.69 1029.64 413.081 1028.9 413.402C1028.15 413.724 1027.23 413.885 1026.15 413.885ZM1026.59 411.326C1027.72 411.326 1028.67 411.104 1029.44 410.662C1030.22 410.219 1030.81 409.648 1031.2 408.947C1031.6 408.247 1031.81 407.51 1031.81 406.738V404.13C1031.68 404.275 1031.42 404.407 1031.01 404.528C1030.61 404.641 1030.14 404.741 1029.61 404.83C1029.08 404.911 1028.57 404.983 1028.07 405.047C1027.58 405.104 1027.18 405.152 1026.88 405.192C1026.14 405.289 1025.45 405.446 1024.8 405.663C1024.17 405.872 1023.65 406.19 1023.26 406.617C1022.87 407.036 1022.68 407.607 1022.68 408.331C1022.68 409.322 1023.04 410.07 1023.78 410.577C1024.52 411.076 1025.45 411.326 1026.59 411.326ZM1047.92 394.905V397.32H1038.31V394.905H1047.92ZM1041.11 390.462H1043.96V408.138C1043.96 408.943 1044.08 409.547 1044.31 409.949C1044.55 410.344 1044.86 410.609 1045.23 410.746C1045.61 410.875 1046 410.939 1046.42 410.939C1046.74 410.939 1046.99 410.923 1047.2 410.891C1047.4 410.851 1047.56 410.819 1047.68 410.795L1048.26 413.354C1048.07 413.427 1047.8 413.499 1047.45 413.572C1047.1 413.652 1046.66 413.692 1046.13 413.692C1045.33 413.692 1044.54 413.519 1043.77 413.173C1043 412.827 1042.37 412.3 1041.86 411.591C1041.36 410.883 1041.11 409.99 1041.11 408.911V390.462ZM1059.78 413.837C1058 413.837 1056.45 413.443 1055.16 412.654C1053.87 411.857 1052.88 410.746 1052.18 409.322C1051.48 407.889 1051.14 406.223 1051.14 404.323C1051.14 402.423 1051.48 400.749 1052.18 399.3C1052.88 397.843 1053.85 396.708 1055.1 395.895C1056.35 395.074 1057.82 394.664 1059.49 394.664C1060.46 394.664 1061.41 394.825 1062.35 395.147C1063.3 395.469 1064.15 395.992 1064.93 396.716C1065.7 397.433 1066.32 398.383 1066.77 399.566C1067.23 400.749 1067.46 402.206 1067.46 403.937V405.144H1053.17V402.681H1064.56C1064.56 401.634 1064.36 400.701 1063.94 399.88C1063.53 399.059 1062.94 398.411 1062.17 397.936C1061.42 397.461 1060.52 397.224 1059.49 397.224C1058.36 397.224 1057.38 397.505 1056.55 398.069C1055.73 398.624 1055.09 399.349 1054.65 400.242C1054.21 401.135 1053.99 402.093 1053.99 403.116V404.758C1053.99 406.158 1054.23 407.345 1054.71 408.319C1055.2 409.285 1055.88 410.022 1056.75 410.529C1057.62 411.028 1058.63 411.277 1059.78 411.277C1060.53 411.277 1061.21 411.173 1061.81 410.964C1062.42 410.746 1062.95 410.424 1063.39 409.998C1063.84 409.563 1064.18 409.024 1064.42 408.38L1067.17 409.152C1066.88 410.086 1066.4 410.907 1065.71 411.616C1065.03 412.316 1064.18 412.863 1063.18 413.258C1062.17 413.644 1061.04 413.837 1059.78 413.837Z" fill="white"/>
<rect x="78.7488" y="133.752" width="286.961" height="118.263" rx="10" fill="#FF2D55"/>
<path d="M187.008 180.025L194.349 200.84H194.639L201.98 180.025H205.119L196.04 204.752H192.949L183.869 180.025H187.008ZM208.584 204.752V186.206H211.434V204.752H208.584ZM210.033 183.115C209.478 183.115 208.999 182.926 208.596 182.548C208.202 182.17 208.005 181.715 208.005 181.184C208.005 180.652 208.202 180.198 208.596 179.819C208.999 179.441 209.478 179.252 210.033 179.252C210.589 179.252 211.063 179.441 211.458 179.819C211.86 180.198 212.062 180.652 212.062 181.184C212.062 181.715 211.86 182.17 211.458 182.548C211.063 182.926 210.589 183.115 210.033 183.115ZM224.428 205.138C222.641 205.138 221.1 204.744 219.804 203.955C218.516 203.158 217.522 202.047 216.822 200.623C216.129 199.19 215.783 197.524 215.783 195.624C215.783 193.724 216.129 192.05 216.822 190.601C217.522 189.144 218.496 188.009 219.744 187.196C220.999 186.375 222.464 185.965 224.138 185.965C225.104 185.965 226.058 186.126 227 186.448C227.942 186.77 228.799 187.293 229.572 188.017C230.344 188.734 230.96 189.684 231.419 190.867C231.878 192.05 232.107 193.507 232.107 195.238V196.445H217.812V193.982H229.209C229.209 192.936 229 192.002 228.582 191.181C228.171 190.36 227.584 189.712 226.819 189.237C226.062 188.762 225.169 188.525 224.138 188.525C223.004 188.525 222.022 188.806 221.192 189.37C220.371 189.925 219.74 190.65 219.297 191.543C218.854 192.436 218.633 193.394 218.633 194.417V196.059C218.633 197.459 218.874 198.646 219.357 199.62C219.848 200.586 220.528 201.323 221.398 201.83C222.267 202.329 223.277 202.579 224.428 202.579C225.177 202.579 225.853 202.474 226.457 202.265C227.068 202.047 227.596 201.725 228.038 201.299C228.481 200.864 228.823 200.325 229.065 199.681L231.817 200.454C231.528 201.387 231.041 202.208 230.357 202.917C229.672 203.617 228.827 204.164 227.821 204.559C226.815 204.945 225.684 205.138 224.428 205.138ZM240.643 204.752L234.993 186.206H237.987L241.996 200.405H242.189L246.149 186.206H249.192L253.104 200.357H253.297L257.305 186.206H260.3L254.649 204.752H251.848L247.791 190.505H247.501L243.445 204.752H240.643Z" fill="white"/>
<rect x="127.445" y="342.451" width="573.922" height="118.263" rx="10" fill="#FF2D55"/>
<path d="M379.185 388.724L386.526 409.539H386.816L394.157 388.724H397.296L388.217 413.451H385.126L376.046 388.724H379.185ZM400.761 413.451V394.905H403.611V413.451H400.761ZM402.21 391.814C401.655 391.814 401.176 391.625 400.773 391.247C400.379 390.869 400.182 390.414 400.182 389.883C400.182 389.351 400.379 388.897 400.773 388.518C401.176 388.14 401.655 387.951 402.21 387.951C402.766 387.951 403.24 388.14 403.635 388.518C404.037 388.897 404.239 389.351 404.239 389.883C404.239 390.414 404.037 390.869 403.635 391.247C403.24 391.625 402.766 391.814 402.21 391.814ZM416.605 413.837C414.818 413.837 413.277 413.443 411.981 412.654C410.693 411.857 409.699 410.746 408.999 409.322C408.306 407.889 407.96 406.223 407.96 404.323C407.96 402.423 408.306 400.749 408.999 399.3C409.699 397.843 410.673 396.708 411.921 395.895C413.176 395.074 414.641 394.664 416.315 394.664C417.281 394.664 418.235 394.825 419.177 395.147C420.119 395.469 420.976 395.992 421.749 396.716C422.521 397.433 423.137 398.383 423.596 399.566C424.055 400.749 424.284 402.206 424.284 403.937V405.144H409.989V402.681H421.386C421.386 401.634 421.177 400.701 420.759 399.88C420.348 399.059 419.76 398.411 418.996 397.936C418.239 397.461 417.346 397.224 416.315 397.224C415.18 397.224 414.198 397.505 413.369 398.069C412.548 398.624 411.916 399.349 411.474 400.242C411.031 401.135 410.81 402.093 410.81 403.116V404.758C410.81 406.158 411.051 407.345 411.534 408.319C412.025 409.285 412.705 410.022 413.575 410.529C414.444 411.028 415.454 411.277 416.605 411.277C417.354 411.277 418.03 411.173 418.634 410.964C419.245 410.746 419.773 410.424 420.215 409.998C420.658 409.563 421 409.024 421.242 408.38L423.994 409.152C423.705 410.086 423.218 410.907 422.533 411.616C421.849 412.316 421.004 412.863 419.998 413.258C418.992 413.644 417.861 413.837 416.605 413.837ZM432.82 413.451L427.17 394.905H430.164L434.173 409.104H434.366L438.326 394.905H441.369L445.281 409.056H445.474L449.482 394.905H452.477L446.826 413.451H444.025L439.968 399.204H439.678L435.622 413.451H432.82Z" fill="white"/>
<path d="M447.768 167.768C448.744 166.791 448.744 165.209 447.768 164.232L431.858 148.322C430.882 147.346 429.299 147.346 428.322 148.322C427.346 149.299 427.346 150.882 428.322 151.858L442.464 166L428.322 180.142C427.346 181.118 427.346 182.701 428.322 183.678C429.299 184.654 430.882 184.654 431.858 183.678L447.768 167.768ZM375 168.5H446V163.5H375V168.5Z" fill="#14AE5C"/>
<path d="M373.232 222.232C372.256 223.209 372.256 224.791 373.232 225.768L389.142 241.678C390.118 242.654 391.701 242.654 392.678 241.678C393.654 240.701 393.654 239.118 392.678 238.142L378.536 224L392.678 209.858C393.654 208.882 393.654 207.299 392.678 206.322C391.701 205.346 390.118 205.346 389.142 206.322L373.232 222.232ZM446 221.5H375V226.5H446V221.5Z" fill="#007AFF"/>
<path d="M836.768 167.768C837.744 166.791 837.744 165.209 836.768 164.232L820.858 148.322C819.882 147.346 818.299 147.346 817.322 148.322C816.346 149.299 816.346 150.882 817.322 151.858L831.464 166L817.322 180.142C816.346 181.118 816.346 182.701 817.322 183.678C818.299 184.654 819.882 184.654 820.858 183.678L836.768 167.768ZM765 168.5H835V163.5H765V168.5Z" fill="#14AE5C"/>
<path d="M763.232 222.232C762.256 223.209 762.256 224.791 763.232 225.768L779.142 241.678C780.118 242.654 781.701 242.654 782.678 241.678C783.654 240.701 783.654 239.118 782.678 238.142L768.536 224L782.678 209.858C783.654 208.882 783.654 207.299 782.678 206.322C781.701 205.346 780.118 205.346 779.142 206.322L763.232 222.232ZM835 221.5H765V226.5H835V221.5Z" fill="#007AFF"/>
<path d="M1224.77 167.768C1225.74 166.791 1225.74 165.209 1224.77 164.232L1208.86 148.322C1207.88 147.346 1206.3 147.346 1205.32 148.322C1204.35 149.299 1204.35 150.882 1205.32 151.858L1219.46 166L1205.32 180.142C1204.35 181.118 1204.35 182.701 1205.32 183.678C1206.3 184.654 1207.88 184.654 1208.86 183.678L1224.77 167.768ZM1152 168.5H1223V163.5H1152V168.5Z" fill="#14AE5C"/>
<path d="M1150.23 222.232C1149.26 223.209 1149.26 224.791 1150.23 225.768L1166.14 241.678C1167.12 242.654 1168.7 242.654 1169.68 241.678C1170.65 240.701 1170.65 239.118 1169.68 238.142L1155.54 224L1169.68 209.858C1170.65 208.882 1170.65 207.299 1169.68 206.322C1168.7 205.346 1167.12 205.346 1166.14 206.322L1150.23 222.232ZM1223 221.5H1152V226.5H1223V221.5Z" fill="#007AFF"/>
<path d="M763.232 399.232C762.256 400.209 762.256 401.791 763.232 402.768L779.142 418.678C780.118 419.654 781.701 419.654 782.678 418.678C783.654 417.701 783.654 416.118 782.678 415.142L768.536 401L782.678 386.858C783.654 385.882 783.654 384.299 782.678 383.322C781.701 382.346 780.118 382.346 779.142 383.322L763.232 399.232ZM835 398.5H765V403.5H835V398.5Z" fill="#007AFF"/>
<path d="M993.232 334.768C994.209 335.744 995.791 335.744 996.768 334.768L1012.68 318.858C1013.65 317.882 1013.65 316.299 1012.68 315.322C1011.7 314.346 1010.12 314.346 1009.14 315.322L995 329.464L980.858 315.322C979.882 314.346 978.299 314.346 977.322 315.322C976.346 316.299 976.346 317.882 977.322 318.858L993.232 334.768ZM992.5 264L992.5 333L997.5 333L997.5 264L992.5 264Z" fill="#007AFF"/>
<path d="M355.387 33.2031C355.262 31.9427 354.725 30.9635 353.777 30.2656C352.829 29.5677 351.543 29.2187 349.918 29.2187C348.814 29.2187 347.882 29.375 347.121 29.6875C346.361 29.9896 345.777 30.4115 345.371 30.9531C344.975 31.4948 344.777 32.1094 344.777 32.7969C344.757 33.3698 344.876 33.8698 345.137 34.2969C345.408 34.724 345.777 35.0937 346.246 35.4062C346.715 35.7083 347.257 35.974 347.871 36.2031C348.486 36.4219 349.142 36.6094 349.84 36.7656L352.715 37.4531C354.111 37.7656 355.392 38.1823 356.559 38.7031C357.725 39.224 358.736 39.8646 359.59 40.625C360.444 41.3854 361.105 42.2812 361.574 43.3125C362.053 44.3437 362.298 45.526 362.309 46.8594C362.298 48.8177 361.798 50.5156 360.809 51.9531C359.829 53.3802 358.413 54.4896 356.559 55.2812C354.715 56.0625 352.491 56.4531 349.887 56.4531C347.303 56.4531 345.053 56.0573 343.137 55.2656C341.23 54.474 339.741 53.3021 338.668 51.75C337.605 50.1875 337.048 48.2552 336.996 45.9531H343.543C343.616 47.026 343.923 47.9219 344.465 48.6406C345.017 49.349 345.751 49.8854 346.668 50.25C347.595 50.6042 348.642 50.7812 349.809 50.7812C350.954 50.7812 351.949 50.6146 352.793 50.2812C353.647 49.9479 354.309 49.4844 354.777 48.8906C355.246 48.2969 355.48 47.6146 355.48 46.8437C355.48 46.125 355.267 45.5208 354.84 45.0312C354.423 44.5417 353.809 44.125 352.996 43.7812C352.194 43.4375 351.21 43.125 350.043 42.8437L346.559 41.9687C343.861 41.3125 341.73 40.2865 340.168 38.8906C338.605 37.4948 337.829 35.6146 337.84 33.25C337.829 31.3125 338.345 29.6198 339.387 28.1719C340.439 26.724 341.882 25.5937 343.715 24.7812C345.548 23.9687 347.632 23.5625 349.965 23.5625C352.34 23.5625 354.413 23.9687 356.184 24.7812C357.965 25.5937 359.35 26.724 360.34 28.1719C361.329 29.6198 361.84 31.2969 361.871 33.2031H355.387ZM377.578 56.4688C375.12 56.4688 373.005 55.9479 371.234 54.9062C369.474 53.8542 368.12 52.3958 367.172 50.5312C366.234 48.6667 365.766 46.5208 365.766 44.0937C365.766 41.6354 366.24 39.4792 367.188 37.625C368.146 35.7604 369.505 34.3073 371.266 33.2656C373.026 32.2135 375.12 31.6875 377.547 31.6875C379.641 31.6875 381.474 32.0677 383.047 32.8281C384.62 33.5885 385.865 34.6562 386.781 36.0312C387.698 37.4062 388.203 39.0208 388.297 40.875H382.016C381.839 39.6771 381.37 38.7135 380.609 37.9844C379.859 37.2448 378.875 36.875 377.656 36.875C376.625 36.875 375.724 37.1562 374.953 37.7187C374.193 38.2708 373.599 39.0781 373.172 40.1406C372.745 41.2031 372.531 42.4896 372.531 44C372.531 45.5312 372.74 46.8333 373.156 47.9062C373.583 48.9792 374.182 49.7969 374.953 50.3594C375.724 50.9219 376.625 51.2031 377.656 51.2031C378.417 51.2031 379.099 51.0469 379.703 50.7344C380.318 50.4219 380.823 49.9687 381.219 49.375C381.625 48.7708 381.891 48.0469 382.016 47.2031H388.297C388.193 49.0365 387.693 50.651 386.797 52.0469C385.911 53.4323 384.688 54.5156 383.125 55.2969C381.563 56.0781 379.714 56.4688 377.578 56.4688ZM392.559 56V32H399.012V36.1875H399.262C399.699 34.6979 400.434 33.5729 401.465 32.8125C402.496 32.0417 403.684 31.6562 405.027 31.6562C405.361 31.6562 405.72 31.6771 406.105 31.7187C406.491 31.7604 406.829 31.8177 407.121 31.8906V37.7969C406.809 37.7031 406.376 37.6198 405.824 37.5469C405.272 37.474 404.767 37.4375 404.309 37.4375C403.329 37.4375 402.454 37.651 401.684 38.0781C400.923 38.4948 400.319 39.0781 399.871 39.8281C399.434 40.5781 399.215 41.4427 399.215 42.4219V56H392.559ZM420.383 56.4688C417.914 56.4688 415.789 55.9688 414.008 54.9688C412.237 53.9583 410.872 52.5312 409.914 50.6875C408.956 48.8333 408.477 46.6406 408.477 44.1094C408.477 41.6406 408.956 39.474 409.914 37.6094C410.872 35.7448 412.221 34.2917 413.961 33.25C415.711 32.2083 417.763 31.6875 420.117 31.6875C421.701 31.6875 423.174 31.9427 424.539 32.4531C425.914 32.9531 427.112 33.7083 428.133 34.7187C429.164 35.7292 429.966 37 430.539 38.5312C431.112 40.0521 431.398 41.8333 431.398 43.875V45.7031H411.133V41.5781H425.133C425.133 40.6198 424.924 39.7708 424.508 39.0313C424.091 38.2917 423.513 37.7135 422.773 37.2969C422.044 36.8698 421.195 36.6562 420.227 36.6562C419.216 36.6562 418.32 36.8906 417.539 37.3594C416.768 37.8177 416.164 38.4375 415.727 39.2187C415.289 39.9896 415.065 40.849 415.055 41.7969V45.7187C415.055 46.9062 415.273 47.9323 415.711 48.7969C416.159 49.6615 416.789 50.3281 417.602 50.7969C418.414 51.2656 419.378 51.5 420.492 51.5C421.232 51.5 421.909 51.3958 422.523 51.1875C423.138 50.9792 423.664 50.6667 424.102 50.25C424.539 49.8333 424.872 49.3229 425.102 48.7188L431.258 49.125C430.945 50.6042 430.305 51.8958 429.336 53C428.378 54.0937 427.138 54.9479 425.617 55.5625C424.107 56.1667 422.362 56.4688 420.383 56.4688ZM446.68 56.4688C444.211 56.4688 442.086 55.9688 440.305 54.9688C438.534 53.9583 437.169 52.5312 436.211 50.6875C435.253 48.8333 434.773 46.6406 434.773 44.1094C434.773 41.6406 435.253 39.474 436.211 37.6094C437.169 35.7448 438.518 34.2917 440.258 33.25C442.008 32.2083 444.06 31.6875 446.414 31.6875C447.997 31.6875 449.471 31.9427 450.836 32.4531C452.211 32.9531 453.409 33.7083 454.43 34.7187C455.461 35.7292 456.263 37 456.836 38.5312C457.409 40.0521 457.695 41.8333 457.695 43.875V45.7031H437.43V41.5781H451.43C451.43 40.6198 451.221 39.7708 450.805 39.0313C450.388 38.2917 449.81 37.7135 449.07 37.2969C448.341 36.8698 447.492 36.6562 446.523 36.6562C445.513 36.6562 444.617 36.8906 443.836 37.3594C443.065 37.8177 442.461 38.4375 442.023 39.2187C441.586 39.9896 441.362 40.849 441.352 41.7969V45.7187C441.352 46.9062 441.57 47.9323 442.008 48.7969C442.456 49.6615 443.086 50.3281 443.898 50.7969C444.711 51.2656 445.674 51.5 446.789 51.5C447.529 51.5 448.206 51.3958 448.82 51.1875C449.435 50.9792 449.961 50.6667 450.398 50.25C450.836 49.8333 451.169 49.3229 451.398 48.7188L457.555 49.125C457.242 50.6042 456.602 51.8958 455.633 53C454.674 54.0937 453.435 54.9479 451.914 55.5625C450.404 56.1667 448.659 56.4688 446.68 56.4688ZM468.695 42.125V56H462.039V32H468.383V36.2344H468.664C469.195 34.8385 470.086 33.7344 471.336 32.9219C472.586 32.099 474.102 31.6875 475.883 31.6875C477.549 31.6875 479.003 32.0521 480.242 32.7812C481.482 33.5104 482.445 34.5521 483.133 35.9062C483.82 37.25 484.164 38.8542 484.164 40.7187V56H477.508V41.9062C477.518 40.4375 477.143 39.2917 476.383 38.4688C475.622 37.6354 474.576 37.2187 473.242 37.2187C472.346 37.2187 471.555 37.4115 470.867 37.7969C470.19 38.1823 469.659 38.7448 469.273 39.4844C468.898 40.2135 468.706 41.0938 468.695 42.125Z" fill="black"/>
<path d="M932.264 33.2031C932.139 31.9427 931.602 30.9635 930.654 30.2656C929.706 29.5677 928.42 29.2187 926.795 29.2187C925.691 29.2187 924.758 29.375 923.998 29.6875C923.238 29.9896 922.654 30.4115 922.248 30.9531C921.852 31.4948 921.654 32.1094 921.654 32.7969C921.633 33.3698 921.753 33.8698 922.014 34.2969C922.285 34.724 922.654 35.0937 923.123 35.4062C923.592 35.7083 924.133 35.974 924.748 36.2031C925.363 36.4219 926.019 36.6094 926.717 36.7656L929.592 37.4531C930.988 37.7656 932.269 38.1823 933.436 38.7031C934.602 39.224 935.613 39.8646 936.467 40.625C937.321 41.3854 937.982 42.2812 938.451 43.3125C938.93 44.3437 939.175 45.526 939.186 46.8594C939.175 48.8177 938.675 50.5156 937.686 51.9531C936.706 53.3802 935.29 54.4896 933.436 55.2812C931.592 56.0625 929.368 56.4531 926.764 56.4531C924.18 56.4531 921.93 56.0573 920.014 55.2656C918.107 54.474 916.618 53.3021 915.545 51.75C914.482 50.1875 913.925 48.2552 913.873 45.9531H920.42C920.493 47.026 920.8 47.9219 921.342 48.6406C921.894 49.349 922.628 49.8854 923.545 50.25C924.472 50.6042 925.519 50.7812 926.686 50.7812C927.831 50.7812 928.826 50.6146 929.67 50.2812C930.524 49.9479 931.186 49.4844 931.654 48.8906C932.123 48.2969 932.357 47.6146 932.357 46.8437C932.357 46.125 932.144 45.5208 931.717 45.0312C931.3 44.5417 930.686 44.125 929.873 43.7812C929.071 43.4375 928.087 43.125 926.92 42.8437L923.436 41.9687C920.738 41.3125 918.607 40.2865 917.045 38.8906C915.482 37.4948 914.706 35.6146 914.717 33.25C914.706 31.3125 915.222 29.6198 916.264 28.1719C917.316 26.724 918.758 25.5937 920.592 24.7812C922.425 23.9687 924.508 23.5625 926.842 23.5625C929.217 23.5625 931.29 23.9687 933.061 24.7812C934.842 25.5937 936.227 26.724 937.217 28.1719C938.206 29.6198 938.717 31.2969 938.748 33.2031H932.264ZM954.549 56.4688C952.08 56.4688 949.955 55.9688 948.174 54.9688C946.403 53.9583 945.038 52.5312 944.08 50.6875C943.122 48.8333 942.643 46.6406 942.643 44.1094C942.643 41.6406 943.122 39.474 944.08 37.6094C945.038 35.7448 946.387 34.2917 948.127 33.25C949.877 32.2083 951.929 31.6875 954.283 31.6875C955.867 31.6875 957.34 31.9427 958.705 32.4531C960.08 32.9531 961.278 33.7083 962.299 34.7187C963.33 35.7292 964.132 37 964.705 38.5312C965.278 40.0521 965.564 41.8333 965.564 43.875V45.7031H945.299V41.5781H959.299C959.299 40.6198 959.09 39.7708 958.674 39.0313C958.257 38.2917 957.679 37.7135 956.939 37.2969C956.21 36.8698 955.361 36.6562 954.393 36.6562C953.382 36.6562 952.486 36.8906 951.705 37.3594C950.934 37.8177 950.33 38.4375 949.893 39.2187C949.455 39.9896 949.231 40.849 949.221 41.7969V45.7187C949.221 46.9062 949.439 47.9323 949.877 48.7969C950.325 49.6615 950.955 50.3281 951.768 50.7969C952.58 51.2656 953.544 51.5 954.658 51.5C955.398 51.5 956.075 51.3958 956.689 51.1875C957.304 50.9792 957.83 50.6667 958.268 50.25C958.705 49.8333 959.038 49.3229 959.268 48.7188L965.424 49.125C965.111 50.6042 964.471 51.8958 963.502 53C962.544 54.0937 961.304 54.9479 959.783 55.5625C958.273 56.1667 956.528 56.4688 954.549 56.4688ZM969.908 56V32H976.361V36.1875H976.611C977.049 34.6979 977.783 33.5729 978.814 32.8125C979.846 32.0417 981.033 31.6562 982.377 31.6562C982.71 31.6562 983.07 31.6771 983.455 31.7187C983.84 31.7604 984.179 31.8177 984.471 31.8906V37.7969C984.158 37.7031 983.726 37.6198 983.174 37.5469C982.622 37.474 982.117 37.4375 981.658 37.4375C980.679 37.4375 979.804 37.651 979.033 38.0781C978.273 38.4948 977.669 39.0781 977.221 39.8281C976.783 40.5781 976.564 41.4427 976.564 42.4219V56H969.908ZM1011.02 32L1002.63 56H995.127L986.736 32H993.768L998.752 49.1719H999.002L1003.97 32H1011.02ZM1014.42 56V32H1021.08V56H1014.42ZM1017.77 28.9062C1016.78 28.9062 1015.93 28.5781 1015.22 27.9219C1014.52 27.2552 1014.17 26.4583 1014.17 25.5312C1014.17 24.6146 1014.52 23.8281 1015.22 23.1719C1015.93 22.5052 1016.78 22.1719 1017.77 22.1719C1018.76 22.1719 1019.6 22.5052 1020.3 23.1719C1021.01 23.8281 1021.36 24.6146 1021.36 25.5312C1021.36 26.4583 1021.01 27.2552 1020.3 27.9219C1019.6 28.5781 1018.76 28.9062 1017.77 28.9062ZM1037.26 56.4688C1034.8 56.4688 1032.68 55.9479 1030.91 54.9062C1029.15 53.8542 1027.8 52.3958 1026.85 50.5312C1025.91 48.6667 1025.44 46.5208 1025.44 44.0937C1025.44 41.6354 1025.92 39.4792 1026.87 37.625C1027.82 35.7604 1029.18 34.3073 1030.94 33.2656C1032.7 32.2135 1034.8 31.6875 1037.22 31.6875C1039.32 31.6875 1041.15 32.0677 1042.72 32.8281C1044.3 33.5885 1045.54 34.6562 1046.46 36.0312C1047.38 37.4062 1047.88 39.0208 1047.97 40.875H1041.69C1041.52 39.6771 1041.05 38.7135 1040.29 37.9844C1039.54 37.2448 1038.55 36.875 1037.33 36.875C1036.3 36.875 1035.4 37.1562 1034.63 37.7187C1033.87 38.2708 1033.28 39.0781 1032.85 40.1406C1032.42 41.2031 1032.21 42.4896 1032.21 44C1032.21 45.5312 1032.42 46.8333 1032.83 47.9062C1033.26 48.9792 1033.86 49.7969 1034.63 50.3594C1035.4 50.9219 1036.3 51.2031 1037.33 51.2031C1038.09 51.2031 1038.78 51.0469 1039.38 50.7344C1040 50.4219 1040.5 49.9687 1040.9 49.375C1041.3 48.7708 1041.57 48.0469 1041.69 47.2031H1047.97C1047.87 49.0365 1047.37 50.651 1046.47 52.0469C1045.59 53.4323 1044.37 54.5156 1042.8 55.2969C1041.24 56.0781 1039.39 56.4688 1037.26 56.4688ZM1063.17 56.4688C1060.71 56.4688 1058.58 55.9688 1056.8 54.9688C1055.03 53.9583 1053.66 52.5312 1052.71 50.6875C1051.75 48.8333 1051.27 46.6406 1051.27 44.1094C1051.27 41.6406 1051.75 39.474 1052.71 37.6094C1053.66 35.7448 1055.01 34.2917 1056.75 33.25C1058.5 32.2083 1060.55 31.6875 1062.91 31.6875C1064.49 31.6875 1065.97 31.9427 1067.33 32.4531C1068.71 32.9531 1069.9 33.7083 1070.92 34.7187C1071.96 35.7292 1072.76 37 1073.33 38.5312C1073.9 40.0521 1074.19 41.8333 1074.19 43.875V45.7031H1053.92V41.5781H1067.92C1067.92 40.6198 1067.72 39.7708 1067.3 39.0313C1066.88 38.2917 1066.3 37.7135 1065.56 37.2969C1064.84 36.8698 1063.99 36.6562 1063.02 36.6562C1062.01 36.6562 1061.11 36.8906 1060.33 37.3594C1059.56 37.8177 1058.96 38.4375 1058.52 39.2187C1058.08 39.9896 1057.86 40.849 1057.85 41.7969V45.7187C1057.85 46.9062 1058.06 47.9323 1058.5 48.7969C1058.95 49.6615 1059.58 50.3281 1060.39 50.7969C1061.21 51.2656 1062.17 51.5 1063.28 51.5C1064.02 51.5 1064.7 51.3958 1065.31 51.1875C1065.93 50.9792 1066.46 50.6667 1066.89 50.25C1067.33 49.8333 1067.66 49.3229 1067.89 48.7188L1074.05 49.125C1073.74 50.6042 1073.1 51.8958 1072.13 53C1071.17 54.0937 1069.93 54.9479 1068.41 55.5625C1066.9 56.1667 1065.15 56.4688 1063.17 56.4688Z" fill="black"/>
<path d="M1311.52 56L1302.37 24H1309.76L1315.05 46.2344H1315.32L1321.16 24H1327.49L1333.32 46.2812H1333.6L1338.9 24H1346.29L1337.13 56H1330.54L1324.45 35.0781H1324.2L1318.12 56H1311.52ZM1358.05 56.4688C1355.62 56.4688 1353.52 55.9531 1351.75 54.9219C1349.99 53.8802 1348.63 52.4323 1347.68 50.5781C1346.72 48.7135 1346.24 46.5521 1346.24 44.0937C1346.24 41.6146 1346.72 39.4479 1347.68 37.5937C1348.63 35.7292 1349.99 34.2812 1351.75 33.25C1353.52 32.2083 1355.62 31.6875 1358.05 31.6875C1360.48 31.6875 1362.57 32.2083 1364.33 33.25C1366.1 34.2812 1367.47 35.7292 1368.43 37.5937C1369.38 39.4479 1369.86 41.6146 1369.86 44.0937C1369.86 46.5521 1369.38 48.7135 1368.43 50.5781C1367.47 52.4323 1366.1 53.8802 1364.33 54.9219C1362.57 55.9531 1360.48 56.4688 1358.05 56.4688ZM1358.08 51.3125C1359.19 51.3125 1360.11 51 1360.85 50.375C1361.59 49.7396 1362.14 48.875 1362.52 47.7812C1362.9 46.6875 1363.1 45.4427 1363.1 44.0469C1363.1 42.651 1362.9 41.4063 1362.52 40.3125C1362.14 39.2187 1361.59 38.3542 1360.85 37.7187C1360.11 37.0833 1359.19 36.7656 1358.08 36.7656C1356.97 36.7656 1356.03 37.0833 1355.27 37.7187C1354.52 38.3542 1353.95 39.2187 1353.57 40.3125C1353.19 41.4063 1353 42.651 1353 44.0469C1353 45.4427 1353.19 46.6875 1353.57 47.7812C1353.95 48.875 1354.52 49.7396 1355.27 50.375C1356.03 51 1356.97 51.3125 1358.08 51.3125ZM1374.19 56V32H1380.64V36.1875H1380.89C1381.33 34.6979 1382.07 33.5729 1383.1 32.8125C1384.13 32.0417 1385.32 31.6562 1386.66 31.6562C1386.99 31.6562 1387.35 31.6771 1387.74 31.7187C1388.12 31.7604 1388.46 31.8177 1388.75 31.8906V37.7969C1388.44 37.7031 1388.01 37.6198 1387.46 37.5469C1386.9 37.474 1386.4 37.4375 1385.94 37.4375C1384.96 37.4375 1384.09 37.651 1383.32 38.0781C1382.56 38.4948 1381.95 39.0781 1381.5 39.8281C1381.07 40.5781 1380.85 41.4427 1380.85 42.4219V56H1374.19ZM1398.23 49.0937L1398.24 41.1094H1399.21L1406.9 32H1414.54L1404.21 44.0625H1402.63L1398.23 49.0937ZM1392.2 56V24H1398.85V56H1392.2ZM1407.2 56L1400.13 45.5469L1404.57 40.8437L1414.99 56H1407.2ZM1427.75 56.4688C1425.29 56.4688 1423.16 55.9688 1421.38 54.9688C1419.61 53.9583 1418.24 52.5312 1417.29 50.6875C1416.33 48.8333 1415.85 46.6406 1415.85 44.1094C1415.85 41.6406 1416.33 39.474 1417.29 37.6094C1418.24 35.7448 1419.59 34.2917 1421.33 33.25C1423.08 32.2083 1425.13 31.6875 1427.49 31.6875C1429.07 31.6875 1430.55 31.9427 1431.91 32.4531C1433.29 32.9531 1434.48 33.7083 1435.5 34.7187C1436.54 35.7292 1437.34 37 1437.91 38.5312C1438.48 40.0521 1438.77 41.8333 1438.77 43.875V45.7031H1418.5V41.5781H1432.5C1432.5 40.6198 1432.3 39.7708 1431.88 39.0313C1431.46 38.2917 1430.88 37.7135 1430.14 37.2969C1429.42 36.8698 1428.57 36.6562 1427.6 36.6562C1426.59 36.6562 1425.69 36.8906 1424.91 37.3594C1424.14 37.8177 1423.54 38.4375 1423.1 39.2187C1422.66 39.9896 1422.44 40.849 1422.43 41.7969V45.7187C1422.43 46.9062 1422.64 47.9323 1423.08 48.7969C1423.53 49.6615 1424.16 50.3281 1424.97 50.7969C1425.79 51.2656 1426.75 51.5 1427.86 51.5C1428.6 51.5 1429.28 51.3958 1429.89 51.1875C1430.51 50.9792 1431.04 50.6667 1431.47 50.25C1431.91 49.8333 1432.24 49.3229 1432.47 48.7188L1438.63 49.125C1438.32 50.6042 1437.68 51.8958 1436.71 53C1435.75 54.0937 1434.51 54.9479 1432.99 55.5625C1431.48 56.1667 1429.73 56.4688 1427.75 56.4688ZM1443.11 56V32H1449.57V36.1875H1449.82C1450.25 34.6979 1450.99 33.5729 1452.02 32.8125C1453.05 32.0417 1454.24 31.6562 1455.58 31.6562C1455.92 31.6562 1456.27 31.6771 1456.66 31.7187C1457.05 31.7604 1457.38 31.8177 1457.68 31.8906V37.7969C1457.36 37.7031 1456.93 37.6198 1456.38 37.5469C1455.83 37.474 1455.32 37.4375 1454.86 37.4375C1453.88 37.4375 1453.01 37.651 1452.24 38.0781C1451.48 38.4948 1450.87 39.0781 1450.43 39.8281C1449.99 40.5781 1449.77 41.4427 1449.77 42.4219V56H1443.11Z" fill="black"/>
</svg>
