<svg width="1600" height="646" viewBox="0 0 1600 646" fill="none" xmlns="http://www.w3.org/2000/svg">
<rect width="1600" height="646" fill="white"/>
<line x1="202.699" y1="82.2846" x2="330.699" y2="207.285" stroke="#007AFF" stroke-width="2"/>
<line x1="212" y1="207" x2="330" y2="207" stroke="#007AFF" stroke-width="2"/>
<line x1="211.325" y1="315.262" x2="329.325" y2="207.262" stroke="#007AFF" stroke-width="2"/>
<line x1="212.698" y1="315.284" x2="330.698" y2="430.284" stroke="#007AFF" stroke-width="2"/>
<line x1="212.883" y1="315.531" x2="330.883" y2="537.531" stroke="#007AFF" stroke-width="2"/>
<line x1="203" y1="430" x2="330" y2="430" stroke="#007AFF" stroke-width="2"/>
<line x1="457.574" y1="342.819" x2="330.574" y2="431.819" stroke="#007AFF" stroke-width="2"/>
<line x1="457.587" y1="341.19" x2="602.587" y2="446.19" stroke="#007AFF" stroke-width="2"/>
<path d="M456.883 475.007L567.113 548.932C587.723 562.754 615.351 559.369 632.014 540.98L719.883 444.007" stroke="#007AFF" stroke-width="2"/>
<path d="M330 544L442.109 553.767C454.88 554.879 467.589 551.045 477.613 543.055L597.5 447.5" stroke="#007AFF" stroke-width="2"/>
<line x1="456.245" y1="475.344" x2="660.245" y2="240.344" stroke="#007AFF" stroke-width="2"/>
<line x1="211.328" y1="537.259" x2="329.328" y2="430.259" stroke="#007AFF" stroke-width="2"/>
<line x1="212" y1="537" x2="330" y2="537" stroke="#007AFF" stroke-width="2"/>
<line x1="457.839" y1="342.544" x2="330.839" y2="538.544" stroke="#007AFF" stroke-width="2"/>
<line x1="457.933" y1="208.359" x2="330.933" y2="538.359" stroke="#007AFF" stroke-width="2"/>
<line x1="202.345" y1="430.244" x2="329.345" y2="320.244" stroke="#007AFF" stroke-width="2"/>
<line x1="202.062" y1="430.653" x2="329.062" y2="87.6528" stroke="#007AFF" stroke-width="2"/>
<line x1="457" y1="322" x2="330" y2="322" stroke="#007AFF" stroke-width="2"/>
<line x1="457.665" y1="208.747" x2="330.665" y2="321.747" stroke="#007AFF" stroke-width="2"/>
<line x1="456.635" y1="320.069" x2="660.635" y2="240.069" stroke="#007AFF" stroke-width="2"/>
<line x1="202" y1="82" x2="330" y2="82" stroke="#007AFF" stroke-width="2"/>
<line x1="456.299" y1="208.713" x2="329.299" y2="83.7127" stroke="#007AFF" stroke-width="2"/>
<line x1="457" y1="209" x2="330" y2="209" stroke="#007AFF" stroke-width="2"/>
<line x1="457.155" y1="207.012" x2="661.155" y2="239.012" stroke="#007AFF" stroke-width="2"/>
<line x1="720" y1="441" x2="602" y2="441" stroke="#007AFF" stroke-width="2"/>
<line x1="719.422" y1="439.184" x2="997.422" y2="242.184" stroke="#007AFF" stroke-width="2"/>
<line x1="720" y1="439" x2="998" y2="439" stroke="#007AFF" stroke-width="2"/>
<line x1="661" y1="242" x2="998" y2="242" stroke="#007AFF" stroke-width="2"/>
<line x1="997.728" y1="242.038" x2="1142.73" y2="201.038" stroke="#007AFF" stroke-width="2"/>
<line x1="1270.67" y1="88.7442" x2="1143.67" y2="202.744" stroke="#007AFF" stroke-width="2"/>
<line x1="1270" y1="87" x2="1397" y2="87" stroke="#007AFF" stroke-width="2"/>
<line x1="1278.12" y1="308.529" x2="1396.12" y2="87.529" stroke="#007AFF" stroke-width="2"/>
<line x1="1278.35" y1="308.24" x2="1396.35" y2="207.24" stroke="#007AFF" stroke-width="2"/>
<line x1="1269.35" y1="429.238" x2="1396.35" y2="321.238" stroke="#007AFF" stroke-width="2"/>
<line x1="998.137" y1="446.009" x2="1143.14" y2="466.009" stroke="#007AFF" stroke-width="2"/>
<line x1="1269.48" y1="544.855" x2="1142.48" y2="467.855" stroke="#007AFF" stroke-width="2"/>
<line x1="1270" y1="543" x2="1397" y2="543" stroke="#007AFF" stroke-width="2"/>
<line x1="1270.66" y1="430.253" x2="1397.66" y2="543.253" stroke="#007AFF" stroke-width="2"/>
<line x1="1270.33" y1="431.943" x2="1143.33" y2="476.943" stroke="#007AFF" stroke-width="2"/>
<line x1="1270" y1="430" x2="1397" y2="430" stroke="#007AFF" stroke-width="2"/>
<line x1="1007.83" y1="263.443" x2="1143.83" y2="466.443" stroke="#007AFF" stroke-width="2"/>
<line x1="997.413" y1="446.19" x2="1142.41" y2="341.19" stroke="#007AFF" stroke-width="2"/>
<line x1="1007.59" y1="242.192" x2="1143.59" y2="341.192" stroke="#007AFF" stroke-width="2"/>
<line x1="1270.74" y1="202.672" x2="1143.74" y2="342.672" stroke="#007AFF" stroke-width="2"/>
<line x1="1269.31" y1="316.719" x2="1151.31" y2="202.719" stroke="#007AFF" stroke-width="2"/>
<line x1="1270.79" y1="316.616" x2="1152.79" y2="467.616" stroke="#007AFF" stroke-width="2"/>
<line x1="1270.87" y1="201.508" x2="1397.87" y2="426.508" stroke="#007AFF" stroke-width="2"/>
<path d="M859.122 623C850.353 623 843.244 615.891 843.244 607.122V38.8779C843.244 30.1088 850.353 23 859.122 23V23C867.891 23 875 30.1088 875 38.8779V607.122C875 615.891 867.891 623 859.122 623V623Z" fill="#00C7BE"/>
<path d="M849.818 446.274V444.073H861.857C863.099 444.073 864.209 444.366 865.186 444.951C866.156 445.531 866.923 446.351 867.485 447.411C868.041 448.47 868.32 449.713 868.32 451.139C868.32 452.566 868.041 453.809 867.485 454.868C866.923 455.927 866.156 456.75 865.186 457.336C864.209 457.916 863.099 458.206 861.857 458.206H849.818V456.004H861.679C862.567 456.004 863.357 455.809 864.049 455.418C864.736 455.028 865.277 454.471 865.674 453.749C866.065 453.021 866.26 452.151 866.26 451.139C866.26 450.127 866.065 449.257 865.674 448.529C865.277 447.801 864.736 447.245 864.049 446.86C863.357 446.47 862.567 446.274 861.679 446.274H849.818ZM854.364 429.733C853.464 429.839 852.766 430.271 852.268 431.029C851.771 431.786 851.523 432.716 851.523 433.816C851.523 434.621 851.653 435.326 851.913 435.929C852.174 436.527 852.532 436.995 852.988 437.332C853.443 437.664 853.961 437.829 854.541 437.829C855.027 437.829 855.444 437.714 855.793 437.483C856.136 437.246 856.423 436.944 856.654 436.577C856.879 436.211 857.065 435.826 857.213 435.423C857.355 435.021 857.471 434.651 857.56 434.314L858.057 432.467C858.181 431.994 858.353 431.467 858.572 430.887C858.791 430.301 859.09 429.742 859.468 429.209C859.841 428.67 860.321 428.226 860.907 427.877C861.493 427.528 862.212 427.353 863.064 427.353C864.046 427.353 864.934 427.611 865.727 428.126C866.52 428.635 867.151 429.38 867.618 430.363C868.086 431.34 868.32 432.526 868.32 433.923C868.32 435.225 868.109 436.353 867.689 437.305C867.269 438.252 866.683 438.998 865.931 439.543C865.18 440.081 864.307 440.386 863.312 440.457V438.184C863.999 438.125 864.567 437.894 865.017 437.492C865.461 437.083 865.792 436.569 866.011 435.947C866.224 435.32 866.331 434.645 866.331 433.923C866.331 433.083 866.195 432.328 865.923 431.659C865.644 430.99 865.26 430.461 864.768 430.07C864.271 429.679 863.691 429.484 863.028 429.484C862.425 429.484 861.933 429.653 861.555 429.99C861.176 430.327 860.868 430.771 860.631 431.322C860.395 431.872 860.187 432.467 860.01 433.106L859.371 435.343C858.962 436.764 858.379 437.888 857.622 438.717C856.864 439.546 855.873 439.96 854.648 439.96C853.63 439.96 852.742 439.685 851.984 439.134C851.221 438.578 850.629 437.832 850.209 436.897C849.783 435.956 849.57 434.905 849.57 433.745C849.57 432.574 849.78 431.532 850.2 430.62C850.614 429.709 851.182 428.987 851.904 428.454C852.627 427.916 853.446 427.632 854.364 427.602V429.733ZM868 423.733H849.818V412.76H851.771V421.532H857.915V413.329H859.868V421.532H866.047V412.618H868V423.733ZM855.5 394.161V396.363C854.867 396.493 854.31 396.721 853.831 397.047C853.352 397.366 852.949 397.757 852.624 398.219C852.292 398.674 852.044 399.18 851.878 399.737C851.712 400.293 851.629 400.873 851.629 401.477C851.629 402.578 851.907 403.575 852.464 404.469C853.02 405.356 853.84 406.064 854.923 406.59C856.006 407.111 857.335 407.372 858.909 407.372C860.483 407.372 861.812 407.111 862.895 406.59C863.978 406.064 864.798 405.356 865.354 404.469C865.911 403.575 866.189 402.578 866.189 401.477C866.189 400.873 866.106 400.293 865.94 399.737C865.775 399.18 865.529 398.674 865.203 398.219C864.872 397.757 864.467 397.366 863.987 397.047C863.502 396.721 862.946 396.493 862.318 396.363V394.161C863.247 394.327 864.079 394.629 864.813 395.067C865.547 395.505 866.171 396.049 866.686 396.7C867.195 397.351 867.583 398.082 867.849 398.893C868.115 399.698 868.249 400.559 868.249 401.477C868.249 403.027 867.87 404.406 867.112 405.614C866.355 406.821 865.277 407.771 863.881 408.464C862.484 409.156 860.827 409.502 858.909 409.502C856.991 409.502 855.334 409.156 853.937 408.464C852.541 407.771 851.464 406.821 850.706 405.614C849.948 404.406 849.57 403.027 849.57 401.477C849.57 400.559 849.703 399.698 849.969 398.893C850.235 398.082 850.626 397.351 851.141 396.7C851.65 396.049 852.271 395.505 853.005 395.067C853.733 394.629 854.565 394.327 855.5 394.161ZM868 389.858V392.166L849.818 385.49V383.217L868 376.541V378.849L852.695 384.283V384.425L868 389.858ZM860.898 389.006V379.702H862.851V389.006H860.898ZM854.364 363.766C853.464 363.872 852.766 364.304 852.268 365.062C851.771 365.82 851.523 366.749 851.523 367.85C851.523 368.655 851.653 369.359 851.913 369.963C852.174 370.56 852.532 371.028 852.988 371.365C853.443 371.697 853.961 371.862 854.541 371.862C855.027 371.862 855.444 371.747 855.793 371.516C856.136 371.279 856.423 370.978 856.654 370.611C856.879 370.244 857.065 369.859 857.213 369.457C857.355 369.054 857.471 368.684 857.56 368.347L858.057 366.5C858.181 366.027 858.353 365.5 858.572 364.92C858.791 364.334 859.09 363.775 859.468 363.242C859.841 362.703 860.321 362.26 860.907 361.91C861.493 361.561 862.212 361.387 863.064 361.387C864.046 361.387 864.934 361.644 865.727 362.159C866.52 362.668 867.151 363.414 867.618 364.396C868.086 365.373 868.32 366.559 868.32 367.956C868.32 369.258 868.109 370.386 867.689 371.339C867.269 372.286 866.683 373.031 865.931 373.576C865.18 374.114 864.307 374.419 863.312 374.49V372.218C863.999 372.158 864.567 371.928 865.017 371.525C865.461 371.117 865.792 370.602 866.011 369.98C866.224 369.353 866.331 368.678 866.331 367.956C866.331 367.116 866.195 366.361 865.923 365.692C865.644 365.024 865.26 364.494 864.768 364.103C864.271 363.713 863.691 363.517 863.028 363.517C862.425 363.517 861.933 363.686 861.555 364.023C861.176 364.361 860.868 364.805 860.631 365.355C860.395 365.905 860.187 366.5 860.01 367.139L859.371 369.377C858.962 370.797 858.379 371.922 857.622 372.75C856.864 373.579 855.873 373.993 854.648 373.993C853.63 373.993 852.742 373.718 851.984 373.167C851.221 372.611 850.629 371.865 850.209 370.93C849.783 369.989 849.57 368.939 849.57 367.779C849.57 366.607 849.78 365.565 850.2 364.654C850.614 363.742 851.182 363.02 851.904 362.487C852.627 361.949 853.446 361.665 854.364 361.635V363.766ZM868 357.767H849.818V346.794H851.771V355.565H857.915V347.362H859.868V355.565H866.047V346.652H868V357.767ZM868.249 330.929C868.249 332.124 868.03 333.154 867.592 334.018C867.154 334.883 866.553 335.548 865.789 336.016C865.026 336.484 864.153 336.717 863.17 336.717C862.413 336.717 861.741 336.557 861.155 336.238C860.563 335.912 860.016 335.466 859.513 334.897C859.004 334.323 858.495 333.663 857.986 332.918L856.033 330.29C855.695 329.775 855.334 329.363 854.95 329.056C854.565 328.742 854.062 328.585 853.44 328.585C852.979 328.585 852.532 328.789 852.1 329.198C851.668 329.6 851.452 330.13 851.452 330.787C851.452 331.249 851.57 331.657 851.807 332.012C852.038 332.361 852.334 332.636 852.695 332.838C853.05 333.033 853.417 333.131 853.795 333.131C854.222 333.131 854.654 333.015 855.092 332.784C855.524 332.548 855.968 332.249 856.423 331.888C856.873 331.521 857.335 331.142 857.808 330.751L868 322.406V324.928L859.69 331.817C858.921 332.456 858.223 333.036 857.595 333.557C856.968 334.078 856.349 334.492 855.74 334.8C855.13 335.107 854.47 335.261 853.76 335.261C852.943 335.261 852.227 335.081 851.612 334.72C850.99 334.353 850.508 333.841 850.164 333.184C849.815 332.521 849.641 331.746 849.641 330.858C849.641 329.946 849.818 329.162 850.173 328.505C850.522 327.848 850.987 327.342 851.567 326.987C852.141 326.632 852.766 326.455 853.44 326.455C854.31 326.455 855.065 326.671 855.704 327.103C856.343 327.535 856.938 328.124 857.489 328.869L860.187 332.491C860.791 333.308 861.377 333.862 861.945 334.152C862.513 334.442 862.922 334.587 863.17 334.587C863.739 334.587 864.268 334.439 864.76 334.143C865.251 333.847 865.647 333.43 865.949 332.891C866.251 332.352 866.402 331.722 866.402 331C866.402 330.313 866.257 329.645 865.967 328.994C865.671 328.343 865.245 327.754 864.689 327.227C864.132 326.694 863.463 326.274 862.682 325.966C861.901 325.653 861.022 325.496 860.045 325.496V323.472C861.253 323.472 862.238 323.611 863.002 323.889C863.765 324.167 864.363 324.481 864.795 324.83C865.227 325.179 865.55 325.46 865.763 325.673C865.852 325.744 865.94 325.809 866.029 325.869C866.118 325.928 866.207 325.993 866.295 326.064C866.952 326.65 867.444 327.39 867.769 328.283C868.089 329.177 868.249 330.059 868.249 330.929ZM868 312.026V314.334L849.818 307.658V305.385L868 298.709V301.017L852.695 306.451V306.593L868 312.026ZM860.898 311.174V301.87H862.851V311.174H860.898ZM868 295.877H849.818V289.734C849.818 288.307 850.076 287.141 850.591 286.236C851.1 285.324 851.789 284.649 852.659 284.212C853.529 283.774 854.5 283.555 855.571 283.555C856.642 283.555 857.616 283.774 858.492 284.212C859.368 284.644 860.066 285.312 860.587 286.218C861.102 287.123 861.359 288.283 861.359 289.698V294.101H859.406V289.769C859.406 288.792 859.238 288.008 858.9 287.416C858.563 286.825 858.107 286.395 857.533 286.129C856.953 285.857 856.299 285.721 855.571 285.721C854.843 285.721 854.192 285.857 853.618 286.129C853.044 286.395 852.594 286.828 852.268 287.425C851.937 288.023 851.771 288.816 851.771 289.805V293.675H868V295.877ZM868 280.008H849.818V273.864C849.818 272.438 850.076 271.272 850.591 270.367C851.1 269.455 851.789 268.78 852.659 268.342C853.529 267.904 854.5 267.685 855.571 267.685C856.642 267.685 857.616 267.904 858.492 268.342C859.368 268.774 860.066 269.443 860.587 270.349C861.102 271.254 861.359 272.414 861.359 273.829V278.232H859.406V273.9C859.406 272.923 859.238 272.139 858.9 271.547C858.563 270.955 858.107 270.526 857.533 270.26C856.953 269.988 856.299 269.852 855.571 269.852C854.843 269.852 854.192 269.988 853.618 270.26C853.044 270.526 852.594 270.958 852.268 271.556C851.937 272.154 851.771 272.947 851.771 273.935V277.806H868V280.008ZM854.364 247.164C853.464 247.271 852.766 247.703 852.268 248.46C851.771 249.218 851.523 250.147 851.523 251.248C851.523 252.053 851.653 252.757 851.913 253.361C852.174 253.959 852.532 254.426 852.988 254.764C853.443 255.095 853.961 255.261 854.541 255.261C855.027 255.261 855.444 255.145 855.793 254.915C856.136 254.678 856.423 254.376 856.654 254.009C856.879 253.642 857.065 253.257 857.213 252.855C857.355 252.453 857.471 252.083 857.56 251.745L858.057 249.899C858.181 249.425 858.353 248.898 858.572 248.318C858.791 247.732 859.09 247.173 859.468 246.64C859.841 246.102 860.321 245.658 860.907 245.309C861.493 244.96 862.212 244.785 863.064 244.785C864.046 244.785 864.934 245.042 865.727 245.557C866.52 246.066 867.151 246.812 867.618 247.795C868.086 248.771 868.32 249.958 868.32 251.355C868.32 252.657 868.109 253.784 867.689 254.737C867.269 255.684 866.683 256.43 865.931 256.974C865.18 257.513 864.307 257.818 863.312 257.889V255.616C863.999 255.557 864.567 255.326 865.017 254.924C865.461 254.515 865.792 254 866.011 253.379C866.224 252.751 866.331 252.077 866.331 251.355C866.331 250.514 866.195 249.76 865.923 249.091C865.644 248.422 865.26 247.892 864.768 247.502C864.271 247.111 863.691 246.916 863.028 246.916C862.425 246.916 861.933 247.084 861.555 247.422C861.176 247.759 860.868 248.203 860.631 248.753C860.395 249.304 860.187 249.899 860.01 250.538L859.371 252.775C858.962 254.196 858.379 255.32 857.622 256.149C856.864 256.977 855.873 257.392 854.648 257.392C853.63 257.392 852.742 257.116 851.984 256.566C851.221 256.01 850.629 255.264 850.209 254.329C849.783 253.388 849.57 252.337 849.57 251.177C849.57 250.005 849.78 248.964 850.2 248.052C850.614 247.141 851.182 246.419 851.904 245.886C852.627 245.347 853.446 245.063 854.364 245.034V247.164ZM851.771 242.159H849.818V228.523H851.771V234.24H868V236.442H851.771V242.159ZM868 226.503V228.812L849.818 222.135V219.863L868 213.187V215.495L852.695 220.928V221.07L868 226.503ZM860.898 225.651V216.347H862.851V225.651H860.898ZM851.771 213.473H849.818V199.837H851.771V205.554H868V207.756H851.771V213.473ZM868 196.439H849.818V185.466H851.771V194.237H857.915V186.034H859.868V194.237H866.047V185.323H868V196.439Z" fill="white"/>
<path d="M324.336 125C315.499 125 308.336 117.837 308.336 109V67C308.336 58.1634 315.499 51 324.336 51H336C344.837 51 352 58.1634 352 67V109C352 117.837 344.837 125 336 125H324.336Z" fill="#34C759"/>
<path d="M324.336 125C315.499 125 308.336 117.837 308.336 109V67C308.336 58.1634 315.499 51 324.336 51H336C344.837 51 352 58.1634 352 67V109C352 117.837 344.837 125 336 125H324.336Z" fill="#34C759"/>
<path d="M320.818 84.1911V80.347H332.626C333.951 80.347 335.112 80.6636 336.106 81.2969C337.1 81.9243 337.875 82.8032 338.432 83.9336C338.982 85.064 339.257 86.3809 339.257 87.8842C339.257 89.3935 338.982 90.7133 338.432 91.8438C337.875 92.9742 337.1 93.8531 336.106 94.4805C335.112 95.1078 333.951 95.4215 332.626 95.4215H320.818V91.5774H332.297C332.99 91.5774 333.605 91.4265 334.144 91.1247C334.682 90.8169 335.106 90.3848 335.413 89.8285C335.721 89.2721 335.875 88.6241 335.875 87.8842C335.875 87.1385 335.721 86.4904 335.413 85.94C335.106 85.3837 334.682 84.9546 334.144 84.6527C333.605 84.3449 332.99 84.1911 332.297 84.1911H320.818Z" fill="white"/>
<path d="M324.336 239C315.499 239 308.336 231.837 308.336 223V181C308.336 172.163 315.499 165 324.336 165H336C344.837 165 352 172.163 352 181V223C352 231.837 344.837 239 336 239H324.336Z" fill="#AF52DE"/>
<path d="M324.336 239C315.499 239 308.336 231.837 308.336 223V181C308.336 172.163 315.499 165 324.336 165H336C344.837 165 352 172.163 352 181V223C352 231.837 344.837 239 336 239H324.336Z" fill="#AF52DE"/>
<path d="M326.047 198.631C325.331 198.702 324.775 199.006 324.378 199.545C323.982 200.084 323.783 200.814 323.783 201.738C323.783 202.365 323.872 202.895 324.05 203.327C324.221 203.759 324.461 204.09 324.769 204.321C325.077 204.546 325.426 204.659 325.816 204.659C326.142 204.67 326.426 204.602 326.669 204.454C326.911 204.3 327.121 204.09 327.299 203.824C327.471 203.558 327.622 203.25 327.752 202.901C327.876 202.552 327.983 202.179 328.071 201.782L328.462 200.149C328.64 199.356 328.876 198.628 329.172 197.965C329.468 197.302 329.832 196.728 330.264 196.242C330.696 195.757 331.205 195.381 331.791 195.115C332.377 194.843 333.049 194.704 333.806 194.698C334.919 194.704 335.884 194.988 336.701 195.55C337.511 196.106 338.142 196.911 338.592 197.965C339.036 199.012 339.257 200.276 339.257 201.756C339.257 203.223 339.033 204.502 338.583 205.591C338.133 206.674 337.467 207.52 336.585 208.13C335.697 208.733 334.6 209.05 333.292 209.08V205.36C333.901 205.318 334.41 205.144 334.819 204.836C335.221 204.522 335.526 204.105 335.733 203.584C335.934 203.058 336.035 202.463 336.035 201.8C336.035 201.149 335.94 200.584 335.751 200.104C335.561 199.619 335.298 199.243 334.961 198.977C334.623 198.71 334.236 198.577 333.798 198.577C333.389 198.577 333.046 198.699 332.768 198.941C332.49 199.178 332.253 199.527 332.058 199.989C331.862 200.445 331.685 201.004 331.525 201.667L331.028 203.646C330.655 205.179 330.072 206.39 329.279 207.278C328.486 208.165 327.417 208.606 326.074 208.6C324.973 208.606 324.011 208.313 323.189 207.721C322.366 207.124 321.724 206.304 321.262 205.262C320.8 204.221 320.57 203.037 320.57 201.711C320.57 200.362 320.8 199.184 321.262 198.178C321.724 197.166 322.366 196.379 323.189 195.816C324.011 195.254 324.964 194.964 326.047 194.946V198.631Z" fill="white"/>
<path d="M324.336 353C315.499 353 308.336 345.837 308.336 337V295C308.336 286.163 315.499 279 324.336 279H336C344.837 279 352 286.163 352 295V337C352 345.837 344.837 353 336 353H324.336Z" fill="#AF52DE"/>
<path d="M324.336 353C315.499 353 308.336 345.837 308.336 337V295C308.336 286.163 315.499 279 324.336 279H336C344.837 279 352 286.163 352 295V337C352 345.837 344.837 353 336 353H324.336Z" fill="#AF52DE"/>
<path d="M326.047 312.631C325.331 312.702 324.775 313.006 324.378 313.545C323.982 314.084 323.783 314.814 323.783 315.738C323.783 316.365 323.872 316.895 324.05 317.327C324.221 317.759 324.461 318.09 324.769 318.321C325.077 318.546 325.426 318.659 325.816 318.659C326.142 318.67 326.426 318.602 326.669 318.454C326.911 318.3 327.121 318.09 327.299 317.824C327.471 317.558 327.622 317.25 327.752 316.901C327.876 316.552 327.983 316.179 328.071 315.782L328.462 314.149C328.64 313.356 328.876 312.628 329.172 311.965C329.468 311.302 329.832 310.728 330.264 310.242C330.696 309.757 331.205 309.381 331.791 309.115C332.377 308.843 333.049 308.704 333.806 308.698C334.919 308.704 335.884 308.988 336.701 309.55C337.511 310.106 338.142 310.911 338.592 311.965C339.036 313.012 339.257 314.276 339.257 315.756C339.257 317.223 339.033 318.502 338.583 319.591C338.133 320.674 337.467 321.52 336.585 322.13C335.697 322.733 334.6 323.05 333.292 323.08V319.36C333.901 319.318 334.41 319.144 334.819 318.836C335.221 318.522 335.526 318.105 335.733 317.584C335.934 317.058 336.035 316.463 336.035 315.8C336.035 315.149 335.94 314.584 335.751 314.104C335.561 313.619 335.298 313.243 334.961 312.977C334.623 312.71 334.236 312.577 333.798 312.577C333.389 312.577 333.046 312.699 332.768 312.941C332.49 313.178 332.253 313.527 332.058 313.989C331.862 314.445 331.685 315.004 331.525 315.667L331.028 317.646C330.655 319.179 330.072 320.39 329.279 321.278C328.486 322.165 327.417 322.606 326.074 322.6C324.973 322.606 324.011 322.313 323.189 321.721C322.366 321.124 321.724 320.304 321.262 319.262C320.8 318.221 320.57 317.037 320.57 315.711C320.57 314.362 320.8 313.184 321.262 312.178C321.724 311.166 322.366 310.379 323.189 309.816C324.011 309.254 324.964 308.964 326.047 308.946V312.631Z" fill="white"/>
<path d="M324.336 467C315.499 467 308.336 459.837 308.336 451V409C308.336 400.163 315.499 393 324.336 393H336C344.837 393 352 400.163 352 409V451C352 459.837 344.837 467 336 467H324.336Z" fill="#AF52DE"/>
<path d="M324.336 467C315.499 467 308.336 459.837 308.336 451V409C308.336 400.163 315.499 393 324.336 393H336C344.837 393 352 400.163 352 409V451C352 459.837 344.837 467 336 467H324.336Z" fill="#AF52DE"/>
<path d="M326.047 426.631C325.331 426.702 324.775 427.006 324.378 427.545C323.982 428.084 323.783 428.814 323.783 429.738C323.783 430.365 323.872 430.895 324.05 431.327C324.221 431.759 324.461 432.09 324.769 432.321C325.077 432.546 325.426 432.659 325.816 432.659C326.142 432.67 326.426 432.602 326.669 432.454C326.911 432.3 327.121 432.09 327.299 431.824C327.471 431.558 327.622 431.25 327.752 430.901C327.876 430.552 327.983 430.179 328.071 429.782L328.462 428.149C328.64 427.356 328.876 426.628 329.172 425.965C329.468 425.302 329.832 424.728 330.264 424.242C330.696 423.757 331.205 423.381 331.791 423.115C332.377 422.843 333.049 422.704 333.806 422.698C334.919 422.704 335.884 422.988 336.701 423.55C337.511 424.106 338.142 424.911 338.592 425.965C339.036 427.012 339.257 428.276 339.257 429.756C339.257 431.223 339.033 432.502 338.583 433.591C338.133 434.674 337.467 435.52 336.585 436.13C335.697 436.733 334.6 437.05 333.292 437.08V433.36C333.901 433.318 334.41 433.144 334.819 432.836C335.221 432.522 335.526 432.105 335.733 431.584C335.934 431.058 336.035 430.463 336.035 429.8C336.035 429.149 335.94 428.584 335.751 428.104C335.561 427.619 335.298 427.243 334.961 426.977C334.623 426.71 334.236 426.577 333.798 426.577C333.389 426.577 333.046 426.699 332.768 426.941C332.49 427.178 332.253 427.527 332.058 427.989C331.862 428.445 331.685 429.004 331.525 429.667L331.028 431.646C330.655 433.179 330.072 434.39 329.279 435.278C328.486 436.165 327.417 436.606 326.074 436.6C324.973 436.606 324.011 436.313 323.189 435.721C322.366 435.124 321.724 434.304 321.262 433.262C320.8 432.221 320.57 431.037 320.57 429.711C320.57 428.362 320.8 427.184 321.262 426.178C321.724 425.166 322.366 424.379 323.189 423.816C324.011 423.254 324.964 422.964 326.047 422.946V426.631Z" fill="white"/>
<path d="M324.336 581C315.499 581 308.336 573.837 308.336 565V523C308.336 514.163 315.499 507 324.336 507H336C344.837 507 352 514.163 352 523V565C352 573.837 344.837 581 336 581H324.336Z" fill="#AF52DE"/>
<path d="M324.336 581C315.499 581 308.336 573.837 308.336 565V523C308.336 514.163 315.499 507 324.336 507H336C344.837 507 352 514.163 352 523V565C352 573.837 344.837 581 336 581H324.336Z" fill="#AF52DE"/>
<path d="M326.047 540.631C325.331 540.702 324.775 541.006 324.378 541.545C323.982 542.084 323.783 542.814 323.783 543.738C323.783 544.365 323.872 544.895 324.05 545.327C324.221 545.759 324.461 546.09 324.769 546.321C325.077 546.546 325.426 546.659 325.816 546.659C326.142 546.67 326.426 546.602 326.669 546.454C326.911 546.3 327.121 546.09 327.299 545.824C327.471 545.558 327.622 545.25 327.752 544.901C327.876 544.552 327.983 544.179 328.071 543.782L328.462 542.149C328.64 541.356 328.876 540.628 329.172 539.965C329.468 539.302 329.832 538.728 330.264 538.242C330.696 537.757 331.205 537.381 331.791 537.115C332.377 536.843 333.049 536.704 333.806 536.698C334.919 536.704 335.884 536.988 336.701 537.55C337.511 538.106 338.142 538.911 338.592 539.965C339.036 541.012 339.257 542.276 339.257 543.756C339.257 545.223 339.033 546.502 338.583 547.591C338.133 548.674 337.467 549.52 336.585 550.13C335.697 550.733 334.6 551.05 333.292 551.08V547.36C333.901 547.318 334.41 547.144 334.819 546.836C335.221 546.522 335.526 546.105 335.733 545.584C335.934 545.058 336.035 544.463 336.035 543.8C336.035 543.149 335.94 542.584 335.751 542.104C335.561 541.619 335.298 541.243 334.961 540.977C334.623 540.71 334.236 540.577 333.798 540.577C333.389 540.577 333.046 540.699 332.768 540.941C332.49 541.178 332.253 541.527 332.058 541.989C331.862 542.445 331.685 543.004 331.525 543.667L331.028 545.646C330.655 547.179 330.072 548.39 329.279 549.278C328.486 550.165 327.417 550.606 326.074 550.6C324.973 550.606 324.011 550.313 323.189 549.721C322.366 549.124 321.724 548.304 321.262 547.262C320.8 546.221 320.57 545.037 320.57 543.711C320.57 542.362 320.8 541.184 321.262 540.178C321.724 539.166 322.366 538.379 323.189 537.816C324.011 537.254 324.964 536.964 326.047 536.946V540.631Z" fill="white"/>
<path d="M197.336 125C188.499 125 181.336 117.837 181.336 109V67C181.336 58.1634 188.499 51 197.336 51H209C217.837 51 225 58.1634 225 67V109C225 117.837 217.837 125 209 125H197.336Z" fill="#AF52DE"/>
<path d="M197.336 125C188.499 125 181.336 117.837 181.336 109V67C181.336 58.1634 188.499 51 197.336 51H209C217.837 51 225 58.1634 225 67V109C225 117.837 217.837 125 209 125H197.336Z" fill="#AF52DE"/>
<path d="M199.047 84.6305C198.331 84.7015 197.775 85.0063 197.378 85.5449C196.982 86.0835 196.783 86.8145 196.783 87.7378C196.783 88.3651 196.872 88.8948 197.05 89.3269C197.221 89.7589 197.461 90.0904 197.769 90.3212C198.077 90.5461 198.426 90.6586 198.816 90.6586C199.142 90.6704 199.426 90.6023 199.669 90.4544C199.911 90.3005 200.121 90.0904 200.299 89.8241C200.471 89.5577 200.622 89.2499 200.752 88.9008C200.876 88.5516 200.983 88.1787 201.071 87.7821L201.462 86.1486C201.64 85.3555 201.876 84.6276 202.172 83.9647C202.468 83.3018 202.832 82.7277 203.264 82.2424C203.696 81.7571 204.205 81.3812 204.791 81.1149C205.377 80.8426 206.049 80.7035 206.806 80.6976C207.919 80.7035 208.884 80.9876 209.701 81.5499C210.511 82.1062 211.142 82.9112 211.592 83.9647C212.036 85.0123 212.257 86.2759 212.257 87.7555C212.257 89.2233 212.033 90.5017 211.583 91.5907C211.133 92.6738 210.467 93.5202 209.585 94.1298C208.697 94.7335 207.6 95.0501 206.292 95.0797V91.3599C206.901 91.3185 207.41 91.1439 207.819 90.8361C208.221 90.5224 208.526 90.1052 208.733 89.5843C208.934 89.0576 209.035 88.4628 209.035 87.7999C209.035 87.1489 208.94 86.5836 208.751 86.1042C208.561 85.6189 208.298 85.2431 207.961 84.9767C207.623 84.7104 207.236 84.5772 206.798 84.5772C206.389 84.5772 206.046 84.6986 205.768 84.9412C205.49 85.178 205.253 85.5272 205.058 85.9888C204.862 86.4446 204.685 87.0039 204.525 87.6667L204.028 89.6465C203.655 91.1794 203.072 92.3897 202.279 93.2775C201.486 94.1653 200.417 94.6062 199.074 94.6003C197.973 94.6062 197.011 94.3133 196.189 93.7214C195.366 93.1236 194.724 92.3039 194.262 91.2623C193.8 90.2206 193.57 89.0369 193.57 87.7111C193.57 86.3617 193.8 85.1839 194.262 84.1777C194.724 83.1657 195.366 82.3785 196.189 81.8162C197.011 81.254 197.964 80.964 199.047 80.9462V84.6305Z" fill="white"/>
<path d="M197.336 239C188.499 239 181.336 231.837 181.336 223V181C181.336 172.163 188.499 165 197.336 165H209C217.837 165 225 172.163 225 181V223C225 231.837 217.837 239 209 239H197.336Z" fill="#AF52DE"/>
<path d="M197.336 239C188.499 239 181.336 231.837 181.336 223V181C181.336 172.163 188.499 165 197.336 165H209C217.837 165 225 172.163 225 181V223C225 231.837 217.837 239 209 239H197.336Z" fill="#AF52DE"/>
<path d="M199.047 198.631C198.331 198.702 197.775 199.006 197.378 199.545C196.982 200.084 196.783 200.814 196.783 201.738C196.783 202.365 196.872 202.895 197.05 203.327C197.221 203.759 197.461 204.09 197.769 204.321C198.077 204.546 198.426 204.659 198.816 204.659C199.142 204.67 199.426 204.602 199.669 204.454C199.911 204.3 200.121 204.09 200.299 203.824C200.471 203.558 200.622 203.25 200.752 202.901C200.876 202.552 200.983 202.179 201.071 201.782L201.462 200.149C201.64 199.356 201.876 198.628 202.172 197.965C202.468 197.302 202.832 196.728 203.264 196.242C203.696 195.757 204.205 195.381 204.791 195.115C205.377 194.843 206.049 194.704 206.806 194.698C207.919 194.704 208.884 194.988 209.701 195.55C210.511 196.106 211.142 196.911 211.592 197.965C212.036 199.012 212.257 200.276 212.257 201.756C212.257 203.223 212.033 204.502 211.583 205.591C211.133 206.674 210.467 207.52 209.585 208.13C208.697 208.733 207.6 209.05 206.292 209.08V205.36C206.901 205.318 207.41 205.144 207.819 204.836C208.221 204.522 208.526 204.105 208.733 203.584C208.934 203.058 209.035 202.463 209.035 201.8C209.035 201.149 208.94 200.584 208.751 200.104C208.561 199.619 208.298 199.243 207.961 198.977C207.623 198.71 207.236 198.577 206.798 198.577C206.389 198.577 206.046 198.699 205.768 198.941C205.49 199.178 205.253 199.527 205.058 199.989C204.862 200.445 204.685 201.004 204.525 201.667L204.028 203.646C203.655 205.179 203.072 206.39 202.279 207.278C201.486 208.165 200.417 208.606 199.074 208.6C197.973 208.606 197.011 208.313 196.189 207.721C195.366 207.124 194.724 206.304 194.262 205.262C193.8 204.221 193.57 203.037 193.57 201.711C193.57 200.362 193.8 199.184 194.262 198.178C194.724 197.166 195.366 196.379 196.189 195.816C197.011 195.254 197.964 194.964 199.047 194.946V198.631Z" fill="white"/>
<path d="M197.336 353C188.499 353 181.336 345.837 181.336 337V295C181.336 286.163 188.499 279 197.336 279H209C217.837 279 225 286.163 225 295V337C225 345.837 217.837 353 209 353H197.336Z" fill="#AF52DE"/>
<path d="M197.336 353C188.499 353 181.336 345.837 181.336 337V295C181.336 286.163 188.499 279 197.336 279H209C217.837 279 225 286.163 225 295V337C225 345.837 217.837 353 209 353H197.336Z" fill="#AF52DE"/>
<path d="M199.047 312.631C198.331 312.702 197.775 313.006 197.378 313.545C196.982 314.084 196.783 314.814 196.783 315.738C196.783 316.365 196.872 316.895 197.05 317.327C197.221 317.759 197.461 318.09 197.769 318.321C198.077 318.546 198.426 318.659 198.816 318.659C199.142 318.67 199.426 318.602 199.669 318.454C199.911 318.3 200.121 318.09 200.299 317.824C200.471 317.558 200.622 317.25 200.752 316.901C200.876 316.552 200.983 316.179 201.071 315.782L201.462 314.149C201.64 313.356 201.876 312.628 202.172 311.965C202.468 311.302 202.832 310.728 203.264 310.242C203.696 309.757 204.205 309.381 204.791 309.115C205.377 308.843 206.049 308.704 206.806 308.698C207.919 308.704 208.884 308.988 209.701 309.55C210.511 310.106 211.142 310.911 211.592 311.965C212.036 313.012 212.257 314.276 212.257 315.756C212.257 317.223 212.033 318.502 211.583 319.591C211.133 320.674 210.467 321.52 209.585 322.13C208.697 322.733 207.6 323.05 206.292 323.08V319.36C206.901 319.318 207.41 319.144 207.819 318.836C208.221 318.522 208.526 318.105 208.733 317.584C208.934 317.058 209.035 316.463 209.035 315.8C209.035 315.149 208.94 314.584 208.751 314.104C208.561 313.619 208.298 313.243 207.961 312.977C207.623 312.71 207.236 312.577 206.798 312.577C206.389 312.577 206.046 312.699 205.768 312.941C205.49 313.178 205.253 313.527 205.058 313.989C204.862 314.445 204.685 315.004 204.525 315.667L204.028 317.646C203.655 319.179 203.072 320.39 202.279 321.278C201.486 322.165 200.417 322.606 199.074 322.6C197.973 322.606 197.011 322.313 196.189 321.721C195.366 321.124 194.724 320.304 194.262 319.262C193.8 318.221 193.57 317.037 193.57 315.711C193.57 314.362 193.8 313.184 194.262 312.178C194.724 311.166 195.366 310.379 196.189 309.816C197.011 309.254 197.964 308.964 199.047 308.946V312.631Z" fill="white"/>
<path d="M197.336 467C188.499 467 181.336 459.837 181.336 451V409C181.336 400.163 188.499 393 197.336 393H209C217.837 393 225 400.163 225 409V451C225 459.837 217.837 467 209 467H197.336Z" fill="#34C759"/>
<path d="M197.336 467C188.499 467 181.336 459.837 181.336 451V409C181.336 400.163 188.499 393 197.336 393H209C217.837 393 225 400.163 225 409V451C225 459.837 217.837 467 209 467H197.336Z" fill="#34C759"/>
<path d="M193.818 426.191V422.347H205.626C206.951 422.347 208.112 422.664 209.106 423.297C210.1 423.924 210.875 424.803 211.432 425.934C211.982 427.064 212.257 428.381 212.257 429.884C212.257 431.393 211.982 432.713 211.432 433.844C210.875 434.974 210.1 435.853 209.106 436.48C208.112 437.108 206.951 437.422 205.626 437.422H193.818V433.577H205.297C205.99 433.577 206.605 433.427 207.144 433.125C207.682 432.817 208.106 432.385 208.413 431.828C208.721 431.272 208.875 430.624 208.875 429.884C208.875 429.139 208.721 428.49 208.413 427.94C208.106 427.384 207.682 426.955 207.144 426.653C206.605 426.345 205.99 426.191 205.297 426.191H193.818Z" fill="white"/>
<path d="M197.336 581C188.499 581 181.336 573.837 181.336 565V523C181.336 514.163 188.499 507 197.336 507H209C217.837 507 225 514.163 225 523V565C225 573.837 217.837 581 209 581H197.336Z" fill="#AF52DE"/>
<path d="M197.336 581C188.499 581 181.336 573.837 181.336 565V523C181.336 514.163 188.499 507 197.336 507H209C217.837 507 225 514.163 225 523V565C225 573.837 217.837 581 209 581H197.336Z" fill="#AF52DE"/>
<path d="M199.047 540.631C198.331 540.702 197.775 541.006 197.378 541.545C196.982 542.084 196.783 542.814 196.783 543.738C196.783 544.365 196.872 544.895 197.05 545.327C197.221 545.759 197.461 546.09 197.769 546.321C198.077 546.546 198.426 546.659 198.816 546.659C199.142 546.67 199.426 546.602 199.669 546.454C199.911 546.3 200.121 546.09 200.299 545.824C200.471 545.558 200.622 545.25 200.752 544.901C200.876 544.552 200.983 544.179 201.071 543.782L201.462 542.149C201.64 541.356 201.876 540.628 202.172 539.965C202.468 539.302 202.832 538.728 203.264 538.242C203.696 537.757 204.205 537.381 204.791 537.115C205.377 536.843 206.049 536.704 206.806 536.698C207.919 536.704 208.884 536.988 209.701 537.55C210.511 538.106 211.142 538.911 211.592 539.965C212.036 541.012 212.257 542.276 212.257 543.756C212.257 545.223 212.033 546.502 211.583 547.591C211.133 548.674 210.467 549.52 209.585 550.13C208.697 550.733 207.6 551.05 206.292 551.08V547.36C206.901 547.318 207.41 547.144 207.819 546.836C208.221 546.522 208.526 546.105 208.733 545.584C208.934 545.058 209.035 544.463 209.035 543.8C209.035 543.149 208.94 542.584 208.751 542.104C208.561 541.619 208.298 541.243 207.961 540.977C207.623 540.71 207.236 540.577 206.798 540.577C206.389 540.577 206.046 540.699 205.768 540.941C205.49 541.178 205.253 541.527 205.058 541.989C204.862 542.445 204.685 543.004 204.525 543.667L204.028 545.646C203.655 547.179 203.072 548.39 202.279 549.278C201.486 550.165 200.417 550.606 199.074 550.6C197.973 550.606 197.011 550.313 196.189 549.721C195.366 549.124 194.724 548.304 194.262 547.262C193.8 546.221 193.57 545.037 193.57 543.711C193.57 542.362 193.8 541.184 194.262 540.178C194.724 539.166 195.366 538.379 196.189 537.816C197.011 537.254 197.964 536.964 199.047 536.946V540.631Z" fill="white"/>
<path d="M1264.34 125C1255.5 125 1248.34 117.837 1248.34 109V67C1248.34 58.1634 1255.5 51 1264.34 51H1276C1284.84 51 1292 58.1634 1292 67V109C1292 117.837 1284.84 125 1276 125H1264.34Z" fill="#AF52DE"/>
<path d="M1264.34 125C1255.5 125 1248.34 117.837 1248.34 109V67C1248.34 58.1634 1255.5 51 1264.34 51H1276C1284.84 51 1292 58.1634 1292 67V109C1292 117.837 1284.84 125 1276 125H1264.34Z" fill="#AF52DE"/>
<path d="M1266.7 83.756C1266.26 83.8803 1265.88 84.0549 1265.55 84.2798C1265.21 84.5047 1264.93 84.78 1264.7 85.1055C1264.46 85.4251 1264.28 85.792 1264.16 86.2063C1264.03 86.6147 1263.97 87.0675 1263.97 87.5646C1263.97 88.4939 1264.2 89.3106 1264.66 90.0149C1265.12 90.7133 1265.8 91.2578 1266.68 91.6484C1267.55 92.0391 1268.62 92.2344 1269.89 92.2344C1271.16 92.2344 1272.24 92.042 1273.12 91.6573C1274.01 91.2726 1274.69 90.7281 1275.16 90.0238C1275.62 89.3195 1275.85 88.4879 1275.85 87.5291C1275.85 86.6591 1275.69 85.9163 1275.39 85.3008C1275.07 84.6793 1274.63 84.2059 1274.06 83.8803C1273.5 83.5489 1272.82 83.3832 1272.05 83.3832L1272.16 82.6019V87.2894H1269.27V79.6811H1271.56C1273.16 79.6811 1274.53 80.0185 1275.68 80.6932C1276.82 81.3679 1277.7 82.2971 1278.33 83.4808C1278.94 84.6645 1279.25 86.0199 1279.25 87.5469C1279.25 89.2514 1278.87 90.7488 1278.12 92.0391C1277.36 93.3293 1276.29 94.3355 1274.9 95.0575C1273.5 95.7737 1271.84 96.1318 1269.93 96.1318C1268.45 96.1318 1267.14 95.9187 1265.99 95.4926C1264.83 95.0605 1263.84 94.4568 1263.04 93.6815C1262.23 92.9061 1261.62 92.0036 1261.2 90.9737C1260.78 89.9439 1260.57 88.8283 1260.57 87.6268C1260.57 86.597 1260.72 85.6381 1261.02 84.7504C1261.32 83.8626 1261.74 83.0754 1262.28 82.3889C1262.83 81.6964 1263.48 81.1312 1264.23 80.6932C1264.97 80.2552 1265.8 79.9741 1266.7 79.8498V83.756Z" fill="white"/>
<path d="M1264.34 239C1255.5 239 1248.34 231.837 1248.34 223V181C1248.34 172.163 1255.5 165 1264.34 165H1276C1284.84 165 1292 172.163 1292 181V223C1292 231.837 1284.84 239 1276 239H1264.34Z" fill="#34C759"/>
<path d="M1264.34 239C1255.5 239 1248.34 231.837 1248.34 223V181C1248.34 172.163 1255.5 165 1264.34 165H1276C1284.84 165 1292 172.163 1292 181V223C1292 231.837 1284.84 239 1276 239H1264.34Z" fill="#34C759"/>
<path d="M1260.82 198.191V194.347H1272.63C1273.95 194.347 1275.11 194.664 1276.11 195.297C1277.1 195.924 1277.88 196.803 1278.43 197.934C1278.98 199.064 1279.26 200.381 1279.26 201.884C1279.26 203.393 1278.98 204.713 1278.43 205.844C1277.88 206.974 1277.1 207.853 1276.11 208.48C1275.11 209.108 1273.95 209.422 1272.63 209.422H1260.82V205.577H1272.3C1272.99 205.577 1273.61 205.427 1274.14 205.125C1274.68 204.817 1275.11 204.385 1275.41 203.828C1275.72 203.272 1275.87 202.624 1275.87 201.884C1275.87 201.139 1275.72 200.49 1275.41 199.94C1275.11 199.384 1274.68 198.955 1274.14 198.653C1273.61 198.345 1272.99 198.191 1272.3 198.191H1260.82Z" fill="white"/>
<path d="M1264.34 353C1255.5 353 1248.34 345.837 1248.34 337V295C1248.34 286.163 1255.5 279 1264.34 279H1276C1284.84 279 1292 286.163 1292 295V337C1292 345.837 1284.84 353 1276 353H1264.34Z" fill="#AF52DE"/>
<path d="M1264.34 353C1255.5 353 1248.34 345.837 1248.34 337V295C1248.34 286.163 1255.5 279 1264.34 279H1276C1284.84 279 1292 286.163 1292 295V337C1292 345.837 1284.84 353 1276 353H1264.34Z" fill="#AF52DE"/>
<path d="M1266.7 311.756C1266.26 311.88 1265.88 312.055 1265.55 312.28C1265.21 312.505 1264.93 312.78 1264.7 313.105C1264.46 313.425 1264.28 313.792 1264.16 314.206C1264.03 314.615 1263.97 315.067 1263.97 315.565C1263.97 316.494 1264.2 317.311 1264.66 318.015C1265.12 318.713 1265.8 319.258 1266.68 319.648C1267.55 320.039 1268.62 320.234 1269.89 320.234C1271.16 320.234 1272.24 320.042 1273.12 319.657C1274.01 319.273 1274.69 318.728 1275.16 318.024C1275.62 317.319 1275.85 316.488 1275.85 315.529C1275.85 314.659 1275.69 313.916 1275.39 313.301C1275.07 312.679 1274.63 312.206 1274.06 311.88C1273.5 311.549 1272.82 311.383 1272.05 311.383L1272.16 310.602V315.289H1269.27V307.681H1271.56C1273.16 307.681 1274.53 308.018 1275.68 308.693C1276.82 309.368 1277.7 310.297 1278.33 311.481C1278.94 312.665 1279.25 314.02 1279.25 315.547C1279.25 317.251 1278.87 318.749 1278.12 320.039C1277.36 321.329 1276.29 322.335 1274.9 323.058C1273.5 323.774 1271.84 324.132 1269.93 324.132C1268.45 324.132 1267.14 323.919 1265.99 323.493C1264.83 323.06 1263.84 322.457 1263.04 321.681C1262.23 320.906 1261.62 320.004 1261.2 318.974C1260.78 317.944 1260.57 316.828 1260.57 315.627C1260.57 314.597 1260.72 313.638 1261.02 312.75C1261.32 311.863 1261.74 311.075 1262.28 310.389C1262.83 309.696 1263.48 309.131 1264.23 308.693C1264.97 308.255 1265.8 307.974 1266.7 307.85V311.756Z" fill="white"/>
<path d="M1264.34 467C1255.5 467 1248.34 459.837 1248.34 451V409C1248.34 400.163 1255.5 393 1264.34 393H1276C1284.84 393 1292 400.163 1292 409V451C1292 459.837 1284.84 467 1276 467H1264.34Z" fill="#AF52DE"/>
<path d="M1264.34 467C1255.5 467 1248.34 459.837 1248.34 451V409C1248.34 400.163 1255.5 393 1264.34 393H1276C1284.84 393 1292 400.163 1292 409V451C1292 459.837 1284.84 467 1276 467H1264.34Z" fill="#AF52DE"/>
<path d="M1266.7 425.756C1266.26 425.88 1265.88 426.055 1265.55 426.28C1265.21 426.505 1264.93 426.78 1264.7 427.105C1264.46 427.425 1264.28 427.792 1264.16 428.206C1264.03 428.615 1263.97 429.067 1263.97 429.565C1263.97 430.494 1264.2 431.311 1264.66 432.015C1265.12 432.713 1265.8 433.258 1266.68 433.648C1267.55 434.039 1268.62 434.234 1269.89 434.234C1271.16 434.234 1272.24 434.042 1273.12 433.657C1274.01 433.273 1274.69 432.728 1275.16 432.024C1275.62 431.319 1275.85 430.488 1275.85 429.529C1275.85 428.659 1275.69 427.916 1275.39 427.301C1275.07 426.679 1274.63 426.206 1274.06 425.88C1273.5 425.549 1272.82 425.383 1272.05 425.383L1272.16 424.602V429.289H1269.27V421.681H1271.56C1273.16 421.681 1274.53 422.018 1275.68 422.693C1276.82 423.368 1277.7 424.297 1278.33 425.481C1278.94 426.665 1279.25 428.02 1279.25 429.547C1279.25 431.251 1278.87 432.749 1278.12 434.039C1277.36 435.329 1276.29 436.335 1274.9 437.058C1273.5 437.774 1271.84 438.132 1269.93 438.132C1268.45 438.132 1267.14 437.919 1265.99 437.493C1264.83 437.06 1263.84 436.457 1263.04 435.681C1262.23 434.906 1261.62 434.004 1261.2 432.974C1260.78 431.944 1260.57 430.828 1260.57 429.627C1260.57 428.597 1260.72 427.638 1261.02 426.75C1261.32 425.863 1261.74 425.075 1262.28 424.389C1262.83 423.696 1263.48 423.131 1264.23 422.693C1264.97 422.255 1265.8 421.974 1266.7 421.85V425.756Z" fill="white"/>
<path d="M1264.34 581C1255.5 581 1248.34 573.837 1248.34 565V523C1248.34 514.163 1255.5 507 1264.34 507H1276C1284.84 507 1292 514.163 1292 523V565C1292 573.837 1284.84 581 1276 581H1264.34Z" fill="#AF52DE"/>
<path d="M1264.34 581C1255.5 581 1248.34 573.837 1248.34 565V523C1248.34 514.163 1255.5 507 1264.34 507H1276C1284.84 507 1292 514.163 1292 523V565C1292 573.837 1284.84 581 1276 581H1264.34Z" fill="#AF52DE"/>
<path d="M1266.7 539.756C1266.26 539.88 1265.88 540.055 1265.55 540.28C1265.21 540.505 1264.93 540.78 1264.7 541.105C1264.46 541.425 1264.28 541.792 1264.16 542.206C1264.03 542.615 1263.97 543.067 1263.97 543.565C1263.97 544.494 1264.2 545.311 1264.66 546.015C1265.12 546.713 1265.8 547.258 1266.68 547.648C1267.55 548.039 1268.62 548.234 1269.89 548.234C1271.16 548.234 1272.24 548.042 1273.12 547.657C1274.01 547.273 1274.69 546.728 1275.16 546.024C1275.62 545.319 1275.85 544.488 1275.85 543.529C1275.85 542.659 1275.69 541.916 1275.39 541.301C1275.07 540.679 1274.63 540.206 1274.06 539.88C1273.5 539.549 1272.82 539.383 1272.05 539.383L1272.16 538.602V543.289H1269.27V535.681H1271.56C1273.16 535.681 1274.53 536.018 1275.68 536.693C1276.82 537.368 1277.7 538.297 1278.33 539.481C1278.94 540.665 1279.25 542.02 1279.25 543.547C1279.25 545.251 1278.87 546.749 1278.12 548.039C1277.36 549.329 1276.29 550.335 1274.9 551.058C1273.5 551.774 1271.84 552.132 1269.93 552.132C1268.45 552.132 1267.14 551.919 1265.99 551.493C1264.83 551.06 1263.84 550.457 1263.04 549.681C1262.23 548.906 1261.62 548.004 1261.2 546.974C1260.78 545.944 1260.57 544.828 1260.57 543.627C1260.57 542.597 1260.72 541.638 1261.02 540.75C1261.32 539.863 1261.74 539.075 1262.28 538.389C1262.83 537.696 1263.48 537.131 1264.23 536.693C1264.97 536.255 1265.8 535.974 1266.7 535.85V539.756Z" fill="white"/>
<path d="M1391.34 125C1382.5 125 1375.34 117.837 1375.34 109V67C1375.34 58.1634 1382.5 51 1391.34 51H1403C1411.84 51 1419 58.1634 1419 67V109C1419 117.837 1411.84 125 1403 125H1391.34Z" fill="#AF52DE"/>
<path d="M1391.34 125C1382.5 125 1375.34 117.837 1375.34 109V67C1375.34 58.1634 1382.5 51 1391.34 51H1403C1411.84 51 1419 58.1634 1419 67V109C1419 117.837 1411.84 125 1403 125H1391.34Z" fill="#AF52DE"/>
<path d="M1393.7 83.756C1393.26 83.8803 1392.88 84.0549 1392.55 84.2798C1392.21 84.5047 1391.93 84.78 1391.7 85.1055C1391.46 85.4251 1391.28 85.792 1391.16 86.2063C1391.03 86.6147 1390.97 87.0675 1390.97 87.5646C1390.97 88.4939 1391.2 89.3106 1391.66 90.0149C1392.12 90.7133 1392.8 91.2578 1393.68 91.6484C1394.55 92.0391 1395.62 92.2344 1396.89 92.2344C1398.16 92.2344 1399.24 92.042 1400.12 91.6573C1401.01 91.2726 1401.69 90.7281 1402.16 90.0238C1402.62 89.3195 1402.85 88.4879 1402.85 87.5291C1402.85 86.6591 1402.69 85.9163 1402.39 85.3008C1402.07 84.6793 1401.63 84.2059 1401.06 83.8803C1400.5 83.5489 1399.82 83.3832 1399.05 83.3832L1399.16 82.6019V87.2894H1396.27V79.6811H1398.56C1400.16 79.6811 1401.53 80.0185 1402.68 80.6932C1403.82 81.3679 1404.7 82.2971 1405.33 83.4808C1405.94 84.6645 1406.25 86.0199 1406.25 87.5469C1406.25 89.2514 1405.87 90.7488 1405.12 92.0391C1404.36 93.3293 1403.29 94.3355 1401.9 95.0575C1400.5 95.7737 1398.84 96.1318 1396.93 96.1318C1395.45 96.1318 1394.14 95.9187 1392.99 95.4926C1391.83 95.0605 1390.84 94.4568 1390.04 93.6815C1389.23 92.9061 1388.62 92.0036 1388.2 90.9737C1387.78 89.9439 1387.57 88.8283 1387.57 87.6268C1387.57 86.597 1387.72 85.6381 1388.02 84.7504C1388.32 83.8626 1388.74 83.0754 1389.28 82.3889C1389.83 81.6964 1390.48 81.1312 1391.23 80.6932C1391.97 80.2552 1392.8 79.9741 1393.7 79.8498V83.756Z" fill="white"/>
<path d="M1391.34 239C1382.5 239 1375.34 231.837 1375.34 223V181C1375.34 172.163 1382.5 165 1391.34 165H1403C1411.84 165 1419 172.163 1419 181V223C1419 231.837 1411.84 239 1403 239H1391.34Z" fill="#AF52DE"/>
<path d="M1391.34 239C1382.5 239 1375.34 231.837 1375.34 223V181C1375.34 172.163 1382.5 165 1391.34 165H1403C1411.84 165 1419 172.163 1419 181V223C1419 231.837 1411.84 239 1403 239H1391.34Z" fill="#AF52DE"/>
<path d="M1393.7 197.756C1393.26 197.88 1392.88 198.055 1392.55 198.28C1392.21 198.505 1391.93 198.78 1391.7 199.105C1391.46 199.425 1391.28 199.792 1391.16 200.206C1391.03 200.615 1390.97 201.067 1390.97 201.565C1390.97 202.494 1391.2 203.311 1391.66 204.015C1392.12 204.713 1392.8 205.258 1393.68 205.648C1394.55 206.039 1395.62 206.234 1396.89 206.234C1398.16 206.234 1399.24 206.042 1400.12 205.657C1401.01 205.273 1401.69 204.728 1402.16 204.024C1402.62 203.319 1402.85 202.488 1402.85 201.529C1402.85 200.659 1402.69 199.916 1402.39 199.301C1402.07 198.679 1401.63 198.206 1401.06 197.88C1400.5 197.549 1399.82 197.383 1399.05 197.383L1399.16 196.602V201.289H1396.27V193.681H1398.56C1400.16 193.681 1401.53 194.018 1402.68 194.693C1403.82 195.368 1404.7 196.297 1405.33 197.481C1405.94 198.665 1406.25 200.02 1406.25 201.547C1406.25 203.251 1405.87 204.749 1405.12 206.039C1404.36 207.329 1403.29 208.335 1401.9 209.058C1400.5 209.774 1398.84 210.132 1396.93 210.132C1395.45 210.132 1394.14 209.919 1392.99 209.493C1391.83 209.06 1390.84 208.457 1390.04 207.681C1389.23 206.906 1388.62 206.004 1388.2 204.974C1387.78 203.944 1387.57 202.828 1387.57 201.627C1387.57 200.597 1387.72 199.638 1388.02 198.75C1388.32 197.863 1388.74 197.075 1389.28 196.389C1389.83 195.696 1390.48 195.131 1391.23 194.693C1391.97 194.255 1392.8 193.974 1393.7 193.85V197.756Z" fill="white"/>
<path d="M1391.34 353C1382.5 353 1375.34 345.837 1375.34 337V295C1375.34 286.163 1382.5 279 1391.34 279H1403C1411.84 279 1419 286.163 1419 295V337C1419 345.837 1411.84 353 1403 353H1391.34Z" fill="#AF52DE"/>
<path d="M1391.34 353C1382.5 353 1375.34 345.837 1375.34 337V295C1375.34 286.163 1382.5 279 1391.34 279H1403C1411.84 279 1419 286.163 1419 295V337C1419 345.837 1411.84 353 1403 353H1391.34Z" fill="#AF52DE"/>
<path d="M1393.7 311.756C1393.26 311.88 1392.88 312.055 1392.55 312.28C1392.21 312.505 1391.93 312.78 1391.7 313.105C1391.46 313.425 1391.28 313.792 1391.16 314.206C1391.03 314.615 1390.97 315.067 1390.97 315.565C1390.97 316.494 1391.2 317.311 1391.66 318.015C1392.12 318.713 1392.8 319.258 1393.68 319.648C1394.55 320.039 1395.62 320.234 1396.89 320.234C1398.16 320.234 1399.24 320.042 1400.12 319.657C1401.01 319.273 1401.69 318.728 1402.16 318.024C1402.62 317.319 1402.85 316.488 1402.85 315.529C1402.85 314.659 1402.69 313.916 1402.39 313.301C1402.07 312.679 1401.63 312.206 1401.06 311.88C1400.5 311.549 1399.82 311.383 1399.05 311.383L1399.16 310.602V315.289H1396.27V307.681H1398.56C1400.16 307.681 1401.53 308.018 1402.68 308.693C1403.82 309.368 1404.7 310.297 1405.33 311.481C1405.94 312.665 1406.25 314.02 1406.25 315.547C1406.25 317.251 1405.87 318.749 1405.12 320.039C1404.36 321.329 1403.29 322.335 1401.9 323.058C1400.5 323.774 1398.84 324.132 1396.93 324.132C1395.45 324.132 1394.14 323.919 1392.99 323.493C1391.83 323.06 1390.84 322.457 1390.04 321.681C1389.23 320.906 1388.62 320.004 1388.2 318.974C1387.78 317.944 1387.57 316.828 1387.57 315.627C1387.57 314.597 1387.72 313.638 1388.02 312.75C1388.32 311.863 1388.74 311.075 1389.28 310.389C1389.83 309.696 1390.48 309.131 1391.23 308.693C1391.97 308.255 1392.8 307.974 1393.7 307.85V311.756Z" fill="white"/>
<path d="M1391.34 467C1382.5 467 1375.34 459.837 1375.34 451V409C1375.34 400.163 1382.5 393 1391.34 393H1403C1411.84 393 1419 400.163 1419 409V451C1419 459.837 1411.84 467 1403 467H1391.34Z" fill="#34C759"/>
<path d="M1391.34 467C1382.5 467 1375.34 459.837 1375.34 451V409C1375.34 400.163 1382.5 393 1391.34 393H1403C1411.84 393 1419 400.163 1419 409V451C1419 459.837 1411.84 467 1403 467H1391.34Z" fill="#34C759"/>
<path d="M1387.82 426.191V422.347H1399.63C1400.95 422.347 1402.11 422.664 1403.11 423.297C1404.1 423.924 1404.88 424.803 1405.43 425.934C1405.98 427.064 1406.26 428.381 1406.26 429.884C1406.26 431.393 1405.98 432.713 1405.43 433.844C1404.88 434.974 1404.1 435.853 1403.11 436.48C1402.11 437.108 1400.95 437.422 1399.63 437.422H1387.82V433.577H1399.3C1399.99 433.577 1400.61 433.427 1401.14 433.125C1401.68 432.817 1402.11 432.385 1402.41 431.828C1402.72 431.272 1402.87 430.624 1402.87 429.884C1402.87 429.139 1402.72 428.49 1402.41 427.94C1402.11 427.384 1401.68 426.955 1401.14 426.653C1400.61 426.345 1399.99 426.191 1399.3 426.191H1387.82Z" fill="white"/>
<path d="M1391.34 581C1382.5 581 1375.34 573.837 1375.34 565V523C1375.34 514.163 1382.5 507 1391.34 507H1403C1411.84 507 1419 514.163 1419 523V565C1419 573.837 1411.84 581 1403 581H1391.34Z" fill="#AF52DE"/>
<path d="M1391.34 581C1382.5 581 1375.34 573.837 1375.34 565V523C1375.34 514.163 1382.5 507 1391.34 507H1403C1411.84 507 1419 514.163 1419 523V565C1419 573.837 1411.84 581 1403 581H1391.34Z" fill="#AF52DE"/>
<path d="M1393.7 539.756C1393.26 539.88 1392.88 540.055 1392.55 540.28C1392.21 540.505 1391.93 540.78 1391.7 541.105C1391.46 541.425 1391.28 541.792 1391.16 542.206C1391.03 542.615 1390.97 543.067 1390.97 543.565C1390.97 544.494 1391.2 545.311 1391.66 546.015C1392.12 546.713 1392.8 547.258 1393.68 547.648C1394.55 548.039 1395.62 548.234 1396.89 548.234C1398.16 548.234 1399.24 548.042 1400.12 547.657C1401.01 547.273 1401.69 546.728 1402.16 546.024C1402.62 545.319 1402.85 544.488 1402.85 543.529C1402.85 542.659 1402.69 541.916 1402.39 541.301C1402.07 540.679 1401.63 540.206 1401.06 539.88C1400.5 539.549 1399.82 539.383 1399.05 539.383L1399.16 538.602V543.289H1396.27V535.681H1398.56C1400.16 535.681 1401.53 536.018 1402.68 536.693C1403.82 537.368 1404.7 538.297 1405.33 539.481C1405.94 540.665 1406.25 542.02 1406.25 543.547C1406.25 545.251 1405.87 546.749 1405.12 548.039C1404.36 549.329 1403.29 550.335 1401.9 551.058C1400.5 551.774 1398.84 552.132 1396.93 552.132C1395.45 552.132 1394.14 551.919 1392.99 551.493C1391.83 551.06 1390.84 550.457 1390.04 549.681C1389.23 548.906 1388.62 548.004 1388.2 546.974C1387.78 545.944 1387.57 544.828 1387.57 543.627C1387.57 542.597 1387.72 541.638 1388.02 540.75C1388.32 539.863 1388.74 539.075 1389.28 538.389C1389.83 537.696 1390.48 537.131 1391.23 536.693C1391.97 536.255 1392.8 535.974 1393.7 535.85V539.756Z" fill="white"/>
<path d="M451.336 253C442.499 253 435.336 245.837 435.336 237V179C435.336 170.163 442.499 163 451.336 163H463C471.837 163 479 170.163 479 179V237C479 245.837 471.837 253 463 253H451.336Z" fill="#AF52DE"/>
<path d="M451.336 253C442.499 253 435.336 245.837 435.336 237V179C435.336 170.163 442.499 163 451.336 163H463C471.837 163 479 170.163 479 179V237C479 245.837 471.837 253 463 253H451.336Z" fill="#AF52DE"/>
<path d="M453.047 204.605C452.331 204.676 451.775 204.981 451.378 205.52C450.982 206.058 450.783 206.789 450.783 207.712C450.783 208.34 450.872 208.869 451.05 209.301C451.221 209.734 451.461 210.065 451.769 210.296C452.077 210.521 452.426 210.633 452.816 210.633C453.142 210.645 453.426 210.577 453.669 210.429C453.911 210.275 454.121 210.065 454.299 209.799C454.471 209.532 454.622 209.225 454.752 208.875C454.876 208.526 454.983 208.153 455.071 207.757L455.462 206.123C455.64 205.33 455.876 204.602 456.172 203.939C456.468 203.276 456.832 202.702 457.264 202.217C457.696 201.732 458.205 201.356 458.791 201.089C459.377 200.817 460.049 200.678 460.806 200.672C461.919 200.678 462.884 200.962 463.701 201.524C464.511 202.081 465.142 202.886 465.592 203.939C466.036 204.987 466.257 206.25 466.257 207.73C466.257 209.198 466.033 210.476 465.583 211.565C465.133 212.648 464.467 213.495 463.585 214.104C462.697 214.708 461.6 215.025 460.292 215.054V211.334C460.901 211.293 461.41 211.118 461.819 210.811C462.221 210.497 462.526 210.08 462.733 209.559C462.934 209.032 463.035 208.437 463.035 207.774C463.035 207.123 462.94 206.558 462.751 206.079C462.561 205.593 462.298 205.218 461.961 204.951C461.623 204.685 461.236 204.552 460.798 204.552C460.389 204.552 460.046 204.673 459.768 204.916C459.49 205.153 459.253 205.502 459.058 205.963C458.862 206.419 458.685 206.978 458.525 207.641L458.028 209.621C457.655 211.154 457.072 212.364 456.279 213.252C455.486 214.14 454.417 214.581 453.074 214.575C451.973 214.581 451.011 214.288 450.189 213.696C449.366 213.098 448.724 212.279 448.262 211.237C447.8 210.195 447.57 209.011 447.57 207.686C447.57 206.336 447.8 205.158 448.262 204.152C448.724 203.14 449.366 202.353 450.189 201.791C451.011 201.229 451.964 200.939 453.047 200.921V204.605Z" fill="white"/>
<path d="M451.336 387C442.499 387 435.336 379.837 435.336 371V313C435.336 304.163 442.499 297 451.336 297H463C471.837 297 479 304.163 479 313V371C479 379.837 471.837 387 463 387H451.336Z" fill="#AF52DE"/>
<path d="M451.336 387C442.499 387 435.336 379.837 435.336 371V313C435.336 304.163 442.499 297 451.336 297H463C471.837 297 479 304.163 479 313V371C479 379.837 471.837 387 463 387H451.336Z" fill="#AF52DE"/>
<path d="M453.047 338.605C452.331 338.676 451.775 338.981 451.378 339.52C450.982 340.058 450.783 340.789 450.783 341.712C450.783 342.34 450.872 342.869 451.05 343.301C451.221 343.734 451.461 344.065 451.769 344.296C452.077 344.521 452.426 344.633 452.816 344.633C453.142 344.645 453.426 344.577 453.669 344.429C453.911 344.275 454.121 344.065 454.299 343.799C454.471 343.532 454.622 343.225 454.752 342.875C454.876 342.526 454.983 342.153 455.071 341.757L455.462 340.123C455.64 339.33 455.876 338.602 456.172 337.939C456.468 337.276 456.832 336.702 457.264 336.217C457.696 335.732 458.205 335.356 458.791 335.089C459.377 334.817 460.049 334.678 460.806 334.672C461.919 334.678 462.884 334.962 463.701 335.524C464.511 336.081 465.142 336.886 465.592 337.939C466.036 338.987 466.257 340.25 466.257 341.73C466.257 343.198 466.033 344.476 465.583 345.565C465.133 346.648 464.467 347.495 463.585 348.104C462.697 348.708 461.6 349.025 460.292 349.054V345.334C460.901 345.293 461.41 345.118 461.819 344.811C462.221 344.497 462.526 344.08 462.733 343.559C462.934 343.032 463.035 342.437 463.035 341.774C463.035 341.123 462.94 340.558 462.751 340.079C462.561 339.593 462.298 339.218 461.961 338.951C461.623 338.685 461.236 338.552 460.798 338.552C460.389 338.552 460.046 338.673 459.768 338.916C459.49 339.153 459.253 339.502 459.058 339.963C458.862 340.419 458.685 340.978 458.525 341.641L458.028 343.621C457.655 345.154 457.072 346.364 456.279 347.252C455.486 348.14 454.417 348.581 453.074 348.575C451.973 348.581 451.011 348.288 450.189 347.696C449.366 347.098 448.724 346.279 448.262 345.237C447.8 344.195 447.57 343.011 447.57 341.686C447.57 340.336 447.8 339.158 448.262 338.152C448.724 337.14 449.366 336.353 450.189 335.791C451.011 335.229 451.964 334.939 453.047 334.921V338.605Z" fill="white"/>
<path d="M451.336 521C442.499 521 435.336 513.837 435.336 505V447C435.336 438.163 442.499 431 451.336 431H463C471.837 431 479 438.163 479 447V505C479 513.837 471.837 521 463 521H451.336Z" fill="#34C759"/>
<path d="M451.336 521C442.499 521 435.336 513.837 435.336 505V447C435.336 438.163 442.499 431 451.336 431H463C471.837 431 479 438.163 479 447V505C479 513.837 471.837 521 463 521H451.336Z" fill="#34C759"/>
<path d="M447.818 472.166V468.322H459.626C460.951 468.322 462.112 468.638 463.106 469.271C464.1 469.899 464.875 470.778 465.432 471.908C465.982 473.039 466.257 474.356 466.257 475.859C466.257 477.368 465.982 478.688 465.432 479.818C464.875 480.949 464.1 481.828 463.106 482.455C462.112 483.082 460.951 483.396 459.626 483.396H447.818V479.552H459.297C459.99 479.552 460.605 479.401 461.144 479.099C461.682 478.791 462.106 478.359 462.413 477.803C462.721 477.247 462.875 476.599 462.875 475.859C462.875 475.113 462.721 474.465 462.413 473.915C462.106 473.358 461.682 472.929 461.144 472.627C460.605 472.32 459.99 472.166 459.297 472.166H447.818Z" fill="white"/>
<path d="M1137.34 253C1128.5 253 1121.34 245.837 1121.34 237V179C1121.34 170.163 1128.5 163 1137.34 163H1149C1157.84 163 1165 170.163 1165 179V237C1165 245.837 1157.84 253 1149 253H1137.34Z" fill="#AF52DE"/>
<path d="M1137.34 253C1128.5 253 1121.34 245.837 1121.34 237V179C1121.34 170.163 1128.5 163 1137.34 163H1149C1157.84 163 1165 170.163 1165 179V237C1165 245.837 1157.84 253 1149 253H1137.34Z" fill="#AF52DE"/>
<path d="M1139.7 203.731C1139.26 203.855 1138.88 204.03 1138.55 204.254C1138.21 204.479 1137.93 204.755 1137.7 205.08C1137.46 205.4 1137.28 205.767 1137.16 206.181C1137.03 206.589 1136.97 207.042 1136.97 207.539C1136.97 208.468 1137.2 209.285 1137.66 209.989C1138.12 210.688 1138.8 211.232 1139.68 211.623C1140.55 212.014 1141.62 212.209 1142.89 212.209C1144.16 212.209 1145.24 212.017 1146.12 211.632C1147.01 211.247 1147.69 210.703 1148.16 209.998C1148.62 209.294 1148.85 208.463 1148.85 207.504C1148.85 206.634 1148.69 205.891 1148.39 205.275C1148.07 204.654 1147.63 204.18 1147.06 203.855C1146.5 203.523 1145.82 203.358 1145.05 203.358L1145.16 202.577V207.264H1142.27V199.656H1144.56C1146.16 199.656 1147.53 199.993 1148.68 200.668C1149.82 201.342 1150.7 202.272 1151.33 203.455C1151.94 204.639 1152.25 205.994 1152.25 207.521C1152.25 209.226 1151.87 210.723 1151.12 212.014C1150.36 213.304 1149.29 214.31 1147.9 215.032C1146.5 215.748 1144.84 216.106 1142.93 216.106C1141.45 216.106 1140.14 215.893 1138.99 215.467C1137.83 215.035 1136.84 214.431 1136.04 213.656C1135.23 212.881 1134.62 211.978 1134.2 210.948C1133.78 209.918 1133.57 208.803 1133.57 207.601C1133.57 206.572 1133.72 205.613 1134.02 204.725C1134.32 203.837 1134.74 203.05 1135.28 202.363C1135.83 201.671 1136.48 201.106 1137.23 200.668C1137.97 200.23 1138.8 199.949 1139.7 199.824V203.731Z" fill="white"/>
<path d="M1137.34 387C1128.5 387 1121.34 379.837 1121.34 371V313C1121.34 304.163 1128.5 297 1137.34 297H1149C1157.84 297 1165 304.163 1165 313V371C1165 379.837 1157.84 387 1149 387H1137.34Z" fill="#34C759"/>
<path d="M1137.34 387C1128.5 387 1121.34 379.837 1121.34 371V313C1121.34 304.163 1128.5 297 1137.34 297H1149C1157.84 297 1165 304.163 1165 313V371C1165 379.837 1157.84 387 1149 387H1137.34Z" fill="#34C759"/>
<path d="M1133.82 338.166V334.322H1145.63C1146.95 334.322 1148.11 334.638 1149.11 335.271C1150.1 335.899 1150.88 336.778 1151.43 337.908C1151.98 339.039 1152.26 340.356 1152.26 341.859C1152.26 343.368 1151.98 344.688 1151.43 345.818C1150.88 346.949 1150.1 347.828 1149.11 348.455C1148.11 349.082 1146.95 349.396 1145.63 349.396H1133.82V345.552H1145.3C1145.99 345.552 1146.61 345.401 1147.14 345.099C1147.68 344.791 1148.11 344.359 1148.41 343.803C1148.72 343.247 1148.87 342.599 1148.87 341.859C1148.87 341.113 1148.72 340.465 1148.41 339.915C1148.11 339.358 1147.68 338.929 1147.14 338.627C1146.61 338.32 1145.99 338.166 1145.3 338.166H1133.82Z" fill="white"/>
<path d="M1137.34 521C1128.5 521 1121.34 513.837 1121.34 505V447C1121.34 438.163 1128.5 431 1137.34 431H1149C1157.84 431 1165 438.163 1165 447V505C1165 513.837 1157.84 521 1149 521H1137.34Z" fill="#AF52DE"/>
<path d="M1137.34 521C1128.5 521 1121.34 513.837 1121.34 505V447C1121.34 438.163 1128.5 431 1137.34 431H1149C1157.84 431 1165 438.163 1165 447V505C1165 513.837 1157.84 521 1149 521H1137.34Z" fill="#AF52DE"/>
<path d="M1139.7 471.731C1139.26 471.855 1138.88 472.03 1138.55 472.254C1138.21 472.479 1137.93 472.755 1137.7 473.08C1137.46 473.4 1137.28 473.767 1137.16 474.181C1137.03 474.589 1136.97 475.042 1136.97 475.539C1136.97 476.468 1137.2 477.285 1137.66 477.989C1138.12 478.688 1138.8 479.232 1139.68 479.623C1140.55 480.014 1141.62 480.209 1142.89 480.209C1144.16 480.209 1145.24 480.017 1146.12 479.632C1147.01 479.247 1147.69 478.703 1148.16 477.998C1148.62 477.294 1148.85 476.463 1148.85 475.504C1148.85 474.634 1148.69 473.891 1148.39 473.275C1148.07 472.654 1147.63 472.18 1147.06 471.855C1146.5 471.523 1145.82 471.358 1145.05 471.358L1145.16 470.577V475.264H1142.27V467.656H1144.56C1146.16 467.656 1147.53 467.993 1148.68 468.668C1149.82 469.342 1150.7 470.272 1151.33 471.455C1151.94 472.639 1152.25 473.994 1152.25 475.521C1152.25 477.226 1151.87 478.723 1151.12 480.014C1150.36 481.304 1149.29 482.31 1147.9 483.032C1146.5 483.748 1144.84 484.106 1142.93 484.106C1141.45 484.106 1140.14 483.893 1138.99 483.467C1137.83 483.035 1136.84 482.431 1136.04 481.656C1135.23 480.881 1134.62 479.978 1134.2 478.948C1133.78 477.918 1133.57 476.803 1133.57 475.601C1133.57 474.572 1133.72 473.613 1134.02 472.725C1134.32 471.837 1134.74 471.05 1135.28 470.363C1135.83 469.671 1136.48 469.106 1137.23 468.668C1137.97 468.23 1138.8 467.949 1139.7 467.824V471.731Z" fill="white"/>
<path d="M637.611 321C628.774 321 621.611 313.837 621.611 305V177C621.611 168.163 628.774 161 637.611 161H685C693.837 161 701 168.163 701 177V305C701 313.837 693.837 321 685 321H637.611Z" fill="#FF3B30"/>
<path d="M651.818 245.233L665.632 240.839V240.67L651.818 236.267V232.005L670 238.273V243.227L651.818 249.503V245.233Z" fill="white"/>
<path d="M578.611 525C569.774 525 562.611 517.837 562.611 509V381C562.611 372.163 569.774 365 578.611 365H626C634.837 365 642 372.163 642 381V509C642 517.837 634.837 525 626 525H578.611Z" fill="#FF3B30"/>
<path d="M592.818 449.233L606.632 444.839V444.67L592.818 440.267V436.005L611 442.273V447.227L592.818 453.503V449.233Z" fill="white"/>
<path d="M696.748 525C687.911 525 680.748 517.837 680.748 509V381C680.748 372.163 687.911 365 696.748 365H744.137C752.974 365 760.137 372.163 760.137 381V509C760.137 517.837 752.974 525 744.137 525H696.748Z" fill="#FF3B30"/>
<path d="M710.955 460.671L724.769 456.277V456.108L710.955 451.705V447.443L729.137 453.711V458.665L710.955 464.941V460.671ZM710.955 445.255V440.514L723.171 435.507V435.294L710.955 430.287V425.546H729.137V429.275H717.303V429.426L729.048 434.131V436.67L717.259 441.375V441.526H729.137V445.255H710.955Z" fill="white"/>
<path d="M974.611 525C965.774 525 958.611 517.837 958.611 509V381C958.611 372.163 965.774 365 974.611 365H1022C1030.84 365 1038 372.163 1038 381V509C1038 517.837 1030.84 525 1022 525H974.611Z" fill="#FF9500"/>
<path d="M1007 454.026L988.818 459.229V455.03L1001.45 452.02V451.869L988.818 448.549V444.953L1001.48 441.642V441.482L988.818 438.472V434.273L1007 439.476V443.222L995.113 446.684V446.826L1007 450.28V454.026Z" fill="white"/>
<path d="M974.611 321C965.774 321 958.611 313.837 958.611 305V177C958.611 168.163 965.774 161 974.611 161H1022C1030.84 161 1038 168.163 1038 177V305C1038 313.837 1030.84 321 1022 321H974.611Z" fill="#FF9500"/>
<path d="M1007 250.026L988.818 255.229V251.03L1001.45 248.02V247.869L988.818 244.549V240.953L1001.48 237.642V237.482L988.818 234.472V230.273L1007 235.476V239.222L995.113 242.684V242.826L1007 246.28V250.026Z" fill="white"/>
</svg>
