<svg width="1600" height="587" viewBox="0 0 1600 587" fill="none" xmlns="http://www.w3.org/2000/svg">
<rect width="1600" height="587" fill="white"/>
<path d="M835 155C835 146.163 842.163 139 851 139H1136C1144.84 139 1152 146.163 1152 155V528C1152 536.837 1144.84 544 1136 544H851C842.163 544 835 536.837 835 528V155Z" fill="#F6F6F6"/>
<path d="M1223 155C1223 146.163 1230.16 139 1239 139H1524C1532.84 139 1540 146.163 1540 155V528C1540 536.837 1532.84 544 1524 544H1239C1230.16 544 1223 536.837 1223 528V155Z" fill="#F6F6F6"/>
<path d="M64 155C64 146.163 71.1634 139 80 139H749C757.837 139 765 146.163 765 155V528C765 536.837 757.837 544 749 544H80C71.1634 544 64 536.837 64 528V155Z" fill="#F6F6F6"/>
<rect x="464.842" y="173.752" width="286.961" height="118.263" rx="10" fill="#00C7BE"/>
<path d="M523.346 220.025L530.687 240.84H530.977L538.318 220.025H541.457L532.378 244.752H529.287L520.207 220.025H523.346ZM544.922 244.752V226.206H547.772V244.752H544.922ZM546.371 223.115C545.816 223.115 545.337 222.926 544.934 222.548C544.54 222.17 544.343 221.715 544.343 221.184C544.343 220.652 544.54 220.198 544.934 219.819C545.337 219.441 545.816 219.252 546.371 219.252C546.927 219.252 547.402 219.441 547.796 219.819C548.198 220.198 548.4 220.652 548.4 221.184C548.4 221.715 548.198 222.17 547.796 222.548C547.402 222.926 546.927 223.115 546.371 223.115ZM560.766 245.138C558.979 245.138 557.438 244.744 556.142 243.955C554.854 243.158 553.86 242.047 553.16 240.623C552.468 239.19 552.121 237.524 552.121 235.624C552.121 233.724 552.468 232.05 553.16 230.601C553.86 229.144 554.834 228.009 556.082 227.196C557.337 226.375 558.802 225.965 560.477 225.965C561.442 225.965 562.396 226.126 563.338 226.448C564.28 226.77 565.137 227.293 565.91 228.017C566.683 228.734 567.298 229.684 567.757 230.867C568.216 232.05 568.445 233.507 568.445 235.238V236.445H554.15V233.982H565.548C565.548 232.936 565.338 232.002 564.92 231.181C564.509 230.36 563.922 229.712 563.157 229.237C562.4 228.762 561.507 228.525 560.477 228.525C559.342 228.525 558.36 228.806 557.531 229.37C556.71 229.925 556.078 230.65 555.635 231.543C555.192 232.436 554.971 233.394 554.971 234.417V236.059C554.971 237.459 555.212 238.646 555.695 239.62C556.186 240.586 556.866 241.323 557.736 241.83C558.605 242.329 559.615 242.579 560.766 242.579C561.515 242.579 562.191 242.474 562.795 242.265C563.406 242.047 563.934 241.725 564.376 241.299C564.819 240.864 565.161 240.325 565.403 239.681L568.156 240.454C567.866 241.387 567.379 242.208 566.695 242.917C566.01 243.617 565.165 244.164 564.159 244.559C563.153 244.945 562.022 245.138 560.766 245.138ZM576.982 244.752L571.331 226.206H574.325L578.334 240.405H578.527L582.487 226.206H585.53L589.442 240.357H589.635L593.643 226.206H596.638L590.987 244.752H588.186L584.129 230.505H583.839L579.783 244.752H576.982ZM600.791 220.025H604.365L612.768 240.55H613.058L621.462 220.025H625.035V244.752H622.234V225.965H621.993L614.266 244.752H611.561L603.834 225.965H603.592V244.752H600.791V220.025ZM638.187 245.138C636.513 245.138 635.044 244.74 633.78 243.943C632.524 243.146 631.542 242.031 630.834 240.598C630.134 239.166 629.784 237.491 629.784 235.576C629.784 233.644 630.134 231.958 630.834 230.517C631.542 229.076 632.524 227.957 633.78 227.16C635.044 226.363 636.513 225.965 638.187 225.965C639.861 225.965 641.326 226.363 642.582 227.16C643.846 227.957 644.828 229.076 645.528 230.517C646.236 231.958 646.59 233.644 646.59 235.576C646.59 237.491 646.236 239.166 645.528 240.598C644.828 242.031 643.846 243.146 642.582 243.943C641.326 244.74 639.861 245.138 638.187 245.138ZM638.187 242.579C639.459 242.579 640.505 242.253 641.326 241.601C642.147 240.949 642.755 240.091 643.149 239.029C643.544 237.966 643.741 236.815 643.741 235.576C643.741 234.336 643.544 233.181 643.149 232.11C642.755 231.04 642.147 230.175 641.326 229.515C640.505 228.855 639.459 228.525 638.187 228.525C636.915 228.525 635.869 228.855 635.048 229.515C634.227 230.175 633.619 231.04 633.225 232.11C632.83 233.181 632.633 234.336 632.633 235.576C632.633 236.815 632.83 237.966 633.225 239.029C633.619 240.091 634.227 240.949 635.048 241.601C635.869 242.253 636.915 242.579 638.187 242.579ZM657.943 245.138C656.397 245.138 655.033 244.748 653.85 243.967C652.667 243.178 651.741 242.067 651.073 240.635C650.405 239.194 650.071 237.491 650.071 235.527C650.071 233.579 650.405 231.889 651.073 230.456C651.741 229.024 652.671 227.917 653.862 227.136C655.053 226.355 656.43 225.965 657.991 225.965C659.198 225.965 660.152 226.166 660.853 226.569C661.561 226.963 662.1 227.414 662.471 227.921C662.849 228.42 663.143 228.83 663.352 229.152H663.593V220.025H666.443V244.752H663.69V241.902H663.352C663.143 242.24 662.845 242.667 662.458 243.182C662.072 243.689 661.521 244.144 660.804 244.547C660.088 244.941 659.134 245.138 657.943 245.138ZM658.329 242.579C659.472 242.579 660.438 242.281 661.227 241.685C662.016 241.081 662.615 240.248 663.026 239.186C663.436 238.115 663.642 236.88 663.642 235.479C663.642 234.095 663.44 232.883 663.038 231.845C662.636 230.798 662.04 229.985 661.251 229.406C660.462 228.818 659.488 228.525 658.329 228.525C657.122 228.525 656.116 228.834 655.311 229.454C654.514 230.066 653.914 230.899 653.512 231.954C653.117 233 652.92 234.175 652.92 235.479C652.92 236.799 653.121 237.999 653.524 239.077C653.934 240.148 654.538 241.001 655.335 241.637C656.14 242.265 657.138 242.579 658.329 242.579ZM679.833 245.138C678.046 245.138 676.504 244.744 675.208 243.955C673.921 243.158 672.926 242.047 672.226 240.623C671.534 239.19 671.188 237.524 671.188 235.624C671.188 233.724 671.534 232.05 672.226 230.601C672.926 229.144 673.9 228.009 675.148 227.196C676.404 226.375 677.869 225.965 679.543 225.965C680.509 225.965 681.463 226.126 682.404 226.448C683.346 226.77 684.203 227.293 684.976 228.017C685.749 228.734 686.365 229.684 686.823 230.867C687.282 232.05 687.512 233.507 687.512 235.238V236.445H673.216V233.982H684.614C684.614 232.936 684.405 232.002 683.986 231.181C683.576 230.36 682.988 229.712 682.223 229.237C681.467 228.762 680.573 228.525 679.543 228.525C678.408 228.525 677.426 228.806 676.597 229.37C675.776 229.925 675.144 230.65 674.701 231.543C674.259 232.436 674.037 233.394 674.037 234.417V236.059C674.037 237.459 674.279 238.646 674.762 239.62C675.253 240.586 675.933 241.323 676.802 241.83C677.672 242.329 678.682 242.579 679.833 242.579C680.581 242.579 681.257 242.474 681.861 242.265C682.473 242.047 683 241.725 683.443 241.299C683.886 240.864 684.228 240.325 684.469 239.681L687.222 240.454C686.932 241.387 686.445 242.208 685.761 242.917C685.077 243.617 684.232 244.164 683.225 244.559C682.219 244.945 681.088 245.138 679.833 245.138ZM694.696 220.025V244.752H691.846V220.025H694.696Z" fill="white"/>
<rect x="850.935" y="173.752" width="286.961" height="118.263" rx="10" fill="#007AFF"/>
<path d="M944.408 220.025H947.403V236.397C947.403 238.087 947.004 239.596 946.207 240.924C945.419 242.244 944.304 243.287 942.863 244.052C941.422 244.808 939.732 245.186 937.792 245.186C935.852 245.186 934.162 244.808 932.721 244.052C931.28 243.287 930.161 242.244 929.364 240.924C928.575 239.596 928.181 238.087 928.181 236.397V220.025H931.175V236.155C931.175 237.363 931.441 238.437 931.972 239.379C932.504 240.313 933.26 241.049 934.242 241.588C935.232 242.12 936.415 242.385 937.792 242.385C939.168 242.385 940.352 242.12 941.342 241.588C942.332 241.049 943.088 240.313 943.611 239.379C944.143 238.437 944.408 237.363 944.408 236.155V220.025ZM966.132 230.36L963.573 231.084C963.412 230.658 963.174 230.243 962.86 229.841C962.554 229.43 962.136 229.092 961.605 228.826C961.073 228.561 960.393 228.428 959.564 228.428C958.429 228.428 957.483 228.69 956.727 229.213C955.978 229.728 955.604 230.384 955.604 231.181C955.604 231.889 955.861 232.449 956.377 232.859C956.892 233.27 957.697 233.612 958.791 233.885L961.544 234.561C963.202 234.964 964.438 235.58 965.251 236.409C966.064 237.23 966.47 238.288 966.47 239.584C966.47 240.647 966.164 241.597 965.553 242.434C964.949 243.271 964.104 243.931 963.017 244.414C961.931 244.897 960.667 245.138 959.226 245.138C957.334 245.138 955.769 244.728 954.529 243.907C953.29 243.086 952.505 241.886 952.175 240.309L954.879 239.633C955.137 240.631 955.624 241.379 956.34 241.878C957.065 242.377 958.011 242.627 959.178 242.627C960.506 242.627 961.56 242.345 962.341 241.782C963.13 241.21 963.524 240.526 963.524 239.729C963.524 239.085 963.299 238.546 962.848 238.111C962.397 237.668 961.705 237.338 960.771 237.121L957.681 236.397C955.982 235.994 954.735 235.37 953.938 234.525C953.149 233.672 952.754 232.606 952.754 231.326C952.754 230.279 953.048 229.354 953.636 228.549C954.231 227.744 955.04 227.112 956.063 226.653C957.093 226.194 958.26 225.965 959.564 225.965C961.399 225.965 962.84 226.367 963.887 227.172C964.941 227.977 965.69 229.04 966.132 230.36ZM978.535 245.138C976.748 245.138 975.207 244.744 973.911 243.955C972.623 243.158 971.629 242.047 970.929 240.623C970.236 239.19 969.89 237.524 969.89 235.624C969.89 233.724 970.236 232.05 970.929 230.601C971.629 229.144 972.603 228.009 973.85 227.196C975.106 226.375 976.571 225.965 978.245 225.965C979.211 225.965 980.165 226.126 981.107 226.448C982.049 226.77 982.906 227.293 983.679 228.017C984.451 228.734 985.067 229.684 985.526 230.867C985.985 232.05 986.214 233.507 986.214 235.238V236.445H971.919V233.982H983.316C983.316 232.936 983.107 232.002 982.689 231.181C982.278 230.36 981.69 229.712 980.926 229.237C980.169 228.762 979.276 228.525 978.245 228.525C977.11 228.525 976.128 228.806 975.299 229.37C974.478 229.925 973.846 230.65 973.404 231.543C972.961 232.436 972.74 233.394 972.74 234.417V236.059C972.74 237.459 972.981 238.646 973.464 239.62C973.955 240.586 974.635 241.323 975.505 241.83C976.374 242.329 977.384 242.579 978.535 242.579C979.284 242.579 979.96 242.474 980.564 242.265C981.175 242.047 981.702 241.725 982.145 241.299C982.588 240.864 982.93 240.325 983.171 239.681L985.924 240.454C985.635 241.387 985.148 242.208 984.463 242.917C983.779 243.617 982.934 244.164 981.928 244.559C980.922 244.945 979.791 245.138 978.535 245.138ZM998.083 245.138C996.344 245.138 994.847 244.728 993.591 243.907C992.336 243.086 991.37 241.955 990.693 240.514C990.017 239.073 989.679 237.427 989.679 235.576C989.679 233.692 990.025 232.03 990.718 230.589C991.418 229.14 992.392 228.009 993.64 227.196C994.895 226.375 996.36 225.965 998.034 225.965C999.338 225.965 1000.51 226.206 1001.56 226.689C1002.61 227.172 1003.46 227.848 1004.13 228.718C1004.8 229.587 1005.21 230.601 1005.38 231.76H1002.53C1002.31 230.915 1001.83 230.167 1001.08 229.515C1000.34 228.855 999.338 228.525 998.083 228.525C996.972 228.525 995.998 228.814 995.161 229.394C994.332 229.965 993.684 230.774 993.217 231.821C992.758 232.859 992.529 234.079 992.529 235.479C992.529 236.912 992.754 238.16 993.205 239.222C993.664 240.285 994.308 241.11 995.137 241.697C995.974 242.285 996.956 242.579 998.083 242.579C998.823 242.579 999.495 242.45 1000.1 242.192C1000.7 241.935 1001.21 241.564 1001.63 241.081C1002.05 240.598 1002.35 240.019 1002.53 239.343H1005.38C1005.21 240.437 1004.82 241.423 1004.18 242.301C1003.55 243.17 1002.72 243.862 1001.68 244.378C1000.65 244.885 999.451 245.138 998.083 245.138ZM1015 245.186C1013.82 245.186 1012.76 244.965 1011.8 244.522C1010.84 244.072 1010.08 243.424 1009.52 242.579C1008.95 241.725 1008.67 240.695 1008.67 239.488C1008.67 238.425 1008.88 237.564 1009.3 236.904C1009.72 236.236 1010.28 235.713 1010.98 235.334C1011.68 234.956 1012.45 234.674 1013.3 234.489C1014.15 234.296 1015.01 234.143 1015.87 234.03C1016.99 233.885 1017.91 233.777 1018.61 233.704C1019.32 233.624 1019.83 233.491 1020.15 233.306C1020.48 233.121 1020.65 232.799 1020.65 232.34V232.243C1020.65 231.052 1020.32 230.126 1019.67 229.466C1019.03 228.806 1018.05 228.476 1016.74 228.476C1015.38 228.476 1014.31 228.774 1013.54 229.37C1012.76 229.965 1012.22 230.601 1011.91 231.277L1009.2 230.311C1009.69 229.185 1010.33 228.307 1011.13 227.679C1011.95 227.043 1012.83 226.601 1013.79 226.351C1014.76 226.094 1015.71 225.965 1016.64 225.965C1017.24 225.965 1017.92 226.037 1018.69 226.182C1019.47 226.319 1020.23 226.605 1020.95 227.039C1021.68 227.474 1022.29 228.13 1022.77 229.008C1023.26 229.885 1023.5 231.06 1023.5 232.533V244.752H1020.65V242.24H1020.5C1020.31 242.643 1019.99 243.074 1019.54 243.532C1019.09 243.991 1018.49 244.382 1017.74 244.704C1016.99 245.026 1016.08 245.186 1015 245.186ZM1015.43 242.627C1016.56 242.627 1017.51 242.405 1018.28 241.963C1019.06 241.52 1019.65 240.949 1020.05 240.248C1020.45 239.548 1020.65 238.811 1020.65 238.039V235.431C1020.53 235.576 1020.26 235.709 1019.85 235.829C1019.45 235.942 1018.98 236.043 1018.45 236.131C1017.93 236.212 1017.42 236.284 1016.92 236.348C1016.43 236.405 1016.03 236.453 1015.72 236.493C1014.98 236.59 1014.29 236.747 1013.65 236.964C1013.01 237.173 1012.49 237.491 1012.1 237.918C1011.71 238.337 1011.52 238.908 1011.52 239.633C1011.52 240.623 1011.89 241.371 1012.62 241.878C1013.36 242.377 1014.3 242.627 1015.43 242.627ZM1041.84 230.36L1039.28 231.084C1039.11 230.658 1038.88 230.243 1038.56 229.841C1038.26 229.43 1037.84 229.092 1037.31 228.826C1036.78 228.561 1036.1 228.428 1035.27 228.428C1034.13 228.428 1033.19 228.69 1032.43 229.213C1031.68 229.728 1031.31 230.384 1031.31 231.181C1031.31 231.889 1031.56 232.449 1032.08 232.859C1032.59 233.27 1033.4 233.612 1034.49 233.885L1037.25 234.561C1038.91 234.964 1040.14 235.58 1040.95 236.409C1041.77 237.23 1042.17 238.288 1042.17 239.584C1042.17 240.647 1041.87 241.597 1041.26 242.434C1040.65 243.271 1039.81 243.931 1038.72 244.414C1037.63 244.897 1036.37 245.138 1034.93 245.138C1033.04 245.138 1031.47 244.728 1030.23 243.907C1028.99 243.086 1028.21 241.886 1027.88 240.309L1030.58 239.633C1030.84 240.631 1031.33 241.379 1032.04 241.878C1032.77 242.377 1033.71 242.627 1034.88 242.627C1036.21 242.627 1037.26 242.345 1038.04 241.782C1038.83 241.21 1039.23 240.526 1039.23 239.729C1039.23 239.085 1039 238.546 1038.55 238.111C1038.1 237.668 1037.41 237.338 1036.47 237.121L1033.38 236.397C1031.69 235.994 1030.44 235.37 1029.64 234.525C1028.85 233.672 1028.46 232.606 1028.46 231.326C1028.46 230.279 1028.75 229.354 1029.34 228.549C1029.93 227.744 1030.74 227.112 1031.77 226.653C1032.8 226.194 1033.96 225.965 1035.27 225.965C1037.1 225.965 1038.54 226.367 1039.59 227.172C1040.64 227.977 1041.39 229.04 1041.84 230.36ZM1054.24 245.138C1052.45 245.138 1050.91 244.744 1049.61 243.955C1048.33 243.158 1047.33 242.047 1046.63 240.623C1045.94 239.19 1045.59 237.524 1045.59 235.624C1045.59 233.724 1045.94 232.05 1046.63 230.601C1047.33 229.144 1048.31 228.009 1049.55 227.196C1050.81 226.375 1052.27 225.965 1053.95 225.965C1054.91 225.965 1055.87 226.126 1056.81 226.448C1057.75 226.77 1058.61 227.293 1059.38 228.017C1060.15 228.734 1060.77 229.684 1061.23 230.867C1061.69 232.05 1061.92 233.507 1061.92 235.238V236.445H1047.62V233.982H1059.02C1059.02 232.936 1058.81 232.002 1058.39 231.181C1057.98 230.36 1057.39 229.712 1056.63 229.237C1055.87 228.762 1054.98 228.525 1053.95 228.525C1052.81 228.525 1051.83 228.806 1051 229.37C1050.18 229.925 1049.55 230.65 1049.11 231.543C1048.66 232.436 1048.44 233.394 1048.44 234.417V236.059C1048.44 237.459 1048.68 238.646 1049.17 239.62C1049.66 240.586 1050.34 241.323 1051.21 241.83C1052.08 242.329 1053.09 242.579 1054.24 242.579C1054.99 242.579 1055.66 242.474 1056.27 242.265C1056.88 242.047 1057.41 241.725 1057.85 241.299C1058.29 240.864 1058.63 240.325 1058.87 239.681L1061.63 240.454C1061.34 241.387 1060.85 242.208 1060.17 242.917C1059.48 243.617 1058.64 244.164 1057.63 244.559C1056.62 244.945 1055.49 245.138 1054.24 245.138Z" fill="white"/>
<rect x="1237.03" y="173.752" width="286.961" height="118.263" rx="10" fill="#FFCC00"/>
<path d="M1297.12 244.752V220.025H1305.48C1307.41 220.025 1309 220.355 1310.24 221.015C1311.48 221.667 1312.39 222.564 1312.99 223.707C1313.59 224.85 1313.88 226.15 1313.88 227.607C1313.88 229.064 1313.59 230.356 1312.99 231.483C1312.39 232.61 1311.48 233.495 1310.25 234.139C1309.02 234.775 1307.44 235.093 1305.53 235.093H1298.77V232.388H1305.43C1306.75 232.388 1307.81 232.195 1308.62 231.809C1309.43 231.422 1310.02 230.875 1310.38 230.167C1310.75 229.45 1310.94 228.597 1310.94 227.607C1310.94 226.617 1310.75 225.752 1310.38 225.011C1310.01 224.271 1309.42 223.699 1308.61 223.297C1307.79 222.886 1306.72 222.681 1305.38 222.681H1300.12V244.752H1297.12ZM1308.76 233.644L1314.85 244.752H1311.37L1305.38 233.644H1308.76ZM1326.06 245.138C1324.28 245.138 1322.73 244.744 1321.44 243.955C1320.15 243.158 1319.16 242.047 1318.46 240.623C1317.76 239.19 1317.42 237.524 1317.42 235.624C1317.42 233.724 1317.76 232.05 1318.46 230.601C1319.16 229.144 1320.13 228.009 1321.38 227.196C1322.63 226.375 1324.1 225.965 1325.77 225.965C1326.74 225.965 1327.69 226.126 1328.63 226.448C1329.58 226.77 1330.43 227.293 1331.21 228.017C1331.98 228.734 1332.59 229.684 1333.05 230.867C1333.51 232.05 1333.74 233.507 1333.74 235.238V236.445H1319.45V233.982H1330.84C1330.84 232.936 1330.63 232.002 1330.22 231.181C1329.81 230.36 1329.22 229.712 1328.45 229.237C1327.7 228.762 1326.8 228.525 1325.77 228.525C1324.64 228.525 1323.66 228.806 1322.83 229.37C1322.01 229.925 1321.37 230.65 1320.93 231.543C1320.49 232.436 1320.27 233.394 1320.27 234.417V236.059C1320.27 237.459 1320.51 238.646 1320.99 239.62C1321.48 240.586 1322.16 241.323 1323.03 241.83C1323.9 242.329 1324.91 242.579 1326.06 242.579C1326.81 242.579 1327.49 242.474 1328.09 242.265C1328.7 242.047 1329.23 241.725 1329.67 241.299C1330.12 240.864 1330.46 240.325 1330.7 239.681L1333.45 240.454C1333.16 241.387 1332.68 242.208 1331.99 242.917C1331.31 243.617 1330.46 244.164 1329.46 244.559C1328.45 244.945 1327.32 245.138 1326.06 245.138ZM1338.08 251.706V226.206H1340.83V229.152H1341.17C1341.38 228.83 1341.67 228.42 1342.04 227.921C1342.41 227.414 1342.95 226.963 1343.65 226.569C1344.36 226.166 1345.32 225.965 1346.53 225.965C1348.09 225.965 1349.47 226.355 1350.66 227.136C1351.85 227.917 1352.78 229.024 1353.45 230.456C1354.11 231.889 1354.45 233.579 1354.45 235.527C1354.45 237.491 1354.11 239.194 1353.45 240.635C1352.78 242.067 1351.85 243.178 1350.67 243.967C1349.49 244.748 1348.12 245.138 1346.58 245.138C1345.38 245.138 1344.43 244.941 1343.71 244.547C1343 244.144 1342.45 243.689 1342.06 243.182C1341.67 242.667 1341.38 242.24 1341.17 241.902H1340.93V251.706H1338.08ZM1340.88 235.479C1340.88 236.88 1341.08 238.115 1341.49 239.186C1341.9 240.248 1342.5 241.081 1343.29 241.685C1344.08 242.281 1345.05 242.579 1346.19 242.579C1347.38 242.579 1348.38 242.265 1349.17 241.637C1349.98 241.001 1350.58 240.148 1350.98 239.077C1351.39 237.999 1351.6 236.799 1351.6 235.479C1351.6 234.175 1351.4 233 1351 231.954C1350.6 230.899 1350 230.066 1349.2 229.454C1348.4 228.834 1347.4 228.525 1346.19 228.525C1345.03 228.525 1344.06 228.818 1343.27 229.406C1342.48 229.985 1341.88 230.798 1341.48 231.845C1341.08 232.883 1340.88 234.095 1340.88 235.479ZM1366.33 245.138C1364.65 245.138 1363.19 244.74 1361.92 243.943C1360.67 243.146 1359.68 242.031 1358.98 240.598C1358.28 239.166 1357.93 237.491 1357.93 235.576C1357.93 233.644 1358.28 231.958 1358.98 230.517C1359.68 229.076 1360.67 227.957 1361.92 227.16C1363.19 226.363 1364.65 225.965 1366.33 225.965C1368 225.965 1369.47 226.363 1370.72 227.16C1371.99 227.957 1372.97 229.076 1373.67 230.517C1374.38 231.958 1374.73 233.644 1374.73 235.576C1374.73 237.491 1374.38 239.166 1373.67 240.598C1372.97 242.031 1371.99 243.146 1370.72 243.943C1369.47 244.74 1368 245.138 1366.33 245.138ZM1366.33 242.579C1367.6 242.579 1368.65 242.253 1369.47 241.601C1370.29 240.949 1370.9 240.091 1371.29 239.029C1371.69 237.966 1371.88 236.815 1371.88 235.576C1371.88 234.336 1371.69 233.181 1371.29 232.11C1370.9 231.04 1370.29 230.175 1369.47 229.515C1368.65 228.855 1367.6 228.525 1366.33 228.525C1365.06 228.525 1364.01 228.855 1363.19 229.515C1362.37 230.175 1361.76 231.04 1361.37 232.11C1360.97 233.181 1360.78 234.336 1360.78 235.576C1360.78 236.815 1360.97 237.966 1361.37 239.029C1361.76 240.091 1362.37 240.949 1363.19 241.601C1364.01 242.253 1365.06 242.579 1366.33 242.579ZM1392.22 230.36L1389.66 231.084C1389.5 230.658 1389.26 230.243 1388.95 229.841C1388.64 229.43 1388.22 229.092 1387.69 228.826C1387.16 228.561 1386.48 228.428 1385.65 228.428C1384.52 228.428 1383.57 228.69 1382.81 229.213C1382.06 229.728 1381.69 230.384 1381.69 231.181C1381.69 231.889 1381.95 232.449 1382.46 232.859C1382.98 233.27 1383.78 233.612 1384.88 233.885L1387.63 234.561C1389.29 234.964 1390.52 235.58 1391.34 236.409C1392.15 237.23 1392.56 238.288 1392.56 239.584C1392.56 240.647 1392.25 241.597 1391.64 242.434C1391.04 243.271 1390.19 243.931 1389.1 244.414C1388.02 244.897 1386.75 245.138 1385.31 245.138C1383.42 245.138 1381.86 244.728 1380.62 243.907C1379.38 243.086 1378.59 241.886 1378.26 240.309L1380.97 239.633C1381.22 240.631 1381.71 241.379 1382.43 241.878C1383.15 242.377 1384.1 242.627 1385.26 242.627C1386.59 242.627 1387.65 242.345 1388.43 241.782C1389.22 241.21 1389.61 240.526 1389.61 239.729C1389.61 239.085 1389.39 238.546 1388.93 238.111C1388.48 237.668 1387.79 237.338 1386.86 237.121L1383.77 236.397C1382.07 235.994 1380.82 235.37 1380.02 234.525C1379.24 233.672 1378.84 232.606 1378.84 231.326C1378.84 230.279 1379.13 229.354 1379.72 228.549C1380.32 227.744 1381.13 227.112 1382.15 226.653C1383.18 226.194 1384.35 225.965 1385.65 225.965C1387.49 225.965 1388.93 226.367 1389.97 227.172C1391.03 227.977 1391.78 229.04 1392.22 230.36ZM1396.85 244.752V226.206H1399.7V244.752H1396.85ZM1398.29 223.115C1397.74 223.115 1397.26 222.926 1396.86 222.548C1396.46 222.17 1396.27 221.715 1396.27 221.184C1396.27 220.652 1396.46 220.198 1396.86 219.819C1397.26 219.441 1397.74 219.252 1398.29 219.252C1398.85 219.252 1399.32 219.441 1399.72 219.819C1400.12 220.198 1400.32 220.652 1400.32 221.184C1400.32 221.715 1400.12 222.17 1399.72 222.548C1399.32 222.926 1398.85 223.115 1398.29 223.115ZM1412.98 226.206V228.621H1403.37V226.206H1412.98ZM1406.17 221.763H1409.02V239.439C1409.02 240.244 1409.14 240.848 1409.37 241.25C1409.61 241.645 1409.92 241.91 1410.29 242.047C1410.67 242.176 1411.06 242.24 1411.48 242.24C1411.8 242.24 1412.05 242.224 1412.26 242.192C1412.46 242.152 1412.62 242.12 1412.74 242.096L1413.32 244.655C1413.12 244.728 1412.85 244.8 1412.51 244.873C1412.16 244.953 1411.72 244.993 1411.19 244.993C1410.39 244.993 1409.6 244.82 1408.83 244.474C1408.06 244.128 1407.43 243.601 1406.92 242.892C1406.42 242.184 1406.17 241.291 1406.17 240.212V221.763ZM1424.6 245.138C1422.93 245.138 1421.46 244.74 1420.19 243.943C1418.94 243.146 1417.96 242.031 1417.25 240.598C1416.55 239.166 1416.2 237.491 1416.2 235.576C1416.2 233.644 1416.55 231.958 1417.25 230.517C1417.96 229.076 1418.94 227.957 1420.19 227.16C1421.46 226.363 1422.93 225.965 1424.6 225.965C1426.27 225.965 1427.74 226.363 1429 227.16C1430.26 227.957 1431.24 229.076 1431.94 230.517C1432.65 231.958 1433 233.644 1433 235.576C1433 237.491 1432.65 239.166 1431.94 240.598C1431.24 242.031 1430.26 243.146 1429 243.943C1427.74 244.74 1426.27 245.138 1424.6 245.138ZM1424.6 242.579C1425.87 242.579 1426.92 242.253 1427.74 241.601C1428.56 240.949 1429.17 240.091 1429.56 239.029C1429.96 237.966 1430.15 236.815 1430.15 235.576C1430.15 234.336 1429.96 233.181 1429.56 232.11C1429.17 231.04 1428.56 230.175 1427.74 229.515C1426.92 228.855 1425.87 228.525 1424.6 228.525C1423.33 228.525 1422.28 228.855 1421.46 229.515C1420.64 230.175 1420.03 231.04 1419.64 232.11C1419.24 233.181 1419.05 234.336 1419.05 235.576C1419.05 236.815 1419.24 237.966 1419.64 239.029C1420.03 240.091 1420.64 240.949 1421.46 241.601C1422.28 242.253 1423.33 242.579 1424.6 242.579ZM1437.35 244.752V226.206H1440.11V229.008H1440.3C1440.64 228.09 1441.25 227.345 1442.13 226.774C1443.02 226.202 1444.02 225.917 1445.13 225.917C1445.34 225.917 1445.6 225.921 1445.91 225.929C1446.23 225.937 1446.47 225.949 1446.63 225.965V228.863C1446.53 228.838 1446.31 228.802 1445.96 228.754C1445.62 228.698 1445.27 228.669 1444.89 228.669C1443.99 228.669 1443.18 228.859 1442.47 229.237C1441.77 229.607 1441.22 230.122 1440.81 230.782C1440.4 231.434 1440.2 232.179 1440.2 233.016V244.752H1437.35ZM1452.4 251.706C1451.92 251.706 1451.49 251.666 1451.11 251.586C1450.73 251.513 1450.47 251.441 1450.33 251.368L1451.05 248.857C1451.74 249.034 1452.36 249.098 1452.89 249.05C1453.42 249.002 1453.89 248.764 1454.3 248.338C1454.72 247.919 1455.1 247.239 1455.45 246.297L1455.98 244.848L1449.12 226.206H1452.21L1457.33 240.985H1457.52L1462.64 226.206H1465.73L1457.86 247.456C1457.51 248.414 1457.07 249.207 1456.55 249.835C1456.02 250.471 1455.41 250.942 1454.72 251.248C1454.04 251.553 1453.26 251.706 1452.4 251.706Z" fill="white"/>
<rect x="850.935" y="382.451" width="286.961" height="118.263" rx="10" fill="#AF52DE"/>
<path d="M923.65 453.451H920.511L929.591 428.724H932.682L941.761 453.451H938.622L931.233 432.635H931.04L923.65 453.451ZM924.809 443.792H937.463V446.448H924.809V443.792ZM945.226 460.405V434.905H947.979V437.851H948.317C948.527 437.529 948.816 437.119 949.187 436.62C949.565 436.113 950.104 435.662 950.804 435.268C951.513 434.865 952.471 434.664 953.678 434.664C955.24 434.664 956.616 435.054 957.807 435.835C958.999 436.616 959.928 437.723 960.596 439.155C961.264 440.588 961.599 442.278 961.599 444.226C961.599 446.19 961.264 447.893 960.596 449.334C959.928 450.766 959.003 451.877 957.819 452.666C956.636 453.447 955.272 453.837 953.726 453.837C952.535 453.837 951.581 453.64 950.865 453.246C950.148 452.843 949.597 452.388 949.211 451.881C948.824 451.366 948.527 450.939 948.317 450.601H948.076V460.405H945.226ZM948.027 444.178C948.027 445.579 948.233 446.814 948.643 447.885C949.054 448.947 949.653 449.78 950.442 450.384C951.231 450.98 952.197 451.277 953.34 451.277C954.531 451.277 955.525 450.964 956.322 450.336C957.127 449.7 957.731 448.847 958.133 447.776C958.544 446.697 958.749 445.498 958.749 444.178C958.749 442.874 958.548 441.699 958.145 440.652C957.751 439.598 957.151 438.765 956.346 438.153C955.55 437.533 954.547 437.224 953.34 437.224C952.181 437.224 951.207 437.517 950.418 438.105C949.629 438.684 949.034 439.497 948.631 440.544C948.229 441.582 948.027 442.794 948.027 444.178ZM965.945 460.405V434.905H968.698V437.851H969.036C969.245 437.529 969.535 437.119 969.905 436.62C970.284 436.113 970.823 435.662 971.523 435.268C972.232 434.865 973.189 434.664 974.397 434.664C975.958 434.664 977.335 435.054 978.526 435.835C979.717 436.616 980.647 437.723 981.315 439.155C981.983 440.588 982.317 442.278 982.317 444.226C982.317 446.19 981.983 447.893 981.315 449.334C980.647 450.766 979.721 451.877 978.538 452.666C977.355 453.447 975.991 453.837 974.445 453.837C973.254 453.837 972.3 453.64 971.584 453.246C970.867 452.843 970.316 452.388 969.929 451.881C969.543 451.366 969.245 450.939 969.036 450.601H968.795V460.405H965.945ZM968.746 444.178C968.746 445.579 968.951 446.814 969.362 447.885C969.773 448.947 970.372 449.78 971.161 450.384C971.95 450.98 972.916 451.277 974.059 451.277C975.25 451.277 976.244 450.964 977.041 450.336C977.846 449.7 978.45 448.847 978.852 447.776C979.263 446.697 979.468 445.498 979.468 444.178C979.468 442.874 979.267 441.699 978.864 440.652C978.47 439.598 977.87 438.765 977.065 438.153C976.268 437.533 975.266 437.224 974.059 437.224C972.9 437.224 971.926 437.517 971.137 438.105C970.348 438.684 969.752 439.497 969.35 440.544C968.947 441.582 968.746 442.794 968.746 444.178ZM1000.57 434.905C1000.43 433.682 999.84 432.732 998.81 432.056C997.78 431.38 996.516 431.042 995.019 431.042C993.924 431.042 992.966 431.219 992.145 431.573C991.332 431.927 990.697 432.414 990.238 433.034C989.787 433.654 989.562 434.358 989.562 435.147C989.562 435.807 989.719 436.374 990.032 436.849C990.354 437.316 990.765 437.706 991.264 438.02C991.763 438.326 992.286 438.58 992.834 438.781C993.381 438.974 993.884 439.131 994.343 439.252L996.854 439.928C997.498 440.097 998.215 440.331 999.003 440.628C999.8 440.926 1000.56 441.333 1001.29 441.848C1002.02 442.355 1002.62 443.007 1003.1 443.804C1003.57 444.601 1003.81 445.579 1003.81 446.738C1003.81 448.074 1003.46 449.281 1002.76 450.36C1002.07 451.438 1001.05 452.296 999.716 452.932C998.388 453.567 996.774 453.885 994.874 453.885C993.103 453.885 991.57 453.6 990.274 453.028C988.986 452.457 987.972 451.66 987.231 450.638C986.499 449.615 986.084 448.428 985.988 447.076H989.079C989.159 448.009 989.473 448.782 990.02 449.394C990.576 449.998 991.276 450.448 992.121 450.746C992.974 451.036 993.892 451.181 994.874 451.181C996.017 451.181 997.043 450.996 997.953 450.625C998.862 450.247 999.583 449.724 1000.11 449.056C1000.65 448.38 1000.91 447.591 1000.91 446.689C1000.91 445.868 1000.68 445.2 1000.22 444.685C999.764 444.17 999.16 443.751 998.412 443.429C997.663 443.107 996.854 442.826 995.985 442.584L992.942 441.715C991.01 441.16 989.481 440.367 988.354 439.336C987.227 438.306 986.664 436.958 986.664 435.292C986.664 433.907 987.038 432.7 987.787 431.67C988.543 430.631 989.558 429.826 990.829 429.255C992.109 428.675 993.538 428.385 995.116 428.385C996.709 428.385 998.126 428.671 999.366 429.243C1000.61 429.806 1001.59 430.579 1002.31 431.561C1003.04 432.543 1003.43 433.658 1003.47 434.905H1000.57ZM1016.41 434.905V437.32H1006.8V434.905H1016.41ZM1009.6 430.462H1012.45V448.138C1012.45 448.943 1012.57 449.547 1012.8 449.949C1013.04 450.344 1013.35 450.609 1013.72 450.746C1014.1 450.875 1014.5 450.939 1014.91 450.939C1015.23 450.939 1015.49 450.923 1015.69 450.891C1015.89 450.851 1016.05 450.819 1016.17 450.795L1016.75 453.354C1016.56 453.427 1016.29 453.499 1015.94 453.572C1015.59 453.652 1015.16 453.692 1014.62 453.692C1013.82 453.692 1013.03 453.519 1012.26 453.173C1011.49 452.827 1010.86 452.3 1010.35 451.591C1009.85 450.883 1009.6 449.99 1009.6 448.911V430.462ZM1026.15 453.885C1024.98 453.885 1023.91 453.664 1022.95 453.221C1022 452.771 1021.24 452.123 1020.67 451.277C1020.11 450.424 1019.83 449.394 1019.83 448.187C1019.83 447.124 1020.04 446.263 1020.46 445.603C1020.87 444.935 1021.43 444.411 1022.13 444.033C1022.83 443.655 1023.61 443.373 1024.45 443.188C1025.31 442.995 1026.16 442.842 1027.02 442.729C1028.15 442.584 1029.06 442.476 1029.76 442.403C1030.47 442.323 1030.99 442.19 1031.31 442.005C1031.64 441.82 1031.81 441.498 1031.81 441.039V440.942C1031.81 439.751 1031.48 438.825 1030.83 438.165C1030.18 437.505 1029.21 437.175 1027.89 437.175C1026.53 437.175 1025.47 437.473 1024.69 438.069C1023.92 438.664 1023.38 439.3 1023.06 439.976L1020.36 439.01C1020.84 437.884 1021.49 437.006 1022.29 436.378C1023.1 435.742 1023.99 435.3 1024.95 435.05C1025.91 434.793 1026.86 434.664 1027.8 434.664C1028.39 434.664 1029.08 434.736 1029.85 434.881C1030.63 435.018 1031.38 435.304 1032.11 435.738C1032.84 436.173 1033.45 436.829 1033.93 437.706C1034.41 438.584 1034.65 439.759 1034.65 441.232V453.451H1031.81V450.939H1031.66C1031.47 451.342 1031.14 451.773 1030.69 452.231C1030.24 452.69 1029.64 453.081 1028.9 453.402C1028.15 453.724 1027.23 453.885 1026.15 453.885ZM1026.59 451.326C1027.72 451.326 1028.67 451.104 1029.44 450.662C1030.22 450.219 1030.81 449.648 1031.2 448.947C1031.6 448.247 1031.81 447.51 1031.81 446.738V444.13C1031.68 444.275 1031.42 444.407 1031.01 444.528C1030.61 444.641 1030.14 444.741 1029.61 444.83C1029.08 444.911 1028.57 444.983 1028.07 445.047C1027.58 445.104 1027.18 445.152 1026.88 445.192C1026.14 445.289 1025.45 445.446 1024.8 445.663C1024.17 445.872 1023.65 446.19 1023.26 446.617C1022.87 447.036 1022.68 447.607 1022.68 448.331C1022.68 449.322 1023.04 450.07 1023.78 450.577C1024.52 451.076 1025.45 451.326 1026.59 451.326ZM1047.92 434.905V437.32H1038.31V434.905H1047.92ZM1041.11 430.462H1043.96V448.138C1043.96 448.943 1044.08 449.547 1044.31 449.949C1044.55 450.344 1044.86 450.609 1045.23 450.746C1045.61 450.875 1046 450.939 1046.42 450.939C1046.74 450.939 1046.99 450.923 1047.2 450.891C1047.4 450.851 1047.56 450.819 1047.68 450.795L1048.26 453.354C1048.07 453.427 1047.8 453.499 1047.45 453.572C1047.1 453.652 1046.66 453.692 1046.13 453.692C1045.33 453.692 1044.54 453.519 1043.77 453.173C1043 452.827 1042.37 452.3 1041.86 451.591C1041.36 450.883 1041.11 449.99 1041.11 448.911V430.462ZM1059.78 453.837C1058 453.837 1056.45 453.443 1055.16 452.654C1053.87 451.857 1052.88 450.746 1052.18 449.322C1051.48 447.889 1051.14 446.223 1051.14 444.323C1051.14 442.423 1051.48 440.749 1052.18 439.3C1052.88 437.843 1053.85 436.708 1055.1 435.895C1056.35 435.074 1057.82 434.664 1059.49 434.664C1060.46 434.664 1061.41 434.825 1062.35 435.147C1063.3 435.469 1064.15 435.992 1064.93 436.716C1065.7 437.433 1066.32 438.383 1066.77 439.566C1067.23 440.749 1067.46 442.206 1067.46 443.937V445.144H1053.17V442.681H1064.56C1064.56 441.634 1064.36 440.701 1063.94 439.88C1063.53 439.059 1062.94 438.411 1062.17 437.936C1061.42 437.461 1060.52 437.224 1059.49 437.224C1058.36 437.224 1057.38 437.505 1056.55 438.069C1055.73 438.624 1055.09 439.349 1054.65 440.242C1054.21 441.135 1053.99 442.093 1053.99 443.116V444.758C1053.99 446.158 1054.23 447.345 1054.71 448.319C1055.2 449.285 1055.88 450.022 1056.75 450.529C1057.62 451.028 1058.63 451.277 1059.78 451.277C1060.53 451.277 1061.21 451.173 1061.81 450.964C1062.42 450.746 1062.95 450.424 1063.39 449.998C1063.84 449.563 1064.18 449.024 1064.42 448.38L1067.17 449.152C1066.88 450.086 1066.4 450.907 1065.71 451.616C1065.03 452.316 1064.18 452.863 1063.18 453.258C1062.17 453.644 1061.04 453.837 1059.78 453.837Z" fill="white"/>
<rect x="78.7488" y="173.752" width="286.961" height="118.263" rx="10" fill="#FF2D55"/>
<path d="M187.008 220.025L194.349 240.84H194.639L201.98 220.025H205.119L196.04 244.752H192.949L183.869 220.025H187.008ZM208.584 244.752V226.206H211.434V244.752H208.584ZM210.033 223.115C209.478 223.115 208.999 222.926 208.596 222.548C208.202 222.17 208.005 221.715 208.005 221.184C208.005 220.652 208.202 220.198 208.596 219.819C208.999 219.441 209.478 219.252 210.033 219.252C210.589 219.252 211.063 219.441 211.458 219.819C211.86 220.198 212.062 220.652 212.062 221.184C212.062 221.715 211.86 222.17 211.458 222.548C211.063 222.926 210.589 223.115 210.033 223.115ZM224.428 245.138C222.641 245.138 221.1 244.744 219.804 243.955C218.516 243.158 217.522 242.047 216.822 240.623C216.129 239.19 215.783 237.524 215.783 235.624C215.783 233.724 216.129 232.05 216.822 230.601C217.522 229.144 218.496 228.009 219.744 227.196C220.999 226.375 222.464 225.965 224.138 225.965C225.104 225.965 226.058 226.126 227 226.448C227.942 226.77 228.799 227.293 229.572 228.017C230.344 228.734 230.96 229.684 231.419 230.867C231.878 232.05 232.107 233.507 232.107 235.238V236.445H217.812V233.982H229.209C229.209 232.936 229 232.002 228.582 231.181C228.171 230.36 227.584 229.712 226.819 229.237C226.062 228.762 225.169 228.525 224.138 228.525C223.004 228.525 222.022 228.806 221.192 229.37C220.371 229.925 219.74 230.65 219.297 231.543C218.854 232.436 218.633 233.394 218.633 234.417V236.059C218.633 237.459 218.874 238.646 219.357 239.62C219.848 240.586 220.528 241.323 221.398 241.83C222.267 242.329 223.277 242.579 224.428 242.579C225.177 242.579 225.853 242.474 226.457 242.265C227.068 242.047 227.596 241.725 228.038 241.299C228.481 240.864 228.823 240.325 229.065 239.681L231.817 240.454C231.528 241.387 231.041 242.208 230.357 242.917C229.672 243.617 228.827 244.164 227.821 244.559C226.815 244.945 225.684 245.138 224.428 245.138ZM240.643 244.752L234.993 226.206H237.987L241.996 240.405H242.189L246.149 226.206H249.192L253.104 240.357H253.297L257.305 226.206H260.3L254.649 244.752H251.848L247.791 230.505H247.501L243.445 244.752H240.643Z" fill="white"/>
<rect x="127.445" y="382.451" width="573.922" height="118.263" rx="10" fill="#FF2D55"/>
<path d="M379.185 428.724L386.526 449.539H386.816L394.157 428.724H397.296L388.217 453.451H385.126L376.046 428.724H379.185ZM400.761 453.451V434.905H403.611V453.451H400.761ZM402.21 431.814C401.655 431.814 401.176 431.625 400.773 431.247C400.379 430.869 400.182 430.414 400.182 429.883C400.182 429.351 400.379 428.897 400.773 428.518C401.176 428.14 401.655 427.951 402.21 427.951C402.766 427.951 403.24 428.14 403.635 428.518C404.037 428.897 404.239 429.351 404.239 429.883C404.239 430.414 404.037 430.869 403.635 431.247C403.24 431.625 402.766 431.814 402.21 431.814ZM416.605 453.837C414.818 453.837 413.277 453.443 411.981 452.654C410.693 451.857 409.699 450.746 408.999 449.322C408.306 447.889 407.96 446.223 407.96 444.323C407.96 442.423 408.306 440.749 408.999 439.3C409.699 437.843 410.673 436.708 411.921 435.895C413.176 435.074 414.641 434.664 416.315 434.664C417.281 434.664 418.235 434.825 419.177 435.147C420.119 435.469 420.976 435.992 421.749 436.716C422.521 437.433 423.137 438.383 423.596 439.566C424.055 440.749 424.284 442.206 424.284 443.937V445.144H409.989V442.681H421.386C421.386 441.634 421.177 440.701 420.759 439.88C420.348 439.059 419.76 438.411 418.996 437.936C418.239 437.461 417.346 437.224 416.315 437.224C415.18 437.224 414.198 437.505 413.369 438.069C412.548 438.624 411.916 439.349 411.474 440.242C411.031 441.135 410.81 442.093 410.81 443.116V444.758C410.81 446.158 411.051 447.345 411.534 448.319C412.025 449.285 412.705 450.022 413.575 450.529C414.444 451.028 415.454 451.277 416.605 451.277C417.354 451.277 418.03 451.173 418.634 450.964C419.245 450.746 419.773 450.424 420.215 449.998C420.658 449.563 421 449.024 421.242 448.38L423.994 449.152C423.705 450.086 423.218 450.907 422.533 451.616C421.849 452.316 421.004 452.863 419.998 453.258C418.992 453.644 417.861 453.837 416.605 453.837ZM432.82 453.451L427.17 434.905H430.164L434.173 449.104H434.366L438.326 434.905H441.369L445.281 449.056H445.474L449.482 434.905H452.477L446.826 453.451H444.025L439.968 439.204H439.678L435.622 453.451H432.82Z" fill="white"/>
<path d="M447.768 207.768C448.744 206.791 448.744 205.209 447.768 204.232L431.858 188.322C430.882 187.346 429.299 187.346 428.322 188.322C427.346 189.299 427.346 190.882 428.322 191.858L442.464 206L428.322 220.142C427.346 221.118 427.346 222.701 428.322 223.678C429.299 224.654 430.882 224.654 431.858 223.678L447.768 207.768ZM375 208.5H446V203.5H375V208.5Z" fill="#14AE5C"/>
<path d="M373.232 262.232C372.256 263.209 372.256 264.791 373.232 265.768L389.142 281.678C390.118 282.654 391.701 282.654 392.678 281.678C393.654 280.701 393.654 279.118 392.678 278.142L378.536 264L392.678 249.858C393.654 248.882 393.654 247.299 392.678 246.322C391.701 245.346 390.118 245.346 389.142 246.322L373.232 262.232ZM446 261.5H375V266.5H446V261.5Z" fill="#007AFF"/>
<path d="M836.768 207.768C837.744 206.791 837.744 205.209 836.768 204.232L820.858 188.322C819.882 187.346 818.299 187.346 817.322 188.322C816.346 189.299 816.346 190.882 817.322 191.858L831.464 206L817.322 220.142C816.346 221.118 816.346 222.701 817.322 223.678C818.299 224.654 819.882 224.654 820.858 223.678L836.768 207.768ZM765 208.5H835V203.5H765V208.5Z" fill="#14AE5C"/>
<path d="M763.232 262.232C762.256 263.209 762.256 264.791 763.232 265.768L779.142 281.678C780.118 282.654 781.701 282.654 782.678 281.678C783.654 280.701 783.654 279.118 782.678 278.142L768.536 264L782.678 249.858C783.654 248.882 783.654 247.299 782.678 246.322C781.701 245.346 780.118 245.346 779.142 246.322L763.232 262.232ZM835 261.5H765V266.5H835V261.5Z" fill="#007AFF"/>
<path d="M1224.77 207.768C1225.74 206.791 1225.74 205.209 1224.77 204.232L1208.86 188.322C1207.88 187.346 1206.3 187.346 1205.32 188.322C1204.35 189.299 1204.35 190.882 1205.32 191.858L1219.46 206L1205.32 220.142C1204.35 221.118 1204.35 222.701 1205.32 223.678C1206.3 224.654 1207.88 224.654 1208.86 223.678L1224.77 207.768ZM1152 208.5H1223V203.5H1152V208.5Z" fill="#14AE5C"/>
<path d="M1150.23 262.232C1149.26 263.209 1149.26 264.791 1150.23 265.768L1166.14 281.678C1167.12 282.654 1168.7 282.654 1169.68 281.678C1170.65 280.701 1170.65 279.118 1169.68 278.142L1155.54 264L1169.68 249.858C1170.65 248.882 1170.65 247.299 1169.68 246.322C1168.7 245.346 1167.12 245.346 1166.14 246.322L1150.23 262.232ZM1223 261.5H1152V266.5H1223V261.5Z" fill="#007AFF"/>
<path d="M763.232 439.232C762.256 440.209 762.256 441.791 763.232 442.768L779.142 458.678C780.118 459.654 781.701 459.654 782.678 458.678C783.654 457.701 783.654 456.118 782.678 455.142L768.536 441L782.678 426.858C783.654 425.882 783.654 424.299 782.678 423.322C781.701 422.346 780.118 422.346 779.142 423.322L763.232 439.232ZM835 438.5H765V443.5H835V438.5Z" fill="#007AFF"/>
<path d="M993.232 374.768C994.209 375.744 995.791 375.744 996.768 374.768L1012.68 358.858C1013.65 357.882 1013.65 356.299 1012.68 355.322C1011.7 354.346 1010.12 354.346 1009.14 355.322L995 369.464L980.858 355.322C979.882 354.346 978.299 354.346 977.322 355.322C976.346 356.299 976.346 357.882 977.322 358.858L993.232 374.768ZM992.5 304L992.5 373L997.5 373L997.5 304L992.5 304Z" fill="#007AFF"/>
<path d="M355.387 73.2031C355.262 71.9427 354.725 70.9635 353.777 70.2656C352.829 69.5677 351.543 69.2187 349.918 69.2187C348.814 69.2187 347.882 69.375 347.121 69.6875C346.361 69.9896 345.777 70.4115 345.371 70.9531C344.975 71.4948 344.777 72.1094 344.777 72.7969C344.757 73.3698 344.876 73.8698 345.137 74.2969C345.408 74.724 345.777 75.0937 346.246 75.4062C346.715 75.7083 347.257 75.974 347.871 76.2031C348.486 76.4219 349.142 76.6094 349.84 76.7656L352.715 77.4531C354.111 77.7656 355.392 78.1823 356.559 78.7031C357.725 79.224 358.736 79.8646 359.59 80.625C360.444 81.3854 361.105 82.2812 361.574 83.3125C362.053 84.3437 362.298 85.526 362.309 86.8594C362.298 88.8177 361.798 90.5156 360.809 91.9531C359.829 93.3802 358.413 94.4896 356.559 95.2812C354.715 96.0625 352.491 96.4531 349.887 96.4531C347.303 96.4531 345.053 96.0573 343.137 95.2656C341.23 94.474 339.741 93.3021 338.668 91.75C337.605 90.1875 337.048 88.2552 336.996 85.9531H343.543C343.616 87.026 343.923 87.9219 344.465 88.6406C345.017 89.349 345.751 89.8854 346.668 90.25C347.595 90.6042 348.642 90.7812 349.809 90.7812C350.954 90.7812 351.949 90.6146 352.793 90.2812C353.647 89.9479 354.309 89.4844 354.777 88.8906C355.246 88.2969 355.48 87.6146 355.48 86.8437C355.48 86.125 355.267 85.5208 354.84 85.0312C354.423 84.5417 353.809 84.125 352.996 83.7812C352.194 83.4375 351.21 83.125 350.043 82.8437L346.559 81.9687C343.861 81.3125 341.73 80.2865 340.168 78.8906C338.605 77.4948 337.829 75.6146 337.84 73.25C337.829 71.3125 338.345 69.6198 339.387 68.1719C340.439 66.724 341.882 65.5937 343.715 64.7812C345.548 63.9687 347.632 63.5625 349.965 63.5625C352.34 63.5625 354.413 63.9687 356.184 64.7812C357.965 65.5937 359.35 66.724 360.34 68.1719C361.329 69.6198 361.84 71.2969 361.871 73.2031H355.387ZM377.578 96.4688C375.12 96.4688 373.005 95.9479 371.234 94.9062C369.474 93.8542 368.12 92.3958 367.172 90.5312C366.234 88.6667 365.766 86.5208 365.766 84.0937C365.766 81.6354 366.24 79.4792 367.188 77.625C368.146 75.7604 369.505 74.3073 371.266 73.2656C373.026 72.2135 375.12 71.6875 377.547 71.6875C379.641 71.6875 381.474 72.0677 383.047 72.8281C384.62 73.5885 385.865 74.6562 386.781 76.0312C387.698 77.4062 388.203 79.0208 388.297 80.875H382.016C381.839 79.6771 381.37 78.7135 380.609 77.9844C379.859 77.2448 378.875 76.875 377.656 76.875C376.625 76.875 375.724 77.1562 374.953 77.7187C374.193 78.2708 373.599 79.0781 373.172 80.1406C372.745 81.2031 372.531 82.4896 372.531 84C372.531 85.5312 372.74 86.8333 373.156 87.9062C373.583 88.9792 374.182 89.7969 374.953 90.3594C375.724 90.9219 376.625 91.2031 377.656 91.2031C378.417 91.2031 379.099 91.0469 379.703 90.7344C380.318 90.4219 380.823 89.9687 381.219 89.375C381.625 88.7708 381.891 88.0469 382.016 87.2031H388.297C388.193 89.0365 387.693 90.651 386.797 92.0469C385.911 93.4323 384.688 94.5156 383.125 95.2969C381.563 96.0781 379.714 96.4688 377.578 96.4688ZM392.559 96V72H399.012V76.1875H399.262C399.699 74.6979 400.434 73.5729 401.465 72.8125C402.496 72.0417 403.684 71.6562 405.027 71.6562C405.361 71.6562 405.72 71.6771 406.105 71.7187C406.491 71.7604 406.829 71.8177 407.121 71.8906V77.7969C406.809 77.7031 406.376 77.6198 405.824 77.5469C405.272 77.474 404.767 77.4375 404.309 77.4375C403.329 77.4375 402.454 77.651 401.684 78.0781C400.923 78.4948 400.319 79.0781 399.871 79.8281C399.434 80.5781 399.215 81.4427 399.215 82.4219V96H392.559ZM420.383 96.4688C417.914 96.4688 415.789 95.9688 414.008 94.9688C412.237 93.9583 410.872 92.5312 409.914 90.6875C408.956 88.8333 408.477 86.6406 408.477 84.1094C408.477 81.6406 408.956 79.474 409.914 77.6094C410.872 75.7448 412.221 74.2917 413.961 73.25C415.711 72.2083 417.763 71.6875 420.117 71.6875C421.701 71.6875 423.174 71.9427 424.539 72.4531C425.914 72.9531 427.112 73.7083 428.133 74.7187C429.164 75.7292 429.966 77 430.539 78.5312C431.112 80.0521 431.398 81.8333 431.398 83.875V85.7031H411.133V81.5781H425.133C425.133 80.6198 424.924 79.7708 424.508 79.0313C424.091 78.2917 423.513 77.7135 422.773 77.2969C422.044 76.8698 421.195 76.6562 420.227 76.6562C419.216 76.6562 418.32 76.8906 417.539 77.3594C416.768 77.8177 416.164 78.4375 415.727 79.2187C415.289 79.9896 415.065 80.849 415.055 81.7969V85.7187C415.055 86.9062 415.273 87.9323 415.711 88.7969C416.159 89.6615 416.789 90.3281 417.602 90.7969C418.414 91.2656 419.378 91.5 420.492 91.5C421.232 91.5 421.909 91.3958 422.523 91.1875C423.138 90.9792 423.664 90.6667 424.102 90.25C424.539 89.8333 424.872 89.3229 425.102 88.7188L431.258 89.125C430.945 90.6042 430.305 91.8958 429.336 93C428.378 94.0937 427.138 94.9479 425.617 95.5625C424.107 96.1667 422.362 96.4688 420.383 96.4688ZM446.68 96.4688C444.211 96.4688 442.086 95.9688 440.305 94.9688C438.534 93.9583 437.169 92.5312 436.211 90.6875C435.253 88.8333 434.773 86.6406 434.773 84.1094C434.773 81.6406 435.253 79.474 436.211 77.6094C437.169 75.7448 438.518 74.2917 440.258 73.25C442.008 72.2083 444.06 71.6875 446.414 71.6875C447.997 71.6875 449.471 71.9427 450.836 72.4531C452.211 72.9531 453.409 73.7083 454.43 74.7187C455.461 75.7292 456.263 77 456.836 78.5312C457.409 80.0521 457.695 81.8333 457.695 83.875V85.7031H437.43V81.5781H451.43C451.43 80.6198 451.221 79.7708 450.805 79.0313C450.388 78.2917 449.81 77.7135 449.07 77.2969C448.341 76.8698 447.492 76.6562 446.523 76.6562C445.513 76.6562 444.617 76.8906 443.836 77.3594C443.065 77.8177 442.461 78.4375 442.023 79.2187C441.586 79.9896 441.362 80.849 441.352 81.7969V85.7187C441.352 86.9062 441.57 87.9323 442.008 88.7969C442.456 89.6615 443.086 90.3281 443.898 90.7969C444.711 91.2656 445.674 91.5 446.789 91.5C447.529 91.5 448.206 91.3958 448.82 91.1875C449.435 90.9792 449.961 90.6667 450.398 90.25C450.836 89.8333 451.169 89.3229 451.398 88.7188L457.555 89.125C457.242 90.6042 456.602 91.8958 455.633 93C454.674 94.0937 453.435 94.9479 451.914 95.5625C450.404 96.1667 448.659 96.4688 446.68 96.4688ZM468.695 82.125V96H462.039V72H468.383V76.2344H468.664C469.195 74.8385 470.086 73.7344 471.336 72.9219C472.586 72.099 474.102 71.6875 475.883 71.6875C477.549 71.6875 479.003 72.0521 480.242 72.7812C481.482 73.5104 482.445 74.5521 483.133 75.9062C483.82 77.25 484.164 78.8542 484.164 80.7187V96H477.508V81.9062C477.518 80.4375 477.143 79.2917 476.383 78.4688C475.622 77.6354 474.576 77.2187 473.242 77.2187C472.346 77.2187 471.555 77.4115 470.867 77.7969C470.19 78.1823 469.659 78.7448 469.273 79.4844C468.898 80.2135 468.706 81.0938 468.695 82.125Z" fill="black"/>
<path d="M932.264 73.2031C932.139 71.9427 931.602 70.9635 930.654 70.2656C929.706 69.5677 928.42 69.2187 926.795 69.2187C925.691 69.2187 924.758 69.375 923.998 69.6875C923.238 69.9896 922.654 70.4115 922.248 70.9531C921.852 71.4948 921.654 72.1094 921.654 72.7969C921.633 73.3698 921.753 73.8698 922.014 74.2969C922.285 74.724 922.654 75.0937 923.123 75.4062C923.592 75.7083 924.133 75.974 924.748 76.2031C925.363 76.4219 926.019 76.6094 926.717 76.7656L929.592 77.4531C930.988 77.7656 932.269 78.1823 933.436 78.7031C934.602 79.224 935.613 79.8646 936.467 80.625C937.321 81.3854 937.982 82.2812 938.451 83.3125C938.93 84.3437 939.175 85.526 939.186 86.8594C939.175 88.8177 938.675 90.5156 937.686 91.9531C936.706 93.3802 935.29 94.4896 933.436 95.2812C931.592 96.0625 929.368 96.4531 926.764 96.4531C924.18 96.4531 921.93 96.0573 920.014 95.2656C918.107 94.474 916.618 93.3021 915.545 91.75C914.482 90.1875 913.925 88.2552 913.873 85.9531H920.42C920.493 87.026 920.8 87.9219 921.342 88.6406C921.894 89.349 922.628 89.8854 923.545 90.25C924.472 90.6042 925.519 90.7812 926.686 90.7812C927.831 90.7812 928.826 90.6146 929.67 90.2812C930.524 89.9479 931.186 89.4844 931.654 88.8906C932.123 88.2969 932.357 87.6146 932.357 86.8437C932.357 86.125 932.144 85.5208 931.717 85.0312C931.3 84.5417 930.686 84.125 929.873 83.7812C929.071 83.4375 928.087 83.125 926.92 82.8437L923.436 81.9687C920.738 81.3125 918.607 80.2865 917.045 78.8906C915.482 77.4948 914.706 75.6146 914.717 73.25C914.706 71.3125 915.222 69.6198 916.264 68.1719C917.316 66.724 918.758 65.5937 920.592 64.7812C922.425 63.9687 924.508 63.5625 926.842 63.5625C929.217 63.5625 931.29 63.9687 933.061 64.7812C934.842 65.5937 936.227 66.724 937.217 68.1719C938.206 69.6198 938.717 71.2969 938.748 73.2031H932.264ZM954.549 96.4688C952.08 96.4688 949.955 95.9688 948.174 94.9688C946.403 93.9583 945.038 92.5312 944.08 90.6875C943.122 88.8333 942.643 86.6406 942.643 84.1094C942.643 81.6406 943.122 79.474 944.08 77.6094C945.038 75.7448 946.387 74.2917 948.127 73.25C949.877 72.2083 951.929 71.6875 954.283 71.6875C955.867 71.6875 957.34 71.9427 958.705 72.4531C960.08 72.9531 961.278 73.7083 962.299 74.7187C963.33 75.7292 964.132 77 964.705 78.5312C965.278 80.0521 965.564 81.8333 965.564 83.875V85.7031H945.299V81.5781H959.299C959.299 80.6198 959.09 79.7708 958.674 79.0313C958.257 78.2917 957.679 77.7135 956.939 77.2969C956.21 76.8698 955.361 76.6562 954.393 76.6562C953.382 76.6562 952.486 76.8906 951.705 77.3594C950.934 77.8177 950.33 78.4375 949.893 79.2187C949.455 79.9896 949.231 80.849 949.221 81.7969V85.7187C949.221 86.9062 949.439 87.9323 949.877 88.7969C950.325 89.6615 950.955 90.3281 951.768 90.7969C952.58 91.2656 953.544 91.5 954.658 91.5C955.398 91.5 956.075 91.3958 956.689 91.1875C957.304 90.9792 957.83 90.6667 958.268 90.25C958.705 89.8333 959.038 89.3229 959.268 88.7188L965.424 89.125C965.111 90.6042 964.471 91.8958 963.502 93C962.544 94.0937 961.304 94.9479 959.783 95.5625C958.273 96.1667 956.528 96.4688 954.549 96.4688ZM969.908 96V72H976.361V76.1875H976.611C977.049 74.6979 977.783 73.5729 978.814 72.8125C979.846 72.0417 981.033 71.6562 982.377 71.6562C982.71 71.6562 983.07 71.6771 983.455 71.7187C983.84 71.7604 984.179 71.8177 984.471 71.8906V77.7969C984.158 77.7031 983.726 77.6198 983.174 77.5469C982.622 77.474 982.117 77.4375 981.658 77.4375C980.679 77.4375 979.804 77.651 979.033 78.0781C978.273 78.4948 977.669 79.0781 977.221 79.8281C976.783 80.5781 976.564 81.4427 976.564 82.4219V96H969.908ZM1011.02 72L1002.63 96H995.127L986.736 72H993.768L998.752 89.1719H999.002L1003.97 72H1011.02ZM1014.42 96V72H1021.08V96H1014.42ZM1017.77 68.9062C1016.78 68.9062 1015.93 68.5781 1015.22 67.9219C1014.52 67.2552 1014.17 66.4583 1014.17 65.5312C1014.17 64.6146 1014.52 63.8281 1015.22 63.1719C1015.93 62.5052 1016.78 62.1719 1017.77 62.1719C1018.76 62.1719 1019.6 62.5052 1020.3 63.1719C1021.01 63.8281 1021.36 64.6146 1021.36 65.5312C1021.36 66.4583 1021.01 67.2552 1020.3 67.9219C1019.6 68.5781 1018.76 68.9062 1017.77 68.9062ZM1037.26 96.4688C1034.8 96.4688 1032.68 95.9479 1030.91 94.9062C1029.15 93.8542 1027.8 92.3958 1026.85 90.5312C1025.91 88.6667 1025.44 86.5208 1025.44 84.0937C1025.44 81.6354 1025.92 79.4792 1026.87 77.625C1027.82 75.7604 1029.18 74.3073 1030.94 73.2656C1032.7 72.2135 1034.8 71.6875 1037.22 71.6875C1039.32 71.6875 1041.15 72.0677 1042.72 72.8281C1044.3 73.5885 1045.54 74.6562 1046.46 76.0312C1047.38 77.4062 1047.88 79.0208 1047.97 80.875H1041.69C1041.52 79.6771 1041.05 78.7135 1040.29 77.9844C1039.54 77.2448 1038.55 76.875 1037.33 76.875C1036.3 76.875 1035.4 77.1562 1034.63 77.7187C1033.87 78.2708 1033.28 79.0781 1032.85 80.1406C1032.42 81.2031 1032.21 82.4896 1032.21 84C1032.21 85.5312 1032.42 86.8333 1032.83 87.9062C1033.26 88.9792 1033.86 89.7969 1034.63 90.3594C1035.4 90.9219 1036.3 91.2031 1037.33 91.2031C1038.09 91.2031 1038.78 91.0469 1039.38 90.7344C1040 90.4219 1040.5 89.9687 1040.9 89.375C1041.3 88.7708 1041.57 88.0469 1041.69 87.2031H1047.97C1047.87 89.0365 1047.37 90.651 1046.47 92.0469C1045.59 93.4323 1044.37 94.5156 1042.8 95.2969C1041.24 96.0781 1039.39 96.4688 1037.26 96.4688ZM1063.17 96.4688C1060.71 96.4688 1058.58 95.9688 1056.8 94.9688C1055.03 93.9583 1053.66 92.5312 1052.71 90.6875C1051.75 88.8333 1051.27 86.6406 1051.27 84.1094C1051.27 81.6406 1051.75 79.474 1052.71 77.6094C1053.66 75.7448 1055.01 74.2917 1056.75 73.25C1058.5 72.2083 1060.55 71.6875 1062.91 71.6875C1064.49 71.6875 1065.97 71.9427 1067.33 72.4531C1068.71 72.9531 1069.9 73.7083 1070.92 74.7187C1071.96 75.7292 1072.76 77 1073.33 78.5312C1073.9 80.0521 1074.19 81.8333 1074.19 83.875V85.7031H1053.92V81.5781H1067.92C1067.92 80.6198 1067.72 79.7708 1067.3 79.0313C1066.88 78.2917 1066.3 77.7135 1065.56 77.2969C1064.84 76.8698 1063.99 76.6562 1063.02 76.6562C1062.01 76.6562 1061.11 76.8906 1060.33 77.3594C1059.56 77.8177 1058.96 78.4375 1058.52 79.2187C1058.08 79.9896 1057.86 80.849 1057.85 81.7969V85.7187C1057.85 86.9062 1058.06 87.9323 1058.5 88.7969C1058.95 89.6615 1059.58 90.3281 1060.39 90.7969C1061.21 91.2656 1062.17 91.5 1063.28 91.5C1064.02 91.5 1064.7 91.3958 1065.31 91.1875C1065.93 90.9792 1066.46 90.6667 1066.89 90.25C1067.33 89.8333 1067.66 89.3229 1067.89 88.7188L1074.05 89.125C1073.74 90.6042 1073.1 91.8958 1072.13 93C1071.17 94.0937 1069.93 94.9479 1068.41 95.5625C1066.9 96.1667 1065.15 96.4688 1063.17 96.4688Z" fill="black"/>
<path d="M1311.52 96L1302.37 64H1309.76L1315.05 86.2344H1315.32L1321.16 64H1327.49L1333.32 86.2812H1333.6L1338.9 64H1346.29L1337.13 96H1330.54L1324.45 75.0781H1324.2L1318.12 96H1311.52ZM1358.05 96.4688C1355.62 96.4688 1353.52 95.9531 1351.75 94.9219C1349.99 93.8802 1348.63 92.4323 1347.68 90.5781C1346.72 88.7135 1346.24 86.5521 1346.24 84.0937C1346.24 81.6146 1346.72 79.4479 1347.68 77.5937C1348.63 75.7292 1349.99 74.2812 1351.75 73.25C1353.52 72.2083 1355.62 71.6875 1358.05 71.6875C1360.48 71.6875 1362.57 72.2083 1364.33 73.25C1366.1 74.2812 1367.47 75.7292 1368.43 77.5937C1369.38 79.4479 1369.86 81.6146 1369.86 84.0937C1369.86 86.5521 1369.38 88.7135 1368.43 90.5781C1367.47 92.4323 1366.1 93.8802 1364.33 94.9219C1362.57 95.9531 1360.48 96.4688 1358.05 96.4688ZM1358.08 91.3125C1359.19 91.3125 1360.11 91 1360.85 90.375C1361.59 89.7396 1362.14 88.875 1362.52 87.7812C1362.9 86.6875 1363.1 85.4427 1363.1 84.0469C1363.1 82.651 1362.9 81.4063 1362.52 80.3125C1362.14 79.2187 1361.59 78.3542 1360.85 77.7187C1360.11 77.0833 1359.19 76.7656 1358.08 76.7656C1356.97 76.7656 1356.03 77.0833 1355.27 77.7187C1354.52 78.3542 1353.95 79.2187 1353.57 80.3125C1353.19 81.4063 1353 82.651 1353 84.0469C1353 85.4427 1353.19 86.6875 1353.57 87.7812C1353.95 88.875 1354.52 89.7396 1355.27 90.375C1356.03 91 1356.97 91.3125 1358.08 91.3125ZM1374.19 96V72H1380.64V76.1875H1380.89C1381.33 74.6979 1382.07 73.5729 1383.1 72.8125C1384.13 72.0417 1385.32 71.6562 1386.66 71.6562C1386.99 71.6562 1387.35 71.6771 1387.74 71.7187C1388.12 71.7604 1388.46 71.8177 1388.75 71.8906V77.7969C1388.44 77.7031 1388.01 77.6198 1387.46 77.5469C1386.9 77.474 1386.4 77.4375 1385.94 77.4375C1384.96 77.4375 1384.09 77.651 1383.32 78.0781C1382.56 78.4948 1381.95 79.0781 1381.5 79.8281C1381.07 80.5781 1380.85 81.4427 1380.85 82.4219V96H1374.19ZM1398.23 89.0937L1398.24 81.1094H1399.21L1406.9 72H1414.54L1404.21 84.0625H1402.63L1398.23 89.0937ZM1392.2 96V64H1398.85V96H1392.2ZM1407.2 96L1400.13 85.5469L1404.57 80.8437L1414.99 96H1407.2ZM1427.75 96.4688C1425.29 96.4688 1423.16 95.9688 1421.38 94.9688C1419.61 93.9583 1418.24 92.5312 1417.29 90.6875C1416.33 88.8333 1415.85 86.6406 1415.85 84.1094C1415.85 81.6406 1416.33 79.474 1417.29 77.6094C1418.24 75.7448 1419.59 74.2917 1421.33 73.25C1423.08 72.2083 1425.13 71.6875 1427.49 71.6875C1429.07 71.6875 1430.55 71.9427 1431.91 72.4531C1433.29 72.9531 1434.48 73.7083 1435.5 74.7187C1436.54 75.7292 1437.34 77 1437.91 78.5312C1438.48 80.0521 1438.77 81.8333 1438.77 83.875V85.7031H1418.5V81.5781H1432.5C1432.5 80.6198 1432.3 79.7708 1431.88 79.0313C1431.46 78.2917 1430.88 77.7135 1430.14 77.2969C1429.42 76.8698 1428.57 76.6562 1427.6 76.6562C1426.59 76.6562 1425.69 76.8906 1424.91 77.3594C1424.14 77.8177 1423.54 78.4375 1423.1 79.2187C1422.66 79.9896 1422.44 80.849 1422.43 81.7969V85.7187C1422.43 86.9062 1422.64 87.9323 1423.08 88.7969C1423.53 89.6615 1424.16 90.3281 1424.97 90.7969C1425.79 91.2656 1426.75 91.5 1427.86 91.5C1428.6 91.5 1429.28 91.3958 1429.89 91.1875C1430.51 90.9792 1431.04 90.6667 1431.47 90.25C1431.91 89.8333 1432.24 89.3229 1432.47 88.7188L1438.63 89.125C1438.32 90.6042 1437.68 91.8958 1436.71 93C1435.75 94.0937 1434.51 94.9479 1432.99 95.5625C1431.48 96.1667 1429.73 96.4688 1427.75 96.4688ZM1443.11 96V72H1449.57V76.1875H1449.82C1450.25 74.6979 1450.99 73.5729 1452.02 72.8125C1453.05 72.0417 1454.24 71.6562 1455.58 71.6562C1455.92 71.6562 1456.27 71.6771 1456.66 71.7187C1457.05 71.7604 1457.38 71.8177 1457.68 71.8906V77.7969C1457.36 77.7031 1456.93 77.6198 1456.38 77.5469C1455.83 77.474 1455.32 77.4375 1454.86 77.4375C1453.88 77.4375 1453.01 77.651 1452.24 78.0781C1451.48 78.4948 1450.87 79.0781 1450.43 79.8281C1449.99 80.5781 1449.77 81.4427 1449.77 82.4219V96H1443.11Z" fill="black"/>
</svg>
